G04 #@! TF.GenerationSoftware,KiCad,Pcbnew,(5.1.4-0-10_14)*
G04 #@! TF.CreationDate,2020-01-18T12:34:28-08:00*
G04 #@! TF.ProjectId,Board,426f6172-642e-46b6-9963-61645f706362,v1.0*
G04 #@! TF.SameCoordinates,Original*
G04 #@! TF.FileFunction,Profile,NP*
%FSLAX46Y46*%
G04 Gerber Fmt 4.6, Leading zero omitted, Abs format (unit mm)*
G04 Created by KiCad (PCBNEW (5.1.4-0-10_14)) date 2020-01-18 12:34:28*
%MOMM*%
%LPD*%
G04 APERTURE LIST*
%ADD10C,0.025400*%
%ADD11C,0.050000*%
G04 APERTURE END LIST*
D10*
X114274600Y-114300000D02*
X120650000Y-114300000D01*
X34950400Y-114300000D02*
X25400000Y-114300000D01*
X39395400Y-109855000D02*
X109829600Y-109855000D01*
X39395400Y-109855000D02*
X34950400Y-114300000D01*
X109829600Y-109855000D02*
X114274600Y-114300000D01*
X120650000Y-114300000D02*
X120650000Y-101955600D01*
X120650000Y-37744400D02*
X120650000Y-25400000D01*
X115824000Y-97129600D02*
X120650000Y-101955600D01*
X115824000Y-42570400D02*
X115824000Y-97129600D01*
X115824000Y-42570400D02*
X120650000Y-37744400D01*
X25400000Y-105029000D02*
X25400000Y-114300000D01*
X114325400Y-25400000D02*
X120650000Y-25400000D01*
X34925000Y-25400000D02*
X25400000Y-25400000D01*
X109855000Y-29870400D02*
X39370000Y-29845000D01*
X114300000Y-25425400D02*
X114325400Y-25400000D01*
X109855000Y-29870400D02*
X114300000Y-25425400D01*
X25400000Y-25400000D02*
X25400000Y-34671000D01*
X30099000Y-39370000D02*
X30099000Y-100330000D01*
X30099000Y-100330000D02*
X25400000Y-105029000D01*
X30099000Y-39370000D02*
X25400000Y-34671000D01*
X39370000Y-29845000D02*
X34925000Y-25400000D01*
D11*
X117348000Y-33655000D02*
G75*
G03X117348000Y-33655000I-1524000J0D01*
G01*
X31623000Y-109855000D02*
G75*
G03X31623000Y-109855000I-1524000J0D01*
G01*
X117348000Y-107315000D02*
G75*
G03X117348000Y-107315000I-1524000J0D01*
G01*
X31623000Y-29845000D02*
G75*
G03X31623000Y-29845000I-1524000J0D01*
G01*
M02*
