G04 #@! TF.GenerationSoftware,KiCad,Pcbnew,(5.1.4-0-10_14)*
G04 #@! TF.CreationDate,2020-01-18T12:34:28-08:00*
G04 #@! TF.ProjectId,Board,426f6172-642e-46b6-9963-61645f706362,v1.0*
G04 #@! TF.SameCoordinates,Original*
G04 #@! TF.FileFunction,Copper,L1,Top*
G04 #@! TF.FilePolarity,Positive*
%FSLAX46Y46*%
G04 Gerber Fmt 4.6, Leading zero omitted, Abs format (unit mm)*
G04 Created by KiCad (PCBNEW (5.1.4-0-10_14)) date 2020-01-18 12:34:28*
%MOMM*%
%LPD*%
G04 APERTURE LIST*
%ADD10C,0.100000*%
%ADD11C,1.425000*%
%ADD12R,3.200000X1.800000*%
%ADD13C,1.150000*%
%ADD14R,2.000000X2.000000*%
%ADD15C,2.000000*%
%ADD16R,1.600000X1.600000*%
%ADD17C,1.600000*%
%ADD18C,1.525000*%
%ADD19R,1.490000X0.280000*%
%ADD20R,0.280000X1.490000*%
%ADD21R,1.700000X1.700000*%
%ADD22O,1.700000X1.700000*%
%ADD23R,2.400000X2.400000*%
%ADD24C,2.400000*%
%ADD25C,0.457200*%
%ADD26C,0.254000*%
%ADD27C,1.270000*%
%ADD28C,0.127000*%
%ADD29C,0.635000*%
G04 APERTURE END LIST*
D10*
G36*
X69356504Y-52120704D02*
G01*
X69380773Y-52124304D01*
X69404571Y-52130265D01*
X69427671Y-52138530D01*
X69449849Y-52149020D01*
X69470893Y-52161633D01*
X69490598Y-52176247D01*
X69508777Y-52192723D01*
X69525253Y-52210902D01*
X69539867Y-52230607D01*
X69552480Y-52251651D01*
X69562970Y-52273829D01*
X69571235Y-52296929D01*
X69577196Y-52320727D01*
X69580796Y-52344996D01*
X69582000Y-52369500D01*
X69582000Y-53294500D01*
X69580796Y-53319004D01*
X69577196Y-53343273D01*
X69571235Y-53367071D01*
X69562970Y-53390171D01*
X69552480Y-53412349D01*
X69539867Y-53433393D01*
X69525253Y-53453098D01*
X69508777Y-53471277D01*
X69490598Y-53487753D01*
X69470893Y-53502367D01*
X69449849Y-53514980D01*
X69427671Y-53525470D01*
X69404571Y-53533735D01*
X69380773Y-53539696D01*
X69356504Y-53543296D01*
X69332000Y-53544500D01*
X68082000Y-53544500D01*
X68057496Y-53543296D01*
X68033227Y-53539696D01*
X68009429Y-53533735D01*
X67986329Y-53525470D01*
X67964151Y-53514980D01*
X67943107Y-53502367D01*
X67923402Y-53487753D01*
X67905223Y-53471277D01*
X67888747Y-53453098D01*
X67874133Y-53433393D01*
X67861520Y-53412349D01*
X67851030Y-53390171D01*
X67842765Y-53367071D01*
X67836804Y-53343273D01*
X67833204Y-53319004D01*
X67832000Y-53294500D01*
X67832000Y-52369500D01*
X67833204Y-52344996D01*
X67836804Y-52320727D01*
X67842765Y-52296929D01*
X67851030Y-52273829D01*
X67861520Y-52251651D01*
X67874133Y-52230607D01*
X67888747Y-52210902D01*
X67905223Y-52192723D01*
X67923402Y-52176247D01*
X67943107Y-52161633D01*
X67964151Y-52149020D01*
X67986329Y-52138530D01*
X68009429Y-52130265D01*
X68033227Y-52124304D01*
X68057496Y-52120704D01*
X68082000Y-52119500D01*
X69332000Y-52119500D01*
X69356504Y-52120704D01*
X69356504Y-52120704D01*
G37*
D11*
X68707000Y-52832000D03*
D10*
G36*
X69356504Y-49145704D02*
G01*
X69380773Y-49149304D01*
X69404571Y-49155265D01*
X69427671Y-49163530D01*
X69449849Y-49174020D01*
X69470893Y-49186633D01*
X69490598Y-49201247D01*
X69508777Y-49217723D01*
X69525253Y-49235902D01*
X69539867Y-49255607D01*
X69552480Y-49276651D01*
X69562970Y-49298829D01*
X69571235Y-49321929D01*
X69577196Y-49345727D01*
X69580796Y-49369996D01*
X69582000Y-49394500D01*
X69582000Y-50319500D01*
X69580796Y-50344004D01*
X69577196Y-50368273D01*
X69571235Y-50392071D01*
X69562970Y-50415171D01*
X69552480Y-50437349D01*
X69539867Y-50458393D01*
X69525253Y-50478098D01*
X69508777Y-50496277D01*
X69490598Y-50512753D01*
X69470893Y-50527367D01*
X69449849Y-50539980D01*
X69427671Y-50550470D01*
X69404571Y-50558735D01*
X69380773Y-50564696D01*
X69356504Y-50568296D01*
X69332000Y-50569500D01*
X68082000Y-50569500D01*
X68057496Y-50568296D01*
X68033227Y-50564696D01*
X68009429Y-50558735D01*
X67986329Y-50550470D01*
X67964151Y-50539980D01*
X67943107Y-50527367D01*
X67923402Y-50512753D01*
X67905223Y-50496277D01*
X67888747Y-50478098D01*
X67874133Y-50458393D01*
X67861520Y-50437349D01*
X67851030Y-50415171D01*
X67842765Y-50392071D01*
X67836804Y-50368273D01*
X67833204Y-50344004D01*
X67832000Y-50319500D01*
X67832000Y-49394500D01*
X67833204Y-49369996D01*
X67836804Y-49345727D01*
X67842765Y-49321929D01*
X67851030Y-49298829D01*
X67861520Y-49276651D01*
X67874133Y-49255607D01*
X67888747Y-49235902D01*
X67905223Y-49217723D01*
X67923402Y-49201247D01*
X67943107Y-49186633D01*
X67964151Y-49174020D01*
X67986329Y-49163530D01*
X68009429Y-49155265D01*
X68033227Y-49149304D01*
X68057496Y-49145704D01*
X68082000Y-49144500D01*
X69332000Y-49144500D01*
X69356504Y-49145704D01*
X69356504Y-49145704D01*
G37*
D11*
X68707000Y-49857000D03*
D12*
X89004000Y-86868000D03*
X82804000Y-86868000D03*
X82804000Y-78740000D03*
X89004000Y-78740000D03*
D10*
G36*
X82148004Y-72532204D02*
G01*
X82172273Y-72535804D01*
X82196071Y-72541765D01*
X82219171Y-72550030D01*
X82241349Y-72560520D01*
X82262393Y-72573133D01*
X82282098Y-72587747D01*
X82300277Y-72604223D01*
X82316753Y-72622402D01*
X82331367Y-72642107D01*
X82343980Y-72663151D01*
X82354470Y-72685329D01*
X82362735Y-72708429D01*
X82368696Y-72732227D01*
X82372296Y-72756496D01*
X82373500Y-72781000D01*
X82373500Y-74031000D01*
X82372296Y-74055504D01*
X82368696Y-74079773D01*
X82362735Y-74103571D01*
X82354470Y-74126671D01*
X82343980Y-74148849D01*
X82331367Y-74169893D01*
X82316753Y-74189598D01*
X82300277Y-74207777D01*
X82282098Y-74224253D01*
X82262393Y-74238867D01*
X82241349Y-74251480D01*
X82219171Y-74261970D01*
X82196071Y-74270235D01*
X82172273Y-74276196D01*
X82148004Y-74279796D01*
X82123500Y-74281000D01*
X81198500Y-74281000D01*
X81173996Y-74279796D01*
X81149727Y-74276196D01*
X81125929Y-74270235D01*
X81102829Y-74261970D01*
X81080651Y-74251480D01*
X81059607Y-74238867D01*
X81039902Y-74224253D01*
X81021723Y-74207777D01*
X81005247Y-74189598D01*
X80990633Y-74169893D01*
X80978020Y-74148849D01*
X80967530Y-74126671D01*
X80959265Y-74103571D01*
X80953304Y-74079773D01*
X80949704Y-74055504D01*
X80948500Y-74031000D01*
X80948500Y-72781000D01*
X80949704Y-72756496D01*
X80953304Y-72732227D01*
X80959265Y-72708429D01*
X80967530Y-72685329D01*
X80978020Y-72663151D01*
X80990633Y-72642107D01*
X81005247Y-72622402D01*
X81021723Y-72604223D01*
X81039902Y-72587747D01*
X81059607Y-72573133D01*
X81080651Y-72560520D01*
X81102829Y-72550030D01*
X81125929Y-72541765D01*
X81149727Y-72535804D01*
X81173996Y-72532204D01*
X81198500Y-72531000D01*
X82123500Y-72531000D01*
X82148004Y-72532204D01*
X82148004Y-72532204D01*
G37*
D11*
X81661000Y-73406000D03*
D10*
G36*
X85123004Y-72532204D02*
G01*
X85147273Y-72535804D01*
X85171071Y-72541765D01*
X85194171Y-72550030D01*
X85216349Y-72560520D01*
X85237393Y-72573133D01*
X85257098Y-72587747D01*
X85275277Y-72604223D01*
X85291753Y-72622402D01*
X85306367Y-72642107D01*
X85318980Y-72663151D01*
X85329470Y-72685329D01*
X85337735Y-72708429D01*
X85343696Y-72732227D01*
X85347296Y-72756496D01*
X85348500Y-72781000D01*
X85348500Y-74031000D01*
X85347296Y-74055504D01*
X85343696Y-74079773D01*
X85337735Y-74103571D01*
X85329470Y-74126671D01*
X85318980Y-74148849D01*
X85306367Y-74169893D01*
X85291753Y-74189598D01*
X85275277Y-74207777D01*
X85257098Y-74224253D01*
X85237393Y-74238867D01*
X85216349Y-74251480D01*
X85194171Y-74261970D01*
X85171071Y-74270235D01*
X85147273Y-74276196D01*
X85123004Y-74279796D01*
X85098500Y-74281000D01*
X84173500Y-74281000D01*
X84148996Y-74279796D01*
X84124727Y-74276196D01*
X84100929Y-74270235D01*
X84077829Y-74261970D01*
X84055651Y-74251480D01*
X84034607Y-74238867D01*
X84014902Y-74224253D01*
X83996723Y-74207777D01*
X83980247Y-74189598D01*
X83965633Y-74169893D01*
X83953020Y-74148849D01*
X83942530Y-74126671D01*
X83934265Y-74103571D01*
X83928304Y-74079773D01*
X83924704Y-74055504D01*
X83923500Y-74031000D01*
X83923500Y-72781000D01*
X83924704Y-72756496D01*
X83928304Y-72732227D01*
X83934265Y-72708429D01*
X83942530Y-72685329D01*
X83953020Y-72663151D01*
X83965633Y-72642107D01*
X83980247Y-72622402D01*
X83996723Y-72604223D01*
X84014902Y-72587747D01*
X84034607Y-72573133D01*
X84055651Y-72560520D01*
X84077829Y-72550030D01*
X84100929Y-72541765D01*
X84124727Y-72535804D01*
X84148996Y-72532204D01*
X84173500Y-72531000D01*
X85098500Y-72531000D01*
X85123004Y-72532204D01*
X85123004Y-72532204D01*
G37*
D11*
X84636000Y-73406000D03*
D10*
G36*
X85069004Y-69992204D02*
G01*
X85093273Y-69995804D01*
X85117071Y-70001765D01*
X85140171Y-70010030D01*
X85162349Y-70020520D01*
X85183393Y-70033133D01*
X85203098Y-70047747D01*
X85221277Y-70064223D01*
X85237753Y-70082402D01*
X85252367Y-70102107D01*
X85264980Y-70123151D01*
X85275470Y-70145329D01*
X85283735Y-70168429D01*
X85289696Y-70192227D01*
X85293296Y-70216496D01*
X85294500Y-70241000D01*
X85294500Y-71491000D01*
X85293296Y-71515504D01*
X85289696Y-71539773D01*
X85283735Y-71563571D01*
X85275470Y-71586671D01*
X85264980Y-71608849D01*
X85252367Y-71629893D01*
X85237753Y-71649598D01*
X85221277Y-71667777D01*
X85203098Y-71684253D01*
X85183393Y-71698867D01*
X85162349Y-71711480D01*
X85140171Y-71721970D01*
X85117071Y-71730235D01*
X85093273Y-71736196D01*
X85069004Y-71739796D01*
X85044500Y-71741000D01*
X84119500Y-71741000D01*
X84094996Y-71739796D01*
X84070727Y-71736196D01*
X84046929Y-71730235D01*
X84023829Y-71721970D01*
X84001651Y-71711480D01*
X83980607Y-71698867D01*
X83960902Y-71684253D01*
X83942723Y-71667777D01*
X83926247Y-71649598D01*
X83911633Y-71629893D01*
X83899020Y-71608849D01*
X83888530Y-71586671D01*
X83880265Y-71563571D01*
X83874304Y-71539773D01*
X83870704Y-71515504D01*
X83869500Y-71491000D01*
X83869500Y-70241000D01*
X83870704Y-70216496D01*
X83874304Y-70192227D01*
X83880265Y-70168429D01*
X83888530Y-70145329D01*
X83899020Y-70123151D01*
X83911633Y-70102107D01*
X83926247Y-70082402D01*
X83942723Y-70064223D01*
X83960902Y-70047747D01*
X83980607Y-70033133D01*
X84001651Y-70020520D01*
X84023829Y-70010030D01*
X84046929Y-70001765D01*
X84070727Y-69995804D01*
X84094996Y-69992204D01*
X84119500Y-69991000D01*
X85044500Y-69991000D01*
X85069004Y-69992204D01*
X85069004Y-69992204D01*
G37*
D11*
X84582000Y-70866000D03*
D10*
G36*
X82094004Y-69992204D02*
G01*
X82118273Y-69995804D01*
X82142071Y-70001765D01*
X82165171Y-70010030D01*
X82187349Y-70020520D01*
X82208393Y-70033133D01*
X82228098Y-70047747D01*
X82246277Y-70064223D01*
X82262753Y-70082402D01*
X82277367Y-70102107D01*
X82289980Y-70123151D01*
X82300470Y-70145329D01*
X82308735Y-70168429D01*
X82314696Y-70192227D01*
X82318296Y-70216496D01*
X82319500Y-70241000D01*
X82319500Y-71491000D01*
X82318296Y-71515504D01*
X82314696Y-71539773D01*
X82308735Y-71563571D01*
X82300470Y-71586671D01*
X82289980Y-71608849D01*
X82277367Y-71629893D01*
X82262753Y-71649598D01*
X82246277Y-71667777D01*
X82228098Y-71684253D01*
X82208393Y-71698867D01*
X82187349Y-71711480D01*
X82165171Y-71721970D01*
X82142071Y-71730235D01*
X82118273Y-71736196D01*
X82094004Y-71739796D01*
X82069500Y-71741000D01*
X81144500Y-71741000D01*
X81119996Y-71739796D01*
X81095727Y-71736196D01*
X81071929Y-71730235D01*
X81048829Y-71721970D01*
X81026651Y-71711480D01*
X81005607Y-71698867D01*
X80985902Y-71684253D01*
X80967723Y-71667777D01*
X80951247Y-71649598D01*
X80936633Y-71629893D01*
X80924020Y-71608849D01*
X80913530Y-71586671D01*
X80905265Y-71563571D01*
X80899304Y-71539773D01*
X80895704Y-71515504D01*
X80894500Y-71491000D01*
X80894500Y-70241000D01*
X80895704Y-70216496D01*
X80899304Y-70192227D01*
X80905265Y-70168429D01*
X80913530Y-70145329D01*
X80924020Y-70123151D01*
X80936633Y-70102107D01*
X80951247Y-70082402D01*
X80967723Y-70064223D01*
X80985902Y-70047747D01*
X81005607Y-70033133D01*
X81026651Y-70020520D01*
X81048829Y-70010030D01*
X81071929Y-70001765D01*
X81095727Y-69995804D01*
X81119996Y-69992204D01*
X81144500Y-69991000D01*
X82069500Y-69991000D01*
X82094004Y-69992204D01*
X82094004Y-69992204D01*
G37*
D11*
X81607000Y-70866000D03*
D10*
G36*
X82148004Y-67579204D02*
G01*
X82172273Y-67582804D01*
X82196071Y-67588765D01*
X82219171Y-67597030D01*
X82241349Y-67607520D01*
X82262393Y-67620133D01*
X82282098Y-67634747D01*
X82300277Y-67651223D01*
X82316753Y-67669402D01*
X82331367Y-67689107D01*
X82343980Y-67710151D01*
X82354470Y-67732329D01*
X82362735Y-67755429D01*
X82368696Y-67779227D01*
X82372296Y-67803496D01*
X82373500Y-67828000D01*
X82373500Y-69078000D01*
X82372296Y-69102504D01*
X82368696Y-69126773D01*
X82362735Y-69150571D01*
X82354470Y-69173671D01*
X82343980Y-69195849D01*
X82331367Y-69216893D01*
X82316753Y-69236598D01*
X82300277Y-69254777D01*
X82282098Y-69271253D01*
X82262393Y-69285867D01*
X82241349Y-69298480D01*
X82219171Y-69308970D01*
X82196071Y-69317235D01*
X82172273Y-69323196D01*
X82148004Y-69326796D01*
X82123500Y-69328000D01*
X81198500Y-69328000D01*
X81173996Y-69326796D01*
X81149727Y-69323196D01*
X81125929Y-69317235D01*
X81102829Y-69308970D01*
X81080651Y-69298480D01*
X81059607Y-69285867D01*
X81039902Y-69271253D01*
X81021723Y-69254777D01*
X81005247Y-69236598D01*
X80990633Y-69216893D01*
X80978020Y-69195849D01*
X80967530Y-69173671D01*
X80959265Y-69150571D01*
X80953304Y-69126773D01*
X80949704Y-69102504D01*
X80948500Y-69078000D01*
X80948500Y-67828000D01*
X80949704Y-67803496D01*
X80953304Y-67779227D01*
X80959265Y-67755429D01*
X80967530Y-67732329D01*
X80978020Y-67710151D01*
X80990633Y-67689107D01*
X81005247Y-67669402D01*
X81021723Y-67651223D01*
X81039902Y-67634747D01*
X81059607Y-67620133D01*
X81080651Y-67607520D01*
X81102829Y-67597030D01*
X81125929Y-67588765D01*
X81149727Y-67582804D01*
X81173996Y-67579204D01*
X81198500Y-67578000D01*
X82123500Y-67578000D01*
X82148004Y-67579204D01*
X82148004Y-67579204D01*
G37*
D11*
X81661000Y-68453000D03*
D10*
G36*
X85123004Y-67579204D02*
G01*
X85147273Y-67582804D01*
X85171071Y-67588765D01*
X85194171Y-67597030D01*
X85216349Y-67607520D01*
X85237393Y-67620133D01*
X85257098Y-67634747D01*
X85275277Y-67651223D01*
X85291753Y-67669402D01*
X85306367Y-67689107D01*
X85318980Y-67710151D01*
X85329470Y-67732329D01*
X85337735Y-67755429D01*
X85343696Y-67779227D01*
X85347296Y-67803496D01*
X85348500Y-67828000D01*
X85348500Y-69078000D01*
X85347296Y-69102504D01*
X85343696Y-69126773D01*
X85337735Y-69150571D01*
X85329470Y-69173671D01*
X85318980Y-69195849D01*
X85306367Y-69216893D01*
X85291753Y-69236598D01*
X85275277Y-69254777D01*
X85257098Y-69271253D01*
X85237393Y-69285867D01*
X85216349Y-69298480D01*
X85194171Y-69308970D01*
X85171071Y-69317235D01*
X85147273Y-69323196D01*
X85123004Y-69326796D01*
X85098500Y-69328000D01*
X84173500Y-69328000D01*
X84148996Y-69326796D01*
X84124727Y-69323196D01*
X84100929Y-69317235D01*
X84077829Y-69308970D01*
X84055651Y-69298480D01*
X84034607Y-69285867D01*
X84014902Y-69271253D01*
X83996723Y-69254777D01*
X83980247Y-69236598D01*
X83965633Y-69216893D01*
X83953020Y-69195849D01*
X83942530Y-69173671D01*
X83934265Y-69150571D01*
X83928304Y-69126773D01*
X83924704Y-69102504D01*
X83923500Y-69078000D01*
X83923500Y-67828000D01*
X83924704Y-67803496D01*
X83928304Y-67779227D01*
X83934265Y-67755429D01*
X83942530Y-67732329D01*
X83953020Y-67710151D01*
X83965633Y-67689107D01*
X83980247Y-67669402D01*
X83996723Y-67651223D01*
X84014902Y-67634747D01*
X84034607Y-67620133D01*
X84055651Y-67607520D01*
X84077829Y-67597030D01*
X84100929Y-67588765D01*
X84124727Y-67582804D01*
X84148996Y-67579204D01*
X84173500Y-67578000D01*
X85098500Y-67578000D01*
X85123004Y-67579204D01*
X85123004Y-67579204D01*
G37*
D11*
X84636000Y-68453000D03*
D10*
G36*
X83933505Y-65468204D02*
G01*
X83957773Y-65471804D01*
X83981572Y-65477765D01*
X84004671Y-65486030D01*
X84026850Y-65496520D01*
X84047893Y-65509132D01*
X84067599Y-65523747D01*
X84085777Y-65540223D01*
X84102253Y-65558401D01*
X84116868Y-65578107D01*
X84129480Y-65599150D01*
X84139970Y-65621329D01*
X84148235Y-65644428D01*
X84154196Y-65668227D01*
X84157796Y-65692495D01*
X84159000Y-65716999D01*
X84159000Y-66617001D01*
X84157796Y-66641505D01*
X84154196Y-66665773D01*
X84148235Y-66689572D01*
X84139970Y-66712671D01*
X84129480Y-66734850D01*
X84116868Y-66755893D01*
X84102253Y-66775599D01*
X84085777Y-66793777D01*
X84067599Y-66810253D01*
X84047893Y-66824868D01*
X84026850Y-66837480D01*
X84004671Y-66847970D01*
X83981572Y-66856235D01*
X83957773Y-66862196D01*
X83933505Y-66865796D01*
X83909001Y-66867000D01*
X83258999Y-66867000D01*
X83234495Y-66865796D01*
X83210227Y-66862196D01*
X83186428Y-66856235D01*
X83163329Y-66847970D01*
X83141150Y-66837480D01*
X83120107Y-66824868D01*
X83100401Y-66810253D01*
X83082223Y-66793777D01*
X83065747Y-66775599D01*
X83051132Y-66755893D01*
X83038520Y-66734850D01*
X83028030Y-66712671D01*
X83019765Y-66689572D01*
X83013804Y-66665773D01*
X83010204Y-66641505D01*
X83009000Y-66617001D01*
X83009000Y-65716999D01*
X83010204Y-65692495D01*
X83013804Y-65668227D01*
X83019765Y-65644428D01*
X83028030Y-65621329D01*
X83038520Y-65599150D01*
X83051132Y-65578107D01*
X83065747Y-65558401D01*
X83082223Y-65540223D01*
X83100401Y-65523747D01*
X83120107Y-65509132D01*
X83141150Y-65496520D01*
X83163329Y-65486030D01*
X83186428Y-65477765D01*
X83210227Y-65471804D01*
X83234495Y-65468204D01*
X83258999Y-65467000D01*
X83909001Y-65467000D01*
X83933505Y-65468204D01*
X83933505Y-65468204D01*
G37*
D13*
X83584000Y-66167000D03*
D10*
G36*
X81883505Y-65468204D02*
G01*
X81907773Y-65471804D01*
X81931572Y-65477765D01*
X81954671Y-65486030D01*
X81976850Y-65496520D01*
X81997893Y-65509132D01*
X82017599Y-65523747D01*
X82035777Y-65540223D01*
X82052253Y-65558401D01*
X82066868Y-65578107D01*
X82079480Y-65599150D01*
X82089970Y-65621329D01*
X82098235Y-65644428D01*
X82104196Y-65668227D01*
X82107796Y-65692495D01*
X82109000Y-65716999D01*
X82109000Y-66617001D01*
X82107796Y-66641505D01*
X82104196Y-66665773D01*
X82098235Y-66689572D01*
X82089970Y-66712671D01*
X82079480Y-66734850D01*
X82066868Y-66755893D01*
X82052253Y-66775599D01*
X82035777Y-66793777D01*
X82017599Y-66810253D01*
X81997893Y-66824868D01*
X81976850Y-66837480D01*
X81954671Y-66847970D01*
X81931572Y-66856235D01*
X81907773Y-66862196D01*
X81883505Y-66865796D01*
X81859001Y-66867000D01*
X81208999Y-66867000D01*
X81184495Y-66865796D01*
X81160227Y-66862196D01*
X81136428Y-66856235D01*
X81113329Y-66847970D01*
X81091150Y-66837480D01*
X81070107Y-66824868D01*
X81050401Y-66810253D01*
X81032223Y-66793777D01*
X81015747Y-66775599D01*
X81001132Y-66755893D01*
X80988520Y-66734850D01*
X80978030Y-66712671D01*
X80969765Y-66689572D01*
X80963804Y-66665773D01*
X80960204Y-66641505D01*
X80959000Y-66617001D01*
X80959000Y-65716999D01*
X80960204Y-65692495D01*
X80963804Y-65668227D01*
X80969765Y-65644428D01*
X80978030Y-65621329D01*
X80988520Y-65599150D01*
X81001132Y-65578107D01*
X81015747Y-65558401D01*
X81032223Y-65540223D01*
X81050401Y-65523747D01*
X81070107Y-65509132D01*
X81091150Y-65496520D01*
X81113329Y-65486030D01*
X81136428Y-65477765D01*
X81160227Y-65471804D01*
X81184495Y-65468204D01*
X81208999Y-65467000D01*
X81859001Y-65467000D01*
X81883505Y-65468204D01*
X81883505Y-65468204D01*
G37*
D13*
X81534000Y-66167000D03*
D10*
G36*
X85123004Y-63007204D02*
G01*
X85147273Y-63010804D01*
X85171071Y-63016765D01*
X85194171Y-63025030D01*
X85216349Y-63035520D01*
X85237393Y-63048133D01*
X85257098Y-63062747D01*
X85275277Y-63079223D01*
X85291753Y-63097402D01*
X85306367Y-63117107D01*
X85318980Y-63138151D01*
X85329470Y-63160329D01*
X85337735Y-63183429D01*
X85343696Y-63207227D01*
X85347296Y-63231496D01*
X85348500Y-63256000D01*
X85348500Y-64506000D01*
X85347296Y-64530504D01*
X85343696Y-64554773D01*
X85337735Y-64578571D01*
X85329470Y-64601671D01*
X85318980Y-64623849D01*
X85306367Y-64644893D01*
X85291753Y-64664598D01*
X85275277Y-64682777D01*
X85257098Y-64699253D01*
X85237393Y-64713867D01*
X85216349Y-64726480D01*
X85194171Y-64736970D01*
X85171071Y-64745235D01*
X85147273Y-64751196D01*
X85123004Y-64754796D01*
X85098500Y-64756000D01*
X84173500Y-64756000D01*
X84148996Y-64754796D01*
X84124727Y-64751196D01*
X84100929Y-64745235D01*
X84077829Y-64736970D01*
X84055651Y-64726480D01*
X84034607Y-64713867D01*
X84014902Y-64699253D01*
X83996723Y-64682777D01*
X83980247Y-64664598D01*
X83965633Y-64644893D01*
X83953020Y-64623849D01*
X83942530Y-64601671D01*
X83934265Y-64578571D01*
X83928304Y-64554773D01*
X83924704Y-64530504D01*
X83923500Y-64506000D01*
X83923500Y-63256000D01*
X83924704Y-63231496D01*
X83928304Y-63207227D01*
X83934265Y-63183429D01*
X83942530Y-63160329D01*
X83953020Y-63138151D01*
X83965633Y-63117107D01*
X83980247Y-63097402D01*
X83996723Y-63079223D01*
X84014902Y-63062747D01*
X84034607Y-63048133D01*
X84055651Y-63035520D01*
X84077829Y-63025030D01*
X84100929Y-63016765D01*
X84124727Y-63010804D01*
X84148996Y-63007204D01*
X84173500Y-63006000D01*
X85098500Y-63006000D01*
X85123004Y-63007204D01*
X85123004Y-63007204D01*
G37*
D11*
X84636000Y-63881000D03*
D10*
G36*
X82148004Y-63007204D02*
G01*
X82172273Y-63010804D01*
X82196071Y-63016765D01*
X82219171Y-63025030D01*
X82241349Y-63035520D01*
X82262393Y-63048133D01*
X82282098Y-63062747D01*
X82300277Y-63079223D01*
X82316753Y-63097402D01*
X82331367Y-63117107D01*
X82343980Y-63138151D01*
X82354470Y-63160329D01*
X82362735Y-63183429D01*
X82368696Y-63207227D01*
X82372296Y-63231496D01*
X82373500Y-63256000D01*
X82373500Y-64506000D01*
X82372296Y-64530504D01*
X82368696Y-64554773D01*
X82362735Y-64578571D01*
X82354470Y-64601671D01*
X82343980Y-64623849D01*
X82331367Y-64644893D01*
X82316753Y-64664598D01*
X82300277Y-64682777D01*
X82282098Y-64699253D01*
X82262393Y-64713867D01*
X82241349Y-64726480D01*
X82219171Y-64736970D01*
X82196071Y-64745235D01*
X82172273Y-64751196D01*
X82148004Y-64754796D01*
X82123500Y-64756000D01*
X81198500Y-64756000D01*
X81173996Y-64754796D01*
X81149727Y-64751196D01*
X81125929Y-64745235D01*
X81102829Y-64736970D01*
X81080651Y-64726480D01*
X81059607Y-64713867D01*
X81039902Y-64699253D01*
X81021723Y-64682777D01*
X81005247Y-64664598D01*
X80990633Y-64644893D01*
X80978020Y-64623849D01*
X80967530Y-64601671D01*
X80959265Y-64578571D01*
X80953304Y-64554773D01*
X80949704Y-64530504D01*
X80948500Y-64506000D01*
X80948500Y-63256000D01*
X80949704Y-63231496D01*
X80953304Y-63207227D01*
X80959265Y-63183429D01*
X80967530Y-63160329D01*
X80978020Y-63138151D01*
X80990633Y-63117107D01*
X81005247Y-63097402D01*
X81021723Y-63079223D01*
X81039902Y-63062747D01*
X81059607Y-63048133D01*
X81080651Y-63035520D01*
X81102829Y-63025030D01*
X81125929Y-63016765D01*
X81149727Y-63010804D01*
X81173996Y-63007204D01*
X81198500Y-63006000D01*
X82123500Y-63006000D01*
X82148004Y-63007204D01*
X82148004Y-63007204D01*
G37*
D11*
X81661000Y-63881000D03*
D14*
X102362000Y-70612000D03*
D15*
X97362000Y-70612000D03*
D16*
X101600000Y-56388000D03*
D17*
X98100000Y-56388000D03*
D10*
G36*
X85196004Y-51577204D02*
G01*
X85220273Y-51580804D01*
X85244071Y-51586765D01*
X85267171Y-51595030D01*
X85289349Y-51605520D01*
X85310393Y-51618133D01*
X85330098Y-51632747D01*
X85348277Y-51649223D01*
X85364753Y-51667402D01*
X85379367Y-51687107D01*
X85391980Y-51708151D01*
X85402470Y-51730329D01*
X85410735Y-51753429D01*
X85416696Y-51777227D01*
X85420296Y-51801496D01*
X85421500Y-51826000D01*
X85421500Y-53076000D01*
X85420296Y-53100504D01*
X85416696Y-53124773D01*
X85410735Y-53148571D01*
X85402470Y-53171671D01*
X85391980Y-53193849D01*
X85379367Y-53214893D01*
X85364753Y-53234598D01*
X85348277Y-53252777D01*
X85330098Y-53269253D01*
X85310393Y-53283867D01*
X85289349Y-53296480D01*
X85267171Y-53306970D01*
X85244071Y-53315235D01*
X85220273Y-53321196D01*
X85196004Y-53324796D01*
X85171500Y-53326000D01*
X84246500Y-53326000D01*
X84221996Y-53324796D01*
X84197727Y-53321196D01*
X84173929Y-53315235D01*
X84150829Y-53306970D01*
X84128651Y-53296480D01*
X84107607Y-53283867D01*
X84087902Y-53269253D01*
X84069723Y-53252777D01*
X84053247Y-53234598D01*
X84038633Y-53214893D01*
X84026020Y-53193849D01*
X84015530Y-53171671D01*
X84007265Y-53148571D01*
X84001304Y-53124773D01*
X83997704Y-53100504D01*
X83996500Y-53076000D01*
X83996500Y-51826000D01*
X83997704Y-51801496D01*
X84001304Y-51777227D01*
X84007265Y-51753429D01*
X84015530Y-51730329D01*
X84026020Y-51708151D01*
X84038633Y-51687107D01*
X84053247Y-51667402D01*
X84069723Y-51649223D01*
X84087902Y-51632747D01*
X84107607Y-51618133D01*
X84128651Y-51605520D01*
X84150829Y-51595030D01*
X84173929Y-51586765D01*
X84197727Y-51580804D01*
X84221996Y-51577204D01*
X84246500Y-51576000D01*
X85171500Y-51576000D01*
X85196004Y-51577204D01*
X85196004Y-51577204D01*
G37*
D11*
X84709000Y-52451000D03*
D10*
G36*
X82221004Y-51577204D02*
G01*
X82245273Y-51580804D01*
X82269071Y-51586765D01*
X82292171Y-51595030D01*
X82314349Y-51605520D01*
X82335393Y-51618133D01*
X82355098Y-51632747D01*
X82373277Y-51649223D01*
X82389753Y-51667402D01*
X82404367Y-51687107D01*
X82416980Y-51708151D01*
X82427470Y-51730329D01*
X82435735Y-51753429D01*
X82441696Y-51777227D01*
X82445296Y-51801496D01*
X82446500Y-51826000D01*
X82446500Y-53076000D01*
X82445296Y-53100504D01*
X82441696Y-53124773D01*
X82435735Y-53148571D01*
X82427470Y-53171671D01*
X82416980Y-53193849D01*
X82404367Y-53214893D01*
X82389753Y-53234598D01*
X82373277Y-53252777D01*
X82355098Y-53269253D01*
X82335393Y-53283867D01*
X82314349Y-53296480D01*
X82292171Y-53306970D01*
X82269071Y-53315235D01*
X82245273Y-53321196D01*
X82221004Y-53324796D01*
X82196500Y-53326000D01*
X81271500Y-53326000D01*
X81246996Y-53324796D01*
X81222727Y-53321196D01*
X81198929Y-53315235D01*
X81175829Y-53306970D01*
X81153651Y-53296480D01*
X81132607Y-53283867D01*
X81112902Y-53269253D01*
X81094723Y-53252777D01*
X81078247Y-53234598D01*
X81063633Y-53214893D01*
X81051020Y-53193849D01*
X81040530Y-53171671D01*
X81032265Y-53148571D01*
X81026304Y-53124773D01*
X81022704Y-53100504D01*
X81021500Y-53076000D01*
X81021500Y-51826000D01*
X81022704Y-51801496D01*
X81026304Y-51777227D01*
X81032265Y-51753429D01*
X81040530Y-51730329D01*
X81051020Y-51708151D01*
X81063633Y-51687107D01*
X81078247Y-51667402D01*
X81094723Y-51649223D01*
X81112902Y-51632747D01*
X81132607Y-51618133D01*
X81153651Y-51605520D01*
X81175829Y-51595030D01*
X81198929Y-51586765D01*
X81222727Y-51580804D01*
X81246996Y-51577204D01*
X81271500Y-51576000D01*
X82196500Y-51576000D01*
X82221004Y-51577204D01*
X82221004Y-51577204D01*
G37*
D11*
X81734000Y-52451000D03*
D10*
G36*
X79135504Y-52174704D02*
G01*
X79159773Y-52178304D01*
X79183571Y-52184265D01*
X79206671Y-52192530D01*
X79228849Y-52203020D01*
X79249893Y-52215633D01*
X79269598Y-52230247D01*
X79287777Y-52246723D01*
X79304253Y-52264902D01*
X79318867Y-52284607D01*
X79331480Y-52305651D01*
X79341970Y-52327829D01*
X79350235Y-52350929D01*
X79356196Y-52374727D01*
X79359796Y-52398996D01*
X79361000Y-52423500D01*
X79361000Y-53348500D01*
X79359796Y-53373004D01*
X79356196Y-53397273D01*
X79350235Y-53421071D01*
X79341970Y-53444171D01*
X79331480Y-53466349D01*
X79318867Y-53487393D01*
X79304253Y-53507098D01*
X79287777Y-53525277D01*
X79269598Y-53541753D01*
X79249893Y-53556367D01*
X79228849Y-53568980D01*
X79206671Y-53579470D01*
X79183571Y-53587735D01*
X79159773Y-53593696D01*
X79135504Y-53597296D01*
X79111000Y-53598500D01*
X77861000Y-53598500D01*
X77836496Y-53597296D01*
X77812227Y-53593696D01*
X77788429Y-53587735D01*
X77765329Y-53579470D01*
X77743151Y-53568980D01*
X77722107Y-53556367D01*
X77702402Y-53541753D01*
X77684223Y-53525277D01*
X77667747Y-53507098D01*
X77653133Y-53487393D01*
X77640520Y-53466349D01*
X77630030Y-53444171D01*
X77621765Y-53421071D01*
X77615804Y-53397273D01*
X77612204Y-53373004D01*
X77611000Y-53348500D01*
X77611000Y-52423500D01*
X77612204Y-52398996D01*
X77615804Y-52374727D01*
X77621765Y-52350929D01*
X77630030Y-52327829D01*
X77640520Y-52305651D01*
X77653133Y-52284607D01*
X77667747Y-52264902D01*
X77684223Y-52246723D01*
X77702402Y-52230247D01*
X77722107Y-52215633D01*
X77743151Y-52203020D01*
X77765329Y-52192530D01*
X77788429Y-52184265D01*
X77812227Y-52178304D01*
X77836496Y-52174704D01*
X77861000Y-52173500D01*
X79111000Y-52173500D01*
X79135504Y-52174704D01*
X79135504Y-52174704D01*
G37*
D11*
X78486000Y-52886000D03*
D10*
G36*
X79135504Y-49199704D02*
G01*
X79159773Y-49203304D01*
X79183571Y-49209265D01*
X79206671Y-49217530D01*
X79228849Y-49228020D01*
X79249893Y-49240633D01*
X79269598Y-49255247D01*
X79287777Y-49271723D01*
X79304253Y-49289902D01*
X79318867Y-49309607D01*
X79331480Y-49330651D01*
X79341970Y-49352829D01*
X79350235Y-49375929D01*
X79356196Y-49399727D01*
X79359796Y-49423996D01*
X79361000Y-49448500D01*
X79361000Y-50373500D01*
X79359796Y-50398004D01*
X79356196Y-50422273D01*
X79350235Y-50446071D01*
X79341970Y-50469171D01*
X79331480Y-50491349D01*
X79318867Y-50512393D01*
X79304253Y-50532098D01*
X79287777Y-50550277D01*
X79269598Y-50566753D01*
X79249893Y-50581367D01*
X79228849Y-50593980D01*
X79206671Y-50604470D01*
X79183571Y-50612735D01*
X79159773Y-50618696D01*
X79135504Y-50622296D01*
X79111000Y-50623500D01*
X77861000Y-50623500D01*
X77836496Y-50622296D01*
X77812227Y-50618696D01*
X77788429Y-50612735D01*
X77765329Y-50604470D01*
X77743151Y-50593980D01*
X77722107Y-50581367D01*
X77702402Y-50566753D01*
X77684223Y-50550277D01*
X77667747Y-50532098D01*
X77653133Y-50512393D01*
X77640520Y-50491349D01*
X77630030Y-50469171D01*
X77621765Y-50446071D01*
X77615804Y-50422273D01*
X77612204Y-50398004D01*
X77611000Y-50373500D01*
X77611000Y-49448500D01*
X77612204Y-49423996D01*
X77615804Y-49399727D01*
X77621765Y-49375929D01*
X77630030Y-49352829D01*
X77640520Y-49330651D01*
X77653133Y-49309607D01*
X77667747Y-49289902D01*
X77684223Y-49271723D01*
X77702402Y-49255247D01*
X77722107Y-49240633D01*
X77743151Y-49228020D01*
X77765329Y-49217530D01*
X77788429Y-49209265D01*
X77812227Y-49203304D01*
X77836496Y-49199704D01*
X77861000Y-49198500D01*
X79111000Y-49198500D01*
X79135504Y-49199704D01*
X79135504Y-49199704D01*
G37*
D11*
X78486000Y-49911000D03*
D10*
G36*
X54639005Y-81765204D02*
G01*
X54663273Y-81768804D01*
X54687072Y-81774765D01*
X54710171Y-81783030D01*
X54732350Y-81793520D01*
X54753393Y-81806132D01*
X54773099Y-81820747D01*
X54791277Y-81837223D01*
X54807753Y-81855401D01*
X54822368Y-81875107D01*
X54834980Y-81896150D01*
X54845470Y-81918329D01*
X54853735Y-81941428D01*
X54859696Y-81965227D01*
X54863296Y-81989495D01*
X54864500Y-82013999D01*
X54864500Y-84864001D01*
X54863296Y-84888505D01*
X54859696Y-84912773D01*
X54853735Y-84936572D01*
X54845470Y-84959671D01*
X54834980Y-84981850D01*
X54822368Y-85002893D01*
X54807753Y-85022599D01*
X54791277Y-85040777D01*
X54773099Y-85057253D01*
X54753393Y-85071868D01*
X54732350Y-85084480D01*
X54710171Y-85094970D01*
X54687072Y-85103235D01*
X54663273Y-85109196D01*
X54639005Y-85112796D01*
X54614501Y-85114000D01*
X53589499Y-85114000D01*
X53564995Y-85112796D01*
X53540727Y-85109196D01*
X53516928Y-85103235D01*
X53493829Y-85094970D01*
X53471650Y-85084480D01*
X53450607Y-85071868D01*
X53430901Y-85057253D01*
X53412723Y-85040777D01*
X53396247Y-85022599D01*
X53381632Y-85002893D01*
X53369020Y-84981850D01*
X53358530Y-84959671D01*
X53350265Y-84936572D01*
X53344304Y-84912773D01*
X53340704Y-84888505D01*
X53339500Y-84864001D01*
X53339500Y-82013999D01*
X53340704Y-81989495D01*
X53344304Y-81965227D01*
X53350265Y-81941428D01*
X53358530Y-81918329D01*
X53369020Y-81896150D01*
X53381632Y-81875107D01*
X53396247Y-81855401D01*
X53412723Y-81837223D01*
X53430901Y-81820747D01*
X53450607Y-81806132D01*
X53471650Y-81793520D01*
X53493829Y-81783030D01*
X53516928Y-81774765D01*
X53540727Y-81768804D01*
X53564995Y-81765204D01*
X53589499Y-81764000D01*
X54614501Y-81764000D01*
X54639005Y-81765204D01*
X54639005Y-81765204D01*
G37*
D18*
X54102000Y-83439000D03*
D10*
G36*
X48664005Y-81765204D02*
G01*
X48688273Y-81768804D01*
X48712072Y-81774765D01*
X48735171Y-81783030D01*
X48757350Y-81793520D01*
X48778393Y-81806132D01*
X48798099Y-81820747D01*
X48816277Y-81837223D01*
X48832753Y-81855401D01*
X48847368Y-81875107D01*
X48859980Y-81896150D01*
X48870470Y-81918329D01*
X48878735Y-81941428D01*
X48884696Y-81965227D01*
X48888296Y-81989495D01*
X48889500Y-82013999D01*
X48889500Y-84864001D01*
X48888296Y-84888505D01*
X48884696Y-84912773D01*
X48878735Y-84936572D01*
X48870470Y-84959671D01*
X48859980Y-84981850D01*
X48847368Y-85002893D01*
X48832753Y-85022599D01*
X48816277Y-85040777D01*
X48798099Y-85057253D01*
X48778393Y-85071868D01*
X48757350Y-85084480D01*
X48735171Y-85094970D01*
X48712072Y-85103235D01*
X48688273Y-85109196D01*
X48664005Y-85112796D01*
X48639501Y-85114000D01*
X47614499Y-85114000D01*
X47589995Y-85112796D01*
X47565727Y-85109196D01*
X47541928Y-85103235D01*
X47518829Y-85094970D01*
X47496650Y-85084480D01*
X47475607Y-85071868D01*
X47455901Y-85057253D01*
X47437723Y-85040777D01*
X47421247Y-85022599D01*
X47406632Y-85002893D01*
X47394020Y-84981850D01*
X47383530Y-84959671D01*
X47375265Y-84936572D01*
X47369304Y-84912773D01*
X47365704Y-84888505D01*
X47364500Y-84864001D01*
X47364500Y-82013999D01*
X47365704Y-81989495D01*
X47369304Y-81965227D01*
X47375265Y-81941428D01*
X47383530Y-81918329D01*
X47394020Y-81896150D01*
X47406632Y-81875107D01*
X47421247Y-81855401D01*
X47437723Y-81837223D01*
X47455901Y-81820747D01*
X47475607Y-81806132D01*
X47496650Y-81793520D01*
X47518829Y-81783030D01*
X47541928Y-81774765D01*
X47565727Y-81768804D01*
X47589995Y-81765204D01*
X47614499Y-81764000D01*
X48639501Y-81764000D01*
X48664005Y-81765204D01*
X48664005Y-81765204D01*
G37*
D18*
X48127000Y-83439000D03*
D10*
G36*
X48664005Y-77447204D02*
G01*
X48688273Y-77450804D01*
X48712072Y-77456765D01*
X48735171Y-77465030D01*
X48757350Y-77475520D01*
X48778393Y-77488132D01*
X48798099Y-77502747D01*
X48816277Y-77519223D01*
X48832753Y-77537401D01*
X48847368Y-77557107D01*
X48859980Y-77578150D01*
X48870470Y-77600329D01*
X48878735Y-77623428D01*
X48884696Y-77647227D01*
X48888296Y-77671495D01*
X48889500Y-77695999D01*
X48889500Y-80546001D01*
X48888296Y-80570505D01*
X48884696Y-80594773D01*
X48878735Y-80618572D01*
X48870470Y-80641671D01*
X48859980Y-80663850D01*
X48847368Y-80684893D01*
X48832753Y-80704599D01*
X48816277Y-80722777D01*
X48798099Y-80739253D01*
X48778393Y-80753868D01*
X48757350Y-80766480D01*
X48735171Y-80776970D01*
X48712072Y-80785235D01*
X48688273Y-80791196D01*
X48664005Y-80794796D01*
X48639501Y-80796000D01*
X47614499Y-80796000D01*
X47589995Y-80794796D01*
X47565727Y-80791196D01*
X47541928Y-80785235D01*
X47518829Y-80776970D01*
X47496650Y-80766480D01*
X47475607Y-80753868D01*
X47455901Y-80739253D01*
X47437723Y-80722777D01*
X47421247Y-80704599D01*
X47406632Y-80684893D01*
X47394020Y-80663850D01*
X47383530Y-80641671D01*
X47375265Y-80618572D01*
X47369304Y-80594773D01*
X47365704Y-80570505D01*
X47364500Y-80546001D01*
X47364500Y-77695999D01*
X47365704Y-77671495D01*
X47369304Y-77647227D01*
X47375265Y-77623428D01*
X47383530Y-77600329D01*
X47394020Y-77578150D01*
X47406632Y-77557107D01*
X47421247Y-77537401D01*
X47437723Y-77519223D01*
X47455901Y-77502747D01*
X47475607Y-77488132D01*
X47496650Y-77475520D01*
X47518829Y-77465030D01*
X47541928Y-77456765D01*
X47565727Y-77450804D01*
X47589995Y-77447204D01*
X47614499Y-77446000D01*
X48639501Y-77446000D01*
X48664005Y-77447204D01*
X48664005Y-77447204D01*
G37*
D18*
X48127000Y-79121000D03*
D10*
G36*
X54639005Y-77447204D02*
G01*
X54663273Y-77450804D01*
X54687072Y-77456765D01*
X54710171Y-77465030D01*
X54732350Y-77475520D01*
X54753393Y-77488132D01*
X54773099Y-77502747D01*
X54791277Y-77519223D01*
X54807753Y-77537401D01*
X54822368Y-77557107D01*
X54834980Y-77578150D01*
X54845470Y-77600329D01*
X54853735Y-77623428D01*
X54859696Y-77647227D01*
X54863296Y-77671495D01*
X54864500Y-77695999D01*
X54864500Y-80546001D01*
X54863296Y-80570505D01*
X54859696Y-80594773D01*
X54853735Y-80618572D01*
X54845470Y-80641671D01*
X54834980Y-80663850D01*
X54822368Y-80684893D01*
X54807753Y-80704599D01*
X54791277Y-80722777D01*
X54773099Y-80739253D01*
X54753393Y-80753868D01*
X54732350Y-80766480D01*
X54710171Y-80776970D01*
X54687072Y-80785235D01*
X54663273Y-80791196D01*
X54639005Y-80794796D01*
X54614501Y-80796000D01*
X53589499Y-80796000D01*
X53564995Y-80794796D01*
X53540727Y-80791196D01*
X53516928Y-80785235D01*
X53493829Y-80776970D01*
X53471650Y-80766480D01*
X53450607Y-80753868D01*
X53430901Y-80739253D01*
X53412723Y-80722777D01*
X53396247Y-80704599D01*
X53381632Y-80684893D01*
X53369020Y-80663850D01*
X53358530Y-80641671D01*
X53350265Y-80618572D01*
X53344304Y-80594773D01*
X53340704Y-80570505D01*
X53339500Y-80546001D01*
X53339500Y-77695999D01*
X53340704Y-77671495D01*
X53344304Y-77647227D01*
X53350265Y-77623428D01*
X53358530Y-77600329D01*
X53369020Y-77578150D01*
X53381632Y-77557107D01*
X53396247Y-77537401D01*
X53412723Y-77519223D01*
X53430901Y-77502747D01*
X53450607Y-77488132D01*
X53471650Y-77475520D01*
X53493829Y-77465030D01*
X53516928Y-77456765D01*
X53540727Y-77450804D01*
X53564995Y-77447204D01*
X53589499Y-77446000D01*
X54614501Y-77446000D01*
X54639005Y-77447204D01*
X54639005Y-77447204D01*
G37*
D18*
X54102000Y-79121000D03*
D10*
G36*
X54716004Y-74691204D02*
G01*
X54740273Y-74694804D01*
X54764071Y-74700765D01*
X54787171Y-74709030D01*
X54809349Y-74719520D01*
X54830393Y-74732133D01*
X54850098Y-74746747D01*
X54868277Y-74763223D01*
X54884753Y-74781402D01*
X54899367Y-74801107D01*
X54911980Y-74822151D01*
X54922470Y-74844329D01*
X54930735Y-74867429D01*
X54936696Y-74891227D01*
X54940296Y-74915496D01*
X54941500Y-74940000D01*
X54941500Y-76190000D01*
X54940296Y-76214504D01*
X54936696Y-76238773D01*
X54930735Y-76262571D01*
X54922470Y-76285671D01*
X54911980Y-76307849D01*
X54899367Y-76328893D01*
X54884753Y-76348598D01*
X54868277Y-76366777D01*
X54850098Y-76383253D01*
X54830393Y-76397867D01*
X54809349Y-76410480D01*
X54787171Y-76420970D01*
X54764071Y-76429235D01*
X54740273Y-76435196D01*
X54716004Y-76438796D01*
X54691500Y-76440000D01*
X53766500Y-76440000D01*
X53741996Y-76438796D01*
X53717727Y-76435196D01*
X53693929Y-76429235D01*
X53670829Y-76420970D01*
X53648651Y-76410480D01*
X53627607Y-76397867D01*
X53607902Y-76383253D01*
X53589723Y-76366777D01*
X53573247Y-76348598D01*
X53558633Y-76328893D01*
X53546020Y-76307849D01*
X53535530Y-76285671D01*
X53527265Y-76262571D01*
X53521304Y-76238773D01*
X53517704Y-76214504D01*
X53516500Y-76190000D01*
X53516500Y-74940000D01*
X53517704Y-74915496D01*
X53521304Y-74891227D01*
X53527265Y-74867429D01*
X53535530Y-74844329D01*
X53546020Y-74822151D01*
X53558633Y-74801107D01*
X53573247Y-74781402D01*
X53589723Y-74763223D01*
X53607902Y-74746747D01*
X53627607Y-74732133D01*
X53648651Y-74719520D01*
X53670829Y-74709030D01*
X53693929Y-74700765D01*
X53717727Y-74694804D01*
X53741996Y-74691204D01*
X53766500Y-74690000D01*
X54691500Y-74690000D01*
X54716004Y-74691204D01*
X54716004Y-74691204D01*
G37*
D11*
X54229000Y-75565000D03*
D10*
G36*
X51741004Y-74691204D02*
G01*
X51765273Y-74694804D01*
X51789071Y-74700765D01*
X51812171Y-74709030D01*
X51834349Y-74719520D01*
X51855393Y-74732133D01*
X51875098Y-74746747D01*
X51893277Y-74763223D01*
X51909753Y-74781402D01*
X51924367Y-74801107D01*
X51936980Y-74822151D01*
X51947470Y-74844329D01*
X51955735Y-74867429D01*
X51961696Y-74891227D01*
X51965296Y-74915496D01*
X51966500Y-74940000D01*
X51966500Y-76190000D01*
X51965296Y-76214504D01*
X51961696Y-76238773D01*
X51955735Y-76262571D01*
X51947470Y-76285671D01*
X51936980Y-76307849D01*
X51924367Y-76328893D01*
X51909753Y-76348598D01*
X51893277Y-76366777D01*
X51875098Y-76383253D01*
X51855393Y-76397867D01*
X51834349Y-76410480D01*
X51812171Y-76420970D01*
X51789071Y-76429235D01*
X51765273Y-76435196D01*
X51741004Y-76438796D01*
X51716500Y-76440000D01*
X50791500Y-76440000D01*
X50766996Y-76438796D01*
X50742727Y-76435196D01*
X50718929Y-76429235D01*
X50695829Y-76420970D01*
X50673651Y-76410480D01*
X50652607Y-76397867D01*
X50632902Y-76383253D01*
X50614723Y-76366777D01*
X50598247Y-76348598D01*
X50583633Y-76328893D01*
X50571020Y-76307849D01*
X50560530Y-76285671D01*
X50552265Y-76262571D01*
X50546304Y-76238773D01*
X50542704Y-76214504D01*
X50541500Y-76190000D01*
X50541500Y-74940000D01*
X50542704Y-74915496D01*
X50546304Y-74891227D01*
X50552265Y-74867429D01*
X50560530Y-74844329D01*
X50571020Y-74822151D01*
X50583633Y-74801107D01*
X50598247Y-74781402D01*
X50614723Y-74763223D01*
X50632902Y-74746747D01*
X50652607Y-74732133D01*
X50673651Y-74719520D01*
X50695829Y-74709030D01*
X50718929Y-74700765D01*
X50742727Y-74694804D01*
X50766996Y-74691204D01*
X50791500Y-74690000D01*
X51716500Y-74690000D01*
X51741004Y-74691204D01*
X51741004Y-74691204D01*
G37*
D11*
X51254000Y-75565000D03*
D10*
G36*
X51741004Y-71897204D02*
G01*
X51765273Y-71900804D01*
X51789071Y-71906765D01*
X51812171Y-71915030D01*
X51834349Y-71925520D01*
X51855393Y-71938133D01*
X51875098Y-71952747D01*
X51893277Y-71969223D01*
X51909753Y-71987402D01*
X51924367Y-72007107D01*
X51936980Y-72028151D01*
X51947470Y-72050329D01*
X51955735Y-72073429D01*
X51961696Y-72097227D01*
X51965296Y-72121496D01*
X51966500Y-72146000D01*
X51966500Y-73396000D01*
X51965296Y-73420504D01*
X51961696Y-73444773D01*
X51955735Y-73468571D01*
X51947470Y-73491671D01*
X51936980Y-73513849D01*
X51924367Y-73534893D01*
X51909753Y-73554598D01*
X51893277Y-73572777D01*
X51875098Y-73589253D01*
X51855393Y-73603867D01*
X51834349Y-73616480D01*
X51812171Y-73626970D01*
X51789071Y-73635235D01*
X51765273Y-73641196D01*
X51741004Y-73644796D01*
X51716500Y-73646000D01*
X50791500Y-73646000D01*
X50766996Y-73644796D01*
X50742727Y-73641196D01*
X50718929Y-73635235D01*
X50695829Y-73626970D01*
X50673651Y-73616480D01*
X50652607Y-73603867D01*
X50632902Y-73589253D01*
X50614723Y-73572777D01*
X50598247Y-73554598D01*
X50583633Y-73534893D01*
X50571020Y-73513849D01*
X50560530Y-73491671D01*
X50552265Y-73468571D01*
X50546304Y-73444773D01*
X50542704Y-73420504D01*
X50541500Y-73396000D01*
X50541500Y-72146000D01*
X50542704Y-72121496D01*
X50546304Y-72097227D01*
X50552265Y-72073429D01*
X50560530Y-72050329D01*
X50571020Y-72028151D01*
X50583633Y-72007107D01*
X50598247Y-71987402D01*
X50614723Y-71969223D01*
X50632902Y-71952747D01*
X50652607Y-71938133D01*
X50673651Y-71925520D01*
X50695829Y-71915030D01*
X50718929Y-71906765D01*
X50742727Y-71900804D01*
X50766996Y-71897204D01*
X50791500Y-71896000D01*
X51716500Y-71896000D01*
X51741004Y-71897204D01*
X51741004Y-71897204D01*
G37*
D11*
X51254000Y-72771000D03*
D10*
G36*
X54716004Y-71897204D02*
G01*
X54740273Y-71900804D01*
X54764071Y-71906765D01*
X54787171Y-71915030D01*
X54809349Y-71925520D01*
X54830393Y-71938133D01*
X54850098Y-71952747D01*
X54868277Y-71969223D01*
X54884753Y-71987402D01*
X54899367Y-72007107D01*
X54911980Y-72028151D01*
X54922470Y-72050329D01*
X54930735Y-72073429D01*
X54936696Y-72097227D01*
X54940296Y-72121496D01*
X54941500Y-72146000D01*
X54941500Y-73396000D01*
X54940296Y-73420504D01*
X54936696Y-73444773D01*
X54930735Y-73468571D01*
X54922470Y-73491671D01*
X54911980Y-73513849D01*
X54899367Y-73534893D01*
X54884753Y-73554598D01*
X54868277Y-73572777D01*
X54850098Y-73589253D01*
X54830393Y-73603867D01*
X54809349Y-73616480D01*
X54787171Y-73626970D01*
X54764071Y-73635235D01*
X54740273Y-73641196D01*
X54716004Y-73644796D01*
X54691500Y-73646000D01*
X53766500Y-73646000D01*
X53741996Y-73644796D01*
X53717727Y-73641196D01*
X53693929Y-73635235D01*
X53670829Y-73626970D01*
X53648651Y-73616480D01*
X53627607Y-73603867D01*
X53607902Y-73589253D01*
X53589723Y-73572777D01*
X53573247Y-73554598D01*
X53558633Y-73534893D01*
X53546020Y-73513849D01*
X53535530Y-73491671D01*
X53527265Y-73468571D01*
X53521304Y-73444773D01*
X53517704Y-73420504D01*
X53516500Y-73396000D01*
X53516500Y-72146000D01*
X53517704Y-72121496D01*
X53521304Y-72097227D01*
X53527265Y-72073429D01*
X53535530Y-72050329D01*
X53546020Y-72028151D01*
X53558633Y-72007107D01*
X53573247Y-71987402D01*
X53589723Y-71969223D01*
X53607902Y-71952747D01*
X53627607Y-71938133D01*
X53648651Y-71925520D01*
X53670829Y-71915030D01*
X53693929Y-71906765D01*
X53717727Y-71900804D01*
X53741996Y-71897204D01*
X53766500Y-71896000D01*
X54691500Y-71896000D01*
X54716004Y-71897204D01*
X54716004Y-71897204D01*
G37*
D11*
X54229000Y-72771000D03*
D10*
G36*
X54643004Y-68976204D02*
G01*
X54667273Y-68979804D01*
X54691071Y-68985765D01*
X54714171Y-68994030D01*
X54736349Y-69004520D01*
X54757393Y-69017133D01*
X54777098Y-69031747D01*
X54795277Y-69048223D01*
X54811753Y-69066402D01*
X54826367Y-69086107D01*
X54838980Y-69107151D01*
X54849470Y-69129329D01*
X54857735Y-69152429D01*
X54863696Y-69176227D01*
X54867296Y-69200496D01*
X54868500Y-69225000D01*
X54868500Y-70475000D01*
X54867296Y-70499504D01*
X54863696Y-70523773D01*
X54857735Y-70547571D01*
X54849470Y-70570671D01*
X54838980Y-70592849D01*
X54826367Y-70613893D01*
X54811753Y-70633598D01*
X54795277Y-70651777D01*
X54777098Y-70668253D01*
X54757393Y-70682867D01*
X54736349Y-70695480D01*
X54714171Y-70705970D01*
X54691071Y-70714235D01*
X54667273Y-70720196D01*
X54643004Y-70723796D01*
X54618500Y-70725000D01*
X53693500Y-70725000D01*
X53668996Y-70723796D01*
X53644727Y-70720196D01*
X53620929Y-70714235D01*
X53597829Y-70705970D01*
X53575651Y-70695480D01*
X53554607Y-70682867D01*
X53534902Y-70668253D01*
X53516723Y-70651777D01*
X53500247Y-70633598D01*
X53485633Y-70613893D01*
X53473020Y-70592849D01*
X53462530Y-70570671D01*
X53454265Y-70547571D01*
X53448304Y-70523773D01*
X53444704Y-70499504D01*
X53443500Y-70475000D01*
X53443500Y-69225000D01*
X53444704Y-69200496D01*
X53448304Y-69176227D01*
X53454265Y-69152429D01*
X53462530Y-69129329D01*
X53473020Y-69107151D01*
X53485633Y-69086107D01*
X53500247Y-69066402D01*
X53516723Y-69048223D01*
X53534902Y-69031747D01*
X53554607Y-69017133D01*
X53575651Y-69004520D01*
X53597829Y-68994030D01*
X53620929Y-68985765D01*
X53644727Y-68979804D01*
X53668996Y-68976204D01*
X53693500Y-68975000D01*
X54618500Y-68975000D01*
X54643004Y-68976204D01*
X54643004Y-68976204D01*
G37*
D11*
X54156000Y-69850000D03*
D10*
G36*
X51668004Y-68976204D02*
G01*
X51692273Y-68979804D01*
X51716071Y-68985765D01*
X51739171Y-68994030D01*
X51761349Y-69004520D01*
X51782393Y-69017133D01*
X51802098Y-69031747D01*
X51820277Y-69048223D01*
X51836753Y-69066402D01*
X51851367Y-69086107D01*
X51863980Y-69107151D01*
X51874470Y-69129329D01*
X51882735Y-69152429D01*
X51888696Y-69176227D01*
X51892296Y-69200496D01*
X51893500Y-69225000D01*
X51893500Y-70475000D01*
X51892296Y-70499504D01*
X51888696Y-70523773D01*
X51882735Y-70547571D01*
X51874470Y-70570671D01*
X51863980Y-70592849D01*
X51851367Y-70613893D01*
X51836753Y-70633598D01*
X51820277Y-70651777D01*
X51802098Y-70668253D01*
X51782393Y-70682867D01*
X51761349Y-70695480D01*
X51739171Y-70705970D01*
X51716071Y-70714235D01*
X51692273Y-70720196D01*
X51668004Y-70723796D01*
X51643500Y-70725000D01*
X50718500Y-70725000D01*
X50693996Y-70723796D01*
X50669727Y-70720196D01*
X50645929Y-70714235D01*
X50622829Y-70705970D01*
X50600651Y-70695480D01*
X50579607Y-70682867D01*
X50559902Y-70668253D01*
X50541723Y-70651777D01*
X50525247Y-70633598D01*
X50510633Y-70613893D01*
X50498020Y-70592849D01*
X50487530Y-70570671D01*
X50479265Y-70547571D01*
X50473304Y-70523773D01*
X50469704Y-70499504D01*
X50468500Y-70475000D01*
X50468500Y-69225000D01*
X50469704Y-69200496D01*
X50473304Y-69176227D01*
X50479265Y-69152429D01*
X50487530Y-69129329D01*
X50498020Y-69107151D01*
X50510633Y-69086107D01*
X50525247Y-69066402D01*
X50541723Y-69048223D01*
X50559902Y-69031747D01*
X50579607Y-69017133D01*
X50600651Y-69004520D01*
X50622829Y-68994030D01*
X50645929Y-68985765D01*
X50669727Y-68979804D01*
X50693996Y-68976204D01*
X50718500Y-68975000D01*
X51643500Y-68975000D01*
X51668004Y-68976204D01*
X51668004Y-68976204D01*
G37*
D11*
X51181000Y-69850000D03*
D10*
G36*
X54716004Y-66055204D02*
G01*
X54740273Y-66058804D01*
X54764071Y-66064765D01*
X54787171Y-66073030D01*
X54809349Y-66083520D01*
X54830393Y-66096133D01*
X54850098Y-66110747D01*
X54868277Y-66127223D01*
X54884753Y-66145402D01*
X54899367Y-66165107D01*
X54911980Y-66186151D01*
X54922470Y-66208329D01*
X54930735Y-66231429D01*
X54936696Y-66255227D01*
X54940296Y-66279496D01*
X54941500Y-66304000D01*
X54941500Y-67554000D01*
X54940296Y-67578504D01*
X54936696Y-67602773D01*
X54930735Y-67626571D01*
X54922470Y-67649671D01*
X54911980Y-67671849D01*
X54899367Y-67692893D01*
X54884753Y-67712598D01*
X54868277Y-67730777D01*
X54850098Y-67747253D01*
X54830393Y-67761867D01*
X54809349Y-67774480D01*
X54787171Y-67784970D01*
X54764071Y-67793235D01*
X54740273Y-67799196D01*
X54716004Y-67802796D01*
X54691500Y-67804000D01*
X53766500Y-67804000D01*
X53741996Y-67802796D01*
X53717727Y-67799196D01*
X53693929Y-67793235D01*
X53670829Y-67784970D01*
X53648651Y-67774480D01*
X53627607Y-67761867D01*
X53607902Y-67747253D01*
X53589723Y-67730777D01*
X53573247Y-67712598D01*
X53558633Y-67692893D01*
X53546020Y-67671849D01*
X53535530Y-67649671D01*
X53527265Y-67626571D01*
X53521304Y-67602773D01*
X53517704Y-67578504D01*
X53516500Y-67554000D01*
X53516500Y-66304000D01*
X53517704Y-66279496D01*
X53521304Y-66255227D01*
X53527265Y-66231429D01*
X53535530Y-66208329D01*
X53546020Y-66186151D01*
X53558633Y-66165107D01*
X53573247Y-66145402D01*
X53589723Y-66127223D01*
X53607902Y-66110747D01*
X53627607Y-66096133D01*
X53648651Y-66083520D01*
X53670829Y-66073030D01*
X53693929Y-66064765D01*
X53717727Y-66058804D01*
X53741996Y-66055204D01*
X53766500Y-66054000D01*
X54691500Y-66054000D01*
X54716004Y-66055204D01*
X54716004Y-66055204D01*
G37*
D11*
X54229000Y-66929000D03*
D10*
G36*
X51741004Y-66055204D02*
G01*
X51765273Y-66058804D01*
X51789071Y-66064765D01*
X51812171Y-66073030D01*
X51834349Y-66083520D01*
X51855393Y-66096133D01*
X51875098Y-66110747D01*
X51893277Y-66127223D01*
X51909753Y-66145402D01*
X51924367Y-66165107D01*
X51936980Y-66186151D01*
X51947470Y-66208329D01*
X51955735Y-66231429D01*
X51961696Y-66255227D01*
X51965296Y-66279496D01*
X51966500Y-66304000D01*
X51966500Y-67554000D01*
X51965296Y-67578504D01*
X51961696Y-67602773D01*
X51955735Y-67626571D01*
X51947470Y-67649671D01*
X51936980Y-67671849D01*
X51924367Y-67692893D01*
X51909753Y-67712598D01*
X51893277Y-67730777D01*
X51875098Y-67747253D01*
X51855393Y-67761867D01*
X51834349Y-67774480D01*
X51812171Y-67784970D01*
X51789071Y-67793235D01*
X51765273Y-67799196D01*
X51741004Y-67802796D01*
X51716500Y-67804000D01*
X50791500Y-67804000D01*
X50766996Y-67802796D01*
X50742727Y-67799196D01*
X50718929Y-67793235D01*
X50695829Y-67784970D01*
X50673651Y-67774480D01*
X50652607Y-67761867D01*
X50632902Y-67747253D01*
X50614723Y-67730777D01*
X50598247Y-67712598D01*
X50583633Y-67692893D01*
X50571020Y-67671849D01*
X50560530Y-67649671D01*
X50552265Y-67626571D01*
X50546304Y-67602773D01*
X50542704Y-67578504D01*
X50541500Y-67554000D01*
X50541500Y-66304000D01*
X50542704Y-66279496D01*
X50546304Y-66255227D01*
X50552265Y-66231429D01*
X50560530Y-66208329D01*
X50571020Y-66186151D01*
X50583633Y-66165107D01*
X50598247Y-66145402D01*
X50614723Y-66127223D01*
X50632902Y-66110747D01*
X50652607Y-66096133D01*
X50673651Y-66083520D01*
X50695829Y-66073030D01*
X50718929Y-66064765D01*
X50742727Y-66058804D01*
X50766996Y-66055204D01*
X50791500Y-66054000D01*
X51716500Y-66054000D01*
X51741004Y-66055204D01*
X51741004Y-66055204D01*
G37*
D11*
X51254000Y-66929000D03*
D10*
G36*
X51741004Y-63134204D02*
G01*
X51765273Y-63137804D01*
X51789071Y-63143765D01*
X51812171Y-63152030D01*
X51834349Y-63162520D01*
X51855393Y-63175133D01*
X51875098Y-63189747D01*
X51893277Y-63206223D01*
X51909753Y-63224402D01*
X51924367Y-63244107D01*
X51936980Y-63265151D01*
X51947470Y-63287329D01*
X51955735Y-63310429D01*
X51961696Y-63334227D01*
X51965296Y-63358496D01*
X51966500Y-63383000D01*
X51966500Y-64633000D01*
X51965296Y-64657504D01*
X51961696Y-64681773D01*
X51955735Y-64705571D01*
X51947470Y-64728671D01*
X51936980Y-64750849D01*
X51924367Y-64771893D01*
X51909753Y-64791598D01*
X51893277Y-64809777D01*
X51875098Y-64826253D01*
X51855393Y-64840867D01*
X51834349Y-64853480D01*
X51812171Y-64863970D01*
X51789071Y-64872235D01*
X51765273Y-64878196D01*
X51741004Y-64881796D01*
X51716500Y-64883000D01*
X50791500Y-64883000D01*
X50766996Y-64881796D01*
X50742727Y-64878196D01*
X50718929Y-64872235D01*
X50695829Y-64863970D01*
X50673651Y-64853480D01*
X50652607Y-64840867D01*
X50632902Y-64826253D01*
X50614723Y-64809777D01*
X50598247Y-64791598D01*
X50583633Y-64771893D01*
X50571020Y-64750849D01*
X50560530Y-64728671D01*
X50552265Y-64705571D01*
X50546304Y-64681773D01*
X50542704Y-64657504D01*
X50541500Y-64633000D01*
X50541500Y-63383000D01*
X50542704Y-63358496D01*
X50546304Y-63334227D01*
X50552265Y-63310429D01*
X50560530Y-63287329D01*
X50571020Y-63265151D01*
X50583633Y-63244107D01*
X50598247Y-63224402D01*
X50614723Y-63206223D01*
X50632902Y-63189747D01*
X50652607Y-63175133D01*
X50673651Y-63162520D01*
X50695829Y-63152030D01*
X50718929Y-63143765D01*
X50742727Y-63137804D01*
X50766996Y-63134204D01*
X50791500Y-63133000D01*
X51716500Y-63133000D01*
X51741004Y-63134204D01*
X51741004Y-63134204D01*
G37*
D11*
X51254000Y-64008000D03*
D10*
G36*
X54716004Y-63134204D02*
G01*
X54740273Y-63137804D01*
X54764071Y-63143765D01*
X54787171Y-63152030D01*
X54809349Y-63162520D01*
X54830393Y-63175133D01*
X54850098Y-63189747D01*
X54868277Y-63206223D01*
X54884753Y-63224402D01*
X54899367Y-63244107D01*
X54911980Y-63265151D01*
X54922470Y-63287329D01*
X54930735Y-63310429D01*
X54936696Y-63334227D01*
X54940296Y-63358496D01*
X54941500Y-63383000D01*
X54941500Y-64633000D01*
X54940296Y-64657504D01*
X54936696Y-64681773D01*
X54930735Y-64705571D01*
X54922470Y-64728671D01*
X54911980Y-64750849D01*
X54899367Y-64771893D01*
X54884753Y-64791598D01*
X54868277Y-64809777D01*
X54850098Y-64826253D01*
X54830393Y-64840867D01*
X54809349Y-64853480D01*
X54787171Y-64863970D01*
X54764071Y-64872235D01*
X54740273Y-64878196D01*
X54716004Y-64881796D01*
X54691500Y-64883000D01*
X53766500Y-64883000D01*
X53741996Y-64881796D01*
X53717727Y-64878196D01*
X53693929Y-64872235D01*
X53670829Y-64863970D01*
X53648651Y-64853480D01*
X53627607Y-64840867D01*
X53607902Y-64826253D01*
X53589723Y-64809777D01*
X53573247Y-64791598D01*
X53558633Y-64771893D01*
X53546020Y-64750849D01*
X53535530Y-64728671D01*
X53527265Y-64705571D01*
X53521304Y-64681773D01*
X53517704Y-64657504D01*
X53516500Y-64633000D01*
X53516500Y-63383000D01*
X53517704Y-63358496D01*
X53521304Y-63334227D01*
X53527265Y-63310429D01*
X53535530Y-63287329D01*
X53546020Y-63265151D01*
X53558633Y-63244107D01*
X53573247Y-63224402D01*
X53589723Y-63206223D01*
X53607902Y-63189747D01*
X53627607Y-63175133D01*
X53648651Y-63162520D01*
X53670829Y-63152030D01*
X53693929Y-63143765D01*
X53717727Y-63137804D01*
X53741996Y-63134204D01*
X53766500Y-63133000D01*
X54691500Y-63133000D01*
X54716004Y-63134204D01*
X54716004Y-63134204D01*
G37*
D11*
X54229000Y-64008000D03*
D10*
G36*
X51741004Y-60213204D02*
G01*
X51765273Y-60216804D01*
X51789071Y-60222765D01*
X51812171Y-60231030D01*
X51834349Y-60241520D01*
X51855393Y-60254133D01*
X51875098Y-60268747D01*
X51893277Y-60285223D01*
X51909753Y-60303402D01*
X51924367Y-60323107D01*
X51936980Y-60344151D01*
X51947470Y-60366329D01*
X51955735Y-60389429D01*
X51961696Y-60413227D01*
X51965296Y-60437496D01*
X51966500Y-60462000D01*
X51966500Y-61712000D01*
X51965296Y-61736504D01*
X51961696Y-61760773D01*
X51955735Y-61784571D01*
X51947470Y-61807671D01*
X51936980Y-61829849D01*
X51924367Y-61850893D01*
X51909753Y-61870598D01*
X51893277Y-61888777D01*
X51875098Y-61905253D01*
X51855393Y-61919867D01*
X51834349Y-61932480D01*
X51812171Y-61942970D01*
X51789071Y-61951235D01*
X51765273Y-61957196D01*
X51741004Y-61960796D01*
X51716500Y-61962000D01*
X50791500Y-61962000D01*
X50766996Y-61960796D01*
X50742727Y-61957196D01*
X50718929Y-61951235D01*
X50695829Y-61942970D01*
X50673651Y-61932480D01*
X50652607Y-61919867D01*
X50632902Y-61905253D01*
X50614723Y-61888777D01*
X50598247Y-61870598D01*
X50583633Y-61850893D01*
X50571020Y-61829849D01*
X50560530Y-61807671D01*
X50552265Y-61784571D01*
X50546304Y-61760773D01*
X50542704Y-61736504D01*
X50541500Y-61712000D01*
X50541500Y-60462000D01*
X50542704Y-60437496D01*
X50546304Y-60413227D01*
X50552265Y-60389429D01*
X50560530Y-60366329D01*
X50571020Y-60344151D01*
X50583633Y-60323107D01*
X50598247Y-60303402D01*
X50614723Y-60285223D01*
X50632902Y-60268747D01*
X50652607Y-60254133D01*
X50673651Y-60241520D01*
X50695829Y-60231030D01*
X50718929Y-60222765D01*
X50742727Y-60216804D01*
X50766996Y-60213204D01*
X50791500Y-60212000D01*
X51716500Y-60212000D01*
X51741004Y-60213204D01*
X51741004Y-60213204D01*
G37*
D11*
X51254000Y-61087000D03*
D10*
G36*
X54716004Y-60213204D02*
G01*
X54740273Y-60216804D01*
X54764071Y-60222765D01*
X54787171Y-60231030D01*
X54809349Y-60241520D01*
X54830393Y-60254133D01*
X54850098Y-60268747D01*
X54868277Y-60285223D01*
X54884753Y-60303402D01*
X54899367Y-60323107D01*
X54911980Y-60344151D01*
X54922470Y-60366329D01*
X54930735Y-60389429D01*
X54936696Y-60413227D01*
X54940296Y-60437496D01*
X54941500Y-60462000D01*
X54941500Y-61712000D01*
X54940296Y-61736504D01*
X54936696Y-61760773D01*
X54930735Y-61784571D01*
X54922470Y-61807671D01*
X54911980Y-61829849D01*
X54899367Y-61850893D01*
X54884753Y-61870598D01*
X54868277Y-61888777D01*
X54850098Y-61905253D01*
X54830393Y-61919867D01*
X54809349Y-61932480D01*
X54787171Y-61942970D01*
X54764071Y-61951235D01*
X54740273Y-61957196D01*
X54716004Y-61960796D01*
X54691500Y-61962000D01*
X53766500Y-61962000D01*
X53741996Y-61960796D01*
X53717727Y-61957196D01*
X53693929Y-61951235D01*
X53670829Y-61942970D01*
X53648651Y-61932480D01*
X53627607Y-61919867D01*
X53607902Y-61905253D01*
X53589723Y-61888777D01*
X53573247Y-61870598D01*
X53558633Y-61850893D01*
X53546020Y-61829849D01*
X53535530Y-61807671D01*
X53527265Y-61784571D01*
X53521304Y-61760773D01*
X53517704Y-61736504D01*
X53516500Y-61712000D01*
X53516500Y-60462000D01*
X53517704Y-60437496D01*
X53521304Y-60413227D01*
X53527265Y-60389429D01*
X53535530Y-60366329D01*
X53546020Y-60344151D01*
X53558633Y-60323107D01*
X53573247Y-60303402D01*
X53589723Y-60285223D01*
X53607902Y-60268747D01*
X53627607Y-60254133D01*
X53648651Y-60241520D01*
X53670829Y-60231030D01*
X53693929Y-60222765D01*
X53717727Y-60216804D01*
X53741996Y-60213204D01*
X53766500Y-60212000D01*
X54691500Y-60212000D01*
X54716004Y-60213204D01*
X54716004Y-60213204D01*
G37*
D11*
X54229000Y-61087000D03*
D10*
G36*
X51741004Y-57165204D02*
G01*
X51765273Y-57168804D01*
X51789071Y-57174765D01*
X51812171Y-57183030D01*
X51834349Y-57193520D01*
X51855393Y-57206133D01*
X51875098Y-57220747D01*
X51893277Y-57237223D01*
X51909753Y-57255402D01*
X51924367Y-57275107D01*
X51936980Y-57296151D01*
X51947470Y-57318329D01*
X51955735Y-57341429D01*
X51961696Y-57365227D01*
X51965296Y-57389496D01*
X51966500Y-57414000D01*
X51966500Y-58664000D01*
X51965296Y-58688504D01*
X51961696Y-58712773D01*
X51955735Y-58736571D01*
X51947470Y-58759671D01*
X51936980Y-58781849D01*
X51924367Y-58802893D01*
X51909753Y-58822598D01*
X51893277Y-58840777D01*
X51875098Y-58857253D01*
X51855393Y-58871867D01*
X51834349Y-58884480D01*
X51812171Y-58894970D01*
X51789071Y-58903235D01*
X51765273Y-58909196D01*
X51741004Y-58912796D01*
X51716500Y-58914000D01*
X50791500Y-58914000D01*
X50766996Y-58912796D01*
X50742727Y-58909196D01*
X50718929Y-58903235D01*
X50695829Y-58894970D01*
X50673651Y-58884480D01*
X50652607Y-58871867D01*
X50632902Y-58857253D01*
X50614723Y-58840777D01*
X50598247Y-58822598D01*
X50583633Y-58802893D01*
X50571020Y-58781849D01*
X50560530Y-58759671D01*
X50552265Y-58736571D01*
X50546304Y-58712773D01*
X50542704Y-58688504D01*
X50541500Y-58664000D01*
X50541500Y-57414000D01*
X50542704Y-57389496D01*
X50546304Y-57365227D01*
X50552265Y-57341429D01*
X50560530Y-57318329D01*
X50571020Y-57296151D01*
X50583633Y-57275107D01*
X50598247Y-57255402D01*
X50614723Y-57237223D01*
X50632902Y-57220747D01*
X50652607Y-57206133D01*
X50673651Y-57193520D01*
X50695829Y-57183030D01*
X50718929Y-57174765D01*
X50742727Y-57168804D01*
X50766996Y-57165204D01*
X50791500Y-57164000D01*
X51716500Y-57164000D01*
X51741004Y-57165204D01*
X51741004Y-57165204D01*
G37*
D11*
X51254000Y-58039000D03*
D10*
G36*
X54716004Y-57165204D02*
G01*
X54740273Y-57168804D01*
X54764071Y-57174765D01*
X54787171Y-57183030D01*
X54809349Y-57193520D01*
X54830393Y-57206133D01*
X54850098Y-57220747D01*
X54868277Y-57237223D01*
X54884753Y-57255402D01*
X54899367Y-57275107D01*
X54911980Y-57296151D01*
X54922470Y-57318329D01*
X54930735Y-57341429D01*
X54936696Y-57365227D01*
X54940296Y-57389496D01*
X54941500Y-57414000D01*
X54941500Y-58664000D01*
X54940296Y-58688504D01*
X54936696Y-58712773D01*
X54930735Y-58736571D01*
X54922470Y-58759671D01*
X54911980Y-58781849D01*
X54899367Y-58802893D01*
X54884753Y-58822598D01*
X54868277Y-58840777D01*
X54850098Y-58857253D01*
X54830393Y-58871867D01*
X54809349Y-58884480D01*
X54787171Y-58894970D01*
X54764071Y-58903235D01*
X54740273Y-58909196D01*
X54716004Y-58912796D01*
X54691500Y-58914000D01*
X53766500Y-58914000D01*
X53741996Y-58912796D01*
X53717727Y-58909196D01*
X53693929Y-58903235D01*
X53670829Y-58894970D01*
X53648651Y-58884480D01*
X53627607Y-58871867D01*
X53607902Y-58857253D01*
X53589723Y-58840777D01*
X53573247Y-58822598D01*
X53558633Y-58802893D01*
X53546020Y-58781849D01*
X53535530Y-58759671D01*
X53527265Y-58736571D01*
X53521304Y-58712773D01*
X53517704Y-58688504D01*
X53516500Y-58664000D01*
X53516500Y-57414000D01*
X53517704Y-57389496D01*
X53521304Y-57365227D01*
X53527265Y-57341429D01*
X53535530Y-57318329D01*
X53546020Y-57296151D01*
X53558633Y-57275107D01*
X53573247Y-57255402D01*
X53589723Y-57237223D01*
X53607902Y-57220747D01*
X53627607Y-57206133D01*
X53648651Y-57193520D01*
X53670829Y-57183030D01*
X53693929Y-57174765D01*
X53717727Y-57168804D01*
X53741996Y-57165204D01*
X53766500Y-57164000D01*
X54691500Y-57164000D01*
X54716004Y-57165204D01*
X54716004Y-57165204D01*
G37*
D11*
X54229000Y-58039000D03*
D10*
G36*
X51668004Y-54371204D02*
G01*
X51692273Y-54374804D01*
X51716071Y-54380765D01*
X51739171Y-54389030D01*
X51761349Y-54399520D01*
X51782393Y-54412133D01*
X51802098Y-54426747D01*
X51820277Y-54443223D01*
X51836753Y-54461402D01*
X51851367Y-54481107D01*
X51863980Y-54502151D01*
X51874470Y-54524329D01*
X51882735Y-54547429D01*
X51888696Y-54571227D01*
X51892296Y-54595496D01*
X51893500Y-54620000D01*
X51893500Y-55870000D01*
X51892296Y-55894504D01*
X51888696Y-55918773D01*
X51882735Y-55942571D01*
X51874470Y-55965671D01*
X51863980Y-55987849D01*
X51851367Y-56008893D01*
X51836753Y-56028598D01*
X51820277Y-56046777D01*
X51802098Y-56063253D01*
X51782393Y-56077867D01*
X51761349Y-56090480D01*
X51739171Y-56100970D01*
X51716071Y-56109235D01*
X51692273Y-56115196D01*
X51668004Y-56118796D01*
X51643500Y-56120000D01*
X50718500Y-56120000D01*
X50693996Y-56118796D01*
X50669727Y-56115196D01*
X50645929Y-56109235D01*
X50622829Y-56100970D01*
X50600651Y-56090480D01*
X50579607Y-56077867D01*
X50559902Y-56063253D01*
X50541723Y-56046777D01*
X50525247Y-56028598D01*
X50510633Y-56008893D01*
X50498020Y-55987849D01*
X50487530Y-55965671D01*
X50479265Y-55942571D01*
X50473304Y-55918773D01*
X50469704Y-55894504D01*
X50468500Y-55870000D01*
X50468500Y-54620000D01*
X50469704Y-54595496D01*
X50473304Y-54571227D01*
X50479265Y-54547429D01*
X50487530Y-54524329D01*
X50498020Y-54502151D01*
X50510633Y-54481107D01*
X50525247Y-54461402D01*
X50541723Y-54443223D01*
X50559902Y-54426747D01*
X50579607Y-54412133D01*
X50600651Y-54399520D01*
X50622829Y-54389030D01*
X50645929Y-54380765D01*
X50669727Y-54374804D01*
X50693996Y-54371204D01*
X50718500Y-54370000D01*
X51643500Y-54370000D01*
X51668004Y-54371204D01*
X51668004Y-54371204D01*
G37*
D11*
X51181000Y-55245000D03*
D10*
G36*
X54643004Y-54371204D02*
G01*
X54667273Y-54374804D01*
X54691071Y-54380765D01*
X54714171Y-54389030D01*
X54736349Y-54399520D01*
X54757393Y-54412133D01*
X54777098Y-54426747D01*
X54795277Y-54443223D01*
X54811753Y-54461402D01*
X54826367Y-54481107D01*
X54838980Y-54502151D01*
X54849470Y-54524329D01*
X54857735Y-54547429D01*
X54863696Y-54571227D01*
X54867296Y-54595496D01*
X54868500Y-54620000D01*
X54868500Y-55870000D01*
X54867296Y-55894504D01*
X54863696Y-55918773D01*
X54857735Y-55942571D01*
X54849470Y-55965671D01*
X54838980Y-55987849D01*
X54826367Y-56008893D01*
X54811753Y-56028598D01*
X54795277Y-56046777D01*
X54777098Y-56063253D01*
X54757393Y-56077867D01*
X54736349Y-56090480D01*
X54714171Y-56100970D01*
X54691071Y-56109235D01*
X54667273Y-56115196D01*
X54643004Y-56118796D01*
X54618500Y-56120000D01*
X53693500Y-56120000D01*
X53668996Y-56118796D01*
X53644727Y-56115196D01*
X53620929Y-56109235D01*
X53597829Y-56100970D01*
X53575651Y-56090480D01*
X53554607Y-56077867D01*
X53534902Y-56063253D01*
X53516723Y-56046777D01*
X53500247Y-56028598D01*
X53485633Y-56008893D01*
X53473020Y-55987849D01*
X53462530Y-55965671D01*
X53454265Y-55942571D01*
X53448304Y-55918773D01*
X53444704Y-55894504D01*
X53443500Y-55870000D01*
X53443500Y-54620000D01*
X53444704Y-54595496D01*
X53448304Y-54571227D01*
X53454265Y-54547429D01*
X53462530Y-54524329D01*
X53473020Y-54502151D01*
X53485633Y-54481107D01*
X53500247Y-54461402D01*
X53516723Y-54443223D01*
X53534902Y-54426747D01*
X53554607Y-54412133D01*
X53575651Y-54399520D01*
X53597829Y-54389030D01*
X53620929Y-54380765D01*
X53644727Y-54374804D01*
X53668996Y-54371204D01*
X53693500Y-54370000D01*
X54618500Y-54370000D01*
X54643004Y-54371204D01*
X54643004Y-54371204D01*
G37*
D11*
X54156000Y-55245000D03*
D10*
G36*
X60847504Y-51993704D02*
G01*
X60871773Y-51997304D01*
X60895571Y-52003265D01*
X60918671Y-52011530D01*
X60940849Y-52022020D01*
X60961893Y-52034633D01*
X60981598Y-52049247D01*
X60999777Y-52065723D01*
X61016253Y-52083902D01*
X61030867Y-52103607D01*
X61043480Y-52124651D01*
X61053970Y-52146829D01*
X61062235Y-52169929D01*
X61068196Y-52193727D01*
X61071796Y-52217996D01*
X61073000Y-52242500D01*
X61073000Y-53167500D01*
X61071796Y-53192004D01*
X61068196Y-53216273D01*
X61062235Y-53240071D01*
X61053970Y-53263171D01*
X61043480Y-53285349D01*
X61030867Y-53306393D01*
X61016253Y-53326098D01*
X60999777Y-53344277D01*
X60981598Y-53360753D01*
X60961893Y-53375367D01*
X60940849Y-53387980D01*
X60918671Y-53398470D01*
X60895571Y-53406735D01*
X60871773Y-53412696D01*
X60847504Y-53416296D01*
X60823000Y-53417500D01*
X59573000Y-53417500D01*
X59548496Y-53416296D01*
X59524227Y-53412696D01*
X59500429Y-53406735D01*
X59477329Y-53398470D01*
X59455151Y-53387980D01*
X59434107Y-53375367D01*
X59414402Y-53360753D01*
X59396223Y-53344277D01*
X59379747Y-53326098D01*
X59365133Y-53306393D01*
X59352520Y-53285349D01*
X59342030Y-53263171D01*
X59333765Y-53240071D01*
X59327804Y-53216273D01*
X59324204Y-53192004D01*
X59323000Y-53167500D01*
X59323000Y-52242500D01*
X59324204Y-52217996D01*
X59327804Y-52193727D01*
X59333765Y-52169929D01*
X59342030Y-52146829D01*
X59352520Y-52124651D01*
X59365133Y-52103607D01*
X59379747Y-52083902D01*
X59396223Y-52065723D01*
X59414402Y-52049247D01*
X59434107Y-52034633D01*
X59455151Y-52022020D01*
X59477329Y-52011530D01*
X59500429Y-52003265D01*
X59524227Y-51997304D01*
X59548496Y-51993704D01*
X59573000Y-51992500D01*
X60823000Y-51992500D01*
X60847504Y-51993704D01*
X60847504Y-51993704D01*
G37*
D11*
X60198000Y-52705000D03*
D10*
G36*
X60847504Y-49018704D02*
G01*
X60871773Y-49022304D01*
X60895571Y-49028265D01*
X60918671Y-49036530D01*
X60940849Y-49047020D01*
X60961893Y-49059633D01*
X60981598Y-49074247D01*
X60999777Y-49090723D01*
X61016253Y-49108902D01*
X61030867Y-49128607D01*
X61043480Y-49149651D01*
X61053970Y-49171829D01*
X61062235Y-49194929D01*
X61068196Y-49218727D01*
X61071796Y-49242996D01*
X61073000Y-49267500D01*
X61073000Y-50192500D01*
X61071796Y-50217004D01*
X61068196Y-50241273D01*
X61062235Y-50265071D01*
X61053970Y-50288171D01*
X61043480Y-50310349D01*
X61030867Y-50331393D01*
X61016253Y-50351098D01*
X60999777Y-50369277D01*
X60981598Y-50385753D01*
X60961893Y-50400367D01*
X60940849Y-50412980D01*
X60918671Y-50423470D01*
X60895571Y-50431735D01*
X60871773Y-50437696D01*
X60847504Y-50441296D01*
X60823000Y-50442500D01*
X59573000Y-50442500D01*
X59548496Y-50441296D01*
X59524227Y-50437696D01*
X59500429Y-50431735D01*
X59477329Y-50423470D01*
X59455151Y-50412980D01*
X59434107Y-50400367D01*
X59414402Y-50385753D01*
X59396223Y-50369277D01*
X59379747Y-50351098D01*
X59365133Y-50331393D01*
X59352520Y-50310349D01*
X59342030Y-50288171D01*
X59333765Y-50265071D01*
X59327804Y-50241273D01*
X59324204Y-50217004D01*
X59323000Y-50192500D01*
X59323000Y-49267500D01*
X59324204Y-49242996D01*
X59327804Y-49218727D01*
X59333765Y-49194929D01*
X59342030Y-49171829D01*
X59352520Y-49149651D01*
X59365133Y-49128607D01*
X59379747Y-49108902D01*
X59396223Y-49090723D01*
X59414402Y-49074247D01*
X59434107Y-49059633D01*
X59455151Y-49047020D01*
X59477329Y-49036530D01*
X59500429Y-49028265D01*
X59524227Y-49022304D01*
X59548496Y-49018704D01*
X59573000Y-49017500D01*
X60823000Y-49017500D01*
X60847504Y-49018704D01*
X60847504Y-49018704D01*
G37*
D11*
X60198000Y-49730000D03*
D10*
G36*
X63641504Y-51993704D02*
G01*
X63665773Y-51997304D01*
X63689571Y-52003265D01*
X63712671Y-52011530D01*
X63734849Y-52022020D01*
X63755893Y-52034633D01*
X63775598Y-52049247D01*
X63793777Y-52065723D01*
X63810253Y-52083902D01*
X63824867Y-52103607D01*
X63837480Y-52124651D01*
X63847970Y-52146829D01*
X63856235Y-52169929D01*
X63862196Y-52193727D01*
X63865796Y-52217996D01*
X63867000Y-52242500D01*
X63867000Y-53167500D01*
X63865796Y-53192004D01*
X63862196Y-53216273D01*
X63856235Y-53240071D01*
X63847970Y-53263171D01*
X63837480Y-53285349D01*
X63824867Y-53306393D01*
X63810253Y-53326098D01*
X63793777Y-53344277D01*
X63775598Y-53360753D01*
X63755893Y-53375367D01*
X63734849Y-53387980D01*
X63712671Y-53398470D01*
X63689571Y-53406735D01*
X63665773Y-53412696D01*
X63641504Y-53416296D01*
X63617000Y-53417500D01*
X62367000Y-53417500D01*
X62342496Y-53416296D01*
X62318227Y-53412696D01*
X62294429Y-53406735D01*
X62271329Y-53398470D01*
X62249151Y-53387980D01*
X62228107Y-53375367D01*
X62208402Y-53360753D01*
X62190223Y-53344277D01*
X62173747Y-53326098D01*
X62159133Y-53306393D01*
X62146520Y-53285349D01*
X62136030Y-53263171D01*
X62127765Y-53240071D01*
X62121804Y-53216273D01*
X62118204Y-53192004D01*
X62117000Y-53167500D01*
X62117000Y-52242500D01*
X62118204Y-52217996D01*
X62121804Y-52193727D01*
X62127765Y-52169929D01*
X62136030Y-52146829D01*
X62146520Y-52124651D01*
X62159133Y-52103607D01*
X62173747Y-52083902D01*
X62190223Y-52065723D01*
X62208402Y-52049247D01*
X62228107Y-52034633D01*
X62249151Y-52022020D01*
X62271329Y-52011530D01*
X62294429Y-52003265D01*
X62318227Y-51997304D01*
X62342496Y-51993704D01*
X62367000Y-51992500D01*
X63617000Y-51992500D01*
X63641504Y-51993704D01*
X63641504Y-51993704D01*
G37*
D11*
X62992000Y-52705000D03*
D10*
G36*
X63641504Y-49018704D02*
G01*
X63665773Y-49022304D01*
X63689571Y-49028265D01*
X63712671Y-49036530D01*
X63734849Y-49047020D01*
X63755893Y-49059633D01*
X63775598Y-49074247D01*
X63793777Y-49090723D01*
X63810253Y-49108902D01*
X63824867Y-49128607D01*
X63837480Y-49149651D01*
X63847970Y-49171829D01*
X63856235Y-49194929D01*
X63862196Y-49218727D01*
X63865796Y-49242996D01*
X63867000Y-49267500D01*
X63867000Y-50192500D01*
X63865796Y-50217004D01*
X63862196Y-50241273D01*
X63856235Y-50265071D01*
X63847970Y-50288171D01*
X63837480Y-50310349D01*
X63824867Y-50331393D01*
X63810253Y-50351098D01*
X63793777Y-50369277D01*
X63775598Y-50385753D01*
X63755893Y-50400367D01*
X63734849Y-50412980D01*
X63712671Y-50423470D01*
X63689571Y-50431735D01*
X63665773Y-50437696D01*
X63641504Y-50441296D01*
X63617000Y-50442500D01*
X62367000Y-50442500D01*
X62342496Y-50441296D01*
X62318227Y-50437696D01*
X62294429Y-50431735D01*
X62271329Y-50423470D01*
X62249151Y-50412980D01*
X62228107Y-50400367D01*
X62208402Y-50385753D01*
X62190223Y-50369277D01*
X62173747Y-50351098D01*
X62159133Y-50331393D01*
X62146520Y-50310349D01*
X62136030Y-50288171D01*
X62127765Y-50265071D01*
X62121804Y-50241273D01*
X62118204Y-50217004D01*
X62117000Y-50192500D01*
X62117000Y-49267500D01*
X62118204Y-49242996D01*
X62121804Y-49218727D01*
X62127765Y-49194929D01*
X62136030Y-49171829D01*
X62146520Y-49149651D01*
X62159133Y-49128607D01*
X62173747Y-49108902D01*
X62190223Y-49090723D01*
X62208402Y-49074247D01*
X62228107Y-49059633D01*
X62249151Y-49047020D01*
X62271329Y-49036530D01*
X62294429Y-49028265D01*
X62318227Y-49022304D01*
X62342496Y-49018704D01*
X62367000Y-49017500D01*
X63617000Y-49017500D01*
X63641504Y-49018704D01*
X63641504Y-49018704D01*
G37*
D11*
X62992000Y-49730000D03*
D10*
G36*
X66562504Y-49072704D02*
G01*
X66586773Y-49076304D01*
X66610571Y-49082265D01*
X66633671Y-49090530D01*
X66655849Y-49101020D01*
X66676893Y-49113633D01*
X66696598Y-49128247D01*
X66714777Y-49144723D01*
X66731253Y-49162902D01*
X66745867Y-49182607D01*
X66758480Y-49203651D01*
X66768970Y-49225829D01*
X66777235Y-49248929D01*
X66783196Y-49272727D01*
X66786796Y-49296996D01*
X66788000Y-49321500D01*
X66788000Y-50246500D01*
X66786796Y-50271004D01*
X66783196Y-50295273D01*
X66777235Y-50319071D01*
X66768970Y-50342171D01*
X66758480Y-50364349D01*
X66745867Y-50385393D01*
X66731253Y-50405098D01*
X66714777Y-50423277D01*
X66696598Y-50439753D01*
X66676893Y-50454367D01*
X66655849Y-50466980D01*
X66633671Y-50477470D01*
X66610571Y-50485735D01*
X66586773Y-50491696D01*
X66562504Y-50495296D01*
X66538000Y-50496500D01*
X65288000Y-50496500D01*
X65263496Y-50495296D01*
X65239227Y-50491696D01*
X65215429Y-50485735D01*
X65192329Y-50477470D01*
X65170151Y-50466980D01*
X65149107Y-50454367D01*
X65129402Y-50439753D01*
X65111223Y-50423277D01*
X65094747Y-50405098D01*
X65080133Y-50385393D01*
X65067520Y-50364349D01*
X65057030Y-50342171D01*
X65048765Y-50319071D01*
X65042804Y-50295273D01*
X65039204Y-50271004D01*
X65038000Y-50246500D01*
X65038000Y-49321500D01*
X65039204Y-49296996D01*
X65042804Y-49272727D01*
X65048765Y-49248929D01*
X65057030Y-49225829D01*
X65067520Y-49203651D01*
X65080133Y-49182607D01*
X65094747Y-49162902D01*
X65111223Y-49144723D01*
X65129402Y-49128247D01*
X65149107Y-49113633D01*
X65170151Y-49101020D01*
X65192329Y-49090530D01*
X65215429Y-49082265D01*
X65239227Y-49076304D01*
X65263496Y-49072704D01*
X65288000Y-49071500D01*
X66538000Y-49071500D01*
X66562504Y-49072704D01*
X66562504Y-49072704D01*
G37*
D11*
X65913000Y-49784000D03*
D10*
G36*
X66562504Y-52047704D02*
G01*
X66586773Y-52051304D01*
X66610571Y-52057265D01*
X66633671Y-52065530D01*
X66655849Y-52076020D01*
X66676893Y-52088633D01*
X66696598Y-52103247D01*
X66714777Y-52119723D01*
X66731253Y-52137902D01*
X66745867Y-52157607D01*
X66758480Y-52178651D01*
X66768970Y-52200829D01*
X66777235Y-52223929D01*
X66783196Y-52247727D01*
X66786796Y-52271996D01*
X66788000Y-52296500D01*
X66788000Y-53221500D01*
X66786796Y-53246004D01*
X66783196Y-53270273D01*
X66777235Y-53294071D01*
X66768970Y-53317171D01*
X66758480Y-53339349D01*
X66745867Y-53360393D01*
X66731253Y-53380098D01*
X66714777Y-53398277D01*
X66696598Y-53414753D01*
X66676893Y-53429367D01*
X66655849Y-53441980D01*
X66633671Y-53452470D01*
X66610571Y-53460735D01*
X66586773Y-53466696D01*
X66562504Y-53470296D01*
X66538000Y-53471500D01*
X65288000Y-53471500D01*
X65263496Y-53470296D01*
X65239227Y-53466696D01*
X65215429Y-53460735D01*
X65192329Y-53452470D01*
X65170151Y-53441980D01*
X65149107Y-53429367D01*
X65129402Y-53414753D01*
X65111223Y-53398277D01*
X65094747Y-53380098D01*
X65080133Y-53360393D01*
X65067520Y-53339349D01*
X65057030Y-53317171D01*
X65048765Y-53294071D01*
X65042804Y-53270273D01*
X65039204Y-53246004D01*
X65038000Y-53221500D01*
X65038000Y-52296500D01*
X65039204Y-52271996D01*
X65042804Y-52247727D01*
X65048765Y-52223929D01*
X65057030Y-52200829D01*
X65067520Y-52178651D01*
X65080133Y-52157607D01*
X65094747Y-52137902D01*
X65111223Y-52119723D01*
X65129402Y-52103247D01*
X65149107Y-52088633D01*
X65170151Y-52076020D01*
X65192329Y-52065530D01*
X65215429Y-52057265D01*
X65239227Y-52051304D01*
X65263496Y-52047704D01*
X65288000Y-52046500D01*
X66538000Y-52046500D01*
X66562504Y-52047704D01*
X66562504Y-52047704D01*
G37*
D11*
X65913000Y-52759000D03*
D19*
X63016001Y-68191001D03*
X63016001Y-68691001D03*
X63016001Y-69191001D03*
X63016001Y-69691001D03*
X63016001Y-70191001D03*
X63016001Y-70691001D03*
X63016001Y-71191001D03*
X63016001Y-71691001D03*
X63016001Y-72191001D03*
X63016001Y-72691001D03*
X63016001Y-73191001D03*
X63016001Y-73691001D03*
D20*
X64436001Y-75111001D03*
X64936001Y-75111001D03*
X65436001Y-75111001D03*
X65936001Y-75111001D03*
X66436001Y-75111001D03*
X66936001Y-75111001D03*
X67436001Y-75111001D03*
X67936001Y-75111001D03*
X68436001Y-75111001D03*
X68936001Y-75111001D03*
X69436001Y-75111001D03*
X69936001Y-75111001D03*
D19*
X71356001Y-73691001D03*
X71356001Y-73191001D03*
X71356001Y-72691001D03*
X71356001Y-72191001D03*
X71356001Y-71691001D03*
X71356001Y-71191001D03*
X71356001Y-70691001D03*
X71356001Y-70191001D03*
X71356001Y-69691001D03*
X71356001Y-69191001D03*
X71356001Y-68691001D03*
X71356001Y-68191001D03*
D20*
X69936001Y-66771001D03*
X69436001Y-66771001D03*
X68936001Y-66771001D03*
X68436001Y-66771001D03*
X67936001Y-66771001D03*
X67436001Y-66771001D03*
X66936001Y-66771001D03*
X66436001Y-66771001D03*
X65936001Y-66771001D03*
X65436001Y-66771001D03*
X64936001Y-66771001D03*
X64436001Y-66771001D03*
D21*
X77089000Y-93218000D03*
D22*
X74549000Y-93218000D03*
X72009000Y-93218000D03*
X69469000Y-93218000D03*
X66929000Y-93218000D03*
X64389000Y-93218000D03*
X61849000Y-93218000D03*
X59309000Y-93218000D03*
X56769000Y-93218000D03*
X54229000Y-93218000D03*
X51689000Y-93218000D03*
D23*
X66152000Y-34544000D03*
D24*
X69652000Y-34544000D03*
X73152000Y-34544000D03*
X76652000Y-34544000D03*
D25*
X73660000Y-53340000D03*
X78740000Y-60960000D03*
X57150000Y-95250000D03*
X58420000Y-55880000D03*
X78740000Y-76200000D03*
X71120000Y-81280000D03*
X88900000Y-71120000D03*
X38100000Y-38100000D03*
X38100000Y-50800000D03*
X40386000Y-43434000D03*
X40386000Y-56134000D03*
X40386000Y-68834000D03*
X38100000Y-101600000D03*
X50800000Y-101600000D03*
X63500000Y-101600000D03*
X76200000Y-101600000D03*
X88900000Y-101600000D03*
X39243000Y-55372000D03*
X50800000Y-38100000D03*
X63500000Y-38100000D03*
X88900000Y-38100000D03*
X101600000Y-38100000D03*
X107950000Y-44450000D03*
X107950000Y-57150000D03*
X107950000Y-69850000D03*
X107950000Y-82550000D03*
X107950000Y-95250000D03*
X95250000Y-95250000D03*
X82550000Y-95250000D03*
X44450000Y-95250000D03*
X50800000Y-88900000D03*
X57150000Y-82550000D03*
X76200000Y-88900000D03*
X95250000Y-63500000D03*
X88900000Y-57150000D03*
X82550000Y-57150000D03*
X44450000Y-44450000D03*
X57150000Y-44450000D03*
X82550000Y-44450000D03*
X95250000Y-44450000D03*
X101600000Y-50800000D03*
X88900000Y-50800000D03*
X50800000Y-50800000D03*
X44450000Y-57150000D03*
X44450000Y-69850000D03*
X44450000Y-82550000D03*
X39243000Y-42672000D03*
X95250000Y-82550000D03*
X65936001Y-64666001D03*
X71501000Y-65024000D03*
X70485000Y-76708000D03*
X75946000Y-67691000D03*
X93472000Y-70739000D03*
X94234000Y-56261000D03*
X76327000Y-65592002D03*
X63881000Y-78613000D03*
X69469000Y-89027000D03*
X67056000Y-63246000D03*
D26*
X65436001Y-66771001D02*
X65936001Y-66771001D01*
X68436001Y-65772001D02*
X69184002Y-65024000D01*
X68436001Y-66771001D02*
X68436001Y-65772001D01*
X68936001Y-65272001D02*
X69184002Y-65024000D01*
X68936001Y-66771001D02*
X68936001Y-65272001D01*
X69436001Y-65564999D02*
X69977000Y-65024000D01*
X69436001Y-66771001D02*
X69436001Y-65564999D01*
X69977000Y-65024000D02*
X71501000Y-65024000D01*
X69184002Y-65024000D02*
X69977000Y-65024000D01*
X71177711Y-65024000D02*
X71501000Y-65024000D01*
X71078002Y-65024000D02*
X71177711Y-65024000D01*
X69936001Y-66166001D02*
X71078002Y-65024000D01*
X69936001Y-66771001D02*
X69936001Y-66166001D01*
X71356001Y-65168999D02*
X71501000Y-65024000D01*
X71356001Y-68191001D02*
X71356001Y-65168999D01*
X65936001Y-66771001D02*
X65936001Y-64666001D01*
X65436001Y-65166001D02*
X65936001Y-64666001D01*
X65436001Y-66771001D02*
X65436001Y-65166001D01*
X69436001Y-76110001D02*
X69436001Y-75111001D01*
X70485000Y-75266000D02*
X70485000Y-76708000D01*
X70034000Y-76708000D02*
X69436001Y-76110001D01*
X70485000Y-76708000D02*
X70034000Y-76708000D01*
X70330001Y-75111001D02*
X70485000Y-75266000D01*
X69936001Y-75111001D02*
X70330001Y-75111001D01*
X70485000Y-76708000D02*
X70485000Y-76708000D01*
D27*
X74549000Y-93218000D02*
X74549000Y-91313000D01*
X74549000Y-93218000D02*
X74549000Y-94420081D01*
X74549000Y-94420081D02*
X74549000Y-95605600D01*
D26*
X66936001Y-85590999D02*
X66936001Y-75111001D01*
X59309000Y-93218000D02*
X66936001Y-85590999D01*
X66436001Y-83550999D02*
X66436001Y-75111001D01*
X56769000Y-93218000D02*
X66436001Y-83550999D01*
X65936001Y-81510999D02*
X65936001Y-75111001D01*
X54229000Y-93218000D02*
X65936001Y-81510999D01*
X65436001Y-79470999D02*
X65436001Y-75111001D01*
X51689000Y-93218000D02*
X65436001Y-79470999D01*
X71356001Y-76120001D02*
X82104000Y-86868000D01*
D28*
X82104000Y-86868000D02*
X82804000Y-86868000D01*
D26*
X71356001Y-73691001D02*
X71356001Y-76120001D01*
X72228001Y-73191001D02*
X77777000Y-78740000D01*
X77777000Y-78740000D02*
X82804000Y-78740000D01*
X71356001Y-73191001D02*
X72228001Y-73191001D01*
D28*
X80946001Y-72691001D02*
X81661000Y-73406000D01*
D26*
X71356001Y-72691001D02*
X80946001Y-72691001D01*
X80281999Y-72191001D02*
X81607000Y-70866000D01*
X71356001Y-72191001D02*
X80281999Y-72191001D01*
X78422999Y-71691001D02*
X81661000Y-68453000D01*
X71356001Y-71691001D02*
X78422999Y-71691001D01*
X76509999Y-71191001D02*
X81534000Y-66167000D01*
X71356001Y-71191001D02*
X76509999Y-71191001D01*
X74850999Y-70691001D02*
X81661000Y-63881000D01*
X71356001Y-70691001D02*
X74850999Y-70691001D01*
X71356001Y-70191001D02*
X73445999Y-70191001D01*
X73445999Y-70191001D02*
X75946000Y-67691000D01*
D28*
X97235000Y-70739000D02*
X97362000Y-70612000D01*
D26*
X93472000Y-70739000D02*
X97235000Y-70739000D01*
D28*
X97973000Y-56261000D02*
X98100000Y-56388000D01*
D26*
X94234000Y-56261000D02*
X97973000Y-56261000D01*
X72228001Y-69691001D02*
X76327000Y-65592002D01*
X71356001Y-69691001D02*
X72228001Y-69691001D01*
X72228001Y-69191001D02*
X75438000Y-65981002D01*
X71356001Y-69191001D02*
X72228001Y-69191001D01*
X75438000Y-58747000D02*
X81734000Y-52451000D01*
X75438000Y-65981002D02*
X75438000Y-58747000D01*
D28*
X71372000Y-68707000D02*
X71356001Y-68691001D01*
D26*
X72083903Y-68691001D02*
X74666653Y-66108251D01*
X71356001Y-68691001D02*
X72083903Y-68691001D01*
X77714653Y-53657347D02*
X78486000Y-52886000D01*
X74666653Y-56705347D02*
X78486000Y-52886000D01*
X74666653Y-66108251D02*
X74666653Y-56705347D01*
X67436001Y-87630999D02*
X67436001Y-75111001D01*
X61849000Y-93218000D02*
X67436001Y-87630999D01*
D29*
X64436001Y-75716001D02*
X63881000Y-76271002D01*
X64436001Y-75111001D02*
X64436001Y-75716001D01*
X63881000Y-76271002D02*
X63881000Y-78613000D01*
X64436001Y-75111001D02*
X64851500Y-75111001D01*
D26*
X63016001Y-74524999D02*
X54102000Y-83439000D01*
X63016001Y-73691001D02*
X63016001Y-74524999D01*
X60031999Y-73191001D02*
X54102000Y-79121000D01*
X63016001Y-73191001D02*
X60031999Y-73191001D01*
X57102999Y-72691001D02*
X54229000Y-75565000D01*
X63016001Y-72691001D02*
X57102999Y-72691001D01*
D28*
X54808999Y-72191001D02*
X54229000Y-72771000D01*
D26*
X63016001Y-72191001D02*
X54808999Y-72191001D01*
X55997001Y-71691001D02*
X54156000Y-69850000D01*
X63016001Y-71691001D02*
X55997001Y-71691001D01*
X58491001Y-71191001D02*
X54229000Y-66929000D01*
X63016001Y-71191001D02*
X58491001Y-71191001D01*
X60912001Y-70691001D02*
X54229000Y-64008000D01*
X63016001Y-70691001D02*
X60912001Y-70691001D01*
X62144001Y-70191001D02*
X58547000Y-66594000D01*
X63016001Y-70191001D02*
X62144001Y-70191001D01*
X58547000Y-65405000D02*
X54229000Y-61087000D01*
X58547000Y-66594000D02*
X58547000Y-65405000D01*
X62144001Y-69691001D02*
X59055000Y-66602000D01*
X63016001Y-69691001D02*
X62144001Y-69691001D01*
X59055000Y-62865000D02*
X54229000Y-58039000D01*
X59055000Y-66602000D02*
X59055000Y-62865000D01*
X62144001Y-69191001D02*
X59563000Y-66610000D01*
X63016001Y-69191001D02*
X62144001Y-69191001D01*
X59563000Y-60652000D02*
X54156000Y-55245000D01*
X59563000Y-66610000D02*
X59563000Y-60652000D01*
D28*
X60198000Y-53517500D02*
X60198000Y-52705000D01*
D26*
X62144001Y-68691001D02*
X60198000Y-66745000D01*
X63016001Y-68691001D02*
X62144001Y-68691001D01*
X60198000Y-66745000D02*
X60198000Y-53517500D01*
D28*
X63016001Y-52729001D02*
X62992000Y-52705000D01*
D26*
X63016001Y-68191001D02*
X63016001Y-52729001D01*
X64436001Y-66771001D02*
X64436001Y-54235999D01*
X64436001Y-54235999D02*
X65913000Y-52759000D01*
X64936001Y-66771001D02*
X64936001Y-56602999D01*
X64936001Y-56602999D02*
X68707000Y-52832000D01*
X68436001Y-89645001D02*
X68436001Y-75111001D01*
X72009000Y-93218000D02*
X68436001Y-89645001D01*
X67691000Y-94996000D02*
X68619001Y-94067999D01*
X66167000Y-94996000D02*
X67691000Y-94996000D01*
X68619001Y-94067999D02*
X69469000Y-93218000D01*
X64389000Y-93218000D02*
X66167000Y-94996000D01*
X68936001Y-88494001D02*
X68936001Y-75111001D01*
X69469000Y-89027000D02*
X68936001Y-88494001D01*
X67936001Y-92210999D02*
X67936001Y-75111001D01*
X66929000Y-93218000D02*
X67936001Y-92210999D01*
D29*
X48127000Y-83439000D02*
X48127000Y-79121000D01*
X48127000Y-79121000D02*
X48127000Y-78692000D01*
X82169000Y-49911000D02*
X84709000Y-52451000D01*
X84709000Y-63808000D02*
X84636000Y-63881000D01*
X84709000Y-52451000D02*
X84709000Y-63808000D01*
X84636000Y-65115000D02*
X83584000Y-66167000D01*
X84636000Y-63881000D02*
X84636000Y-65115000D01*
X83584000Y-67401000D02*
X84636000Y-68453000D01*
X83584000Y-66167000D02*
X83584000Y-67401000D01*
X84636000Y-68453000D02*
X84636000Y-73406000D01*
X89004000Y-77774000D02*
X89004000Y-78740000D01*
X84636000Y-73406000D02*
X89004000Y-77774000D01*
X89004000Y-78740000D02*
X89004000Y-86868000D01*
X91239000Y-78740000D02*
X89004000Y-78740000D01*
X95869000Y-78740000D02*
X91239000Y-78740000D01*
X102362000Y-72247000D02*
X95869000Y-78740000D01*
X102362000Y-70612000D02*
X102362000Y-72247000D01*
X99098000Y-52451000D02*
X84709000Y-52451000D01*
X101600000Y-54953000D02*
X99098000Y-52451000D01*
X101600000Y-56388000D02*
X101600000Y-54953000D01*
X51254000Y-75565000D02*
X51254000Y-55318000D01*
X51254000Y-55318000D02*
X51181000Y-55245000D01*
X48127000Y-78692000D02*
X51254000Y-75565000D01*
X51181000Y-55245000D02*
X56515000Y-49911000D01*
X75438000Y-49911000D02*
X82169000Y-49911000D01*
X56696000Y-49730000D02*
X56515000Y-49911000D01*
X75438000Y-49911000D02*
X75257000Y-49730000D01*
X73152000Y-34544000D02*
X73152000Y-49676000D01*
X73152000Y-49676000D02*
X73206000Y-49730000D01*
X73206000Y-49730000D02*
X56696000Y-49730000D01*
X75257000Y-49730000D02*
X73206000Y-49730000D01*
X76652000Y-46284000D02*
X73206000Y-49730000D01*
X76652000Y-34544000D02*
X76652000Y-46284000D01*
D26*
X66936001Y-65772001D02*
X66936001Y-66771001D01*
X66936001Y-63689288D02*
X66936001Y-65772001D01*
X67056000Y-63569289D02*
X66936001Y-63689288D01*
X67056000Y-63246000D02*
X67056000Y-63569289D01*
G36*
X38889439Y-30280425D02*
G01*
X38909627Y-30305042D01*
X38934409Y-30325395D01*
X38934499Y-30325485D01*
X38961182Y-30347383D01*
X39008223Y-30386017D01*
X39008322Y-30386070D01*
X39008416Y-30386147D01*
X39065453Y-30416634D01*
X39120721Y-30446201D01*
X39120833Y-30446235D01*
X39120936Y-30446290D01*
X39182162Y-30464863D01*
X39242799Y-30483281D01*
X39242914Y-30483292D01*
X39243028Y-30483327D01*
X39306418Y-30489570D01*
X39337958Y-30492688D01*
X39338076Y-30492688D01*
X39369999Y-30495832D01*
X39401689Y-30492711D01*
X109823078Y-30518088D01*
X109855000Y-30521232D01*
X109918295Y-30514998D01*
X109981741Y-30508772D01*
X109981850Y-30508739D01*
X109981971Y-30508727D01*
X110044430Y-30489780D01*
X110103846Y-30471780D01*
X110103948Y-30471726D01*
X110104062Y-30471691D01*
X110159784Y-30441907D01*
X110216388Y-30411678D01*
X110216482Y-30411601D01*
X110216583Y-30411547D01*
X110265690Y-30371246D01*
X110315042Y-30330773D01*
X110335401Y-30305984D01*
X114593686Y-26047700D01*
X120002301Y-26047700D01*
X120002300Y-37476114D01*
X115388503Y-42089912D01*
X115363792Y-42110192D01*
X115282852Y-42208818D01*
X115222709Y-42321338D01*
X115185673Y-42443430D01*
X115176300Y-42538592D01*
X115176300Y-42538599D01*
X115173168Y-42570400D01*
X115176300Y-42602201D01*
X115176301Y-97097789D01*
X115173168Y-97129600D01*
X115185673Y-97256571D01*
X115222709Y-97378662D01*
X115282853Y-97491183D01*
X115343515Y-97565100D01*
X115343518Y-97565103D01*
X115363793Y-97589808D01*
X115388498Y-97610083D01*
X120002301Y-102223887D01*
X120002300Y-113652300D01*
X114542886Y-113652300D01*
X110310088Y-109419503D01*
X110289808Y-109394792D01*
X110191183Y-109313852D01*
X110078663Y-109253709D01*
X109956571Y-109216673D01*
X109861409Y-109207300D01*
X109861401Y-109207300D01*
X109829600Y-109204168D01*
X109797799Y-109207300D01*
X39427200Y-109207300D01*
X39395399Y-109204168D01*
X39363598Y-109207300D01*
X39363591Y-109207300D01*
X39283252Y-109215213D01*
X39268428Y-109216673D01*
X39231392Y-109227908D01*
X39146337Y-109253709D01*
X39033817Y-109313852D01*
X38935192Y-109394792D01*
X38914917Y-109419497D01*
X34682115Y-113652300D01*
X26047700Y-113652300D01*
X26047700Y-109638970D01*
X27905613Y-109638970D01*
X27905613Y-110071030D01*
X27989904Y-110494787D01*
X28155246Y-110893958D01*
X28395285Y-111253203D01*
X28700797Y-111558715D01*
X29060042Y-111798754D01*
X29459213Y-111964096D01*
X29882970Y-112048387D01*
X30315030Y-112048387D01*
X30738787Y-111964096D01*
X31137958Y-111798754D01*
X31497203Y-111558715D01*
X31802715Y-111253203D01*
X32042754Y-110893958D01*
X32208096Y-110494787D01*
X32292387Y-110071030D01*
X32292387Y-109638970D01*
X32208096Y-109215213D01*
X32042754Y-108816042D01*
X31802715Y-108456797D01*
X31497203Y-108151285D01*
X31137958Y-107911246D01*
X30738787Y-107745904D01*
X30315030Y-107661613D01*
X29882970Y-107661613D01*
X29459213Y-107745904D01*
X29060042Y-107911246D01*
X28700797Y-108151285D01*
X28395285Y-108456797D01*
X28155246Y-108816042D01*
X27989904Y-109215213D01*
X27905613Y-109638970D01*
X26047700Y-109638970D01*
X26047700Y-107098970D01*
X113630613Y-107098970D01*
X113630613Y-107531030D01*
X113714904Y-107954787D01*
X113880246Y-108353958D01*
X114120285Y-108713203D01*
X114425797Y-109018715D01*
X114785042Y-109258754D01*
X115184213Y-109424096D01*
X115607970Y-109508387D01*
X116040030Y-109508387D01*
X116463787Y-109424096D01*
X116862958Y-109258754D01*
X117222203Y-109018715D01*
X117527715Y-108713203D01*
X117767754Y-108353958D01*
X117933096Y-107954787D01*
X118017387Y-107531030D01*
X118017387Y-107098970D01*
X117933096Y-106675213D01*
X117767754Y-106276042D01*
X117527715Y-105916797D01*
X117222203Y-105611285D01*
X116862958Y-105371246D01*
X116463787Y-105205904D01*
X116040030Y-105121613D01*
X115607970Y-105121613D01*
X115184213Y-105205904D01*
X114785042Y-105371246D01*
X114425797Y-105611285D01*
X114120285Y-105916797D01*
X113880246Y-106276042D01*
X113714904Y-106675213D01*
X113630613Y-107098970D01*
X26047700Y-107098970D01*
X26047700Y-105297285D01*
X30534503Y-100810483D01*
X30559208Y-100790208D01*
X30640148Y-100691583D01*
X30700291Y-100579063D01*
X30737327Y-100456971D01*
X30746700Y-100361809D01*
X30746700Y-100361801D01*
X30749832Y-100330000D01*
X30746700Y-100298199D01*
X30746700Y-77695999D01*
X46726428Y-77695999D01*
X46726428Y-80546001D01*
X46743492Y-80719255D01*
X46794028Y-80885851D01*
X46876095Y-81039387D01*
X46986538Y-81173962D01*
X47115745Y-81280000D01*
X46986538Y-81386038D01*
X46876095Y-81520613D01*
X46794028Y-81674149D01*
X46743492Y-81840745D01*
X46726428Y-82013999D01*
X46726428Y-84864001D01*
X46743492Y-85037255D01*
X46794028Y-85203851D01*
X46876095Y-85357387D01*
X46986538Y-85491962D01*
X47121113Y-85602405D01*
X47274649Y-85684472D01*
X47441245Y-85735008D01*
X47614499Y-85752072D01*
X48639501Y-85752072D01*
X48812755Y-85735008D01*
X48979351Y-85684472D01*
X49132887Y-85602405D01*
X49267462Y-85491962D01*
X49377905Y-85357387D01*
X49459972Y-85203851D01*
X49510508Y-85037255D01*
X49527572Y-84864001D01*
X49527572Y-82013999D01*
X49510508Y-81840745D01*
X49459972Y-81674149D01*
X49377905Y-81520613D01*
X49267462Y-81386038D01*
X49138255Y-81280000D01*
X49267462Y-81173962D01*
X49377905Y-81039387D01*
X49459972Y-80885851D01*
X49510508Y-80719255D01*
X49527572Y-80546001D01*
X49527572Y-78638466D01*
X51087967Y-77078072D01*
X51716500Y-77078072D01*
X51889754Y-77061008D01*
X52056350Y-77010472D01*
X52209886Y-76928405D01*
X52344462Y-76817962D01*
X52454905Y-76683386D01*
X52536972Y-76529850D01*
X52587508Y-76363254D01*
X52604572Y-76190000D01*
X52604572Y-74940000D01*
X52587508Y-74766746D01*
X52536972Y-74600150D01*
X52454905Y-74446614D01*
X52344462Y-74312038D01*
X52209886Y-74201595D01*
X52206500Y-74199785D01*
X52206500Y-74136215D01*
X52209886Y-74134405D01*
X52344462Y-74023962D01*
X52454905Y-73889386D01*
X52536972Y-73735850D01*
X52587508Y-73569254D01*
X52604572Y-73396000D01*
X52604572Y-72146000D01*
X52587508Y-71972746D01*
X52536972Y-71806150D01*
X52454905Y-71652614D01*
X52344462Y-71518038D01*
X52209886Y-71407595D01*
X52206500Y-71405785D01*
X52206500Y-71156275D01*
X52271462Y-71102962D01*
X52381905Y-70968386D01*
X52463972Y-70814850D01*
X52514508Y-70648254D01*
X52531572Y-70475000D01*
X52531572Y-69225000D01*
X52514508Y-69051746D01*
X52463972Y-68885150D01*
X52381905Y-68731614D01*
X52271462Y-68597038D01*
X52206500Y-68543725D01*
X52206500Y-68294215D01*
X52209886Y-68292405D01*
X52344462Y-68181962D01*
X52454905Y-68047386D01*
X52536972Y-67893850D01*
X52587508Y-67727254D01*
X52604572Y-67554000D01*
X52604572Y-66304000D01*
X52587508Y-66130746D01*
X52536972Y-65964150D01*
X52454905Y-65810614D01*
X52344462Y-65676038D01*
X52209886Y-65565595D01*
X52206500Y-65563785D01*
X52206500Y-65373215D01*
X52209886Y-65371405D01*
X52344462Y-65260962D01*
X52454905Y-65126386D01*
X52536972Y-64972850D01*
X52587508Y-64806254D01*
X52604572Y-64633000D01*
X52604572Y-63383000D01*
X52587508Y-63209746D01*
X52536972Y-63043150D01*
X52454905Y-62889614D01*
X52344462Y-62755038D01*
X52209886Y-62644595D01*
X52206500Y-62642785D01*
X52206500Y-62452215D01*
X52209886Y-62450405D01*
X52344462Y-62339962D01*
X52454905Y-62205386D01*
X52536972Y-62051850D01*
X52587508Y-61885254D01*
X52604572Y-61712000D01*
X52604572Y-60462000D01*
X52587508Y-60288746D01*
X52536972Y-60122150D01*
X52454905Y-59968614D01*
X52344462Y-59834038D01*
X52209886Y-59723595D01*
X52206500Y-59721785D01*
X52206500Y-59404215D01*
X52209886Y-59402405D01*
X52344462Y-59291962D01*
X52454905Y-59157386D01*
X52536972Y-59003850D01*
X52587508Y-58837254D01*
X52604572Y-58664000D01*
X52604572Y-57414000D01*
X52587508Y-57240746D01*
X52536972Y-57074150D01*
X52454905Y-56920614D01*
X52344462Y-56786038D01*
X52209886Y-56675595D01*
X52206500Y-56673785D01*
X52206500Y-56551275D01*
X52271462Y-56497962D01*
X52381905Y-56363386D01*
X52463972Y-56209850D01*
X52514508Y-56043254D01*
X52531572Y-55870000D01*
X52531572Y-55241466D01*
X52805428Y-54967610D01*
X52805428Y-55870000D01*
X52822492Y-56043254D01*
X52873028Y-56209850D01*
X52955095Y-56363386D01*
X53065538Y-56497962D01*
X53200114Y-56608405D01*
X53299466Y-56661510D01*
X53273114Y-56675595D01*
X53138538Y-56786038D01*
X53028095Y-56920614D01*
X52946028Y-57074150D01*
X52895492Y-57240746D01*
X52878428Y-57414000D01*
X52878428Y-58664000D01*
X52895492Y-58837254D01*
X52946028Y-59003850D01*
X53028095Y-59157386D01*
X53138538Y-59291962D01*
X53273114Y-59402405D01*
X53426650Y-59484472D01*
X53593246Y-59535008D01*
X53766500Y-59552072D01*
X54664442Y-59552072D01*
X54686298Y-59573928D01*
X53766500Y-59573928D01*
X53593246Y-59590992D01*
X53426650Y-59641528D01*
X53273114Y-59723595D01*
X53138538Y-59834038D01*
X53028095Y-59968614D01*
X52946028Y-60122150D01*
X52895492Y-60288746D01*
X52878428Y-60462000D01*
X52878428Y-61712000D01*
X52895492Y-61885254D01*
X52946028Y-62051850D01*
X53028095Y-62205386D01*
X53138538Y-62339962D01*
X53273114Y-62450405D01*
X53426650Y-62532472D01*
X53476191Y-62547500D01*
X53426650Y-62562528D01*
X53273114Y-62644595D01*
X53138538Y-62755038D01*
X53028095Y-62889614D01*
X52946028Y-63043150D01*
X52895492Y-63209746D01*
X52878428Y-63383000D01*
X52878428Y-64633000D01*
X52895492Y-64806254D01*
X52946028Y-64972850D01*
X53028095Y-65126386D01*
X53138538Y-65260962D01*
X53273114Y-65371405D01*
X53426650Y-65453472D01*
X53476191Y-65468500D01*
X53426650Y-65483528D01*
X53273114Y-65565595D01*
X53138538Y-65676038D01*
X53028095Y-65810614D01*
X52946028Y-65964150D01*
X52895492Y-66130746D01*
X52878428Y-66304000D01*
X52878428Y-67554000D01*
X52895492Y-67727254D01*
X52946028Y-67893850D01*
X53028095Y-68047386D01*
X53138538Y-68181962D01*
X53273114Y-68292405D01*
X53426650Y-68374472D01*
X53439691Y-68378428D01*
X53353650Y-68404528D01*
X53200114Y-68486595D01*
X53065538Y-68597038D01*
X52955095Y-68731614D01*
X52873028Y-68885150D01*
X52822492Y-69051746D01*
X52805428Y-69225000D01*
X52805428Y-70475000D01*
X52822492Y-70648254D01*
X52873028Y-70814850D01*
X52955095Y-70968386D01*
X53065538Y-71102962D01*
X53200114Y-71213405D01*
X53353650Y-71295472D01*
X53439691Y-71321572D01*
X53426650Y-71325528D01*
X53273114Y-71407595D01*
X53138538Y-71518038D01*
X53028095Y-71652614D01*
X52946028Y-71806150D01*
X52895492Y-71972746D01*
X52878428Y-72146000D01*
X52878428Y-73396000D01*
X52895492Y-73569254D01*
X52946028Y-73735850D01*
X53028095Y-73889386D01*
X53138538Y-74023962D01*
X53273114Y-74134405D01*
X53335966Y-74168000D01*
X53273114Y-74201595D01*
X53138538Y-74312038D01*
X53028095Y-74446614D01*
X52946028Y-74600150D01*
X52895492Y-74766746D01*
X52878428Y-74940000D01*
X52878428Y-76190000D01*
X52895492Y-76363254D01*
X52946028Y-76529850D01*
X53028095Y-76683386D01*
X53138538Y-76817962D01*
X53224841Y-76888788D01*
X53096113Y-76957595D01*
X52961538Y-77068038D01*
X52851095Y-77202613D01*
X52769028Y-77356149D01*
X52718492Y-77522745D01*
X52701428Y-77695999D01*
X52701428Y-80546001D01*
X52718492Y-80719255D01*
X52769028Y-80885851D01*
X52851095Y-81039387D01*
X52961538Y-81173962D01*
X53090745Y-81280000D01*
X52961538Y-81386038D01*
X52851095Y-81520613D01*
X52769028Y-81674149D01*
X52718492Y-81840745D01*
X52701428Y-82013999D01*
X52701428Y-84864001D01*
X52718492Y-85037255D01*
X52769028Y-85203851D01*
X52851095Y-85357387D01*
X52961538Y-85491962D01*
X53096113Y-85602405D01*
X53249649Y-85684472D01*
X53416245Y-85735008D01*
X53589499Y-85752072D01*
X54614501Y-85752072D01*
X54787755Y-85735008D01*
X54954351Y-85684472D01*
X55107887Y-85602405D01*
X55242462Y-85491962D01*
X55352905Y-85357387D01*
X55434972Y-85203851D01*
X55485508Y-85037255D01*
X55502572Y-84864001D01*
X55502572Y-83116058D01*
X63481470Y-75137161D01*
X63483501Y-75157786D01*
X63483501Y-75321463D01*
X63240569Y-75564395D01*
X63204222Y-75594224D01*
X63085194Y-75739261D01*
X62996748Y-75904734D01*
X62952767Y-76049718D01*
X62942283Y-76084280D01*
X62923892Y-76271002D01*
X62928500Y-76317787D01*
X62928501Y-78659785D01*
X62942284Y-78799723D01*
X62996749Y-78979269D01*
X63085195Y-79144741D01*
X63204223Y-79289778D01*
X63349260Y-79408806D01*
X63514732Y-79497252D01*
X63694278Y-79551717D01*
X63881000Y-79570108D01*
X64067723Y-79551717D01*
X64247269Y-79497252D01*
X64412741Y-79408806D01*
X64456360Y-79373009D01*
X52052825Y-91776545D01*
X51980111Y-91754487D01*
X51761950Y-91733000D01*
X51616050Y-91733000D01*
X51397889Y-91754487D01*
X51117966Y-91839401D01*
X50859986Y-91977294D01*
X50633866Y-92162866D01*
X50448294Y-92388986D01*
X50310401Y-92646966D01*
X50225487Y-92926889D01*
X50196815Y-93218000D01*
X50225487Y-93509111D01*
X50310401Y-93789034D01*
X50448294Y-94047014D01*
X50633866Y-94273134D01*
X50859986Y-94458706D01*
X51117966Y-94596599D01*
X51397889Y-94681513D01*
X51616050Y-94703000D01*
X51761950Y-94703000D01*
X51980111Y-94681513D01*
X52260034Y-94596599D01*
X52518014Y-94458706D01*
X52744134Y-94273134D01*
X52929706Y-94047014D01*
X52959000Y-93992209D01*
X52988294Y-94047014D01*
X53173866Y-94273134D01*
X53399986Y-94458706D01*
X53657966Y-94596599D01*
X53937889Y-94681513D01*
X54156050Y-94703000D01*
X54301950Y-94703000D01*
X54520111Y-94681513D01*
X54800034Y-94596599D01*
X55058014Y-94458706D01*
X55284134Y-94273134D01*
X55469706Y-94047014D01*
X55499000Y-93992209D01*
X55528294Y-94047014D01*
X55713866Y-94273134D01*
X55939986Y-94458706D01*
X56197966Y-94596599D01*
X56477889Y-94681513D01*
X56696050Y-94703000D01*
X56841950Y-94703000D01*
X57060111Y-94681513D01*
X57340034Y-94596599D01*
X57598014Y-94458706D01*
X57824134Y-94273134D01*
X58009706Y-94047014D01*
X58039000Y-93992209D01*
X58068294Y-94047014D01*
X58253866Y-94273134D01*
X58479986Y-94458706D01*
X58737966Y-94596599D01*
X59017889Y-94681513D01*
X59236050Y-94703000D01*
X59381950Y-94703000D01*
X59600111Y-94681513D01*
X59880034Y-94596599D01*
X60138014Y-94458706D01*
X60364134Y-94273134D01*
X60549706Y-94047014D01*
X60579000Y-93992209D01*
X60608294Y-94047014D01*
X60793866Y-94273134D01*
X61019986Y-94458706D01*
X61277966Y-94596599D01*
X61557889Y-94681513D01*
X61776050Y-94703000D01*
X61921950Y-94703000D01*
X62140111Y-94681513D01*
X62420034Y-94596599D01*
X62678014Y-94458706D01*
X62904134Y-94273134D01*
X63089706Y-94047014D01*
X63119000Y-93992209D01*
X63148294Y-94047014D01*
X63333866Y-94273134D01*
X63559986Y-94458706D01*
X63817966Y-94596599D01*
X64097889Y-94681513D01*
X64316050Y-94703000D01*
X64461950Y-94703000D01*
X64680111Y-94681513D01*
X64752825Y-94659455D01*
X65601716Y-95508346D01*
X65625578Y-95537422D01*
X65699219Y-95597857D01*
X65741607Y-95632645D01*
X65812364Y-95670465D01*
X65873985Y-95703402D01*
X66017622Y-95746974D01*
X66129574Y-95758000D01*
X66129577Y-95758000D01*
X66167000Y-95761686D01*
X66204423Y-95758000D01*
X67653577Y-95758000D01*
X67691000Y-95761686D01*
X67728423Y-95758000D01*
X67728426Y-95758000D01*
X67840378Y-95746974D01*
X67984015Y-95703402D01*
X68116392Y-95632645D01*
X68232422Y-95537422D01*
X68256284Y-95508346D01*
X69105175Y-94659455D01*
X69177889Y-94681513D01*
X69396050Y-94703000D01*
X69541950Y-94703000D01*
X69760111Y-94681513D01*
X70040034Y-94596599D01*
X70298014Y-94458706D01*
X70524134Y-94273134D01*
X70709706Y-94047014D01*
X70739000Y-93992209D01*
X70768294Y-94047014D01*
X70953866Y-94273134D01*
X71179986Y-94458706D01*
X71437966Y-94596599D01*
X71717889Y-94681513D01*
X71936050Y-94703000D01*
X72081950Y-94703000D01*
X72300111Y-94681513D01*
X72580034Y-94596599D01*
X72838014Y-94458706D01*
X73064134Y-94273134D01*
X73249706Y-94047014D01*
X73284201Y-93982477D01*
X73353822Y-94099355D01*
X73548731Y-94315588D01*
X73782080Y-94489641D01*
X74044901Y-94614825D01*
X74192110Y-94659476D01*
X74422000Y-94538155D01*
X74422000Y-93345000D01*
X74402000Y-93345000D01*
X74402000Y-93091000D01*
X74422000Y-93091000D01*
X74422000Y-91897845D01*
X74676000Y-91897845D01*
X74676000Y-93091000D01*
X74696000Y-93091000D01*
X74696000Y-93345000D01*
X74676000Y-93345000D01*
X74676000Y-94538155D01*
X74905890Y-94659476D01*
X75053099Y-94614825D01*
X75315920Y-94489641D01*
X75549269Y-94315588D01*
X75625034Y-94231534D01*
X75649498Y-94312180D01*
X75708463Y-94422494D01*
X75787815Y-94519185D01*
X75884506Y-94598537D01*
X75994820Y-94657502D01*
X76114518Y-94693812D01*
X76239000Y-94706072D01*
X77939000Y-94706072D01*
X78063482Y-94693812D01*
X78183180Y-94657502D01*
X78293494Y-94598537D01*
X78390185Y-94519185D01*
X78469537Y-94422494D01*
X78528502Y-94312180D01*
X78564812Y-94192482D01*
X78577072Y-94068000D01*
X78577072Y-92368000D01*
X78564812Y-92243518D01*
X78528502Y-92123820D01*
X78469537Y-92013506D01*
X78390185Y-91916815D01*
X78293494Y-91837463D01*
X78183180Y-91778498D01*
X78063482Y-91742188D01*
X77939000Y-91729928D01*
X76239000Y-91729928D01*
X76114518Y-91742188D01*
X75994820Y-91778498D01*
X75884506Y-91837463D01*
X75787815Y-91916815D01*
X75708463Y-92013506D01*
X75649498Y-92123820D01*
X75625034Y-92204466D01*
X75549269Y-92120412D01*
X75315920Y-91946359D01*
X75053099Y-91821175D01*
X74905890Y-91776524D01*
X74676000Y-91897845D01*
X74422000Y-91897845D01*
X74192110Y-91776524D01*
X74044901Y-91821175D01*
X73782080Y-91946359D01*
X73548731Y-92120412D01*
X73353822Y-92336645D01*
X73284201Y-92453523D01*
X73249706Y-92388986D01*
X73064134Y-92162866D01*
X72838014Y-91977294D01*
X72580034Y-91839401D01*
X72300111Y-91754487D01*
X72081950Y-91733000D01*
X71936050Y-91733000D01*
X71717889Y-91754487D01*
X71645175Y-91776545D01*
X69724538Y-89855908D01*
X69878068Y-89792313D01*
X70019513Y-89697802D01*
X70139802Y-89577513D01*
X70234313Y-89436068D01*
X70299413Y-89278903D01*
X70332600Y-89112057D01*
X70332600Y-88941943D01*
X70299413Y-88775097D01*
X70234313Y-88617932D01*
X70139802Y-88476487D01*
X70019513Y-88356198D01*
X69878068Y-88261687D01*
X69720903Y-88196587D01*
X69715054Y-88195424D01*
X69698001Y-88178371D01*
X69698001Y-76483784D01*
X69764251Y-76491001D01*
X69806179Y-76449073D01*
X69828960Y-76441789D01*
X69938381Y-76381183D01*
X69970641Y-76353891D01*
X70107751Y-76491001D01*
X70209818Y-76479883D01*
X70328960Y-76441789D01*
X70438381Y-76381183D01*
X70533876Y-76300395D01*
X70599912Y-76217433D01*
X70605028Y-76269379D01*
X70648600Y-76413016D01*
X70719356Y-76545393D01*
X70764379Y-76600253D01*
X70814580Y-76661423D01*
X70843650Y-76685280D01*
X80565928Y-86407559D01*
X80565928Y-87768000D01*
X80578188Y-87892482D01*
X80614498Y-88012180D01*
X80673463Y-88122494D01*
X80752815Y-88219185D01*
X80849506Y-88298537D01*
X80959820Y-88357502D01*
X81079518Y-88393812D01*
X81204000Y-88406072D01*
X84404000Y-88406072D01*
X84528482Y-88393812D01*
X84648180Y-88357502D01*
X84758494Y-88298537D01*
X84855185Y-88219185D01*
X84934537Y-88122494D01*
X84993502Y-88012180D01*
X85029812Y-87892482D01*
X85042072Y-87768000D01*
X85042072Y-85968000D01*
X85029812Y-85843518D01*
X84993502Y-85723820D01*
X84934537Y-85613506D01*
X84855185Y-85516815D01*
X84758494Y-85437463D01*
X84648180Y-85378498D01*
X84528482Y-85342188D01*
X84404000Y-85329928D01*
X81643559Y-85329928D01*
X72118001Y-75804371D01*
X72118001Y-74467399D01*
X72225483Y-74456813D01*
X72345181Y-74420503D01*
X72367789Y-74408419D01*
X77211716Y-79252346D01*
X77235578Y-79281422D01*
X77284561Y-79321621D01*
X77351607Y-79376645D01*
X77411777Y-79408806D01*
X77483985Y-79447402D01*
X77627622Y-79490974D01*
X77739574Y-79502000D01*
X77739577Y-79502000D01*
X77777000Y-79505686D01*
X77814423Y-79502000D01*
X80565928Y-79502000D01*
X80565928Y-79640000D01*
X80578188Y-79764482D01*
X80614498Y-79884180D01*
X80673463Y-79994494D01*
X80752815Y-80091185D01*
X80849506Y-80170537D01*
X80959820Y-80229502D01*
X81079518Y-80265812D01*
X81204000Y-80278072D01*
X84404000Y-80278072D01*
X84528482Y-80265812D01*
X84648180Y-80229502D01*
X84758494Y-80170537D01*
X84855185Y-80091185D01*
X84934537Y-79994494D01*
X84993502Y-79884180D01*
X85029812Y-79764482D01*
X85042072Y-79640000D01*
X85042072Y-77840000D01*
X85029812Y-77715518D01*
X84993502Y-77595820D01*
X84934537Y-77485506D01*
X84855185Y-77388815D01*
X84758494Y-77309463D01*
X84648180Y-77250498D01*
X84528482Y-77214188D01*
X84404000Y-77201928D01*
X81204000Y-77201928D01*
X81079518Y-77214188D01*
X80959820Y-77250498D01*
X80849506Y-77309463D01*
X80752815Y-77388815D01*
X80673463Y-77485506D01*
X80614498Y-77595820D01*
X80578188Y-77715518D01*
X80565928Y-77840000D01*
X80565928Y-77978000D01*
X78092630Y-77978000D01*
X73567631Y-73453001D01*
X80310428Y-73453001D01*
X80310428Y-74031000D01*
X80327492Y-74204254D01*
X80378028Y-74370850D01*
X80460095Y-74524386D01*
X80570538Y-74658962D01*
X80705114Y-74769405D01*
X80858650Y-74851472D01*
X81025246Y-74902008D01*
X81198500Y-74919072D01*
X82123500Y-74919072D01*
X82296754Y-74902008D01*
X82463350Y-74851472D01*
X82616886Y-74769405D01*
X82751462Y-74658962D01*
X82861905Y-74524386D01*
X82943972Y-74370850D01*
X82994508Y-74204254D01*
X83011572Y-74031000D01*
X83011572Y-72781000D01*
X82994508Y-72607746D01*
X82943972Y-72441150D01*
X82861905Y-72287614D01*
X82751462Y-72153038D01*
X82702484Y-72112843D01*
X82807905Y-71984386D01*
X82889972Y-71830850D01*
X82940508Y-71664254D01*
X82957572Y-71491000D01*
X82957572Y-70241000D01*
X82940508Y-70067746D01*
X82889972Y-69901150D01*
X82807905Y-69747614D01*
X82762592Y-69692400D01*
X82861905Y-69571386D01*
X82943972Y-69417850D01*
X82994508Y-69251254D01*
X83011572Y-69078000D01*
X83011572Y-68175610D01*
X83285428Y-68449466D01*
X83285428Y-69078000D01*
X83302492Y-69251254D01*
X83353028Y-69417850D01*
X83435095Y-69571386D01*
X83480408Y-69626600D01*
X83381095Y-69747614D01*
X83299028Y-69901150D01*
X83248492Y-70067746D01*
X83231428Y-70241000D01*
X83231428Y-71491000D01*
X83248492Y-71664254D01*
X83299028Y-71830850D01*
X83381095Y-71984386D01*
X83491538Y-72118962D01*
X83540516Y-72159157D01*
X83435095Y-72287614D01*
X83353028Y-72441150D01*
X83302492Y-72607746D01*
X83285428Y-72781000D01*
X83285428Y-74031000D01*
X83302492Y-74204254D01*
X83353028Y-74370850D01*
X83435095Y-74524386D01*
X83545538Y-74658962D01*
X83680114Y-74769405D01*
X83833650Y-74851472D01*
X84000246Y-74902008D01*
X84173500Y-74919072D01*
X84802034Y-74919072D01*
X87142642Y-77259680D01*
X87049506Y-77309463D01*
X86952815Y-77388815D01*
X86873463Y-77485506D01*
X86814498Y-77595820D01*
X86778188Y-77715518D01*
X86765928Y-77840000D01*
X86765928Y-79640000D01*
X86778188Y-79764482D01*
X86814498Y-79884180D01*
X86873463Y-79994494D01*
X86952815Y-80091185D01*
X87049506Y-80170537D01*
X87159820Y-80229502D01*
X87279518Y-80265812D01*
X87404000Y-80278072D01*
X88051500Y-80278072D01*
X88051501Y-85329928D01*
X87404000Y-85329928D01*
X87279518Y-85342188D01*
X87159820Y-85378498D01*
X87049506Y-85437463D01*
X86952815Y-85516815D01*
X86873463Y-85613506D01*
X86814498Y-85723820D01*
X86778188Y-85843518D01*
X86765928Y-85968000D01*
X86765928Y-87768000D01*
X86778188Y-87892482D01*
X86814498Y-88012180D01*
X86873463Y-88122494D01*
X86952815Y-88219185D01*
X87049506Y-88298537D01*
X87159820Y-88357502D01*
X87279518Y-88393812D01*
X87404000Y-88406072D01*
X90604000Y-88406072D01*
X90728482Y-88393812D01*
X90848180Y-88357502D01*
X90958494Y-88298537D01*
X91055185Y-88219185D01*
X91134537Y-88122494D01*
X91193502Y-88012180D01*
X91229812Y-87892482D01*
X91242072Y-87768000D01*
X91242072Y-85968000D01*
X91229812Y-85843518D01*
X91193502Y-85723820D01*
X91134537Y-85613506D01*
X91055185Y-85516815D01*
X90958494Y-85437463D01*
X90848180Y-85378498D01*
X90728482Y-85342188D01*
X90604000Y-85329928D01*
X89956500Y-85329928D01*
X89956500Y-80278072D01*
X90604000Y-80278072D01*
X90728482Y-80265812D01*
X90848180Y-80229502D01*
X90958494Y-80170537D01*
X91055185Y-80091185D01*
X91134537Y-79994494D01*
X91193502Y-79884180D01*
X91229812Y-79764482D01*
X91236901Y-79692500D01*
X95822215Y-79692500D01*
X95869000Y-79697108D01*
X95915785Y-79692500D01*
X96055723Y-79678717D01*
X96235269Y-79624252D01*
X96400741Y-79535806D01*
X96545778Y-79416778D01*
X96575607Y-79380431D01*
X103002431Y-72953607D01*
X103038778Y-72923778D01*
X103157806Y-72778741D01*
X103207647Y-72685495D01*
X103246252Y-72613270D01*
X103285587Y-72483599D01*
X103300717Y-72433723D01*
X103314500Y-72293785D01*
X103318805Y-72250072D01*
X103362000Y-72250072D01*
X103486482Y-72237812D01*
X103606180Y-72201502D01*
X103716494Y-72142537D01*
X103813185Y-72063185D01*
X103892537Y-71966494D01*
X103951502Y-71856180D01*
X103987812Y-71736482D01*
X104000072Y-71612000D01*
X104000072Y-69612000D01*
X103987812Y-69487518D01*
X103951502Y-69367820D01*
X103892537Y-69257506D01*
X103813185Y-69160815D01*
X103716494Y-69081463D01*
X103606180Y-69022498D01*
X103486482Y-68986188D01*
X103362000Y-68973928D01*
X101362000Y-68973928D01*
X101237518Y-68986188D01*
X101117820Y-69022498D01*
X101007506Y-69081463D01*
X100910815Y-69160815D01*
X100831463Y-69257506D01*
X100772498Y-69367820D01*
X100736188Y-69487518D01*
X100723928Y-69612000D01*
X100723928Y-71612000D01*
X100736188Y-71736482D01*
X100772498Y-71856180D01*
X100831463Y-71966494D01*
X100910815Y-72063185D01*
X101007506Y-72142537D01*
X101080440Y-72181522D01*
X95474462Y-77787500D01*
X91236901Y-77787500D01*
X91229812Y-77715518D01*
X91193502Y-77595820D01*
X91134537Y-77485506D01*
X91055185Y-77388815D01*
X90958494Y-77309463D01*
X90848180Y-77250498D01*
X90728482Y-77214188D01*
X90604000Y-77201928D01*
X89766707Y-77201928D01*
X89680778Y-77097222D01*
X89644436Y-77067397D01*
X85986572Y-73409534D01*
X85986572Y-72781000D01*
X85969508Y-72607746D01*
X85918972Y-72441150D01*
X85836905Y-72287614D01*
X85726462Y-72153038D01*
X85677484Y-72112843D01*
X85782905Y-71984386D01*
X85864972Y-71830850D01*
X85915508Y-71664254D01*
X85932572Y-71491000D01*
X85932572Y-70653943D01*
X92608400Y-70653943D01*
X92608400Y-70824057D01*
X92641587Y-70990903D01*
X92706687Y-71148068D01*
X92801198Y-71289513D01*
X92921487Y-71409802D01*
X93062932Y-71504313D01*
X93220097Y-71569413D01*
X93386943Y-71602600D01*
X93557057Y-71602600D01*
X93723903Y-71569413D01*
X93881068Y-71504313D01*
X93886026Y-71501000D01*
X95989613Y-71501000D01*
X96092013Y-71654252D01*
X96319748Y-71881987D01*
X96587537Y-72060918D01*
X96885088Y-72184168D01*
X97200967Y-72247000D01*
X97523033Y-72247000D01*
X97838912Y-72184168D01*
X98136463Y-72060918D01*
X98404252Y-71881987D01*
X98631987Y-71654252D01*
X98810918Y-71386463D01*
X98934168Y-71088912D01*
X98997000Y-70773033D01*
X98997000Y-70450967D01*
X98934168Y-70135088D01*
X98810918Y-69837537D01*
X98631987Y-69569748D01*
X98404252Y-69342013D01*
X98136463Y-69163082D01*
X97838912Y-69039832D01*
X97523033Y-68977000D01*
X97200967Y-68977000D01*
X96885088Y-69039832D01*
X96587537Y-69163082D01*
X96319748Y-69342013D01*
X96092013Y-69569748D01*
X95913082Y-69837537D01*
X95855314Y-69977000D01*
X93886026Y-69977000D01*
X93881068Y-69973687D01*
X93723903Y-69908587D01*
X93557057Y-69875400D01*
X93386943Y-69875400D01*
X93220097Y-69908587D01*
X93062932Y-69973687D01*
X92921487Y-70068198D01*
X92801198Y-70188487D01*
X92706687Y-70329932D01*
X92641587Y-70487097D01*
X92608400Y-70653943D01*
X85932572Y-70653943D01*
X85932572Y-70241000D01*
X85915508Y-70067746D01*
X85864972Y-69901150D01*
X85782905Y-69747614D01*
X85737592Y-69692400D01*
X85836905Y-69571386D01*
X85918972Y-69417850D01*
X85969508Y-69251254D01*
X85986572Y-69078000D01*
X85986572Y-67828000D01*
X85969508Y-67654746D01*
X85918972Y-67488150D01*
X85836905Y-67334614D01*
X85726462Y-67200038D01*
X85591886Y-67089595D01*
X85438350Y-67007528D01*
X85271754Y-66956992D01*
X85098500Y-66939928D01*
X84734606Y-66939928D01*
X84780008Y-66790255D01*
X84797072Y-66617001D01*
X84797072Y-66300966D01*
X85276431Y-65821607D01*
X85312778Y-65791778D01*
X85431806Y-65646741D01*
X85508098Y-65504008D01*
X85520252Y-65481270D01*
X85557864Y-65357278D01*
X85574717Y-65301723D01*
X85579722Y-65250907D01*
X85591886Y-65244405D01*
X85726462Y-65133962D01*
X85836905Y-64999386D01*
X85918972Y-64845850D01*
X85969508Y-64679254D01*
X85986572Y-64506000D01*
X85986572Y-63256000D01*
X85969508Y-63082746D01*
X85918972Y-62916150D01*
X85836905Y-62762614D01*
X85726462Y-62628038D01*
X85661500Y-62574725D01*
X85661500Y-56175943D01*
X93370400Y-56175943D01*
X93370400Y-56346057D01*
X93403587Y-56512903D01*
X93468687Y-56670068D01*
X93563198Y-56811513D01*
X93683487Y-56931802D01*
X93824932Y-57026313D01*
X93982097Y-57091413D01*
X94148943Y-57124600D01*
X94319057Y-57124600D01*
X94485903Y-57091413D01*
X94643068Y-57026313D01*
X94648026Y-57023000D01*
X96809793Y-57023000D01*
X96828320Y-57067727D01*
X96985363Y-57302759D01*
X97185241Y-57502637D01*
X97420273Y-57659680D01*
X97681426Y-57767853D01*
X97958665Y-57823000D01*
X98241335Y-57823000D01*
X98518574Y-57767853D01*
X98779727Y-57659680D01*
X99014759Y-57502637D01*
X99214637Y-57302759D01*
X99371680Y-57067727D01*
X99479853Y-56806574D01*
X99535000Y-56529335D01*
X99535000Y-56246665D01*
X99479853Y-55969426D01*
X99371680Y-55708273D01*
X99214637Y-55473241D01*
X99014759Y-55273363D01*
X98779727Y-55116320D01*
X98518574Y-55008147D01*
X98241335Y-54953000D01*
X97958665Y-54953000D01*
X97681426Y-55008147D01*
X97420273Y-55116320D01*
X97185241Y-55273363D01*
X96985363Y-55473241D01*
X96968151Y-55499000D01*
X94648026Y-55499000D01*
X94643068Y-55495687D01*
X94485903Y-55430587D01*
X94319057Y-55397400D01*
X94148943Y-55397400D01*
X93982097Y-55430587D01*
X93824932Y-55495687D01*
X93683487Y-55590198D01*
X93563198Y-55710487D01*
X93468687Y-55851932D01*
X93403587Y-56009097D01*
X93370400Y-56175943D01*
X85661500Y-56175943D01*
X85661500Y-53816215D01*
X85664886Y-53814405D01*
X85799462Y-53703962D01*
X85909905Y-53569386D01*
X85991972Y-53415850D01*
X85995718Y-53403500D01*
X98703462Y-53403500D01*
X100397128Y-55097166D01*
X100348815Y-55136815D01*
X100269463Y-55233506D01*
X100210498Y-55343820D01*
X100174188Y-55463518D01*
X100161928Y-55588000D01*
X100161928Y-57188000D01*
X100174188Y-57312482D01*
X100210498Y-57432180D01*
X100269463Y-57542494D01*
X100348815Y-57639185D01*
X100445506Y-57718537D01*
X100555820Y-57777502D01*
X100675518Y-57813812D01*
X100800000Y-57826072D01*
X102400000Y-57826072D01*
X102524482Y-57813812D01*
X102644180Y-57777502D01*
X102754494Y-57718537D01*
X102851185Y-57639185D01*
X102930537Y-57542494D01*
X102989502Y-57432180D01*
X103025812Y-57312482D01*
X103038072Y-57188000D01*
X103038072Y-55588000D01*
X103025812Y-55463518D01*
X102989502Y-55343820D01*
X102930537Y-55233506D01*
X102851185Y-55136815D01*
X102754494Y-55057463D01*
X102644180Y-54998498D01*
X102555283Y-54971531D01*
X102557108Y-54952999D01*
X102538717Y-54766277D01*
X102522634Y-54713260D01*
X102484252Y-54586731D01*
X102395806Y-54421259D01*
X102276778Y-54276222D01*
X102240431Y-54246393D01*
X99804607Y-51810569D01*
X99774778Y-51774222D01*
X99629741Y-51655194D01*
X99464269Y-51566748D01*
X99284723Y-51512283D01*
X99144785Y-51498500D01*
X99098000Y-51493892D01*
X99051215Y-51498500D01*
X85995718Y-51498500D01*
X85991972Y-51486150D01*
X85909905Y-51332614D01*
X85799462Y-51198038D01*
X85664886Y-51087595D01*
X85511350Y-51005528D01*
X85344754Y-50954992D01*
X85171500Y-50937928D01*
X84542966Y-50937928D01*
X82875607Y-49270569D01*
X82845778Y-49234222D01*
X82700741Y-49115194D01*
X82535269Y-49026748D01*
X82355723Y-48972283D01*
X82215785Y-48958500D01*
X82169000Y-48953892D01*
X82122215Y-48958500D01*
X79851215Y-48958500D01*
X79849405Y-48955114D01*
X79738962Y-48820538D01*
X79604386Y-48710095D01*
X79450850Y-48628028D01*
X79284254Y-48577492D01*
X79111000Y-48560428D01*
X77861000Y-48560428D01*
X77687746Y-48577492D01*
X77521150Y-48628028D01*
X77367614Y-48710095D01*
X77233038Y-48820538D01*
X77122595Y-48955114D01*
X77120785Y-48958500D01*
X75818358Y-48958500D01*
X75788741Y-48934194D01*
X75623269Y-48845748D01*
X75480576Y-48802462D01*
X77292436Y-46990603D01*
X77328778Y-46960778D01*
X77447806Y-46815741D01*
X77536252Y-46650269D01*
X77590717Y-46470723D01*
X77604500Y-46330785D01*
X77609108Y-46284000D01*
X77604500Y-46237215D01*
X77604500Y-36114496D01*
X77821744Y-35969338D01*
X78077338Y-35713744D01*
X78278156Y-35413199D01*
X78416482Y-35079250D01*
X78487000Y-34724732D01*
X78487000Y-34363268D01*
X78416482Y-34008750D01*
X78278156Y-33674801D01*
X78120579Y-33438970D01*
X113630613Y-33438970D01*
X113630613Y-33871030D01*
X113714904Y-34294787D01*
X113880246Y-34693958D01*
X114120285Y-35053203D01*
X114425797Y-35358715D01*
X114785042Y-35598754D01*
X115184213Y-35764096D01*
X115607970Y-35848387D01*
X116040030Y-35848387D01*
X116463787Y-35764096D01*
X116862958Y-35598754D01*
X117222203Y-35358715D01*
X117527715Y-35053203D01*
X117767754Y-34693958D01*
X117933096Y-34294787D01*
X118017387Y-33871030D01*
X118017387Y-33438970D01*
X117933096Y-33015213D01*
X117767754Y-32616042D01*
X117527715Y-32256797D01*
X117222203Y-31951285D01*
X116862958Y-31711246D01*
X116463787Y-31545904D01*
X116040030Y-31461613D01*
X115607970Y-31461613D01*
X115184213Y-31545904D01*
X114785042Y-31711246D01*
X114425797Y-31951285D01*
X114120285Y-32256797D01*
X113880246Y-32616042D01*
X113714904Y-33015213D01*
X113630613Y-33438970D01*
X78120579Y-33438970D01*
X78077338Y-33374256D01*
X77821744Y-33118662D01*
X77521199Y-32917844D01*
X77187250Y-32779518D01*
X76832732Y-32709000D01*
X76471268Y-32709000D01*
X76116750Y-32779518D01*
X75782801Y-32917844D01*
X75482256Y-33118662D01*
X75226662Y-33374256D01*
X75025844Y-33674801D01*
X74902000Y-33973787D01*
X74778156Y-33674801D01*
X74577338Y-33374256D01*
X74321744Y-33118662D01*
X74021199Y-32917844D01*
X73687250Y-32779518D01*
X73332732Y-32709000D01*
X72971268Y-32709000D01*
X72616750Y-32779518D01*
X72282801Y-32917844D01*
X71982256Y-33118662D01*
X71726662Y-33374256D01*
X71525844Y-33674801D01*
X71402000Y-33973787D01*
X71278156Y-33674801D01*
X71077338Y-33374256D01*
X70821744Y-33118662D01*
X70521199Y-32917844D01*
X70187250Y-32779518D01*
X69832732Y-32709000D01*
X69471268Y-32709000D01*
X69116750Y-32779518D01*
X68782801Y-32917844D01*
X68482256Y-33118662D01*
X68226662Y-33374256D01*
X68025844Y-33674801D01*
X67990072Y-33761162D01*
X67990072Y-33344000D01*
X67977812Y-33219518D01*
X67941502Y-33099820D01*
X67882537Y-32989506D01*
X67803185Y-32892815D01*
X67706494Y-32813463D01*
X67596180Y-32754498D01*
X67476482Y-32718188D01*
X67352000Y-32705928D01*
X64952000Y-32705928D01*
X64827518Y-32718188D01*
X64707820Y-32754498D01*
X64597506Y-32813463D01*
X64500815Y-32892815D01*
X64421463Y-32989506D01*
X64362498Y-33099820D01*
X64326188Y-33219518D01*
X64313928Y-33344000D01*
X64313928Y-35744000D01*
X64326188Y-35868482D01*
X64362498Y-35988180D01*
X64421463Y-36098494D01*
X64500815Y-36195185D01*
X64597506Y-36274537D01*
X64707820Y-36333502D01*
X64827518Y-36369812D01*
X64952000Y-36382072D01*
X67352000Y-36382072D01*
X67476482Y-36369812D01*
X67596180Y-36333502D01*
X67706494Y-36274537D01*
X67803185Y-36195185D01*
X67882537Y-36098494D01*
X67941502Y-35988180D01*
X67977812Y-35868482D01*
X67990072Y-35744000D01*
X67990072Y-35326838D01*
X68025844Y-35413199D01*
X68226662Y-35713744D01*
X68482256Y-35969338D01*
X68782801Y-36170156D01*
X69116750Y-36308482D01*
X69471268Y-36379000D01*
X69832732Y-36379000D01*
X70187250Y-36308482D01*
X70521199Y-36170156D01*
X70821744Y-35969338D01*
X71077338Y-35713744D01*
X71278156Y-35413199D01*
X71402000Y-35114213D01*
X71525844Y-35413199D01*
X71726662Y-35713744D01*
X71982256Y-35969338D01*
X72199500Y-36114496D01*
X72199501Y-48777500D01*
X69968958Y-48777500D01*
X69959962Y-48766538D01*
X69825386Y-48656095D01*
X69671850Y-48574028D01*
X69505254Y-48523492D01*
X69332000Y-48506428D01*
X68082000Y-48506428D01*
X67908746Y-48523492D01*
X67742150Y-48574028D01*
X67588614Y-48656095D01*
X67454038Y-48766538D01*
X67445042Y-48777500D01*
X67234867Y-48777500D01*
X67165962Y-48693538D01*
X67031386Y-48583095D01*
X66877850Y-48501028D01*
X66711254Y-48450492D01*
X66538000Y-48433428D01*
X65288000Y-48433428D01*
X65114746Y-48450492D01*
X64948150Y-48501028D01*
X64794614Y-48583095D01*
X64660038Y-48693538D01*
X64591133Y-48777500D01*
X64357215Y-48777500D01*
X64355405Y-48774114D01*
X64244962Y-48639538D01*
X64110386Y-48529095D01*
X63956850Y-48447028D01*
X63790254Y-48396492D01*
X63617000Y-48379428D01*
X62367000Y-48379428D01*
X62193746Y-48396492D01*
X62027150Y-48447028D01*
X61873614Y-48529095D01*
X61739038Y-48639538D01*
X61628595Y-48774114D01*
X61626785Y-48777500D01*
X61563215Y-48777500D01*
X61561405Y-48774114D01*
X61450962Y-48639538D01*
X61316386Y-48529095D01*
X61162850Y-48447028D01*
X60996254Y-48396492D01*
X60823000Y-48379428D01*
X59573000Y-48379428D01*
X59399746Y-48396492D01*
X59233150Y-48447028D01*
X59079614Y-48529095D01*
X58945038Y-48639538D01*
X58834595Y-48774114D01*
X58832785Y-48777500D01*
X56742785Y-48777500D01*
X56696000Y-48772892D01*
X56649216Y-48777500D01*
X56649215Y-48777500D01*
X56509277Y-48791283D01*
X56329731Y-48845748D01*
X56164259Y-48934194D01*
X56019222Y-49053222D01*
X55989390Y-49089573D01*
X55874569Y-49204393D01*
X55874562Y-49204399D01*
X51347034Y-53731928D01*
X50718500Y-53731928D01*
X50545246Y-53748992D01*
X50378650Y-53799528D01*
X50225114Y-53881595D01*
X50090538Y-53992038D01*
X49980095Y-54126614D01*
X49898028Y-54280150D01*
X49847492Y-54446746D01*
X49830428Y-54620000D01*
X49830428Y-55870000D01*
X49847492Y-56043254D01*
X49898028Y-56209850D01*
X49980095Y-56363386D01*
X50090538Y-56497962D01*
X50225114Y-56608405D01*
X50301501Y-56649235D01*
X50301501Y-56673785D01*
X50298114Y-56675595D01*
X50163538Y-56786038D01*
X50053095Y-56920614D01*
X49971028Y-57074150D01*
X49920492Y-57240746D01*
X49903428Y-57414000D01*
X49903428Y-58664000D01*
X49920492Y-58837254D01*
X49971028Y-59003850D01*
X50053095Y-59157386D01*
X50163538Y-59291962D01*
X50298114Y-59402405D01*
X50301501Y-59404215D01*
X50301501Y-59721785D01*
X50298114Y-59723595D01*
X50163538Y-59834038D01*
X50053095Y-59968614D01*
X49971028Y-60122150D01*
X49920492Y-60288746D01*
X49903428Y-60462000D01*
X49903428Y-61712000D01*
X49920492Y-61885254D01*
X49971028Y-62051850D01*
X50053095Y-62205386D01*
X50163538Y-62339962D01*
X50298114Y-62450405D01*
X50301501Y-62452215D01*
X50301501Y-62642785D01*
X50298114Y-62644595D01*
X50163538Y-62755038D01*
X50053095Y-62889614D01*
X49971028Y-63043150D01*
X49920492Y-63209746D01*
X49903428Y-63383000D01*
X49903428Y-64633000D01*
X49920492Y-64806254D01*
X49971028Y-64972850D01*
X50053095Y-65126386D01*
X50163538Y-65260962D01*
X50298114Y-65371405D01*
X50301501Y-65373215D01*
X50301500Y-65563785D01*
X50298114Y-65565595D01*
X50163538Y-65676038D01*
X50053095Y-65810614D01*
X49971028Y-65964150D01*
X49920492Y-66130746D01*
X49903428Y-66304000D01*
X49903428Y-67554000D01*
X49920492Y-67727254D01*
X49971028Y-67893850D01*
X50053095Y-68047386D01*
X50163538Y-68181962D01*
X50298114Y-68292405D01*
X50301500Y-68294215D01*
X50301500Y-68445765D01*
X50225114Y-68486595D01*
X50090538Y-68597038D01*
X49980095Y-68731614D01*
X49898028Y-68885150D01*
X49847492Y-69051746D01*
X49830428Y-69225000D01*
X49830428Y-70475000D01*
X49847492Y-70648254D01*
X49898028Y-70814850D01*
X49980095Y-70968386D01*
X50090538Y-71102962D01*
X50225114Y-71213405D01*
X50301500Y-71254234D01*
X50301500Y-71405785D01*
X50298114Y-71407595D01*
X50163538Y-71518038D01*
X50053095Y-71652614D01*
X49971028Y-71806150D01*
X49920492Y-71972746D01*
X49903428Y-72146000D01*
X49903428Y-73396000D01*
X49920492Y-73569254D01*
X49971028Y-73735850D01*
X50053095Y-73889386D01*
X50163538Y-74023962D01*
X50298114Y-74134405D01*
X50301500Y-74136215D01*
X50301500Y-74199785D01*
X50298114Y-74201595D01*
X50163538Y-74312038D01*
X50053095Y-74446614D01*
X49971028Y-74600150D01*
X49920492Y-74766746D01*
X49903428Y-74940000D01*
X49903428Y-75568533D01*
X48661834Y-76810128D01*
X48639501Y-76807928D01*
X47614499Y-76807928D01*
X47441245Y-76824992D01*
X47274649Y-76875528D01*
X47121113Y-76957595D01*
X46986538Y-77068038D01*
X46876095Y-77202613D01*
X46794028Y-77356149D01*
X46743492Y-77522745D01*
X46726428Y-77695999D01*
X30746700Y-77695999D01*
X30746700Y-39401801D01*
X30749832Y-39370000D01*
X30746700Y-39338199D01*
X30746700Y-39338191D01*
X30737327Y-39243029D01*
X30700291Y-39120937D01*
X30640148Y-39008417D01*
X30559208Y-38909792D01*
X30534504Y-38889518D01*
X26047700Y-34402715D01*
X26047700Y-29628970D01*
X27905613Y-29628970D01*
X27905613Y-30061030D01*
X27989904Y-30484787D01*
X28155246Y-30883958D01*
X28395285Y-31243203D01*
X28700797Y-31548715D01*
X29060042Y-31788754D01*
X29459213Y-31954096D01*
X29882970Y-32038387D01*
X30315030Y-32038387D01*
X30738787Y-31954096D01*
X31137958Y-31788754D01*
X31497203Y-31548715D01*
X31802715Y-31243203D01*
X32042754Y-30883958D01*
X32208096Y-30484787D01*
X32292387Y-30061030D01*
X32292387Y-29628970D01*
X32208096Y-29205213D01*
X32042754Y-28806042D01*
X31802715Y-28446797D01*
X31497203Y-28141285D01*
X31137958Y-27901246D01*
X30738787Y-27735904D01*
X30315030Y-27651613D01*
X29882970Y-27651613D01*
X29459213Y-27735904D01*
X29060042Y-27901246D01*
X28700797Y-28141285D01*
X28395285Y-28446797D01*
X28155246Y-28806042D01*
X27989904Y-29205213D01*
X27905613Y-29628970D01*
X26047700Y-29628970D01*
X26047700Y-26047700D01*
X34656715Y-26047700D01*
X38889439Y-30280425D01*
X38889439Y-30280425D01*
G37*
X38889439Y-30280425D02*
X38909627Y-30305042D01*
X38934409Y-30325395D01*
X38934499Y-30325485D01*
X38961182Y-30347383D01*
X39008223Y-30386017D01*
X39008322Y-30386070D01*
X39008416Y-30386147D01*
X39065453Y-30416634D01*
X39120721Y-30446201D01*
X39120833Y-30446235D01*
X39120936Y-30446290D01*
X39182162Y-30464863D01*
X39242799Y-30483281D01*
X39242914Y-30483292D01*
X39243028Y-30483327D01*
X39306418Y-30489570D01*
X39337958Y-30492688D01*
X39338076Y-30492688D01*
X39369999Y-30495832D01*
X39401689Y-30492711D01*
X109823078Y-30518088D01*
X109855000Y-30521232D01*
X109918295Y-30514998D01*
X109981741Y-30508772D01*
X109981850Y-30508739D01*
X109981971Y-30508727D01*
X110044430Y-30489780D01*
X110103846Y-30471780D01*
X110103948Y-30471726D01*
X110104062Y-30471691D01*
X110159784Y-30441907D01*
X110216388Y-30411678D01*
X110216482Y-30411601D01*
X110216583Y-30411547D01*
X110265690Y-30371246D01*
X110315042Y-30330773D01*
X110335401Y-30305984D01*
X114593686Y-26047700D01*
X120002301Y-26047700D01*
X120002300Y-37476114D01*
X115388503Y-42089912D01*
X115363792Y-42110192D01*
X115282852Y-42208818D01*
X115222709Y-42321338D01*
X115185673Y-42443430D01*
X115176300Y-42538592D01*
X115176300Y-42538599D01*
X115173168Y-42570400D01*
X115176300Y-42602201D01*
X115176301Y-97097789D01*
X115173168Y-97129600D01*
X115185673Y-97256571D01*
X115222709Y-97378662D01*
X115282853Y-97491183D01*
X115343515Y-97565100D01*
X115343518Y-97565103D01*
X115363793Y-97589808D01*
X115388498Y-97610083D01*
X120002301Y-102223887D01*
X120002300Y-113652300D01*
X114542886Y-113652300D01*
X110310088Y-109419503D01*
X110289808Y-109394792D01*
X110191183Y-109313852D01*
X110078663Y-109253709D01*
X109956571Y-109216673D01*
X109861409Y-109207300D01*
X109861401Y-109207300D01*
X109829600Y-109204168D01*
X109797799Y-109207300D01*
X39427200Y-109207300D01*
X39395399Y-109204168D01*
X39363598Y-109207300D01*
X39363591Y-109207300D01*
X39283252Y-109215213D01*
X39268428Y-109216673D01*
X39231392Y-109227908D01*
X39146337Y-109253709D01*
X39033817Y-109313852D01*
X38935192Y-109394792D01*
X38914917Y-109419497D01*
X34682115Y-113652300D01*
X26047700Y-113652300D01*
X26047700Y-109638970D01*
X27905613Y-109638970D01*
X27905613Y-110071030D01*
X27989904Y-110494787D01*
X28155246Y-110893958D01*
X28395285Y-111253203D01*
X28700797Y-111558715D01*
X29060042Y-111798754D01*
X29459213Y-111964096D01*
X29882970Y-112048387D01*
X30315030Y-112048387D01*
X30738787Y-111964096D01*
X31137958Y-111798754D01*
X31497203Y-111558715D01*
X31802715Y-111253203D01*
X32042754Y-110893958D01*
X32208096Y-110494787D01*
X32292387Y-110071030D01*
X32292387Y-109638970D01*
X32208096Y-109215213D01*
X32042754Y-108816042D01*
X31802715Y-108456797D01*
X31497203Y-108151285D01*
X31137958Y-107911246D01*
X30738787Y-107745904D01*
X30315030Y-107661613D01*
X29882970Y-107661613D01*
X29459213Y-107745904D01*
X29060042Y-107911246D01*
X28700797Y-108151285D01*
X28395285Y-108456797D01*
X28155246Y-108816042D01*
X27989904Y-109215213D01*
X27905613Y-109638970D01*
X26047700Y-109638970D01*
X26047700Y-107098970D01*
X113630613Y-107098970D01*
X113630613Y-107531030D01*
X113714904Y-107954787D01*
X113880246Y-108353958D01*
X114120285Y-108713203D01*
X114425797Y-109018715D01*
X114785042Y-109258754D01*
X115184213Y-109424096D01*
X115607970Y-109508387D01*
X116040030Y-109508387D01*
X116463787Y-109424096D01*
X116862958Y-109258754D01*
X117222203Y-109018715D01*
X117527715Y-108713203D01*
X117767754Y-108353958D01*
X117933096Y-107954787D01*
X118017387Y-107531030D01*
X118017387Y-107098970D01*
X117933096Y-106675213D01*
X117767754Y-106276042D01*
X117527715Y-105916797D01*
X117222203Y-105611285D01*
X116862958Y-105371246D01*
X116463787Y-105205904D01*
X116040030Y-105121613D01*
X115607970Y-105121613D01*
X115184213Y-105205904D01*
X114785042Y-105371246D01*
X114425797Y-105611285D01*
X114120285Y-105916797D01*
X113880246Y-106276042D01*
X113714904Y-106675213D01*
X113630613Y-107098970D01*
X26047700Y-107098970D01*
X26047700Y-105297285D01*
X30534503Y-100810483D01*
X30559208Y-100790208D01*
X30640148Y-100691583D01*
X30700291Y-100579063D01*
X30737327Y-100456971D01*
X30746700Y-100361809D01*
X30746700Y-100361801D01*
X30749832Y-100330000D01*
X30746700Y-100298199D01*
X30746700Y-77695999D01*
X46726428Y-77695999D01*
X46726428Y-80546001D01*
X46743492Y-80719255D01*
X46794028Y-80885851D01*
X46876095Y-81039387D01*
X46986538Y-81173962D01*
X47115745Y-81280000D01*
X46986538Y-81386038D01*
X46876095Y-81520613D01*
X46794028Y-81674149D01*
X46743492Y-81840745D01*
X46726428Y-82013999D01*
X46726428Y-84864001D01*
X46743492Y-85037255D01*
X46794028Y-85203851D01*
X46876095Y-85357387D01*
X46986538Y-85491962D01*
X47121113Y-85602405D01*
X47274649Y-85684472D01*
X47441245Y-85735008D01*
X47614499Y-85752072D01*
X48639501Y-85752072D01*
X48812755Y-85735008D01*
X48979351Y-85684472D01*
X49132887Y-85602405D01*
X49267462Y-85491962D01*
X49377905Y-85357387D01*
X49459972Y-85203851D01*
X49510508Y-85037255D01*
X49527572Y-84864001D01*
X49527572Y-82013999D01*
X49510508Y-81840745D01*
X49459972Y-81674149D01*
X49377905Y-81520613D01*
X49267462Y-81386038D01*
X49138255Y-81280000D01*
X49267462Y-81173962D01*
X49377905Y-81039387D01*
X49459972Y-80885851D01*
X49510508Y-80719255D01*
X49527572Y-80546001D01*
X49527572Y-78638466D01*
X51087967Y-77078072D01*
X51716500Y-77078072D01*
X51889754Y-77061008D01*
X52056350Y-77010472D01*
X52209886Y-76928405D01*
X52344462Y-76817962D01*
X52454905Y-76683386D01*
X52536972Y-76529850D01*
X52587508Y-76363254D01*
X52604572Y-76190000D01*
X52604572Y-74940000D01*
X52587508Y-74766746D01*
X52536972Y-74600150D01*
X52454905Y-74446614D01*
X52344462Y-74312038D01*
X52209886Y-74201595D01*
X52206500Y-74199785D01*
X52206500Y-74136215D01*
X52209886Y-74134405D01*
X52344462Y-74023962D01*
X52454905Y-73889386D01*
X52536972Y-73735850D01*
X52587508Y-73569254D01*
X52604572Y-73396000D01*
X52604572Y-72146000D01*
X52587508Y-71972746D01*
X52536972Y-71806150D01*
X52454905Y-71652614D01*
X52344462Y-71518038D01*
X52209886Y-71407595D01*
X52206500Y-71405785D01*
X52206500Y-71156275D01*
X52271462Y-71102962D01*
X52381905Y-70968386D01*
X52463972Y-70814850D01*
X52514508Y-70648254D01*
X52531572Y-70475000D01*
X52531572Y-69225000D01*
X52514508Y-69051746D01*
X52463972Y-68885150D01*
X52381905Y-68731614D01*
X52271462Y-68597038D01*
X52206500Y-68543725D01*
X52206500Y-68294215D01*
X52209886Y-68292405D01*
X52344462Y-68181962D01*
X52454905Y-68047386D01*
X52536972Y-67893850D01*
X52587508Y-67727254D01*
X52604572Y-67554000D01*
X52604572Y-66304000D01*
X52587508Y-66130746D01*
X52536972Y-65964150D01*
X52454905Y-65810614D01*
X52344462Y-65676038D01*
X52209886Y-65565595D01*
X52206500Y-65563785D01*
X52206500Y-65373215D01*
X52209886Y-65371405D01*
X52344462Y-65260962D01*
X52454905Y-65126386D01*
X52536972Y-64972850D01*
X52587508Y-64806254D01*
X52604572Y-64633000D01*
X52604572Y-63383000D01*
X52587508Y-63209746D01*
X52536972Y-63043150D01*
X52454905Y-62889614D01*
X52344462Y-62755038D01*
X52209886Y-62644595D01*
X52206500Y-62642785D01*
X52206500Y-62452215D01*
X52209886Y-62450405D01*
X52344462Y-62339962D01*
X52454905Y-62205386D01*
X52536972Y-62051850D01*
X52587508Y-61885254D01*
X52604572Y-61712000D01*
X52604572Y-60462000D01*
X52587508Y-60288746D01*
X52536972Y-60122150D01*
X52454905Y-59968614D01*
X52344462Y-59834038D01*
X52209886Y-59723595D01*
X52206500Y-59721785D01*
X52206500Y-59404215D01*
X52209886Y-59402405D01*
X52344462Y-59291962D01*
X52454905Y-59157386D01*
X52536972Y-59003850D01*
X52587508Y-58837254D01*
X52604572Y-58664000D01*
X52604572Y-57414000D01*
X52587508Y-57240746D01*
X52536972Y-57074150D01*
X52454905Y-56920614D01*
X52344462Y-56786038D01*
X52209886Y-56675595D01*
X52206500Y-56673785D01*
X52206500Y-56551275D01*
X52271462Y-56497962D01*
X52381905Y-56363386D01*
X52463972Y-56209850D01*
X52514508Y-56043254D01*
X52531572Y-55870000D01*
X52531572Y-55241466D01*
X52805428Y-54967610D01*
X52805428Y-55870000D01*
X52822492Y-56043254D01*
X52873028Y-56209850D01*
X52955095Y-56363386D01*
X53065538Y-56497962D01*
X53200114Y-56608405D01*
X53299466Y-56661510D01*
X53273114Y-56675595D01*
X53138538Y-56786038D01*
X53028095Y-56920614D01*
X52946028Y-57074150D01*
X52895492Y-57240746D01*
X52878428Y-57414000D01*
X52878428Y-58664000D01*
X52895492Y-58837254D01*
X52946028Y-59003850D01*
X53028095Y-59157386D01*
X53138538Y-59291962D01*
X53273114Y-59402405D01*
X53426650Y-59484472D01*
X53593246Y-59535008D01*
X53766500Y-59552072D01*
X54664442Y-59552072D01*
X54686298Y-59573928D01*
X53766500Y-59573928D01*
X53593246Y-59590992D01*
X53426650Y-59641528D01*
X53273114Y-59723595D01*
X53138538Y-59834038D01*
X53028095Y-59968614D01*
X52946028Y-60122150D01*
X52895492Y-60288746D01*
X52878428Y-60462000D01*
X52878428Y-61712000D01*
X52895492Y-61885254D01*
X52946028Y-62051850D01*
X53028095Y-62205386D01*
X53138538Y-62339962D01*
X53273114Y-62450405D01*
X53426650Y-62532472D01*
X53476191Y-62547500D01*
X53426650Y-62562528D01*
X53273114Y-62644595D01*
X53138538Y-62755038D01*
X53028095Y-62889614D01*
X52946028Y-63043150D01*
X52895492Y-63209746D01*
X52878428Y-63383000D01*
X52878428Y-64633000D01*
X52895492Y-64806254D01*
X52946028Y-64972850D01*
X53028095Y-65126386D01*
X53138538Y-65260962D01*
X53273114Y-65371405D01*
X53426650Y-65453472D01*
X53476191Y-65468500D01*
X53426650Y-65483528D01*
X53273114Y-65565595D01*
X53138538Y-65676038D01*
X53028095Y-65810614D01*
X52946028Y-65964150D01*
X52895492Y-66130746D01*
X52878428Y-66304000D01*
X52878428Y-67554000D01*
X52895492Y-67727254D01*
X52946028Y-67893850D01*
X53028095Y-68047386D01*
X53138538Y-68181962D01*
X53273114Y-68292405D01*
X53426650Y-68374472D01*
X53439691Y-68378428D01*
X53353650Y-68404528D01*
X53200114Y-68486595D01*
X53065538Y-68597038D01*
X52955095Y-68731614D01*
X52873028Y-68885150D01*
X52822492Y-69051746D01*
X52805428Y-69225000D01*
X52805428Y-70475000D01*
X52822492Y-70648254D01*
X52873028Y-70814850D01*
X52955095Y-70968386D01*
X53065538Y-71102962D01*
X53200114Y-71213405D01*
X53353650Y-71295472D01*
X53439691Y-71321572D01*
X53426650Y-71325528D01*
X53273114Y-71407595D01*
X53138538Y-71518038D01*
X53028095Y-71652614D01*
X52946028Y-71806150D01*
X52895492Y-71972746D01*
X52878428Y-72146000D01*
X52878428Y-73396000D01*
X52895492Y-73569254D01*
X52946028Y-73735850D01*
X53028095Y-73889386D01*
X53138538Y-74023962D01*
X53273114Y-74134405D01*
X53335966Y-74168000D01*
X53273114Y-74201595D01*
X53138538Y-74312038D01*
X53028095Y-74446614D01*
X52946028Y-74600150D01*
X52895492Y-74766746D01*
X52878428Y-74940000D01*
X52878428Y-76190000D01*
X52895492Y-76363254D01*
X52946028Y-76529850D01*
X53028095Y-76683386D01*
X53138538Y-76817962D01*
X53224841Y-76888788D01*
X53096113Y-76957595D01*
X52961538Y-77068038D01*
X52851095Y-77202613D01*
X52769028Y-77356149D01*
X52718492Y-77522745D01*
X52701428Y-77695999D01*
X52701428Y-80546001D01*
X52718492Y-80719255D01*
X52769028Y-80885851D01*
X52851095Y-81039387D01*
X52961538Y-81173962D01*
X53090745Y-81280000D01*
X52961538Y-81386038D01*
X52851095Y-81520613D01*
X52769028Y-81674149D01*
X52718492Y-81840745D01*
X52701428Y-82013999D01*
X52701428Y-84864001D01*
X52718492Y-85037255D01*
X52769028Y-85203851D01*
X52851095Y-85357387D01*
X52961538Y-85491962D01*
X53096113Y-85602405D01*
X53249649Y-85684472D01*
X53416245Y-85735008D01*
X53589499Y-85752072D01*
X54614501Y-85752072D01*
X54787755Y-85735008D01*
X54954351Y-85684472D01*
X55107887Y-85602405D01*
X55242462Y-85491962D01*
X55352905Y-85357387D01*
X55434972Y-85203851D01*
X55485508Y-85037255D01*
X55502572Y-84864001D01*
X55502572Y-83116058D01*
X63481470Y-75137161D01*
X63483501Y-75157786D01*
X63483501Y-75321463D01*
X63240569Y-75564395D01*
X63204222Y-75594224D01*
X63085194Y-75739261D01*
X62996748Y-75904734D01*
X62952767Y-76049718D01*
X62942283Y-76084280D01*
X62923892Y-76271002D01*
X62928500Y-76317787D01*
X62928501Y-78659785D01*
X62942284Y-78799723D01*
X62996749Y-78979269D01*
X63085195Y-79144741D01*
X63204223Y-79289778D01*
X63349260Y-79408806D01*
X63514732Y-79497252D01*
X63694278Y-79551717D01*
X63881000Y-79570108D01*
X64067723Y-79551717D01*
X64247269Y-79497252D01*
X64412741Y-79408806D01*
X64456360Y-79373009D01*
X52052825Y-91776545D01*
X51980111Y-91754487D01*
X51761950Y-91733000D01*
X51616050Y-91733000D01*
X51397889Y-91754487D01*
X51117966Y-91839401D01*
X50859986Y-91977294D01*
X50633866Y-92162866D01*
X50448294Y-92388986D01*
X50310401Y-92646966D01*
X50225487Y-92926889D01*
X50196815Y-93218000D01*
X50225487Y-93509111D01*
X50310401Y-93789034D01*
X50448294Y-94047014D01*
X50633866Y-94273134D01*
X50859986Y-94458706D01*
X51117966Y-94596599D01*
X51397889Y-94681513D01*
X51616050Y-94703000D01*
X51761950Y-94703000D01*
X51980111Y-94681513D01*
X52260034Y-94596599D01*
X52518014Y-94458706D01*
X52744134Y-94273134D01*
X52929706Y-94047014D01*
X52959000Y-93992209D01*
X52988294Y-94047014D01*
X53173866Y-94273134D01*
X53399986Y-94458706D01*
X53657966Y-94596599D01*
X53937889Y-94681513D01*
X54156050Y-94703000D01*
X54301950Y-94703000D01*
X54520111Y-94681513D01*
X54800034Y-94596599D01*
X55058014Y-94458706D01*
X55284134Y-94273134D01*
X55469706Y-94047014D01*
X55499000Y-93992209D01*
X55528294Y-94047014D01*
X55713866Y-94273134D01*
X55939986Y-94458706D01*
X56197966Y-94596599D01*
X56477889Y-94681513D01*
X56696050Y-94703000D01*
X56841950Y-94703000D01*
X57060111Y-94681513D01*
X57340034Y-94596599D01*
X57598014Y-94458706D01*
X57824134Y-94273134D01*
X58009706Y-94047014D01*
X58039000Y-93992209D01*
X58068294Y-94047014D01*
X58253866Y-94273134D01*
X58479986Y-94458706D01*
X58737966Y-94596599D01*
X59017889Y-94681513D01*
X59236050Y-94703000D01*
X59381950Y-94703000D01*
X59600111Y-94681513D01*
X59880034Y-94596599D01*
X60138014Y-94458706D01*
X60364134Y-94273134D01*
X60549706Y-94047014D01*
X60579000Y-93992209D01*
X60608294Y-94047014D01*
X60793866Y-94273134D01*
X61019986Y-94458706D01*
X61277966Y-94596599D01*
X61557889Y-94681513D01*
X61776050Y-94703000D01*
X61921950Y-94703000D01*
X62140111Y-94681513D01*
X62420034Y-94596599D01*
X62678014Y-94458706D01*
X62904134Y-94273134D01*
X63089706Y-94047014D01*
X63119000Y-93992209D01*
X63148294Y-94047014D01*
X63333866Y-94273134D01*
X63559986Y-94458706D01*
X63817966Y-94596599D01*
X64097889Y-94681513D01*
X64316050Y-94703000D01*
X64461950Y-94703000D01*
X64680111Y-94681513D01*
X64752825Y-94659455D01*
X65601716Y-95508346D01*
X65625578Y-95537422D01*
X65699219Y-95597857D01*
X65741607Y-95632645D01*
X65812364Y-95670465D01*
X65873985Y-95703402D01*
X66017622Y-95746974D01*
X66129574Y-95758000D01*
X66129577Y-95758000D01*
X66167000Y-95761686D01*
X66204423Y-95758000D01*
X67653577Y-95758000D01*
X67691000Y-95761686D01*
X67728423Y-95758000D01*
X67728426Y-95758000D01*
X67840378Y-95746974D01*
X67984015Y-95703402D01*
X68116392Y-95632645D01*
X68232422Y-95537422D01*
X68256284Y-95508346D01*
X69105175Y-94659455D01*
X69177889Y-94681513D01*
X69396050Y-94703000D01*
X69541950Y-94703000D01*
X69760111Y-94681513D01*
X70040034Y-94596599D01*
X70298014Y-94458706D01*
X70524134Y-94273134D01*
X70709706Y-94047014D01*
X70739000Y-93992209D01*
X70768294Y-94047014D01*
X70953866Y-94273134D01*
X71179986Y-94458706D01*
X71437966Y-94596599D01*
X71717889Y-94681513D01*
X71936050Y-94703000D01*
X72081950Y-94703000D01*
X72300111Y-94681513D01*
X72580034Y-94596599D01*
X72838014Y-94458706D01*
X73064134Y-94273134D01*
X73249706Y-94047014D01*
X73284201Y-93982477D01*
X73353822Y-94099355D01*
X73548731Y-94315588D01*
X73782080Y-94489641D01*
X74044901Y-94614825D01*
X74192110Y-94659476D01*
X74422000Y-94538155D01*
X74422000Y-93345000D01*
X74402000Y-93345000D01*
X74402000Y-93091000D01*
X74422000Y-93091000D01*
X74422000Y-91897845D01*
X74676000Y-91897845D01*
X74676000Y-93091000D01*
X74696000Y-93091000D01*
X74696000Y-93345000D01*
X74676000Y-93345000D01*
X74676000Y-94538155D01*
X74905890Y-94659476D01*
X75053099Y-94614825D01*
X75315920Y-94489641D01*
X75549269Y-94315588D01*
X75625034Y-94231534D01*
X75649498Y-94312180D01*
X75708463Y-94422494D01*
X75787815Y-94519185D01*
X75884506Y-94598537D01*
X75994820Y-94657502D01*
X76114518Y-94693812D01*
X76239000Y-94706072D01*
X77939000Y-94706072D01*
X78063482Y-94693812D01*
X78183180Y-94657502D01*
X78293494Y-94598537D01*
X78390185Y-94519185D01*
X78469537Y-94422494D01*
X78528502Y-94312180D01*
X78564812Y-94192482D01*
X78577072Y-94068000D01*
X78577072Y-92368000D01*
X78564812Y-92243518D01*
X78528502Y-92123820D01*
X78469537Y-92013506D01*
X78390185Y-91916815D01*
X78293494Y-91837463D01*
X78183180Y-91778498D01*
X78063482Y-91742188D01*
X77939000Y-91729928D01*
X76239000Y-91729928D01*
X76114518Y-91742188D01*
X75994820Y-91778498D01*
X75884506Y-91837463D01*
X75787815Y-91916815D01*
X75708463Y-92013506D01*
X75649498Y-92123820D01*
X75625034Y-92204466D01*
X75549269Y-92120412D01*
X75315920Y-91946359D01*
X75053099Y-91821175D01*
X74905890Y-91776524D01*
X74676000Y-91897845D01*
X74422000Y-91897845D01*
X74192110Y-91776524D01*
X74044901Y-91821175D01*
X73782080Y-91946359D01*
X73548731Y-92120412D01*
X73353822Y-92336645D01*
X73284201Y-92453523D01*
X73249706Y-92388986D01*
X73064134Y-92162866D01*
X72838014Y-91977294D01*
X72580034Y-91839401D01*
X72300111Y-91754487D01*
X72081950Y-91733000D01*
X71936050Y-91733000D01*
X71717889Y-91754487D01*
X71645175Y-91776545D01*
X69724538Y-89855908D01*
X69878068Y-89792313D01*
X70019513Y-89697802D01*
X70139802Y-89577513D01*
X70234313Y-89436068D01*
X70299413Y-89278903D01*
X70332600Y-89112057D01*
X70332600Y-88941943D01*
X70299413Y-88775097D01*
X70234313Y-88617932D01*
X70139802Y-88476487D01*
X70019513Y-88356198D01*
X69878068Y-88261687D01*
X69720903Y-88196587D01*
X69715054Y-88195424D01*
X69698001Y-88178371D01*
X69698001Y-76483784D01*
X69764251Y-76491001D01*
X69806179Y-76449073D01*
X69828960Y-76441789D01*
X69938381Y-76381183D01*
X69970641Y-76353891D01*
X70107751Y-76491001D01*
X70209818Y-76479883D01*
X70328960Y-76441789D01*
X70438381Y-76381183D01*
X70533876Y-76300395D01*
X70599912Y-76217433D01*
X70605028Y-76269379D01*
X70648600Y-76413016D01*
X70719356Y-76545393D01*
X70764379Y-76600253D01*
X70814580Y-76661423D01*
X70843650Y-76685280D01*
X80565928Y-86407559D01*
X80565928Y-87768000D01*
X80578188Y-87892482D01*
X80614498Y-88012180D01*
X80673463Y-88122494D01*
X80752815Y-88219185D01*
X80849506Y-88298537D01*
X80959820Y-88357502D01*
X81079518Y-88393812D01*
X81204000Y-88406072D01*
X84404000Y-88406072D01*
X84528482Y-88393812D01*
X84648180Y-88357502D01*
X84758494Y-88298537D01*
X84855185Y-88219185D01*
X84934537Y-88122494D01*
X84993502Y-88012180D01*
X85029812Y-87892482D01*
X85042072Y-87768000D01*
X85042072Y-85968000D01*
X85029812Y-85843518D01*
X84993502Y-85723820D01*
X84934537Y-85613506D01*
X84855185Y-85516815D01*
X84758494Y-85437463D01*
X84648180Y-85378498D01*
X84528482Y-85342188D01*
X84404000Y-85329928D01*
X81643559Y-85329928D01*
X72118001Y-75804371D01*
X72118001Y-74467399D01*
X72225483Y-74456813D01*
X72345181Y-74420503D01*
X72367789Y-74408419D01*
X77211716Y-79252346D01*
X77235578Y-79281422D01*
X77284561Y-79321621D01*
X77351607Y-79376645D01*
X77411777Y-79408806D01*
X77483985Y-79447402D01*
X77627622Y-79490974D01*
X77739574Y-79502000D01*
X77739577Y-79502000D01*
X77777000Y-79505686D01*
X77814423Y-79502000D01*
X80565928Y-79502000D01*
X80565928Y-79640000D01*
X80578188Y-79764482D01*
X80614498Y-79884180D01*
X80673463Y-79994494D01*
X80752815Y-80091185D01*
X80849506Y-80170537D01*
X80959820Y-80229502D01*
X81079518Y-80265812D01*
X81204000Y-80278072D01*
X84404000Y-80278072D01*
X84528482Y-80265812D01*
X84648180Y-80229502D01*
X84758494Y-80170537D01*
X84855185Y-80091185D01*
X84934537Y-79994494D01*
X84993502Y-79884180D01*
X85029812Y-79764482D01*
X85042072Y-79640000D01*
X85042072Y-77840000D01*
X85029812Y-77715518D01*
X84993502Y-77595820D01*
X84934537Y-77485506D01*
X84855185Y-77388815D01*
X84758494Y-77309463D01*
X84648180Y-77250498D01*
X84528482Y-77214188D01*
X84404000Y-77201928D01*
X81204000Y-77201928D01*
X81079518Y-77214188D01*
X80959820Y-77250498D01*
X80849506Y-77309463D01*
X80752815Y-77388815D01*
X80673463Y-77485506D01*
X80614498Y-77595820D01*
X80578188Y-77715518D01*
X80565928Y-77840000D01*
X80565928Y-77978000D01*
X78092630Y-77978000D01*
X73567631Y-73453001D01*
X80310428Y-73453001D01*
X80310428Y-74031000D01*
X80327492Y-74204254D01*
X80378028Y-74370850D01*
X80460095Y-74524386D01*
X80570538Y-74658962D01*
X80705114Y-74769405D01*
X80858650Y-74851472D01*
X81025246Y-74902008D01*
X81198500Y-74919072D01*
X82123500Y-74919072D01*
X82296754Y-74902008D01*
X82463350Y-74851472D01*
X82616886Y-74769405D01*
X82751462Y-74658962D01*
X82861905Y-74524386D01*
X82943972Y-74370850D01*
X82994508Y-74204254D01*
X83011572Y-74031000D01*
X83011572Y-72781000D01*
X82994508Y-72607746D01*
X82943972Y-72441150D01*
X82861905Y-72287614D01*
X82751462Y-72153038D01*
X82702484Y-72112843D01*
X82807905Y-71984386D01*
X82889972Y-71830850D01*
X82940508Y-71664254D01*
X82957572Y-71491000D01*
X82957572Y-70241000D01*
X82940508Y-70067746D01*
X82889972Y-69901150D01*
X82807905Y-69747614D01*
X82762592Y-69692400D01*
X82861905Y-69571386D01*
X82943972Y-69417850D01*
X82994508Y-69251254D01*
X83011572Y-69078000D01*
X83011572Y-68175610D01*
X83285428Y-68449466D01*
X83285428Y-69078000D01*
X83302492Y-69251254D01*
X83353028Y-69417850D01*
X83435095Y-69571386D01*
X83480408Y-69626600D01*
X83381095Y-69747614D01*
X83299028Y-69901150D01*
X83248492Y-70067746D01*
X83231428Y-70241000D01*
X83231428Y-71491000D01*
X83248492Y-71664254D01*
X83299028Y-71830850D01*
X83381095Y-71984386D01*
X83491538Y-72118962D01*
X83540516Y-72159157D01*
X83435095Y-72287614D01*
X83353028Y-72441150D01*
X83302492Y-72607746D01*
X83285428Y-72781000D01*
X83285428Y-74031000D01*
X83302492Y-74204254D01*
X83353028Y-74370850D01*
X83435095Y-74524386D01*
X83545538Y-74658962D01*
X83680114Y-74769405D01*
X83833650Y-74851472D01*
X84000246Y-74902008D01*
X84173500Y-74919072D01*
X84802034Y-74919072D01*
X87142642Y-77259680D01*
X87049506Y-77309463D01*
X86952815Y-77388815D01*
X86873463Y-77485506D01*
X86814498Y-77595820D01*
X86778188Y-77715518D01*
X86765928Y-77840000D01*
X86765928Y-79640000D01*
X86778188Y-79764482D01*
X86814498Y-79884180D01*
X86873463Y-79994494D01*
X86952815Y-80091185D01*
X87049506Y-80170537D01*
X87159820Y-80229502D01*
X87279518Y-80265812D01*
X87404000Y-80278072D01*
X88051500Y-80278072D01*
X88051501Y-85329928D01*
X87404000Y-85329928D01*
X87279518Y-85342188D01*
X87159820Y-85378498D01*
X87049506Y-85437463D01*
X86952815Y-85516815D01*
X86873463Y-85613506D01*
X86814498Y-85723820D01*
X86778188Y-85843518D01*
X86765928Y-85968000D01*
X86765928Y-87768000D01*
X86778188Y-87892482D01*
X86814498Y-88012180D01*
X86873463Y-88122494D01*
X86952815Y-88219185D01*
X87049506Y-88298537D01*
X87159820Y-88357502D01*
X87279518Y-88393812D01*
X87404000Y-88406072D01*
X90604000Y-88406072D01*
X90728482Y-88393812D01*
X90848180Y-88357502D01*
X90958494Y-88298537D01*
X91055185Y-88219185D01*
X91134537Y-88122494D01*
X91193502Y-88012180D01*
X91229812Y-87892482D01*
X91242072Y-87768000D01*
X91242072Y-85968000D01*
X91229812Y-85843518D01*
X91193502Y-85723820D01*
X91134537Y-85613506D01*
X91055185Y-85516815D01*
X90958494Y-85437463D01*
X90848180Y-85378498D01*
X90728482Y-85342188D01*
X90604000Y-85329928D01*
X89956500Y-85329928D01*
X89956500Y-80278072D01*
X90604000Y-80278072D01*
X90728482Y-80265812D01*
X90848180Y-80229502D01*
X90958494Y-80170537D01*
X91055185Y-80091185D01*
X91134537Y-79994494D01*
X91193502Y-79884180D01*
X91229812Y-79764482D01*
X91236901Y-79692500D01*
X95822215Y-79692500D01*
X95869000Y-79697108D01*
X95915785Y-79692500D01*
X96055723Y-79678717D01*
X96235269Y-79624252D01*
X96400741Y-79535806D01*
X96545778Y-79416778D01*
X96575607Y-79380431D01*
X103002431Y-72953607D01*
X103038778Y-72923778D01*
X103157806Y-72778741D01*
X103207647Y-72685495D01*
X103246252Y-72613270D01*
X103285587Y-72483599D01*
X103300717Y-72433723D01*
X103314500Y-72293785D01*
X103318805Y-72250072D01*
X103362000Y-72250072D01*
X103486482Y-72237812D01*
X103606180Y-72201502D01*
X103716494Y-72142537D01*
X103813185Y-72063185D01*
X103892537Y-71966494D01*
X103951502Y-71856180D01*
X103987812Y-71736482D01*
X104000072Y-71612000D01*
X104000072Y-69612000D01*
X103987812Y-69487518D01*
X103951502Y-69367820D01*
X103892537Y-69257506D01*
X103813185Y-69160815D01*
X103716494Y-69081463D01*
X103606180Y-69022498D01*
X103486482Y-68986188D01*
X103362000Y-68973928D01*
X101362000Y-68973928D01*
X101237518Y-68986188D01*
X101117820Y-69022498D01*
X101007506Y-69081463D01*
X100910815Y-69160815D01*
X100831463Y-69257506D01*
X100772498Y-69367820D01*
X100736188Y-69487518D01*
X100723928Y-69612000D01*
X100723928Y-71612000D01*
X100736188Y-71736482D01*
X100772498Y-71856180D01*
X100831463Y-71966494D01*
X100910815Y-72063185D01*
X101007506Y-72142537D01*
X101080440Y-72181522D01*
X95474462Y-77787500D01*
X91236901Y-77787500D01*
X91229812Y-77715518D01*
X91193502Y-77595820D01*
X91134537Y-77485506D01*
X91055185Y-77388815D01*
X90958494Y-77309463D01*
X90848180Y-77250498D01*
X90728482Y-77214188D01*
X90604000Y-77201928D01*
X89766707Y-77201928D01*
X89680778Y-77097222D01*
X89644436Y-77067397D01*
X85986572Y-73409534D01*
X85986572Y-72781000D01*
X85969508Y-72607746D01*
X85918972Y-72441150D01*
X85836905Y-72287614D01*
X85726462Y-72153038D01*
X85677484Y-72112843D01*
X85782905Y-71984386D01*
X85864972Y-71830850D01*
X85915508Y-71664254D01*
X85932572Y-71491000D01*
X85932572Y-70653943D01*
X92608400Y-70653943D01*
X92608400Y-70824057D01*
X92641587Y-70990903D01*
X92706687Y-71148068D01*
X92801198Y-71289513D01*
X92921487Y-71409802D01*
X93062932Y-71504313D01*
X93220097Y-71569413D01*
X93386943Y-71602600D01*
X93557057Y-71602600D01*
X93723903Y-71569413D01*
X93881068Y-71504313D01*
X93886026Y-71501000D01*
X95989613Y-71501000D01*
X96092013Y-71654252D01*
X96319748Y-71881987D01*
X96587537Y-72060918D01*
X96885088Y-72184168D01*
X97200967Y-72247000D01*
X97523033Y-72247000D01*
X97838912Y-72184168D01*
X98136463Y-72060918D01*
X98404252Y-71881987D01*
X98631987Y-71654252D01*
X98810918Y-71386463D01*
X98934168Y-71088912D01*
X98997000Y-70773033D01*
X98997000Y-70450967D01*
X98934168Y-70135088D01*
X98810918Y-69837537D01*
X98631987Y-69569748D01*
X98404252Y-69342013D01*
X98136463Y-69163082D01*
X97838912Y-69039832D01*
X97523033Y-68977000D01*
X97200967Y-68977000D01*
X96885088Y-69039832D01*
X96587537Y-69163082D01*
X96319748Y-69342013D01*
X96092013Y-69569748D01*
X95913082Y-69837537D01*
X95855314Y-69977000D01*
X93886026Y-69977000D01*
X93881068Y-69973687D01*
X93723903Y-69908587D01*
X93557057Y-69875400D01*
X93386943Y-69875400D01*
X93220097Y-69908587D01*
X93062932Y-69973687D01*
X92921487Y-70068198D01*
X92801198Y-70188487D01*
X92706687Y-70329932D01*
X92641587Y-70487097D01*
X92608400Y-70653943D01*
X85932572Y-70653943D01*
X85932572Y-70241000D01*
X85915508Y-70067746D01*
X85864972Y-69901150D01*
X85782905Y-69747614D01*
X85737592Y-69692400D01*
X85836905Y-69571386D01*
X85918972Y-69417850D01*
X85969508Y-69251254D01*
X85986572Y-69078000D01*
X85986572Y-67828000D01*
X85969508Y-67654746D01*
X85918972Y-67488150D01*
X85836905Y-67334614D01*
X85726462Y-67200038D01*
X85591886Y-67089595D01*
X85438350Y-67007528D01*
X85271754Y-66956992D01*
X85098500Y-66939928D01*
X84734606Y-66939928D01*
X84780008Y-66790255D01*
X84797072Y-66617001D01*
X84797072Y-66300966D01*
X85276431Y-65821607D01*
X85312778Y-65791778D01*
X85431806Y-65646741D01*
X85508098Y-65504008D01*
X85520252Y-65481270D01*
X85557864Y-65357278D01*
X85574717Y-65301723D01*
X85579722Y-65250907D01*
X85591886Y-65244405D01*
X85726462Y-65133962D01*
X85836905Y-64999386D01*
X85918972Y-64845850D01*
X85969508Y-64679254D01*
X85986572Y-64506000D01*
X85986572Y-63256000D01*
X85969508Y-63082746D01*
X85918972Y-62916150D01*
X85836905Y-62762614D01*
X85726462Y-62628038D01*
X85661500Y-62574725D01*
X85661500Y-56175943D01*
X93370400Y-56175943D01*
X93370400Y-56346057D01*
X93403587Y-56512903D01*
X93468687Y-56670068D01*
X93563198Y-56811513D01*
X93683487Y-56931802D01*
X93824932Y-57026313D01*
X93982097Y-57091413D01*
X94148943Y-57124600D01*
X94319057Y-57124600D01*
X94485903Y-57091413D01*
X94643068Y-57026313D01*
X94648026Y-57023000D01*
X96809793Y-57023000D01*
X96828320Y-57067727D01*
X96985363Y-57302759D01*
X97185241Y-57502637D01*
X97420273Y-57659680D01*
X97681426Y-57767853D01*
X97958665Y-57823000D01*
X98241335Y-57823000D01*
X98518574Y-57767853D01*
X98779727Y-57659680D01*
X99014759Y-57502637D01*
X99214637Y-57302759D01*
X99371680Y-57067727D01*
X99479853Y-56806574D01*
X99535000Y-56529335D01*
X99535000Y-56246665D01*
X99479853Y-55969426D01*
X99371680Y-55708273D01*
X99214637Y-55473241D01*
X99014759Y-55273363D01*
X98779727Y-55116320D01*
X98518574Y-55008147D01*
X98241335Y-54953000D01*
X97958665Y-54953000D01*
X97681426Y-55008147D01*
X97420273Y-55116320D01*
X97185241Y-55273363D01*
X96985363Y-55473241D01*
X96968151Y-55499000D01*
X94648026Y-55499000D01*
X94643068Y-55495687D01*
X94485903Y-55430587D01*
X94319057Y-55397400D01*
X94148943Y-55397400D01*
X93982097Y-55430587D01*
X93824932Y-55495687D01*
X93683487Y-55590198D01*
X93563198Y-55710487D01*
X93468687Y-55851932D01*
X93403587Y-56009097D01*
X93370400Y-56175943D01*
X85661500Y-56175943D01*
X85661500Y-53816215D01*
X85664886Y-53814405D01*
X85799462Y-53703962D01*
X85909905Y-53569386D01*
X85991972Y-53415850D01*
X85995718Y-53403500D01*
X98703462Y-53403500D01*
X100397128Y-55097166D01*
X100348815Y-55136815D01*
X100269463Y-55233506D01*
X100210498Y-55343820D01*
X100174188Y-55463518D01*
X100161928Y-55588000D01*
X100161928Y-57188000D01*
X100174188Y-57312482D01*
X100210498Y-57432180D01*
X100269463Y-57542494D01*
X100348815Y-57639185D01*
X100445506Y-57718537D01*
X100555820Y-57777502D01*
X100675518Y-57813812D01*
X100800000Y-57826072D01*
X102400000Y-57826072D01*
X102524482Y-57813812D01*
X102644180Y-57777502D01*
X102754494Y-57718537D01*
X102851185Y-57639185D01*
X102930537Y-57542494D01*
X102989502Y-57432180D01*
X103025812Y-57312482D01*
X103038072Y-57188000D01*
X103038072Y-55588000D01*
X103025812Y-55463518D01*
X102989502Y-55343820D01*
X102930537Y-55233506D01*
X102851185Y-55136815D01*
X102754494Y-55057463D01*
X102644180Y-54998498D01*
X102555283Y-54971531D01*
X102557108Y-54952999D01*
X102538717Y-54766277D01*
X102522634Y-54713260D01*
X102484252Y-54586731D01*
X102395806Y-54421259D01*
X102276778Y-54276222D01*
X102240431Y-54246393D01*
X99804607Y-51810569D01*
X99774778Y-51774222D01*
X99629741Y-51655194D01*
X99464269Y-51566748D01*
X99284723Y-51512283D01*
X99144785Y-51498500D01*
X99098000Y-51493892D01*
X99051215Y-51498500D01*
X85995718Y-51498500D01*
X85991972Y-51486150D01*
X85909905Y-51332614D01*
X85799462Y-51198038D01*
X85664886Y-51087595D01*
X85511350Y-51005528D01*
X85344754Y-50954992D01*
X85171500Y-50937928D01*
X84542966Y-50937928D01*
X82875607Y-49270569D01*
X82845778Y-49234222D01*
X82700741Y-49115194D01*
X82535269Y-49026748D01*
X82355723Y-48972283D01*
X82215785Y-48958500D01*
X82169000Y-48953892D01*
X82122215Y-48958500D01*
X79851215Y-48958500D01*
X79849405Y-48955114D01*
X79738962Y-48820538D01*
X79604386Y-48710095D01*
X79450850Y-48628028D01*
X79284254Y-48577492D01*
X79111000Y-48560428D01*
X77861000Y-48560428D01*
X77687746Y-48577492D01*
X77521150Y-48628028D01*
X77367614Y-48710095D01*
X77233038Y-48820538D01*
X77122595Y-48955114D01*
X77120785Y-48958500D01*
X75818358Y-48958500D01*
X75788741Y-48934194D01*
X75623269Y-48845748D01*
X75480576Y-48802462D01*
X77292436Y-46990603D01*
X77328778Y-46960778D01*
X77447806Y-46815741D01*
X77536252Y-46650269D01*
X77590717Y-46470723D01*
X77604500Y-46330785D01*
X77609108Y-46284000D01*
X77604500Y-46237215D01*
X77604500Y-36114496D01*
X77821744Y-35969338D01*
X78077338Y-35713744D01*
X78278156Y-35413199D01*
X78416482Y-35079250D01*
X78487000Y-34724732D01*
X78487000Y-34363268D01*
X78416482Y-34008750D01*
X78278156Y-33674801D01*
X78120579Y-33438970D01*
X113630613Y-33438970D01*
X113630613Y-33871030D01*
X113714904Y-34294787D01*
X113880246Y-34693958D01*
X114120285Y-35053203D01*
X114425797Y-35358715D01*
X114785042Y-35598754D01*
X115184213Y-35764096D01*
X115607970Y-35848387D01*
X116040030Y-35848387D01*
X116463787Y-35764096D01*
X116862958Y-35598754D01*
X117222203Y-35358715D01*
X117527715Y-35053203D01*
X117767754Y-34693958D01*
X117933096Y-34294787D01*
X118017387Y-33871030D01*
X118017387Y-33438970D01*
X117933096Y-33015213D01*
X117767754Y-32616042D01*
X117527715Y-32256797D01*
X117222203Y-31951285D01*
X116862958Y-31711246D01*
X116463787Y-31545904D01*
X116040030Y-31461613D01*
X115607970Y-31461613D01*
X115184213Y-31545904D01*
X114785042Y-31711246D01*
X114425797Y-31951285D01*
X114120285Y-32256797D01*
X113880246Y-32616042D01*
X113714904Y-33015213D01*
X113630613Y-33438970D01*
X78120579Y-33438970D01*
X78077338Y-33374256D01*
X77821744Y-33118662D01*
X77521199Y-32917844D01*
X77187250Y-32779518D01*
X76832732Y-32709000D01*
X76471268Y-32709000D01*
X76116750Y-32779518D01*
X75782801Y-32917844D01*
X75482256Y-33118662D01*
X75226662Y-33374256D01*
X75025844Y-33674801D01*
X74902000Y-33973787D01*
X74778156Y-33674801D01*
X74577338Y-33374256D01*
X74321744Y-33118662D01*
X74021199Y-32917844D01*
X73687250Y-32779518D01*
X73332732Y-32709000D01*
X72971268Y-32709000D01*
X72616750Y-32779518D01*
X72282801Y-32917844D01*
X71982256Y-33118662D01*
X71726662Y-33374256D01*
X71525844Y-33674801D01*
X71402000Y-33973787D01*
X71278156Y-33674801D01*
X71077338Y-33374256D01*
X70821744Y-33118662D01*
X70521199Y-32917844D01*
X70187250Y-32779518D01*
X69832732Y-32709000D01*
X69471268Y-32709000D01*
X69116750Y-32779518D01*
X68782801Y-32917844D01*
X68482256Y-33118662D01*
X68226662Y-33374256D01*
X68025844Y-33674801D01*
X67990072Y-33761162D01*
X67990072Y-33344000D01*
X67977812Y-33219518D01*
X67941502Y-33099820D01*
X67882537Y-32989506D01*
X67803185Y-32892815D01*
X67706494Y-32813463D01*
X67596180Y-32754498D01*
X67476482Y-32718188D01*
X67352000Y-32705928D01*
X64952000Y-32705928D01*
X64827518Y-32718188D01*
X64707820Y-32754498D01*
X64597506Y-32813463D01*
X64500815Y-32892815D01*
X64421463Y-32989506D01*
X64362498Y-33099820D01*
X64326188Y-33219518D01*
X64313928Y-33344000D01*
X64313928Y-35744000D01*
X64326188Y-35868482D01*
X64362498Y-35988180D01*
X64421463Y-36098494D01*
X64500815Y-36195185D01*
X64597506Y-36274537D01*
X64707820Y-36333502D01*
X64827518Y-36369812D01*
X64952000Y-36382072D01*
X67352000Y-36382072D01*
X67476482Y-36369812D01*
X67596180Y-36333502D01*
X67706494Y-36274537D01*
X67803185Y-36195185D01*
X67882537Y-36098494D01*
X67941502Y-35988180D01*
X67977812Y-35868482D01*
X67990072Y-35744000D01*
X67990072Y-35326838D01*
X68025844Y-35413199D01*
X68226662Y-35713744D01*
X68482256Y-35969338D01*
X68782801Y-36170156D01*
X69116750Y-36308482D01*
X69471268Y-36379000D01*
X69832732Y-36379000D01*
X70187250Y-36308482D01*
X70521199Y-36170156D01*
X70821744Y-35969338D01*
X71077338Y-35713744D01*
X71278156Y-35413199D01*
X71402000Y-35114213D01*
X71525844Y-35413199D01*
X71726662Y-35713744D01*
X71982256Y-35969338D01*
X72199500Y-36114496D01*
X72199501Y-48777500D01*
X69968958Y-48777500D01*
X69959962Y-48766538D01*
X69825386Y-48656095D01*
X69671850Y-48574028D01*
X69505254Y-48523492D01*
X69332000Y-48506428D01*
X68082000Y-48506428D01*
X67908746Y-48523492D01*
X67742150Y-48574028D01*
X67588614Y-48656095D01*
X67454038Y-48766538D01*
X67445042Y-48777500D01*
X67234867Y-48777500D01*
X67165962Y-48693538D01*
X67031386Y-48583095D01*
X66877850Y-48501028D01*
X66711254Y-48450492D01*
X66538000Y-48433428D01*
X65288000Y-48433428D01*
X65114746Y-48450492D01*
X64948150Y-48501028D01*
X64794614Y-48583095D01*
X64660038Y-48693538D01*
X64591133Y-48777500D01*
X64357215Y-48777500D01*
X64355405Y-48774114D01*
X64244962Y-48639538D01*
X64110386Y-48529095D01*
X63956850Y-48447028D01*
X63790254Y-48396492D01*
X63617000Y-48379428D01*
X62367000Y-48379428D01*
X62193746Y-48396492D01*
X62027150Y-48447028D01*
X61873614Y-48529095D01*
X61739038Y-48639538D01*
X61628595Y-48774114D01*
X61626785Y-48777500D01*
X61563215Y-48777500D01*
X61561405Y-48774114D01*
X61450962Y-48639538D01*
X61316386Y-48529095D01*
X61162850Y-48447028D01*
X60996254Y-48396492D01*
X60823000Y-48379428D01*
X59573000Y-48379428D01*
X59399746Y-48396492D01*
X59233150Y-48447028D01*
X59079614Y-48529095D01*
X58945038Y-48639538D01*
X58834595Y-48774114D01*
X58832785Y-48777500D01*
X56742785Y-48777500D01*
X56696000Y-48772892D01*
X56649216Y-48777500D01*
X56649215Y-48777500D01*
X56509277Y-48791283D01*
X56329731Y-48845748D01*
X56164259Y-48934194D01*
X56019222Y-49053222D01*
X55989390Y-49089573D01*
X55874569Y-49204393D01*
X55874562Y-49204399D01*
X51347034Y-53731928D01*
X50718500Y-53731928D01*
X50545246Y-53748992D01*
X50378650Y-53799528D01*
X50225114Y-53881595D01*
X50090538Y-53992038D01*
X49980095Y-54126614D01*
X49898028Y-54280150D01*
X49847492Y-54446746D01*
X49830428Y-54620000D01*
X49830428Y-55870000D01*
X49847492Y-56043254D01*
X49898028Y-56209850D01*
X49980095Y-56363386D01*
X50090538Y-56497962D01*
X50225114Y-56608405D01*
X50301501Y-56649235D01*
X50301501Y-56673785D01*
X50298114Y-56675595D01*
X50163538Y-56786038D01*
X50053095Y-56920614D01*
X49971028Y-57074150D01*
X49920492Y-57240746D01*
X49903428Y-57414000D01*
X49903428Y-58664000D01*
X49920492Y-58837254D01*
X49971028Y-59003850D01*
X50053095Y-59157386D01*
X50163538Y-59291962D01*
X50298114Y-59402405D01*
X50301501Y-59404215D01*
X50301501Y-59721785D01*
X50298114Y-59723595D01*
X50163538Y-59834038D01*
X50053095Y-59968614D01*
X49971028Y-60122150D01*
X49920492Y-60288746D01*
X49903428Y-60462000D01*
X49903428Y-61712000D01*
X49920492Y-61885254D01*
X49971028Y-62051850D01*
X50053095Y-62205386D01*
X50163538Y-62339962D01*
X50298114Y-62450405D01*
X50301501Y-62452215D01*
X50301501Y-62642785D01*
X50298114Y-62644595D01*
X50163538Y-62755038D01*
X50053095Y-62889614D01*
X49971028Y-63043150D01*
X49920492Y-63209746D01*
X49903428Y-63383000D01*
X49903428Y-64633000D01*
X49920492Y-64806254D01*
X49971028Y-64972850D01*
X50053095Y-65126386D01*
X50163538Y-65260962D01*
X50298114Y-65371405D01*
X50301501Y-65373215D01*
X50301500Y-65563785D01*
X50298114Y-65565595D01*
X50163538Y-65676038D01*
X50053095Y-65810614D01*
X49971028Y-65964150D01*
X49920492Y-66130746D01*
X49903428Y-66304000D01*
X49903428Y-67554000D01*
X49920492Y-67727254D01*
X49971028Y-67893850D01*
X50053095Y-68047386D01*
X50163538Y-68181962D01*
X50298114Y-68292405D01*
X50301500Y-68294215D01*
X50301500Y-68445765D01*
X50225114Y-68486595D01*
X50090538Y-68597038D01*
X49980095Y-68731614D01*
X49898028Y-68885150D01*
X49847492Y-69051746D01*
X49830428Y-69225000D01*
X49830428Y-70475000D01*
X49847492Y-70648254D01*
X49898028Y-70814850D01*
X49980095Y-70968386D01*
X50090538Y-71102962D01*
X50225114Y-71213405D01*
X50301500Y-71254234D01*
X50301500Y-71405785D01*
X50298114Y-71407595D01*
X50163538Y-71518038D01*
X50053095Y-71652614D01*
X49971028Y-71806150D01*
X49920492Y-71972746D01*
X49903428Y-72146000D01*
X49903428Y-73396000D01*
X49920492Y-73569254D01*
X49971028Y-73735850D01*
X50053095Y-73889386D01*
X50163538Y-74023962D01*
X50298114Y-74134405D01*
X50301500Y-74136215D01*
X50301500Y-74199785D01*
X50298114Y-74201595D01*
X50163538Y-74312038D01*
X50053095Y-74446614D01*
X49971028Y-74600150D01*
X49920492Y-74766746D01*
X49903428Y-74940000D01*
X49903428Y-75568533D01*
X48661834Y-76810128D01*
X48639501Y-76807928D01*
X47614499Y-76807928D01*
X47441245Y-76824992D01*
X47274649Y-76875528D01*
X47121113Y-76957595D01*
X46986538Y-77068038D01*
X46876095Y-77202613D01*
X46794028Y-77356149D01*
X46743492Y-77522745D01*
X46726428Y-77695999D01*
X30746700Y-77695999D01*
X30746700Y-39401801D01*
X30749832Y-39370000D01*
X30746700Y-39338199D01*
X30746700Y-39338191D01*
X30737327Y-39243029D01*
X30700291Y-39120937D01*
X30640148Y-39008417D01*
X30559208Y-38909792D01*
X30534504Y-38889518D01*
X26047700Y-34402715D01*
X26047700Y-29628970D01*
X27905613Y-29628970D01*
X27905613Y-30061030D01*
X27989904Y-30484787D01*
X28155246Y-30883958D01*
X28395285Y-31243203D01*
X28700797Y-31548715D01*
X29060042Y-31788754D01*
X29459213Y-31954096D01*
X29882970Y-32038387D01*
X30315030Y-32038387D01*
X30738787Y-31954096D01*
X31137958Y-31788754D01*
X31497203Y-31548715D01*
X31802715Y-31243203D01*
X32042754Y-30883958D01*
X32208096Y-30484787D01*
X32292387Y-30061030D01*
X32292387Y-29628970D01*
X32208096Y-29205213D01*
X32042754Y-28806042D01*
X31802715Y-28446797D01*
X31497203Y-28141285D01*
X31137958Y-27901246D01*
X30738787Y-27735904D01*
X30315030Y-27651613D01*
X29882970Y-27651613D01*
X29459213Y-27735904D01*
X29060042Y-27901246D01*
X28700797Y-28141285D01*
X28395285Y-28446797D01*
X28155246Y-28806042D01*
X27989904Y-29205213D01*
X27905613Y-29628970D01*
X26047700Y-29628970D01*
X26047700Y-26047700D01*
X34656715Y-26047700D01*
X38889439Y-30280425D01*
G36*
X70594002Y-75279752D02*
G01*
X70552253Y-75238003D01*
X70594002Y-75238003D01*
X70594002Y-75279752D01*
X70594002Y-75279752D01*
G37*
X70594002Y-75279752D02*
X70552253Y-75238003D01*
X70594002Y-75238003D01*
X70594002Y-75279752D01*
G36*
X70076001Y-75238001D02*
G01*
X69796001Y-75238001D01*
X69796001Y-74984001D01*
X70076001Y-74984001D01*
X70076001Y-75238001D01*
X70076001Y-75238001D01*
G37*
X70076001Y-75238001D02*
X69796001Y-75238001D01*
X69796001Y-74984001D01*
X70076001Y-74984001D01*
X70076001Y-75238001D01*
G36*
X58834595Y-50685886D02*
G01*
X58945038Y-50820462D01*
X59079614Y-50930905D01*
X59233150Y-51012972D01*
X59399746Y-51063508D01*
X59573000Y-51080572D01*
X60823000Y-51080572D01*
X60996254Y-51063508D01*
X61162850Y-51012972D01*
X61316386Y-50930905D01*
X61450962Y-50820462D01*
X61561405Y-50685886D01*
X61563215Y-50682500D01*
X61626785Y-50682500D01*
X61628595Y-50685886D01*
X61739038Y-50820462D01*
X61873614Y-50930905D01*
X62027150Y-51012972D01*
X62193746Y-51063508D01*
X62367000Y-51080572D01*
X63617000Y-51080572D01*
X63790254Y-51063508D01*
X63956850Y-51012972D01*
X64110386Y-50930905D01*
X64244962Y-50820462D01*
X64355405Y-50685886D01*
X64357215Y-50682500D01*
X64518921Y-50682500D01*
X64549595Y-50739886D01*
X64660038Y-50874462D01*
X64794614Y-50984905D01*
X64948150Y-51066972D01*
X65114746Y-51117508D01*
X65288000Y-51134572D01*
X66538000Y-51134572D01*
X66711254Y-51117508D01*
X66877850Y-51066972D01*
X67031386Y-50984905D01*
X67165962Y-50874462D01*
X67276405Y-50739886D01*
X67290490Y-50713534D01*
X67343595Y-50812886D01*
X67454038Y-50947462D01*
X67588614Y-51057905D01*
X67742150Y-51139972D01*
X67908746Y-51190508D01*
X68082000Y-51207572D01*
X69332000Y-51207572D01*
X69505254Y-51190508D01*
X69671850Y-51139972D01*
X69825386Y-51057905D01*
X69959962Y-50947462D01*
X70070405Y-50812886D01*
X70140098Y-50682500D01*
X73159215Y-50682500D01*
X73206000Y-50687108D01*
X73252785Y-50682500D01*
X74876642Y-50682500D01*
X74906259Y-50706806D01*
X75071731Y-50795252D01*
X75251277Y-50849717D01*
X75391215Y-50863500D01*
X75391216Y-50863500D01*
X75438000Y-50868108D01*
X75484785Y-50863500D01*
X77120785Y-50863500D01*
X77122595Y-50866886D01*
X77233038Y-51001462D01*
X77367614Y-51111905D01*
X77521150Y-51193972D01*
X77687746Y-51244508D01*
X77861000Y-51261572D01*
X79111000Y-51261572D01*
X79284254Y-51244508D01*
X79450850Y-51193972D01*
X79604386Y-51111905D01*
X79738962Y-51001462D01*
X79849405Y-50866886D01*
X79851215Y-50863500D01*
X81774462Y-50863500D01*
X81848890Y-50937928D01*
X81271500Y-50937928D01*
X81098246Y-50954992D01*
X80931650Y-51005528D01*
X80778114Y-51087595D01*
X80643538Y-51198038D01*
X80533095Y-51332614D01*
X80451028Y-51486150D01*
X80400492Y-51652746D01*
X80383428Y-51826000D01*
X80383428Y-52723942D01*
X79999072Y-53108298D01*
X79999072Y-52423500D01*
X79982008Y-52250246D01*
X79931472Y-52083650D01*
X79849405Y-51930114D01*
X79738962Y-51795538D01*
X79604386Y-51685095D01*
X79450850Y-51603028D01*
X79284254Y-51552492D01*
X79111000Y-51535428D01*
X77861000Y-51535428D01*
X77687746Y-51552492D01*
X77521150Y-51603028D01*
X77367614Y-51685095D01*
X77233038Y-51795538D01*
X77122595Y-51930114D01*
X77040528Y-52083650D01*
X76989992Y-52250246D01*
X76972928Y-52423500D01*
X76972928Y-53321441D01*
X74154302Y-56140068D01*
X74125232Y-56163925D01*
X74101375Y-56192995D01*
X74101374Y-56192996D01*
X74030008Y-56279955D01*
X73959252Y-56412332D01*
X73915680Y-56555969D01*
X73900967Y-56705347D01*
X73904654Y-56742780D01*
X73904653Y-65792620D01*
X72260991Y-67436283D01*
X72216119Y-67423400D01*
X72091469Y-67413000D01*
X71641751Y-67416001D01*
X71483001Y-67574751D01*
X71483001Y-67912929D01*
X71229001Y-67912929D01*
X71229001Y-67574751D01*
X71070251Y-67416001D01*
X70713382Y-67413620D01*
X70711001Y-67056751D01*
X70552251Y-66898001D01*
X69296001Y-66898001D01*
X69296001Y-66644001D01*
X70552251Y-66644001D01*
X70711001Y-66485251D01*
X70714002Y-66035533D01*
X70703602Y-65910883D01*
X70669085Y-65790656D01*
X70611775Y-65679473D01*
X70533876Y-65581607D01*
X70438381Y-65500819D01*
X70328960Y-65440213D01*
X70209818Y-65402119D01*
X70107751Y-65391001D01*
X69970641Y-65528111D01*
X69938381Y-65500819D01*
X69828960Y-65440213D01*
X69806179Y-65432929D01*
X69764251Y-65391001D01*
X69686001Y-65399525D01*
X69607751Y-65391001D01*
X69565823Y-65432929D01*
X69543042Y-65440213D01*
X69436001Y-65499501D01*
X69328960Y-65440213D01*
X69306179Y-65432929D01*
X69264251Y-65391001D01*
X69186001Y-65399525D01*
X69107751Y-65391001D01*
X69065823Y-65432929D01*
X69043042Y-65440213D01*
X68936001Y-65499501D01*
X68828960Y-65440213D01*
X68806179Y-65432929D01*
X68764251Y-65391001D01*
X68686001Y-65399525D01*
X68607751Y-65391001D01*
X68565823Y-65432929D01*
X68543042Y-65440213D01*
X68435650Y-65499695D01*
X68430495Y-65495464D01*
X68320181Y-65436499D01*
X68305207Y-65431957D01*
X68264251Y-65391001D01*
X68189675Y-65399124D01*
X68076001Y-65387929D01*
X67796001Y-65387929D01*
X67698001Y-65397581D01*
X67698001Y-63984661D01*
X67763402Y-63862304D01*
X67806974Y-63718666D01*
X67811842Y-63669243D01*
X67821313Y-63655068D01*
X67886413Y-63497903D01*
X67919600Y-63331057D01*
X67919600Y-63160943D01*
X67886413Y-62994097D01*
X67821313Y-62836932D01*
X67726802Y-62695487D01*
X67606513Y-62575198D01*
X67465068Y-62480687D01*
X67307903Y-62415587D01*
X67141057Y-62382400D01*
X66970943Y-62382400D01*
X66804097Y-62415587D01*
X66646932Y-62480687D01*
X66505487Y-62575198D01*
X66385198Y-62695487D01*
X66290687Y-62836932D01*
X66225587Y-62994097D01*
X66192400Y-63160943D01*
X66192400Y-63331057D01*
X66214571Y-63442519D01*
X66185027Y-63539911D01*
X66176087Y-63630686D01*
X66170315Y-63689288D01*
X66174001Y-63726712D01*
X66174002Y-65398218D01*
X66107751Y-65391001D01*
X66066795Y-65431957D01*
X66051821Y-65436499D01*
X65941507Y-65495464D01*
X65936352Y-65499695D01*
X65828960Y-65440213D01*
X65806179Y-65432929D01*
X65764251Y-65391001D01*
X65698001Y-65398218D01*
X65698001Y-56918629D01*
X68434059Y-54182572D01*
X69332000Y-54182572D01*
X69505254Y-54165508D01*
X69671850Y-54114972D01*
X69825386Y-54032905D01*
X69959962Y-53922462D01*
X70070405Y-53787886D01*
X70152472Y-53634350D01*
X70203008Y-53467754D01*
X70220072Y-53294500D01*
X70220072Y-52369500D01*
X70203008Y-52196246D01*
X70152472Y-52029650D01*
X70070405Y-51876114D01*
X69959962Y-51741538D01*
X69825386Y-51631095D01*
X69671850Y-51549028D01*
X69505254Y-51498492D01*
X69332000Y-51481428D01*
X68082000Y-51481428D01*
X67908746Y-51498492D01*
X67742150Y-51549028D01*
X67588614Y-51631095D01*
X67454038Y-51741538D01*
X67343595Y-51876114D01*
X67329510Y-51902466D01*
X67276405Y-51803114D01*
X67165962Y-51668538D01*
X67031386Y-51558095D01*
X66877850Y-51476028D01*
X66711254Y-51425492D01*
X66538000Y-51408428D01*
X65288000Y-51408428D01*
X65114746Y-51425492D01*
X64948150Y-51476028D01*
X64794614Y-51558095D01*
X64660038Y-51668538D01*
X64549595Y-51803114D01*
X64467528Y-51956650D01*
X64460690Y-51979191D01*
X64437472Y-51902650D01*
X64355405Y-51749114D01*
X64244962Y-51614538D01*
X64110386Y-51504095D01*
X63956850Y-51422028D01*
X63790254Y-51371492D01*
X63617000Y-51354428D01*
X62367000Y-51354428D01*
X62193746Y-51371492D01*
X62027150Y-51422028D01*
X61873614Y-51504095D01*
X61739038Y-51614538D01*
X61628595Y-51749114D01*
X61595000Y-51811966D01*
X61561405Y-51749114D01*
X61450962Y-51614538D01*
X61316386Y-51504095D01*
X61162850Y-51422028D01*
X60996254Y-51371492D01*
X60823000Y-51354428D01*
X59573000Y-51354428D01*
X59399746Y-51371492D01*
X59233150Y-51422028D01*
X59079614Y-51504095D01*
X58945038Y-51614538D01*
X58834595Y-51749114D01*
X58752528Y-51902650D01*
X58701992Y-52069246D01*
X58684928Y-52242500D01*
X58684928Y-53167500D01*
X58701992Y-53340754D01*
X58752528Y-53507350D01*
X58834595Y-53660886D01*
X58945038Y-53795462D01*
X59079614Y-53905905D01*
X59233150Y-53987972D01*
X59399746Y-54038508D01*
X59436001Y-54042079D01*
X59436001Y-59447371D01*
X55506572Y-55517942D01*
X55506572Y-54620000D01*
X55489508Y-54446746D01*
X55438972Y-54280150D01*
X55356905Y-54126614D01*
X55246462Y-53992038D01*
X55111886Y-53881595D01*
X54958350Y-53799528D01*
X54791754Y-53748992D01*
X54618500Y-53731928D01*
X54041110Y-53731928D01*
X57090539Y-50682500D01*
X58832785Y-50682500D01*
X58834595Y-50685886D01*
X58834595Y-50685886D01*
G37*
X58834595Y-50685886D02*
X58945038Y-50820462D01*
X59079614Y-50930905D01*
X59233150Y-51012972D01*
X59399746Y-51063508D01*
X59573000Y-51080572D01*
X60823000Y-51080572D01*
X60996254Y-51063508D01*
X61162850Y-51012972D01*
X61316386Y-50930905D01*
X61450962Y-50820462D01*
X61561405Y-50685886D01*
X61563215Y-50682500D01*
X61626785Y-50682500D01*
X61628595Y-50685886D01*
X61739038Y-50820462D01*
X61873614Y-50930905D01*
X62027150Y-51012972D01*
X62193746Y-51063508D01*
X62367000Y-51080572D01*
X63617000Y-51080572D01*
X63790254Y-51063508D01*
X63956850Y-51012972D01*
X64110386Y-50930905D01*
X64244962Y-50820462D01*
X64355405Y-50685886D01*
X64357215Y-50682500D01*
X64518921Y-50682500D01*
X64549595Y-50739886D01*
X64660038Y-50874462D01*
X64794614Y-50984905D01*
X64948150Y-51066972D01*
X65114746Y-51117508D01*
X65288000Y-51134572D01*
X66538000Y-51134572D01*
X66711254Y-51117508D01*
X66877850Y-51066972D01*
X67031386Y-50984905D01*
X67165962Y-50874462D01*
X67276405Y-50739886D01*
X67290490Y-50713534D01*
X67343595Y-50812886D01*
X67454038Y-50947462D01*
X67588614Y-51057905D01*
X67742150Y-51139972D01*
X67908746Y-51190508D01*
X68082000Y-51207572D01*
X69332000Y-51207572D01*
X69505254Y-51190508D01*
X69671850Y-51139972D01*
X69825386Y-51057905D01*
X69959962Y-50947462D01*
X70070405Y-50812886D01*
X70140098Y-50682500D01*
X73159215Y-50682500D01*
X73206000Y-50687108D01*
X73252785Y-50682500D01*
X74876642Y-50682500D01*
X74906259Y-50706806D01*
X75071731Y-50795252D01*
X75251277Y-50849717D01*
X75391215Y-50863500D01*
X75391216Y-50863500D01*
X75438000Y-50868108D01*
X75484785Y-50863500D01*
X77120785Y-50863500D01*
X77122595Y-50866886D01*
X77233038Y-51001462D01*
X77367614Y-51111905D01*
X77521150Y-51193972D01*
X77687746Y-51244508D01*
X77861000Y-51261572D01*
X79111000Y-51261572D01*
X79284254Y-51244508D01*
X79450850Y-51193972D01*
X79604386Y-51111905D01*
X79738962Y-51001462D01*
X79849405Y-50866886D01*
X79851215Y-50863500D01*
X81774462Y-50863500D01*
X81848890Y-50937928D01*
X81271500Y-50937928D01*
X81098246Y-50954992D01*
X80931650Y-51005528D01*
X80778114Y-51087595D01*
X80643538Y-51198038D01*
X80533095Y-51332614D01*
X80451028Y-51486150D01*
X80400492Y-51652746D01*
X80383428Y-51826000D01*
X80383428Y-52723942D01*
X79999072Y-53108298D01*
X79999072Y-52423500D01*
X79982008Y-52250246D01*
X79931472Y-52083650D01*
X79849405Y-51930114D01*
X79738962Y-51795538D01*
X79604386Y-51685095D01*
X79450850Y-51603028D01*
X79284254Y-51552492D01*
X79111000Y-51535428D01*
X77861000Y-51535428D01*
X77687746Y-51552492D01*
X77521150Y-51603028D01*
X77367614Y-51685095D01*
X77233038Y-51795538D01*
X77122595Y-51930114D01*
X77040528Y-52083650D01*
X76989992Y-52250246D01*
X76972928Y-52423500D01*
X76972928Y-53321441D01*
X74154302Y-56140068D01*
X74125232Y-56163925D01*
X74101375Y-56192995D01*
X74101374Y-56192996D01*
X74030008Y-56279955D01*
X73959252Y-56412332D01*
X73915680Y-56555969D01*
X73900967Y-56705347D01*
X73904654Y-56742780D01*
X73904653Y-65792620D01*
X72260991Y-67436283D01*
X72216119Y-67423400D01*
X72091469Y-67413000D01*
X71641751Y-67416001D01*
X71483001Y-67574751D01*
X71483001Y-67912929D01*
X71229001Y-67912929D01*
X71229001Y-67574751D01*
X71070251Y-67416001D01*
X70713382Y-67413620D01*
X70711001Y-67056751D01*
X70552251Y-66898001D01*
X69296001Y-66898001D01*
X69296001Y-66644001D01*
X70552251Y-66644001D01*
X70711001Y-66485251D01*
X70714002Y-66035533D01*
X70703602Y-65910883D01*
X70669085Y-65790656D01*
X70611775Y-65679473D01*
X70533876Y-65581607D01*
X70438381Y-65500819D01*
X70328960Y-65440213D01*
X70209818Y-65402119D01*
X70107751Y-65391001D01*
X69970641Y-65528111D01*
X69938381Y-65500819D01*
X69828960Y-65440213D01*
X69806179Y-65432929D01*
X69764251Y-65391001D01*
X69686001Y-65399525D01*
X69607751Y-65391001D01*
X69565823Y-65432929D01*
X69543042Y-65440213D01*
X69436001Y-65499501D01*
X69328960Y-65440213D01*
X69306179Y-65432929D01*
X69264251Y-65391001D01*
X69186001Y-65399525D01*
X69107751Y-65391001D01*
X69065823Y-65432929D01*
X69043042Y-65440213D01*
X68936001Y-65499501D01*
X68828960Y-65440213D01*
X68806179Y-65432929D01*
X68764251Y-65391001D01*
X68686001Y-65399525D01*
X68607751Y-65391001D01*
X68565823Y-65432929D01*
X68543042Y-65440213D01*
X68435650Y-65499695D01*
X68430495Y-65495464D01*
X68320181Y-65436499D01*
X68305207Y-65431957D01*
X68264251Y-65391001D01*
X68189675Y-65399124D01*
X68076001Y-65387929D01*
X67796001Y-65387929D01*
X67698001Y-65397581D01*
X67698001Y-63984661D01*
X67763402Y-63862304D01*
X67806974Y-63718666D01*
X67811842Y-63669243D01*
X67821313Y-63655068D01*
X67886413Y-63497903D01*
X67919600Y-63331057D01*
X67919600Y-63160943D01*
X67886413Y-62994097D01*
X67821313Y-62836932D01*
X67726802Y-62695487D01*
X67606513Y-62575198D01*
X67465068Y-62480687D01*
X67307903Y-62415587D01*
X67141057Y-62382400D01*
X66970943Y-62382400D01*
X66804097Y-62415587D01*
X66646932Y-62480687D01*
X66505487Y-62575198D01*
X66385198Y-62695487D01*
X66290687Y-62836932D01*
X66225587Y-62994097D01*
X66192400Y-63160943D01*
X66192400Y-63331057D01*
X66214571Y-63442519D01*
X66185027Y-63539911D01*
X66176087Y-63630686D01*
X66170315Y-63689288D01*
X66174001Y-63726712D01*
X66174002Y-65398218D01*
X66107751Y-65391001D01*
X66066795Y-65431957D01*
X66051821Y-65436499D01*
X65941507Y-65495464D01*
X65936352Y-65499695D01*
X65828960Y-65440213D01*
X65806179Y-65432929D01*
X65764251Y-65391001D01*
X65698001Y-65398218D01*
X65698001Y-56918629D01*
X68434059Y-54182572D01*
X69332000Y-54182572D01*
X69505254Y-54165508D01*
X69671850Y-54114972D01*
X69825386Y-54032905D01*
X69959962Y-53922462D01*
X70070405Y-53787886D01*
X70152472Y-53634350D01*
X70203008Y-53467754D01*
X70220072Y-53294500D01*
X70220072Y-52369500D01*
X70203008Y-52196246D01*
X70152472Y-52029650D01*
X70070405Y-51876114D01*
X69959962Y-51741538D01*
X69825386Y-51631095D01*
X69671850Y-51549028D01*
X69505254Y-51498492D01*
X69332000Y-51481428D01*
X68082000Y-51481428D01*
X67908746Y-51498492D01*
X67742150Y-51549028D01*
X67588614Y-51631095D01*
X67454038Y-51741538D01*
X67343595Y-51876114D01*
X67329510Y-51902466D01*
X67276405Y-51803114D01*
X67165962Y-51668538D01*
X67031386Y-51558095D01*
X66877850Y-51476028D01*
X66711254Y-51425492D01*
X66538000Y-51408428D01*
X65288000Y-51408428D01*
X65114746Y-51425492D01*
X64948150Y-51476028D01*
X64794614Y-51558095D01*
X64660038Y-51668538D01*
X64549595Y-51803114D01*
X64467528Y-51956650D01*
X64460690Y-51979191D01*
X64437472Y-51902650D01*
X64355405Y-51749114D01*
X64244962Y-51614538D01*
X64110386Y-51504095D01*
X63956850Y-51422028D01*
X63790254Y-51371492D01*
X63617000Y-51354428D01*
X62367000Y-51354428D01*
X62193746Y-51371492D01*
X62027150Y-51422028D01*
X61873614Y-51504095D01*
X61739038Y-51614538D01*
X61628595Y-51749114D01*
X61595000Y-51811966D01*
X61561405Y-51749114D01*
X61450962Y-51614538D01*
X61316386Y-51504095D01*
X61162850Y-51422028D01*
X60996254Y-51371492D01*
X60823000Y-51354428D01*
X59573000Y-51354428D01*
X59399746Y-51371492D01*
X59233150Y-51422028D01*
X59079614Y-51504095D01*
X58945038Y-51614538D01*
X58834595Y-51749114D01*
X58752528Y-51902650D01*
X58701992Y-52069246D01*
X58684928Y-52242500D01*
X58684928Y-53167500D01*
X58701992Y-53340754D01*
X58752528Y-53507350D01*
X58834595Y-53660886D01*
X58945038Y-53795462D01*
X59079614Y-53905905D01*
X59233150Y-53987972D01*
X59399746Y-54038508D01*
X59436001Y-54042079D01*
X59436001Y-59447371D01*
X55506572Y-55517942D01*
X55506572Y-54620000D01*
X55489508Y-54446746D01*
X55438972Y-54280150D01*
X55356905Y-54126614D01*
X55246462Y-53992038D01*
X55111886Y-53881595D01*
X54958350Y-53799528D01*
X54791754Y-53748992D01*
X54618500Y-53731928D01*
X54041110Y-53731928D01*
X57090539Y-50682500D01*
X58832785Y-50682500D01*
X58834595Y-50685886D01*
G36*
X83358428Y-52447466D02*
G01*
X83358428Y-53076000D01*
X83375492Y-53249254D01*
X83426028Y-53415850D01*
X83508095Y-53569386D01*
X83618538Y-53703962D01*
X83753114Y-53814405D01*
X83756500Y-53816215D01*
X83756501Y-62476765D01*
X83680114Y-62517595D01*
X83545538Y-62628038D01*
X83435095Y-62762614D01*
X83353028Y-62916150D01*
X83302492Y-63082746D01*
X83285428Y-63256000D01*
X83285428Y-64506000D01*
X83302492Y-64679254D01*
X83347895Y-64828928D01*
X83258999Y-64828928D01*
X83085745Y-64845992D01*
X82919149Y-64896528D01*
X82915978Y-64898223D01*
X82943972Y-64845850D01*
X82994508Y-64679254D01*
X83011572Y-64506000D01*
X83011572Y-63256000D01*
X82994508Y-63082746D01*
X82943972Y-62916150D01*
X82861905Y-62762614D01*
X82751462Y-62628038D01*
X82616886Y-62517595D01*
X82463350Y-62435528D01*
X82296754Y-62384992D01*
X82123500Y-62367928D01*
X81198500Y-62367928D01*
X81025246Y-62384992D01*
X80858650Y-62435528D01*
X80705114Y-62517595D01*
X80570538Y-62628038D01*
X80460095Y-62762614D01*
X80378028Y-62916150D01*
X80327492Y-63082746D01*
X80310428Y-63256000D01*
X80310428Y-64153941D01*
X76809600Y-67654770D01*
X76809600Y-67605943D01*
X76776413Y-67439097D01*
X76711313Y-67281932D01*
X76616802Y-67140487D01*
X76496513Y-67020198D01*
X76355068Y-66925687D01*
X76197903Y-66860587D01*
X76146308Y-66850324D01*
X76573055Y-66423578D01*
X76578903Y-66422415D01*
X76736068Y-66357315D01*
X76877513Y-66262804D01*
X76997802Y-66142515D01*
X77092313Y-66001070D01*
X77157413Y-65843905D01*
X77190600Y-65677059D01*
X77190600Y-65506945D01*
X77157413Y-65340099D01*
X77092313Y-65182934D01*
X76997802Y-65041489D01*
X76877513Y-64921200D01*
X76736068Y-64826689D01*
X76578903Y-64761589D01*
X76412057Y-64728402D01*
X76241943Y-64728402D01*
X76200000Y-64736745D01*
X76200000Y-59062630D01*
X81298558Y-53964072D01*
X82196500Y-53964072D01*
X82369754Y-53947008D01*
X82536350Y-53896472D01*
X82689886Y-53814405D01*
X82824462Y-53703962D01*
X82934905Y-53569386D01*
X83016972Y-53415850D01*
X83067508Y-53249254D01*
X83084572Y-53076000D01*
X83084572Y-52173610D01*
X83358428Y-52447466D01*
X83358428Y-52447466D01*
G37*
X83358428Y-52447466D02*
X83358428Y-53076000D01*
X83375492Y-53249254D01*
X83426028Y-53415850D01*
X83508095Y-53569386D01*
X83618538Y-53703962D01*
X83753114Y-53814405D01*
X83756500Y-53816215D01*
X83756501Y-62476765D01*
X83680114Y-62517595D01*
X83545538Y-62628038D01*
X83435095Y-62762614D01*
X83353028Y-62916150D01*
X83302492Y-63082746D01*
X83285428Y-63256000D01*
X83285428Y-64506000D01*
X83302492Y-64679254D01*
X83347895Y-64828928D01*
X83258999Y-64828928D01*
X83085745Y-64845992D01*
X82919149Y-64896528D01*
X82915978Y-64898223D01*
X82943972Y-64845850D01*
X82994508Y-64679254D01*
X83011572Y-64506000D01*
X83011572Y-63256000D01*
X82994508Y-63082746D01*
X82943972Y-62916150D01*
X82861905Y-62762614D01*
X82751462Y-62628038D01*
X82616886Y-62517595D01*
X82463350Y-62435528D01*
X82296754Y-62384992D01*
X82123500Y-62367928D01*
X81198500Y-62367928D01*
X81025246Y-62384992D01*
X80858650Y-62435528D01*
X80705114Y-62517595D01*
X80570538Y-62628038D01*
X80460095Y-62762614D01*
X80378028Y-62916150D01*
X80327492Y-63082746D01*
X80310428Y-63256000D01*
X80310428Y-64153941D01*
X76809600Y-67654770D01*
X76809600Y-67605943D01*
X76776413Y-67439097D01*
X76711313Y-67281932D01*
X76616802Y-67140487D01*
X76496513Y-67020198D01*
X76355068Y-66925687D01*
X76197903Y-66860587D01*
X76146308Y-66850324D01*
X76573055Y-66423578D01*
X76578903Y-66422415D01*
X76736068Y-66357315D01*
X76877513Y-66262804D01*
X76997802Y-66142515D01*
X77092313Y-66001070D01*
X77157413Y-65843905D01*
X77190600Y-65677059D01*
X77190600Y-65506945D01*
X77157413Y-65340099D01*
X77092313Y-65182934D01*
X76997802Y-65041489D01*
X76877513Y-64921200D01*
X76736068Y-64826689D01*
X76578903Y-64761589D01*
X76412057Y-64728402D01*
X76241943Y-64728402D01*
X76200000Y-64736745D01*
X76200000Y-59062630D01*
X81298558Y-53964072D01*
X82196500Y-53964072D01*
X82369754Y-53947008D01*
X82536350Y-53896472D01*
X82689886Y-53814405D01*
X82824462Y-53703962D01*
X82934905Y-53569386D01*
X83016972Y-53415850D01*
X83067508Y-53249254D01*
X83084572Y-53076000D01*
X83084572Y-52173610D01*
X83358428Y-52447466D01*
M02*
