G04 #@! TF.GenerationSoftware,KiCad,Pcbnew,(5.1.4-0-10_14)*
G04 #@! TF.CreationDate,2020-01-18T12:34:28-08:00*
G04 #@! TF.ProjectId,Board,426f6172-642e-46b6-9963-61645f706362,v1.0*
G04 #@! TF.SameCoordinates,Original*
G04 #@! TF.FileFunction,Soldermask,Top*
G04 #@! TF.FilePolarity,Negative*
%FSLAX46Y46*%
G04 Gerber Fmt 4.6, Leading zero omitted, Abs format (unit mm)*
G04 Created by KiCad (PCBNEW (5.1.4-0-10_14)) date 2020-01-18 12:34:28*
%MOMM*%
%LPD*%
G04 APERTURE LIST*
%ADD10C,0.100000*%
G04 APERTURE END LIST*
D10*
G36*
X77990000Y-94119000D02*
G01*
X76188000Y-94119000D01*
X76188000Y-92317000D01*
X77990000Y-92317000D01*
X77990000Y-94119000D01*
X77990000Y-94119000D01*
G37*
G36*
X74659442Y-92323518D02*
G01*
X74725627Y-92330037D01*
X74895466Y-92381557D01*
X75051991Y-92465222D01*
X75087729Y-92494552D01*
X75189186Y-92577814D01*
X75272448Y-92679271D01*
X75301778Y-92715009D01*
X75385443Y-92871534D01*
X75436963Y-93041373D01*
X75454359Y-93218000D01*
X75436963Y-93394627D01*
X75385443Y-93564466D01*
X75301778Y-93720991D01*
X75272448Y-93756729D01*
X75189186Y-93858186D01*
X75087729Y-93941448D01*
X75051991Y-93970778D01*
X74895466Y-94054443D01*
X74725627Y-94105963D01*
X74659442Y-94112482D01*
X74593260Y-94119000D01*
X74504740Y-94119000D01*
X74438558Y-94112482D01*
X74372373Y-94105963D01*
X74202534Y-94054443D01*
X74046009Y-93970778D01*
X74010271Y-93941448D01*
X73908814Y-93858186D01*
X73825552Y-93756729D01*
X73796222Y-93720991D01*
X73712557Y-93564466D01*
X73661037Y-93394627D01*
X73643641Y-93218000D01*
X73661037Y-93041373D01*
X73712557Y-92871534D01*
X73796222Y-92715009D01*
X73825552Y-92679271D01*
X73908814Y-92577814D01*
X74010271Y-92494552D01*
X74046009Y-92465222D01*
X74202534Y-92381557D01*
X74372373Y-92330037D01*
X74438558Y-92323518D01*
X74504740Y-92317000D01*
X74593260Y-92317000D01*
X74659442Y-92323518D01*
X74659442Y-92323518D01*
G37*
G36*
X72119442Y-92323518D02*
G01*
X72185627Y-92330037D01*
X72355466Y-92381557D01*
X72511991Y-92465222D01*
X72547729Y-92494552D01*
X72649186Y-92577814D01*
X72732448Y-92679271D01*
X72761778Y-92715009D01*
X72845443Y-92871534D01*
X72896963Y-93041373D01*
X72914359Y-93218000D01*
X72896963Y-93394627D01*
X72845443Y-93564466D01*
X72761778Y-93720991D01*
X72732448Y-93756729D01*
X72649186Y-93858186D01*
X72547729Y-93941448D01*
X72511991Y-93970778D01*
X72355466Y-94054443D01*
X72185627Y-94105963D01*
X72119442Y-94112482D01*
X72053260Y-94119000D01*
X71964740Y-94119000D01*
X71898558Y-94112482D01*
X71832373Y-94105963D01*
X71662534Y-94054443D01*
X71506009Y-93970778D01*
X71470271Y-93941448D01*
X71368814Y-93858186D01*
X71285552Y-93756729D01*
X71256222Y-93720991D01*
X71172557Y-93564466D01*
X71121037Y-93394627D01*
X71103641Y-93218000D01*
X71121037Y-93041373D01*
X71172557Y-92871534D01*
X71256222Y-92715009D01*
X71285552Y-92679271D01*
X71368814Y-92577814D01*
X71470271Y-92494552D01*
X71506009Y-92465222D01*
X71662534Y-92381557D01*
X71832373Y-92330037D01*
X71898558Y-92323518D01*
X71964740Y-92317000D01*
X72053260Y-92317000D01*
X72119442Y-92323518D01*
X72119442Y-92323518D01*
G37*
G36*
X69579442Y-92323518D02*
G01*
X69645627Y-92330037D01*
X69815466Y-92381557D01*
X69971991Y-92465222D01*
X70007729Y-92494552D01*
X70109186Y-92577814D01*
X70192448Y-92679271D01*
X70221778Y-92715009D01*
X70305443Y-92871534D01*
X70356963Y-93041373D01*
X70374359Y-93218000D01*
X70356963Y-93394627D01*
X70305443Y-93564466D01*
X70221778Y-93720991D01*
X70192448Y-93756729D01*
X70109186Y-93858186D01*
X70007729Y-93941448D01*
X69971991Y-93970778D01*
X69815466Y-94054443D01*
X69645627Y-94105963D01*
X69579442Y-94112482D01*
X69513260Y-94119000D01*
X69424740Y-94119000D01*
X69358558Y-94112482D01*
X69292373Y-94105963D01*
X69122534Y-94054443D01*
X68966009Y-93970778D01*
X68930271Y-93941448D01*
X68828814Y-93858186D01*
X68745552Y-93756729D01*
X68716222Y-93720991D01*
X68632557Y-93564466D01*
X68581037Y-93394627D01*
X68563641Y-93218000D01*
X68581037Y-93041373D01*
X68632557Y-92871534D01*
X68716222Y-92715009D01*
X68745552Y-92679271D01*
X68828814Y-92577814D01*
X68930271Y-92494552D01*
X68966009Y-92465222D01*
X69122534Y-92381557D01*
X69292373Y-92330037D01*
X69358558Y-92323518D01*
X69424740Y-92317000D01*
X69513260Y-92317000D01*
X69579442Y-92323518D01*
X69579442Y-92323518D01*
G37*
G36*
X67039442Y-92323518D02*
G01*
X67105627Y-92330037D01*
X67275466Y-92381557D01*
X67431991Y-92465222D01*
X67467729Y-92494552D01*
X67569186Y-92577814D01*
X67652448Y-92679271D01*
X67681778Y-92715009D01*
X67765443Y-92871534D01*
X67816963Y-93041373D01*
X67834359Y-93218000D01*
X67816963Y-93394627D01*
X67765443Y-93564466D01*
X67681778Y-93720991D01*
X67652448Y-93756729D01*
X67569186Y-93858186D01*
X67467729Y-93941448D01*
X67431991Y-93970778D01*
X67275466Y-94054443D01*
X67105627Y-94105963D01*
X67039442Y-94112482D01*
X66973260Y-94119000D01*
X66884740Y-94119000D01*
X66818558Y-94112482D01*
X66752373Y-94105963D01*
X66582534Y-94054443D01*
X66426009Y-93970778D01*
X66390271Y-93941448D01*
X66288814Y-93858186D01*
X66205552Y-93756729D01*
X66176222Y-93720991D01*
X66092557Y-93564466D01*
X66041037Y-93394627D01*
X66023641Y-93218000D01*
X66041037Y-93041373D01*
X66092557Y-92871534D01*
X66176222Y-92715009D01*
X66205552Y-92679271D01*
X66288814Y-92577814D01*
X66390271Y-92494552D01*
X66426009Y-92465222D01*
X66582534Y-92381557D01*
X66752373Y-92330037D01*
X66818558Y-92323518D01*
X66884740Y-92317000D01*
X66973260Y-92317000D01*
X67039442Y-92323518D01*
X67039442Y-92323518D01*
G37*
G36*
X64499442Y-92323518D02*
G01*
X64565627Y-92330037D01*
X64735466Y-92381557D01*
X64891991Y-92465222D01*
X64927729Y-92494552D01*
X65029186Y-92577814D01*
X65112448Y-92679271D01*
X65141778Y-92715009D01*
X65225443Y-92871534D01*
X65276963Y-93041373D01*
X65294359Y-93218000D01*
X65276963Y-93394627D01*
X65225443Y-93564466D01*
X65141778Y-93720991D01*
X65112448Y-93756729D01*
X65029186Y-93858186D01*
X64927729Y-93941448D01*
X64891991Y-93970778D01*
X64735466Y-94054443D01*
X64565627Y-94105963D01*
X64499442Y-94112482D01*
X64433260Y-94119000D01*
X64344740Y-94119000D01*
X64278558Y-94112482D01*
X64212373Y-94105963D01*
X64042534Y-94054443D01*
X63886009Y-93970778D01*
X63850271Y-93941448D01*
X63748814Y-93858186D01*
X63665552Y-93756729D01*
X63636222Y-93720991D01*
X63552557Y-93564466D01*
X63501037Y-93394627D01*
X63483641Y-93218000D01*
X63501037Y-93041373D01*
X63552557Y-92871534D01*
X63636222Y-92715009D01*
X63665552Y-92679271D01*
X63748814Y-92577814D01*
X63850271Y-92494552D01*
X63886009Y-92465222D01*
X64042534Y-92381557D01*
X64212373Y-92330037D01*
X64278558Y-92323518D01*
X64344740Y-92317000D01*
X64433260Y-92317000D01*
X64499442Y-92323518D01*
X64499442Y-92323518D01*
G37*
G36*
X61959442Y-92323518D02*
G01*
X62025627Y-92330037D01*
X62195466Y-92381557D01*
X62351991Y-92465222D01*
X62387729Y-92494552D01*
X62489186Y-92577814D01*
X62572448Y-92679271D01*
X62601778Y-92715009D01*
X62685443Y-92871534D01*
X62736963Y-93041373D01*
X62754359Y-93218000D01*
X62736963Y-93394627D01*
X62685443Y-93564466D01*
X62601778Y-93720991D01*
X62572448Y-93756729D01*
X62489186Y-93858186D01*
X62387729Y-93941448D01*
X62351991Y-93970778D01*
X62195466Y-94054443D01*
X62025627Y-94105963D01*
X61959442Y-94112482D01*
X61893260Y-94119000D01*
X61804740Y-94119000D01*
X61738558Y-94112482D01*
X61672373Y-94105963D01*
X61502534Y-94054443D01*
X61346009Y-93970778D01*
X61310271Y-93941448D01*
X61208814Y-93858186D01*
X61125552Y-93756729D01*
X61096222Y-93720991D01*
X61012557Y-93564466D01*
X60961037Y-93394627D01*
X60943641Y-93218000D01*
X60961037Y-93041373D01*
X61012557Y-92871534D01*
X61096222Y-92715009D01*
X61125552Y-92679271D01*
X61208814Y-92577814D01*
X61310271Y-92494552D01*
X61346009Y-92465222D01*
X61502534Y-92381557D01*
X61672373Y-92330037D01*
X61738558Y-92323518D01*
X61804740Y-92317000D01*
X61893260Y-92317000D01*
X61959442Y-92323518D01*
X61959442Y-92323518D01*
G37*
G36*
X59419442Y-92323518D02*
G01*
X59485627Y-92330037D01*
X59655466Y-92381557D01*
X59811991Y-92465222D01*
X59847729Y-92494552D01*
X59949186Y-92577814D01*
X60032448Y-92679271D01*
X60061778Y-92715009D01*
X60145443Y-92871534D01*
X60196963Y-93041373D01*
X60214359Y-93218000D01*
X60196963Y-93394627D01*
X60145443Y-93564466D01*
X60061778Y-93720991D01*
X60032448Y-93756729D01*
X59949186Y-93858186D01*
X59847729Y-93941448D01*
X59811991Y-93970778D01*
X59655466Y-94054443D01*
X59485627Y-94105963D01*
X59419442Y-94112482D01*
X59353260Y-94119000D01*
X59264740Y-94119000D01*
X59198558Y-94112482D01*
X59132373Y-94105963D01*
X58962534Y-94054443D01*
X58806009Y-93970778D01*
X58770271Y-93941448D01*
X58668814Y-93858186D01*
X58585552Y-93756729D01*
X58556222Y-93720991D01*
X58472557Y-93564466D01*
X58421037Y-93394627D01*
X58403641Y-93218000D01*
X58421037Y-93041373D01*
X58472557Y-92871534D01*
X58556222Y-92715009D01*
X58585552Y-92679271D01*
X58668814Y-92577814D01*
X58770271Y-92494552D01*
X58806009Y-92465222D01*
X58962534Y-92381557D01*
X59132373Y-92330037D01*
X59198558Y-92323518D01*
X59264740Y-92317000D01*
X59353260Y-92317000D01*
X59419442Y-92323518D01*
X59419442Y-92323518D01*
G37*
G36*
X56879442Y-92323518D02*
G01*
X56945627Y-92330037D01*
X57115466Y-92381557D01*
X57271991Y-92465222D01*
X57307729Y-92494552D01*
X57409186Y-92577814D01*
X57492448Y-92679271D01*
X57521778Y-92715009D01*
X57605443Y-92871534D01*
X57656963Y-93041373D01*
X57674359Y-93218000D01*
X57656963Y-93394627D01*
X57605443Y-93564466D01*
X57521778Y-93720991D01*
X57492448Y-93756729D01*
X57409186Y-93858186D01*
X57307729Y-93941448D01*
X57271991Y-93970778D01*
X57115466Y-94054443D01*
X56945627Y-94105963D01*
X56879442Y-94112482D01*
X56813260Y-94119000D01*
X56724740Y-94119000D01*
X56658558Y-94112482D01*
X56592373Y-94105963D01*
X56422534Y-94054443D01*
X56266009Y-93970778D01*
X56230271Y-93941448D01*
X56128814Y-93858186D01*
X56045552Y-93756729D01*
X56016222Y-93720991D01*
X55932557Y-93564466D01*
X55881037Y-93394627D01*
X55863641Y-93218000D01*
X55881037Y-93041373D01*
X55932557Y-92871534D01*
X56016222Y-92715009D01*
X56045552Y-92679271D01*
X56128814Y-92577814D01*
X56230271Y-92494552D01*
X56266009Y-92465222D01*
X56422534Y-92381557D01*
X56592373Y-92330037D01*
X56658558Y-92323518D01*
X56724740Y-92317000D01*
X56813260Y-92317000D01*
X56879442Y-92323518D01*
X56879442Y-92323518D01*
G37*
G36*
X54339442Y-92323518D02*
G01*
X54405627Y-92330037D01*
X54575466Y-92381557D01*
X54731991Y-92465222D01*
X54767729Y-92494552D01*
X54869186Y-92577814D01*
X54952448Y-92679271D01*
X54981778Y-92715009D01*
X55065443Y-92871534D01*
X55116963Y-93041373D01*
X55134359Y-93218000D01*
X55116963Y-93394627D01*
X55065443Y-93564466D01*
X54981778Y-93720991D01*
X54952448Y-93756729D01*
X54869186Y-93858186D01*
X54767729Y-93941448D01*
X54731991Y-93970778D01*
X54575466Y-94054443D01*
X54405627Y-94105963D01*
X54339442Y-94112482D01*
X54273260Y-94119000D01*
X54184740Y-94119000D01*
X54118558Y-94112482D01*
X54052373Y-94105963D01*
X53882534Y-94054443D01*
X53726009Y-93970778D01*
X53690271Y-93941448D01*
X53588814Y-93858186D01*
X53505552Y-93756729D01*
X53476222Y-93720991D01*
X53392557Y-93564466D01*
X53341037Y-93394627D01*
X53323641Y-93218000D01*
X53341037Y-93041373D01*
X53392557Y-92871534D01*
X53476222Y-92715009D01*
X53505552Y-92679271D01*
X53588814Y-92577814D01*
X53690271Y-92494552D01*
X53726009Y-92465222D01*
X53882534Y-92381557D01*
X54052373Y-92330037D01*
X54118558Y-92323518D01*
X54184740Y-92317000D01*
X54273260Y-92317000D01*
X54339442Y-92323518D01*
X54339442Y-92323518D01*
G37*
G36*
X51799442Y-92323518D02*
G01*
X51865627Y-92330037D01*
X52035466Y-92381557D01*
X52191991Y-92465222D01*
X52227729Y-92494552D01*
X52329186Y-92577814D01*
X52412448Y-92679271D01*
X52441778Y-92715009D01*
X52525443Y-92871534D01*
X52576963Y-93041373D01*
X52594359Y-93218000D01*
X52576963Y-93394627D01*
X52525443Y-93564466D01*
X52441778Y-93720991D01*
X52412448Y-93756729D01*
X52329186Y-93858186D01*
X52227729Y-93941448D01*
X52191991Y-93970778D01*
X52035466Y-94054443D01*
X51865627Y-94105963D01*
X51799442Y-94112482D01*
X51733260Y-94119000D01*
X51644740Y-94119000D01*
X51578558Y-94112482D01*
X51512373Y-94105963D01*
X51342534Y-94054443D01*
X51186009Y-93970778D01*
X51150271Y-93941448D01*
X51048814Y-93858186D01*
X50965552Y-93756729D01*
X50936222Y-93720991D01*
X50852557Y-93564466D01*
X50801037Y-93394627D01*
X50783641Y-93218000D01*
X50801037Y-93041373D01*
X50852557Y-92871534D01*
X50936222Y-92715009D01*
X50965552Y-92679271D01*
X51048814Y-92577814D01*
X51150271Y-92494552D01*
X51186009Y-92465222D01*
X51342534Y-92381557D01*
X51512373Y-92330037D01*
X51578558Y-92323518D01*
X51644740Y-92317000D01*
X51733260Y-92317000D01*
X51799442Y-92323518D01*
X51799442Y-92323518D01*
G37*
G36*
X90655000Y-87819000D02*
G01*
X87353000Y-87819000D01*
X87353000Y-85917000D01*
X90655000Y-85917000D01*
X90655000Y-87819000D01*
X90655000Y-87819000D01*
G37*
G36*
X84455000Y-87819000D02*
G01*
X81153000Y-87819000D01*
X81153000Y-85917000D01*
X84455000Y-85917000D01*
X84455000Y-87819000D01*
X84455000Y-87819000D01*
G37*
G36*
X48793320Y-81717103D02*
G01*
X48827485Y-81727467D01*
X48858964Y-81744293D01*
X48886560Y-81766940D01*
X48909207Y-81794536D01*
X48926033Y-81826015D01*
X48936397Y-81860180D01*
X48940500Y-81901842D01*
X48940500Y-84976158D01*
X48936397Y-85017820D01*
X48926033Y-85051985D01*
X48909207Y-85083464D01*
X48886560Y-85111060D01*
X48858964Y-85133707D01*
X48827485Y-85150533D01*
X48793320Y-85160897D01*
X48751658Y-85165000D01*
X47502342Y-85165000D01*
X47460680Y-85160897D01*
X47426515Y-85150533D01*
X47395036Y-85133707D01*
X47367440Y-85111060D01*
X47344793Y-85083464D01*
X47327967Y-85051985D01*
X47317603Y-85017820D01*
X47313500Y-84976158D01*
X47313500Y-81901842D01*
X47317603Y-81860180D01*
X47327967Y-81826015D01*
X47344793Y-81794536D01*
X47367440Y-81766940D01*
X47395036Y-81744293D01*
X47426515Y-81727467D01*
X47460680Y-81717103D01*
X47502342Y-81713000D01*
X48751658Y-81713000D01*
X48793320Y-81717103D01*
X48793320Y-81717103D01*
G37*
G36*
X54768320Y-81717103D02*
G01*
X54802485Y-81727467D01*
X54833964Y-81744293D01*
X54861560Y-81766940D01*
X54884207Y-81794536D01*
X54901033Y-81826015D01*
X54911397Y-81860180D01*
X54915500Y-81901842D01*
X54915500Y-84976158D01*
X54911397Y-85017820D01*
X54901033Y-85051985D01*
X54884207Y-85083464D01*
X54861560Y-85111060D01*
X54833964Y-85133707D01*
X54802485Y-85150533D01*
X54768320Y-85160897D01*
X54726658Y-85165000D01*
X53477342Y-85165000D01*
X53435680Y-85160897D01*
X53401515Y-85150533D01*
X53370036Y-85133707D01*
X53342440Y-85111060D01*
X53319793Y-85083464D01*
X53302967Y-85051985D01*
X53292603Y-85017820D01*
X53288500Y-84976158D01*
X53288500Y-81901842D01*
X53292603Y-81860180D01*
X53302967Y-81826015D01*
X53319793Y-81794536D01*
X53342440Y-81766940D01*
X53370036Y-81744293D01*
X53401515Y-81727467D01*
X53435680Y-81717103D01*
X53477342Y-81713000D01*
X54726658Y-81713000D01*
X54768320Y-81717103D01*
X54768320Y-81717103D01*
G37*
G36*
X54768320Y-77399103D02*
G01*
X54802485Y-77409467D01*
X54833964Y-77426293D01*
X54861560Y-77448940D01*
X54884207Y-77476536D01*
X54901033Y-77508015D01*
X54911397Y-77542180D01*
X54915500Y-77583842D01*
X54915500Y-80658158D01*
X54911397Y-80699820D01*
X54901033Y-80733985D01*
X54884207Y-80765464D01*
X54861560Y-80793060D01*
X54833964Y-80815707D01*
X54802485Y-80832533D01*
X54768320Y-80842897D01*
X54726658Y-80847000D01*
X53477342Y-80847000D01*
X53435680Y-80842897D01*
X53401515Y-80832533D01*
X53370036Y-80815707D01*
X53342440Y-80793060D01*
X53319793Y-80765464D01*
X53302967Y-80733985D01*
X53292603Y-80699820D01*
X53288500Y-80658158D01*
X53288500Y-77583842D01*
X53292603Y-77542180D01*
X53302967Y-77508015D01*
X53319793Y-77476536D01*
X53342440Y-77448940D01*
X53370036Y-77426293D01*
X53401515Y-77409467D01*
X53435680Y-77399103D01*
X53477342Y-77395000D01*
X54726658Y-77395000D01*
X54768320Y-77399103D01*
X54768320Y-77399103D01*
G37*
G36*
X48793320Y-77399103D02*
G01*
X48827485Y-77409467D01*
X48858964Y-77426293D01*
X48886560Y-77448940D01*
X48909207Y-77476536D01*
X48926033Y-77508015D01*
X48936397Y-77542180D01*
X48940500Y-77583842D01*
X48940500Y-80658158D01*
X48936397Y-80699820D01*
X48926033Y-80733985D01*
X48909207Y-80765464D01*
X48886560Y-80793060D01*
X48858964Y-80815707D01*
X48827485Y-80832533D01*
X48793320Y-80842897D01*
X48751658Y-80847000D01*
X47502342Y-80847000D01*
X47460680Y-80842897D01*
X47426515Y-80832533D01*
X47395036Y-80815707D01*
X47367440Y-80793060D01*
X47344793Y-80765464D01*
X47327967Y-80733985D01*
X47317603Y-80699820D01*
X47313500Y-80658158D01*
X47313500Y-77583842D01*
X47317603Y-77542180D01*
X47327967Y-77508015D01*
X47344793Y-77476536D01*
X47367440Y-77448940D01*
X47395036Y-77426293D01*
X47426515Y-77409467D01*
X47460680Y-77399103D01*
X47502342Y-77395000D01*
X48751658Y-77395000D01*
X48793320Y-77399103D01*
X48793320Y-77399103D01*
G37*
G36*
X90655000Y-79691000D02*
G01*
X87353000Y-79691000D01*
X87353000Y-77789000D01*
X90655000Y-77789000D01*
X90655000Y-79691000D01*
X90655000Y-79691000D01*
G37*
G36*
X84455000Y-79691000D02*
G01*
X81153000Y-79691000D01*
X81153000Y-77789000D01*
X84455000Y-77789000D01*
X84455000Y-79691000D01*
X84455000Y-79691000D01*
G37*
G36*
X54842062Y-74643181D02*
G01*
X54876981Y-74653774D01*
X54909163Y-74670976D01*
X54937373Y-74694127D01*
X54960524Y-74722337D01*
X54977726Y-74754519D01*
X54988319Y-74789438D01*
X54992500Y-74831895D01*
X54992500Y-76298105D01*
X54988319Y-76340562D01*
X54977726Y-76375481D01*
X54960524Y-76407663D01*
X54937373Y-76435873D01*
X54909163Y-76459024D01*
X54876981Y-76476226D01*
X54842062Y-76486819D01*
X54799605Y-76491000D01*
X53658395Y-76491000D01*
X53615938Y-76486819D01*
X53581019Y-76476226D01*
X53548837Y-76459024D01*
X53520627Y-76435873D01*
X53497476Y-76407663D01*
X53480274Y-76375481D01*
X53469681Y-76340562D01*
X53465500Y-76298105D01*
X53465500Y-74831895D01*
X53469681Y-74789438D01*
X53480274Y-74754519D01*
X53497476Y-74722337D01*
X53520627Y-74694127D01*
X53548837Y-74670976D01*
X53581019Y-74653774D01*
X53615938Y-74643181D01*
X53658395Y-74639000D01*
X54799605Y-74639000D01*
X54842062Y-74643181D01*
X54842062Y-74643181D01*
G37*
G36*
X51867062Y-74643181D02*
G01*
X51901981Y-74653774D01*
X51934163Y-74670976D01*
X51962373Y-74694127D01*
X51985524Y-74722337D01*
X52002726Y-74754519D01*
X52013319Y-74789438D01*
X52017500Y-74831895D01*
X52017500Y-76298105D01*
X52013319Y-76340562D01*
X52002726Y-76375481D01*
X51985524Y-76407663D01*
X51962373Y-76435873D01*
X51934163Y-76459024D01*
X51901981Y-76476226D01*
X51867062Y-76486819D01*
X51824605Y-76491000D01*
X50683395Y-76491000D01*
X50640938Y-76486819D01*
X50606019Y-76476226D01*
X50573837Y-76459024D01*
X50545627Y-76435873D01*
X50522476Y-76407663D01*
X50505274Y-76375481D01*
X50494681Y-76340562D01*
X50490500Y-76298105D01*
X50490500Y-74831895D01*
X50494681Y-74789438D01*
X50505274Y-74754519D01*
X50522476Y-74722337D01*
X50545627Y-74694127D01*
X50573837Y-74670976D01*
X50606019Y-74653774D01*
X50640938Y-74643181D01*
X50683395Y-74639000D01*
X51824605Y-74639000D01*
X51867062Y-74643181D01*
X51867062Y-74643181D01*
G37*
G36*
X70127001Y-75907001D02*
G01*
X64245001Y-75907001D01*
X64245001Y-74315001D01*
X70127001Y-74315001D01*
X70127001Y-75907001D01*
X70127001Y-75907001D01*
G37*
G36*
X82274062Y-72484181D02*
G01*
X82308981Y-72494774D01*
X82341163Y-72511976D01*
X82369373Y-72535127D01*
X82392524Y-72563337D01*
X82409726Y-72595519D01*
X82420319Y-72630438D01*
X82424500Y-72672895D01*
X82424500Y-74139105D01*
X82420319Y-74181562D01*
X82409726Y-74216481D01*
X82392524Y-74248663D01*
X82369373Y-74276873D01*
X82341163Y-74300024D01*
X82308981Y-74317226D01*
X82274062Y-74327819D01*
X82231605Y-74332000D01*
X81090395Y-74332000D01*
X81047938Y-74327819D01*
X81013019Y-74317226D01*
X80980837Y-74300024D01*
X80952627Y-74276873D01*
X80929476Y-74248663D01*
X80912274Y-74216481D01*
X80901681Y-74181562D01*
X80897500Y-74139105D01*
X80897500Y-72672895D01*
X80901681Y-72630438D01*
X80912274Y-72595519D01*
X80929476Y-72563337D01*
X80952627Y-72535127D01*
X80980837Y-72511976D01*
X81013019Y-72494774D01*
X81047938Y-72484181D01*
X81090395Y-72480000D01*
X82231605Y-72480000D01*
X82274062Y-72484181D01*
X82274062Y-72484181D01*
G37*
G36*
X85249062Y-72484181D02*
G01*
X85283981Y-72494774D01*
X85316163Y-72511976D01*
X85344373Y-72535127D01*
X85367524Y-72563337D01*
X85384726Y-72595519D01*
X85395319Y-72630438D01*
X85399500Y-72672895D01*
X85399500Y-74139105D01*
X85395319Y-74181562D01*
X85384726Y-74216481D01*
X85367524Y-74248663D01*
X85344373Y-74276873D01*
X85316163Y-74300024D01*
X85283981Y-74317226D01*
X85249062Y-74327819D01*
X85206605Y-74332000D01*
X84065395Y-74332000D01*
X84022938Y-74327819D01*
X83988019Y-74317226D01*
X83955837Y-74300024D01*
X83927627Y-74276873D01*
X83904476Y-74248663D01*
X83887274Y-74216481D01*
X83876681Y-74181562D01*
X83872500Y-74139105D01*
X83872500Y-72672895D01*
X83876681Y-72630438D01*
X83887274Y-72595519D01*
X83904476Y-72563337D01*
X83927627Y-72535127D01*
X83955837Y-72511976D01*
X83988019Y-72494774D01*
X84022938Y-72484181D01*
X84065395Y-72480000D01*
X85206605Y-72480000D01*
X85249062Y-72484181D01*
X85249062Y-72484181D01*
G37*
G36*
X72152001Y-73882001D02*
G01*
X70560001Y-73882001D01*
X70560001Y-68000001D01*
X72152001Y-68000001D01*
X72152001Y-73882001D01*
X72152001Y-73882001D01*
G37*
G36*
X63812001Y-73882001D02*
G01*
X62220001Y-73882001D01*
X62220001Y-68000001D01*
X63812001Y-68000001D01*
X63812001Y-73882001D01*
X63812001Y-73882001D01*
G37*
G36*
X54842062Y-71849181D02*
G01*
X54876981Y-71859774D01*
X54909163Y-71876976D01*
X54937373Y-71900127D01*
X54960524Y-71928337D01*
X54977726Y-71960519D01*
X54988319Y-71995438D01*
X54992500Y-72037895D01*
X54992500Y-73504105D01*
X54988319Y-73546562D01*
X54977726Y-73581481D01*
X54960524Y-73613663D01*
X54937373Y-73641873D01*
X54909163Y-73665024D01*
X54876981Y-73682226D01*
X54842062Y-73692819D01*
X54799605Y-73697000D01*
X53658395Y-73697000D01*
X53615938Y-73692819D01*
X53581019Y-73682226D01*
X53548837Y-73665024D01*
X53520627Y-73641873D01*
X53497476Y-73613663D01*
X53480274Y-73581481D01*
X53469681Y-73546562D01*
X53465500Y-73504105D01*
X53465500Y-72037895D01*
X53469681Y-71995438D01*
X53480274Y-71960519D01*
X53497476Y-71928337D01*
X53520627Y-71900127D01*
X53548837Y-71876976D01*
X53581019Y-71859774D01*
X53615938Y-71849181D01*
X53658395Y-71845000D01*
X54799605Y-71845000D01*
X54842062Y-71849181D01*
X54842062Y-71849181D01*
G37*
G36*
X51867062Y-71849181D02*
G01*
X51901981Y-71859774D01*
X51934163Y-71876976D01*
X51962373Y-71900127D01*
X51985524Y-71928337D01*
X52002726Y-71960519D01*
X52013319Y-71995438D01*
X52017500Y-72037895D01*
X52017500Y-73504105D01*
X52013319Y-73546562D01*
X52002726Y-73581481D01*
X51985524Y-73613663D01*
X51962373Y-73641873D01*
X51934163Y-73665024D01*
X51901981Y-73682226D01*
X51867062Y-73692819D01*
X51824605Y-73697000D01*
X50683395Y-73697000D01*
X50640938Y-73692819D01*
X50606019Y-73682226D01*
X50573837Y-73665024D01*
X50545627Y-73641873D01*
X50522476Y-73613663D01*
X50505274Y-73581481D01*
X50494681Y-73546562D01*
X50490500Y-73504105D01*
X50490500Y-72037895D01*
X50494681Y-71995438D01*
X50505274Y-71960519D01*
X50522476Y-71928337D01*
X50545627Y-71900127D01*
X50573837Y-71876976D01*
X50606019Y-71859774D01*
X50640938Y-71849181D01*
X50683395Y-71845000D01*
X51824605Y-71845000D01*
X51867062Y-71849181D01*
X51867062Y-71849181D01*
G37*
G36*
X85195062Y-69944181D02*
G01*
X85229981Y-69954774D01*
X85262163Y-69971976D01*
X85290373Y-69995127D01*
X85313524Y-70023337D01*
X85330726Y-70055519D01*
X85341319Y-70090438D01*
X85345500Y-70132895D01*
X85345500Y-71599105D01*
X85341319Y-71641562D01*
X85330726Y-71676481D01*
X85313524Y-71708663D01*
X85290373Y-71736873D01*
X85262163Y-71760024D01*
X85229981Y-71777226D01*
X85195062Y-71787819D01*
X85152605Y-71792000D01*
X84011395Y-71792000D01*
X83968938Y-71787819D01*
X83934019Y-71777226D01*
X83901837Y-71760024D01*
X83873627Y-71736873D01*
X83850476Y-71708663D01*
X83833274Y-71676481D01*
X83822681Y-71641562D01*
X83818500Y-71599105D01*
X83818500Y-70132895D01*
X83822681Y-70090438D01*
X83833274Y-70055519D01*
X83850476Y-70023337D01*
X83873627Y-69995127D01*
X83901837Y-69971976D01*
X83934019Y-69954774D01*
X83968938Y-69944181D01*
X84011395Y-69940000D01*
X85152605Y-69940000D01*
X85195062Y-69944181D01*
X85195062Y-69944181D01*
G37*
G36*
X82220062Y-69944181D02*
G01*
X82254981Y-69954774D01*
X82287163Y-69971976D01*
X82315373Y-69995127D01*
X82338524Y-70023337D01*
X82355726Y-70055519D01*
X82366319Y-70090438D01*
X82370500Y-70132895D01*
X82370500Y-71599105D01*
X82366319Y-71641562D01*
X82355726Y-71676481D01*
X82338524Y-71708663D01*
X82315373Y-71736873D01*
X82287163Y-71760024D01*
X82254981Y-71777226D01*
X82220062Y-71787819D01*
X82177605Y-71792000D01*
X81036395Y-71792000D01*
X80993938Y-71787819D01*
X80959019Y-71777226D01*
X80926837Y-71760024D01*
X80898627Y-71736873D01*
X80875476Y-71708663D01*
X80858274Y-71676481D01*
X80847681Y-71641562D01*
X80843500Y-71599105D01*
X80843500Y-70132895D01*
X80847681Y-70090438D01*
X80858274Y-70055519D01*
X80875476Y-70023337D01*
X80898627Y-69995127D01*
X80926837Y-69971976D01*
X80959019Y-69954774D01*
X80993938Y-69944181D01*
X81036395Y-69940000D01*
X82177605Y-69940000D01*
X82220062Y-69944181D01*
X82220062Y-69944181D01*
G37*
G36*
X103413000Y-71663000D02*
G01*
X101311000Y-71663000D01*
X101311000Y-69561000D01*
X103413000Y-69561000D01*
X103413000Y-71663000D01*
X103413000Y-71663000D01*
G37*
G36*
X97668564Y-69601389D02*
G01*
X97859833Y-69680615D01*
X97859835Y-69680616D01*
X98031973Y-69795635D01*
X98178365Y-69942027D01*
X98256565Y-70059061D01*
X98293385Y-70114167D01*
X98372611Y-70305436D01*
X98413000Y-70508484D01*
X98413000Y-70715516D01*
X98372611Y-70918564D01*
X98293385Y-71109833D01*
X98293384Y-71109835D01*
X98178365Y-71281973D01*
X98031973Y-71428365D01*
X97859835Y-71543384D01*
X97859834Y-71543385D01*
X97859833Y-71543385D01*
X97668564Y-71622611D01*
X97465516Y-71663000D01*
X97258484Y-71663000D01*
X97055436Y-71622611D01*
X96864167Y-71543385D01*
X96864166Y-71543385D01*
X96864165Y-71543384D01*
X96692027Y-71428365D01*
X96545635Y-71281973D01*
X96430616Y-71109835D01*
X96430615Y-71109833D01*
X96351389Y-70918564D01*
X96311000Y-70715516D01*
X96311000Y-70508484D01*
X96351389Y-70305436D01*
X96430615Y-70114167D01*
X96467436Y-70059061D01*
X96545635Y-69942027D01*
X96692027Y-69795635D01*
X96864165Y-69680616D01*
X96864167Y-69680615D01*
X97055436Y-69601389D01*
X97258484Y-69561000D01*
X97465516Y-69561000D01*
X97668564Y-69601389D01*
X97668564Y-69601389D01*
G37*
G36*
X51794062Y-68928181D02*
G01*
X51828981Y-68938774D01*
X51861163Y-68955976D01*
X51889373Y-68979127D01*
X51912524Y-69007337D01*
X51929726Y-69039519D01*
X51940319Y-69074438D01*
X51944500Y-69116895D01*
X51944500Y-70583105D01*
X51940319Y-70625562D01*
X51929726Y-70660481D01*
X51912524Y-70692663D01*
X51889373Y-70720873D01*
X51861163Y-70744024D01*
X51828981Y-70761226D01*
X51794062Y-70771819D01*
X51751605Y-70776000D01*
X50610395Y-70776000D01*
X50567938Y-70771819D01*
X50533019Y-70761226D01*
X50500837Y-70744024D01*
X50472627Y-70720873D01*
X50449476Y-70692663D01*
X50432274Y-70660481D01*
X50421681Y-70625562D01*
X50417500Y-70583105D01*
X50417500Y-69116895D01*
X50421681Y-69074438D01*
X50432274Y-69039519D01*
X50449476Y-69007337D01*
X50472627Y-68979127D01*
X50500837Y-68955976D01*
X50533019Y-68938774D01*
X50567938Y-68928181D01*
X50610395Y-68924000D01*
X51751605Y-68924000D01*
X51794062Y-68928181D01*
X51794062Y-68928181D01*
G37*
G36*
X54769062Y-68928181D02*
G01*
X54803981Y-68938774D01*
X54836163Y-68955976D01*
X54864373Y-68979127D01*
X54887524Y-69007337D01*
X54904726Y-69039519D01*
X54915319Y-69074438D01*
X54919500Y-69116895D01*
X54919500Y-70583105D01*
X54915319Y-70625562D01*
X54904726Y-70660481D01*
X54887524Y-70692663D01*
X54864373Y-70720873D01*
X54836163Y-70744024D01*
X54803981Y-70761226D01*
X54769062Y-70771819D01*
X54726605Y-70776000D01*
X53585395Y-70776000D01*
X53542938Y-70771819D01*
X53508019Y-70761226D01*
X53475837Y-70744024D01*
X53447627Y-70720873D01*
X53424476Y-70692663D01*
X53407274Y-70660481D01*
X53396681Y-70625562D01*
X53392500Y-70583105D01*
X53392500Y-69116895D01*
X53396681Y-69074438D01*
X53407274Y-69039519D01*
X53424476Y-69007337D01*
X53447627Y-68979127D01*
X53475837Y-68955976D01*
X53508019Y-68938774D01*
X53542938Y-68928181D01*
X53585395Y-68924000D01*
X54726605Y-68924000D01*
X54769062Y-68928181D01*
X54769062Y-68928181D01*
G37*
G36*
X82274062Y-67531181D02*
G01*
X82308981Y-67541774D01*
X82341163Y-67558976D01*
X82369373Y-67582127D01*
X82392524Y-67610337D01*
X82409726Y-67642519D01*
X82420319Y-67677438D01*
X82424500Y-67719895D01*
X82424500Y-69186105D01*
X82420319Y-69228562D01*
X82409726Y-69263481D01*
X82392524Y-69295663D01*
X82369373Y-69323873D01*
X82341163Y-69347024D01*
X82308981Y-69364226D01*
X82274062Y-69374819D01*
X82231605Y-69379000D01*
X81090395Y-69379000D01*
X81047938Y-69374819D01*
X81013019Y-69364226D01*
X80980837Y-69347024D01*
X80952627Y-69323873D01*
X80929476Y-69295663D01*
X80912274Y-69263481D01*
X80901681Y-69228562D01*
X80897500Y-69186105D01*
X80897500Y-67719895D01*
X80901681Y-67677438D01*
X80912274Y-67642519D01*
X80929476Y-67610337D01*
X80952627Y-67582127D01*
X80980837Y-67558976D01*
X81013019Y-67541774D01*
X81047938Y-67531181D01*
X81090395Y-67527000D01*
X82231605Y-67527000D01*
X82274062Y-67531181D01*
X82274062Y-67531181D01*
G37*
G36*
X85249062Y-67531181D02*
G01*
X85283981Y-67541774D01*
X85316163Y-67558976D01*
X85344373Y-67582127D01*
X85367524Y-67610337D01*
X85384726Y-67642519D01*
X85395319Y-67677438D01*
X85399500Y-67719895D01*
X85399500Y-69186105D01*
X85395319Y-69228562D01*
X85384726Y-69263481D01*
X85367524Y-69295663D01*
X85344373Y-69323873D01*
X85316163Y-69347024D01*
X85283981Y-69364226D01*
X85249062Y-69374819D01*
X85206605Y-69379000D01*
X84065395Y-69379000D01*
X84022938Y-69374819D01*
X83988019Y-69364226D01*
X83955837Y-69347024D01*
X83927627Y-69323873D01*
X83904476Y-69295663D01*
X83887274Y-69263481D01*
X83876681Y-69228562D01*
X83872500Y-69186105D01*
X83872500Y-67719895D01*
X83876681Y-67677438D01*
X83887274Y-67642519D01*
X83904476Y-67610337D01*
X83927627Y-67582127D01*
X83955837Y-67558976D01*
X83988019Y-67541774D01*
X84022938Y-67531181D01*
X84065395Y-67527000D01*
X85206605Y-67527000D01*
X85249062Y-67531181D01*
X85249062Y-67531181D01*
G37*
G36*
X54842062Y-66007181D02*
G01*
X54876981Y-66017774D01*
X54909163Y-66034976D01*
X54937373Y-66058127D01*
X54960524Y-66086337D01*
X54977726Y-66118519D01*
X54988319Y-66153438D01*
X54992500Y-66195895D01*
X54992500Y-67662105D01*
X54988319Y-67704562D01*
X54977726Y-67739481D01*
X54960524Y-67771663D01*
X54937373Y-67799873D01*
X54909163Y-67823024D01*
X54876981Y-67840226D01*
X54842062Y-67850819D01*
X54799605Y-67855000D01*
X53658395Y-67855000D01*
X53615938Y-67850819D01*
X53581019Y-67840226D01*
X53548837Y-67823024D01*
X53520627Y-67799873D01*
X53497476Y-67771663D01*
X53480274Y-67739481D01*
X53469681Y-67704562D01*
X53465500Y-67662105D01*
X53465500Y-66195895D01*
X53469681Y-66153438D01*
X53480274Y-66118519D01*
X53497476Y-66086337D01*
X53520627Y-66058127D01*
X53548837Y-66034976D01*
X53581019Y-66017774D01*
X53615938Y-66007181D01*
X53658395Y-66003000D01*
X54799605Y-66003000D01*
X54842062Y-66007181D01*
X54842062Y-66007181D01*
G37*
G36*
X51867062Y-66007181D02*
G01*
X51901981Y-66017774D01*
X51934163Y-66034976D01*
X51962373Y-66058127D01*
X51985524Y-66086337D01*
X52002726Y-66118519D01*
X52013319Y-66153438D01*
X52017500Y-66195895D01*
X52017500Y-67662105D01*
X52013319Y-67704562D01*
X52002726Y-67739481D01*
X51985524Y-67771663D01*
X51962373Y-67799873D01*
X51934163Y-67823024D01*
X51901981Y-67840226D01*
X51867062Y-67850819D01*
X51824605Y-67855000D01*
X50683395Y-67855000D01*
X50640938Y-67850819D01*
X50606019Y-67840226D01*
X50573837Y-67823024D01*
X50545627Y-67799873D01*
X50522476Y-67771663D01*
X50505274Y-67739481D01*
X50494681Y-67704562D01*
X50490500Y-67662105D01*
X50490500Y-66195895D01*
X50494681Y-66153438D01*
X50505274Y-66118519D01*
X50522476Y-66086337D01*
X50545627Y-66058127D01*
X50573837Y-66034976D01*
X50606019Y-66017774D01*
X50640938Y-66007181D01*
X50683395Y-66003000D01*
X51824605Y-66003000D01*
X51867062Y-66007181D01*
X51867062Y-66007181D01*
G37*
G36*
X70127001Y-67567001D02*
G01*
X64245001Y-67567001D01*
X64245001Y-65975001D01*
X70127001Y-65975001D01*
X70127001Y-67567001D01*
X70127001Y-67567001D01*
G37*
G36*
X81997674Y-65420465D02*
G01*
X82035367Y-65431899D01*
X82070103Y-65450466D01*
X82100548Y-65475452D01*
X82125534Y-65505897D01*
X82144101Y-65540633D01*
X82155535Y-65578326D01*
X82160000Y-65623661D01*
X82160000Y-66710339D01*
X82155535Y-66755674D01*
X82144101Y-66793367D01*
X82125534Y-66828103D01*
X82100548Y-66858548D01*
X82070103Y-66883534D01*
X82035367Y-66902101D01*
X81997674Y-66913535D01*
X81952339Y-66918000D01*
X81115661Y-66918000D01*
X81070326Y-66913535D01*
X81032633Y-66902101D01*
X80997897Y-66883534D01*
X80967452Y-66858548D01*
X80942466Y-66828103D01*
X80923899Y-66793367D01*
X80912465Y-66755674D01*
X80908000Y-66710339D01*
X80908000Y-65623661D01*
X80912465Y-65578326D01*
X80923899Y-65540633D01*
X80942466Y-65505897D01*
X80967452Y-65475452D01*
X80997897Y-65450466D01*
X81032633Y-65431899D01*
X81070326Y-65420465D01*
X81115661Y-65416000D01*
X81952339Y-65416000D01*
X81997674Y-65420465D01*
X81997674Y-65420465D01*
G37*
G36*
X84047674Y-65420465D02*
G01*
X84085367Y-65431899D01*
X84120103Y-65450466D01*
X84150548Y-65475452D01*
X84175534Y-65505897D01*
X84194101Y-65540633D01*
X84205535Y-65578326D01*
X84210000Y-65623661D01*
X84210000Y-66710339D01*
X84205535Y-66755674D01*
X84194101Y-66793367D01*
X84175534Y-66828103D01*
X84150548Y-66858548D01*
X84120103Y-66883534D01*
X84085367Y-66902101D01*
X84047674Y-66913535D01*
X84002339Y-66918000D01*
X83165661Y-66918000D01*
X83120326Y-66913535D01*
X83082633Y-66902101D01*
X83047897Y-66883534D01*
X83017452Y-66858548D01*
X82992466Y-66828103D01*
X82973899Y-66793367D01*
X82962465Y-66755674D01*
X82958000Y-66710339D01*
X82958000Y-65623661D01*
X82962465Y-65578326D01*
X82973899Y-65540633D01*
X82992466Y-65505897D01*
X83017452Y-65475452D01*
X83047897Y-65450466D01*
X83082633Y-65431899D01*
X83120326Y-65420465D01*
X83165661Y-65416000D01*
X84002339Y-65416000D01*
X84047674Y-65420465D01*
X84047674Y-65420465D01*
G37*
G36*
X54842062Y-63086181D02*
G01*
X54876981Y-63096774D01*
X54909163Y-63113976D01*
X54937373Y-63137127D01*
X54960524Y-63165337D01*
X54977726Y-63197519D01*
X54988319Y-63232438D01*
X54992500Y-63274895D01*
X54992500Y-64741105D01*
X54988319Y-64783562D01*
X54977726Y-64818481D01*
X54960524Y-64850663D01*
X54937373Y-64878873D01*
X54909163Y-64902024D01*
X54876981Y-64919226D01*
X54842062Y-64929819D01*
X54799605Y-64934000D01*
X53658395Y-64934000D01*
X53615938Y-64929819D01*
X53581019Y-64919226D01*
X53548837Y-64902024D01*
X53520627Y-64878873D01*
X53497476Y-64850663D01*
X53480274Y-64818481D01*
X53469681Y-64783562D01*
X53465500Y-64741105D01*
X53465500Y-63274895D01*
X53469681Y-63232438D01*
X53480274Y-63197519D01*
X53497476Y-63165337D01*
X53520627Y-63137127D01*
X53548837Y-63113976D01*
X53581019Y-63096774D01*
X53615938Y-63086181D01*
X53658395Y-63082000D01*
X54799605Y-63082000D01*
X54842062Y-63086181D01*
X54842062Y-63086181D01*
G37*
G36*
X51867062Y-63086181D02*
G01*
X51901981Y-63096774D01*
X51934163Y-63113976D01*
X51962373Y-63137127D01*
X51985524Y-63165337D01*
X52002726Y-63197519D01*
X52013319Y-63232438D01*
X52017500Y-63274895D01*
X52017500Y-64741105D01*
X52013319Y-64783562D01*
X52002726Y-64818481D01*
X51985524Y-64850663D01*
X51962373Y-64878873D01*
X51934163Y-64902024D01*
X51901981Y-64919226D01*
X51867062Y-64929819D01*
X51824605Y-64934000D01*
X50683395Y-64934000D01*
X50640938Y-64929819D01*
X50606019Y-64919226D01*
X50573837Y-64902024D01*
X50545627Y-64878873D01*
X50522476Y-64850663D01*
X50505274Y-64818481D01*
X50494681Y-64783562D01*
X50490500Y-64741105D01*
X50490500Y-63274895D01*
X50494681Y-63232438D01*
X50505274Y-63197519D01*
X50522476Y-63165337D01*
X50545627Y-63137127D01*
X50573837Y-63113976D01*
X50606019Y-63096774D01*
X50640938Y-63086181D01*
X50683395Y-63082000D01*
X51824605Y-63082000D01*
X51867062Y-63086181D01*
X51867062Y-63086181D01*
G37*
G36*
X85249062Y-62959181D02*
G01*
X85283981Y-62969774D01*
X85316163Y-62986976D01*
X85344373Y-63010127D01*
X85367524Y-63038337D01*
X85384726Y-63070519D01*
X85395319Y-63105438D01*
X85399500Y-63147895D01*
X85399500Y-64614105D01*
X85395319Y-64656562D01*
X85384726Y-64691481D01*
X85367524Y-64723663D01*
X85344373Y-64751873D01*
X85316163Y-64775024D01*
X85283981Y-64792226D01*
X85249062Y-64802819D01*
X85206605Y-64807000D01*
X84065395Y-64807000D01*
X84022938Y-64802819D01*
X83988019Y-64792226D01*
X83955837Y-64775024D01*
X83927627Y-64751873D01*
X83904476Y-64723663D01*
X83887274Y-64691481D01*
X83876681Y-64656562D01*
X83872500Y-64614105D01*
X83872500Y-63147895D01*
X83876681Y-63105438D01*
X83887274Y-63070519D01*
X83904476Y-63038337D01*
X83927627Y-63010127D01*
X83955837Y-62986976D01*
X83988019Y-62969774D01*
X84022938Y-62959181D01*
X84065395Y-62955000D01*
X85206605Y-62955000D01*
X85249062Y-62959181D01*
X85249062Y-62959181D01*
G37*
G36*
X82274062Y-62959181D02*
G01*
X82308981Y-62969774D01*
X82341163Y-62986976D01*
X82369373Y-63010127D01*
X82392524Y-63038337D01*
X82409726Y-63070519D01*
X82420319Y-63105438D01*
X82424500Y-63147895D01*
X82424500Y-64614105D01*
X82420319Y-64656562D01*
X82409726Y-64691481D01*
X82392524Y-64723663D01*
X82369373Y-64751873D01*
X82341163Y-64775024D01*
X82308981Y-64792226D01*
X82274062Y-64802819D01*
X82231605Y-64807000D01*
X81090395Y-64807000D01*
X81047938Y-64802819D01*
X81013019Y-64792226D01*
X80980837Y-64775024D01*
X80952627Y-64751873D01*
X80929476Y-64723663D01*
X80912274Y-64691481D01*
X80901681Y-64656562D01*
X80897500Y-64614105D01*
X80897500Y-63147895D01*
X80901681Y-63105438D01*
X80912274Y-63070519D01*
X80929476Y-63038337D01*
X80952627Y-63010127D01*
X80980837Y-62986976D01*
X81013019Y-62969774D01*
X81047938Y-62959181D01*
X81090395Y-62955000D01*
X82231605Y-62955000D01*
X82274062Y-62959181D01*
X82274062Y-62959181D01*
G37*
G36*
X54842062Y-60165181D02*
G01*
X54876981Y-60175774D01*
X54909163Y-60192976D01*
X54937373Y-60216127D01*
X54960524Y-60244337D01*
X54977726Y-60276519D01*
X54988319Y-60311438D01*
X54992500Y-60353895D01*
X54992500Y-61820105D01*
X54988319Y-61862562D01*
X54977726Y-61897481D01*
X54960524Y-61929663D01*
X54937373Y-61957873D01*
X54909163Y-61981024D01*
X54876981Y-61998226D01*
X54842062Y-62008819D01*
X54799605Y-62013000D01*
X53658395Y-62013000D01*
X53615938Y-62008819D01*
X53581019Y-61998226D01*
X53548837Y-61981024D01*
X53520627Y-61957873D01*
X53497476Y-61929663D01*
X53480274Y-61897481D01*
X53469681Y-61862562D01*
X53465500Y-61820105D01*
X53465500Y-60353895D01*
X53469681Y-60311438D01*
X53480274Y-60276519D01*
X53497476Y-60244337D01*
X53520627Y-60216127D01*
X53548837Y-60192976D01*
X53581019Y-60175774D01*
X53615938Y-60165181D01*
X53658395Y-60161000D01*
X54799605Y-60161000D01*
X54842062Y-60165181D01*
X54842062Y-60165181D01*
G37*
G36*
X51867062Y-60165181D02*
G01*
X51901981Y-60175774D01*
X51934163Y-60192976D01*
X51962373Y-60216127D01*
X51985524Y-60244337D01*
X52002726Y-60276519D01*
X52013319Y-60311438D01*
X52017500Y-60353895D01*
X52017500Y-61820105D01*
X52013319Y-61862562D01*
X52002726Y-61897481D01*
X51985524Y-61929663D01*
X51962373Y-61957873D01*
X51934163Y-61981024D01*
X51901981Y-61998226D01*
X51867062Y-62008819D01*
X51824605Y-62013000D01*
X50683395Y-62013000D01*
X50640938Y-62008819D01*
X50606019Y-61998226D01*
X50573837Y-61981024D01*
X50545627Y-61957873D01*
X50522476Y-61929663D01*
X50505274Y-61897481D01*
X50494681Y-61862562D01*
X50490500Y-61820105D01*
X50490500Y-60353895D01*
X50494681Y-60311438D01*
X50505274Y-60276519D01*
X50522476Y-60244337D01*
X50545627Y-60216127D01*
X50573837Y-60192976D01*
X50606019Y-60175774D01*
X50640938Y-60165181D01*
X50683395Y-60161000D01*
X51824605Y-60161000D01*
X51867062Y-60165181D01*
X51867062Y-60165181D01*
G37*
G36*
X54842062Y-57117181D02*
G01*
X54876981Y-57127774D01*
X54909163Y-57144976D01*
X54937373Y-57168127D01*
X54960524Y-57196337D01*
X54977726Y-57228519D01*
X54988319Y-57263438D01*
X54992500Y-57305895D01*
X54992500Y-58772105D01*
X54988319Y-58814562D01*
X54977726Y-58849481D01*
X54960524Y-58881663D01*
X54937373Y-58909873D01*
X54909163Y-58933024D01*
X54876981Y-58950226D01*
X54842062Y-58960819D01*
X54799605Y-58965000D01*
X53658395Y-58965000D01*
X53615938Y-58960819D01*
X53581019Y-58950226D01*
X53548837Y-58933024D01*
X53520627Y-58909873D01*
X53497476Y-58881663D01*
X53480274Y-58849481D01*
X53469681Y-58814562D01*
X53465500Y-58772105D01*
X53465500Y-57305895D01*
X53469681Y-57263438D01*
X53480274Y-57228519D01*
X53497476Y-57196337D01*
X53520627Y-57168127D01*
X53548837Y-57144976D01*
X53581019Y-57127774D01*
X53615938Y-57117181D01*
X53658395Y-57113000D01*
X54799605Y-57113000D01*
X54842062Y-57117181D01*
X54842062Y-57117181D01*
G37*
G36*
X51867062Y-57117181D02*
G01*
X51901981Y-57127774D01*
X51934163Y-57144976D01*
X51962373Y-57168127D01*
X51985524Y-57196337D01*
X52002726Y-57228519D01*
X52013319Y-57263438D01*
X52017500Y-57305895D01*
X52017500Y-58772105D01*
X52013319Y-58814562D01*
X52002726Y-58849481D01*
X51985524Y-58881663D01*
X51962373Y-58909873D01*
X51934163Y-58933024D01*
X51901981Y-58950226D01*
X51867062Y-58960819D01*
X51824605Y-58965000D01*
X50683395Y-58965000D01*
X50640938Y-58960819D01*
X50606019Y-58950226D01*
X50573837Y-58933024D01*
X50545627Y-58909873D01*
X50522476Y-58881663D01*
X50505274Y-58849481D01*
X50494681Y-58814562D01*
X50490500Y-58772105D01*
X50490500Y-57305895D01*
X50494681Y-57263438D01*
X50505274Y-57228519D01*
X50522476Y-57196337D01*
X50545627Y-57168127D01*
X50573837Y-57144976D01*
X50606019Y-57127774D01*
X50640938Y-57117181D01*
X50683395Y-57113000D01*
X51824605Y-57113000D01*
X51867062Y-57117181D01*
X51867062Y-57117181D01*
G37*
G36*
X102451000Y-57239000D02*
G01*
X100749000Y-57239000D01*
X100749000Y-55537000D01*
X102451000Y-55537000D01*
X102451000Y-57239000D01*
X102451000Y-57239000D01*
G37*
G36*
X98348228Y-55569703D02*
G01*
X98503100Y-55633853D01*
X98642481Y-55726985D01*
X98761015Y-55845519D01*
X98854147Y-55984900D01*
X98918297Y-56139772D01*
X98951000Y-56304184D01*
X98951000Y-56471816D01*
X98918297Y-56636228D01*
X98854147Y-56791100D01*
X98761015Y-56930481D01*
X98642481Y-57049015D01*
X98503100Y-57142147D01*
X98348228Y-57206297D01*
X98183816Y-57239000D01*
X98016184Y-57239000D01*
X97851772Y-57206297D01*
X97696900Y-57142147D01*
X97557519Y-57049015D01*
X97438985Y-56930481D01*
X97345853Y-56791100D01*
X97281703Y-56636228D01*
X97249000Y-56471816D01*
X97249000Y-56304184D01*
X97281703Y-56139772D01*
X97345853Y-55984900D01*
X97438985Y-55845519D01*
X97557519Y-55726985D01*
X97696900Y-55633853D01*
X97851772Y-55569703D01*
X98016184Y-55537000D01*
X98183816Y-55537000D01*
X98348228Y-55569703D01*
X98348228Y-55569703D01*
G37*
G36*
X51794062Y-54323181D02*
G01*
X51828981Y-54333774D01*
X51861163Y-54350976D01*
X51889373Y-54374127D01*
X51912524Y-54402337D01*
X51929726Y-54434519D01*
X51940319Y-54469438D01*
X51944500Y-54511895D01*
X51944500Y-55978105D01*
X51940319Y-56020562D01*
X51929726Y-56055481D01*
X51912524Y-56087663D01*
X51889373Y-56115873D01*
X51861163Y-56139024D01*
X51828981Y-56156226D01*
X51794062Y-56166819D01*
X51751605Y-56171000D01*
X50610395Y-56171000D01*
X50567938Y-56166819D01*
X50533019Y-56156226D01*
X50500837Y-56139024D01*
X50472627Y-56115873D01*
X50449476Y-56087663D01*
X50432274Y-56055481D01*
X50421681Y-56020562D01*
X50417500Y-55978105D01*
X50417500Y-54511895D01*
X50421681Y-54469438D01*
X50432274Y-54434519D01*
X50449476Y-54402337D01*
X50472627Y-54374127D01*
X50500837Y-54350976D01*
X50533019Y-54333774D01*
X50567938Y-54323181D01*
X50610395Y-54319000D01*
X51751605Y-54319000D01*
X51794062Y-54323181D01*
X51794062Y-54323181D01*
G37*
G36*
X54769062Y-54323181D02*
G01*
X54803981Y-54333774D01*
X54836163Y-54350976D01*
X54864373Y-54374127D01*
X54887524Y-54402337D01*
X54904726Y-54434519D01*
X54915319Y-54469438D01*
X54919500Y-54511895D01*
X54919500Y-55978105D01*
X54915319Y-56020562D01*
X54904726Y-56055481D01*
X54887524Y-56087663D01*
X54864373Y-56115873D01*
X54836163Y-56139024D01*
X54803981Y-56156226D01*
X54769062Y-56166819D01*
X54726605Y-56171000D01*
X53585395Y-56171000D01*
X53542938Y-56166819D01*
X53508019Y-56156226D01*
X53475837Y-56139024D01*
X53447627Y-56115873D01*
X53424476Y-56087663D01*
X53407274Y-56055481D01*
X53396681Y-56020562D01*
X53392500Y-55978105D01*
X53392500Y-54511895D01*
X53396681Y-54469438D01*
X53407274Y-54434519D01*
X53424476Y-54402337D01*
X53447627Y-54374127D01*
X53475837Y-54350976D01*
X53508019Y-54333774D01*
X53542938Y-54323181D01*
X53585395Y-54319000D01*
X54726605Y-54319000D01*
X54769062Y-54323181D01*
X54769062Y-54323181D01*
G37*
G36*
X79261562Y-52126681D02*
G01*
X79296481Y-52137274D01*
X79328663Y-52154476D01*
X79356873Y-52177627D01*
X79380024Y-52205837D01*
X79397226Y-52238019D01*
X79407819Y-52272938D01*
X79412000Y-52315395D01*
X79412000Y-53456605D01*
X79407819Y-53499062D01*
X79397226Y-53533981D01*
X79380024Y-53566163D01*
X79356873Y-53594373D01*
X79328663Y-53617524D01*
X79296481Y-53634726D01*
X79261562Y-53645319D01*
X79219105Y-53649500D01*
X77752895Y-53649500D01*
X77710438Y-53645319D01*
X77675519Y-53634726D01*
X77643337Y-53617524D01*
X77615127Y-53594373D01*
X77591976Y-53566163D01*
X77574774Y-53533981D01*
X77564181Y-53499062D01*
X77560000Y-53456605D01*
X77560000Y-52315395D01*
X77564181Y-52272938D01*
X77574774Y-52238019D01*
X77591976Y-52205837D01*
X77615127Y-52177627D01*
X77643337Y-52154476D01*
X77675519Y-52137274D01*
X77710438Y-52126681D01*
X77752895Y-52122500D01*
X79219105Y-52122500D01*
X79261562Y-52126681D01*
X79261562Y-52126681D01*
G37*
G36*
X69482562Y-52072681D02*
G01*
X69517481Y-52083274D01*
X69549663Y-52100476D01*
X69577873Y-52123627D01*
X69601024Y-52151837D01*
X69618226Y-52184019D01*
X69628819Y-52218938D01*
X69633000Y-52261395D01*
X69633000Y-53402605D01*
X69628819Y-53445062D01*
X69618226Y-53479981D01*
X69601024Y-53512163D01*
X69577873Y-53540373D01*
X69549663Y-53563524D01*
X69517481Y-53580726D01*
X69482562Y-53591319D01*
X69440105Y-53595500D01*
X67973895Y-53595500D01*
X67931438Y-53591319D01*
X67896519Y-53580726D01*
X67864337Y-53563524D01*
X67836127Y-53540373D01*
X67812976Y-53512163D01*
X67795774Y-53479981D01*
X67785181Y-53445062D01*
X67781000Y-53402605D01*
X67781000Y-52261395D01*
X67785181Y-52218938D01*
X67795774Y-52184019D01*
X67812976Y-52151837D01*
X67836127Y-52123627D01*
X67864337Y-52100476D01*
X67896519Y-52083274D01*
X67931438Y-52072681D01*
X67973895Y-52068500D01*
X69440105Y-52068500D01*
X69482562Y-52072681D01*
X69482562Y-52072681D01*
G37*
G36*
X66688562Y-51999681D02*
G01*
X66723481Y-52010274D01*
X66755663Y-52027476D01*
X66783873Y-52050627D01*
X66807024Y-52078837D01*
X66824226Y-52111019D01*
X66834819Y-52145938D01*
X66839000Y-52188395D01*
X66839000Y-53329605D01*
X66834819Y-53372062D01*
X66824226Y-53406981D01*
X66807024Y-53439163D01*
X66783873Y-53467373D01*
X66755663Y-53490524D01*
X66723481Y-53507726D01*
X66688562Y-53518319D01*
X66646105Y-53522500D01*
X65179895Y-53522500D01*
X65137438Y-53518319D01*
X65102519Y-53507726D01*
X65070337Y-53490524D01*
X65042127Y-53467373D01*
X65018976Y-53439163D01*
X65001774Y-53406981D01*
X64991181Y-53372062D01*
X64987000Y-53329605D01*
X64987000Y-52188395D01*
X64991181Y-52145938D01*
X65001774Y-52111019D01*
X65018976Y-52078837D01*
X65042127Y-52050627D01*
X65070337Y-52027476D01*
X65102519Y-52010274D01*
X65137438Y-51999681D01*
X65179895Y-51995500D01*
X66646105Y-51995500D01*
X66688562Y-51999681D01*
X66688562Y-51999681D01*
G37*
G36*
X63767562Y-51945681D02*
G01*
X63802481Y-51956274D01*
X63834663Y-51973476D01*
X63862873Y-51996627D01*
X63886024Y-52024837D01*
X63903226Y-52057019D01*
X63913819Y-52091938D01*
X63918000Y-52134395D01*
X63918000Y-53275605D01*
X63913819Y-53318062D01*
X63903226Y-53352981D01*
X63886024Y-53385163D01*
X63862873Y-53413373D01*
X63834663Y-53436524D01*
X63802481Y-53453726D01*
X63767562Y-53464319D01*
X63725105Y-53468500D01*
X62258895Y-53468500D01*
X62216438Y-53464319D01*
X62181519Y-53453726D01*
X62149337Y-53436524D01*
X62121127Y-53413373D01*
X62097976Y-53385163D01*
X62080774Y-53352981D01*
X62070181Y-53318062D01*
X62066000Y-53275605D01*
X62066000Y-52134395D01*
X62070181Y-52091938D01*
X62080774Y-52057019D01*
X62097976Y-52024837D01*
X62121127Y-51996627D01*
X62149337Y-51973476D01*
X62181519Y-51956274D01*
X62216438Y-51945681D01*
X62258895Y-51941500D01*
X63725105Y-51941500D01*
X63767562Y-51945681D01*
X63767562Y-51945681D01*
G37*
G36*
X60973562Y-51945681D02*
G01*
X61008481Y-51956274D01*
X61040663Y-51973476D01*
X61068873Y-51996627D01*
X61092024Y-52024837D01*
X61109226Y-52057019D01*
X61119819Y-52091938D01*
X61124000Y-52134395D01*
X61124000Y-53275605D01*
X61119819Y-53318062D01*
X61109226Y-53352981D01*
X61092024Y-53385163D01*
X61068873Y-53413373D01*
X61040663Y-53436524D01*
X61008481Y-53453726D01*
X60973562Y-53464319D01*
X60931105Y-53468500D01*
X59464895Y-53468500D01*
X59422438Y-53464319D01*
X59387519Y-53453726D01*
X59355337Y-53436524D01*
X59327127Y-53413373D01*
X59303976Y-53385163D01*
X59286774Y-53352981D01*
X59276181Y-53318062D01*
X59272000Y-53275605D01*
X59272000Y-52134395D01*
X59276181Y-52091938D01*
X59286774Y-52057019D01*
X59303976Y-52024837D01*
X59327127Y-51996627D01*
X59355337Y-51973476D01*
X59387519Y-51956274D01*
X59422438Y-51945681D01*
X59464895Y-51941500D01*
X60931105Y-51941500D01*
X60973562Y-51945681D01*
X60973562Y-51945681D01*
G37*
G36*
X82347062Y-51529181D02*
G01*
X82381981Y-51539774D01*
X82414163Y-51556976D01*
X82442373Y-51580127D01*
X82465524Y-51608337D01*
X82482726Y-51640519D01*
X82493319Y-51675438D01*
X82497500Y-51717895D01*
X82497500Y-53184105D01*
X82493319Y-53226562D01*
X82482726Y-53261481D01*
X82465524Y-53293663D01*
X82442373Y-53321873D01*
X82414163Y-53345024D01*
X82381981Y-53362226D01*
X82347062Y-53372819D01*
X82304605Y-53377000D01*
X81163395Y-53377000D01*
X81120938Y-53372819D01*
X81086019Y-53362226D01*
X81053837Y-53345024D01*
X81025627Y-53321873D01*
X81002476Y-53293663D01*
X80985274Y-53261481D01*
X80974681Y-53226562D01*
X80970500Y-53184105D01*
X80970500Y-51717895D01*
X80974681Y-51675438D01*
X80985274Y-51640519D01*
X81002476Y-51608337D01*
X81025627Y-51580127D01*
X81053837Y-51556976D01*
X81086019Y-51539774D01*
X81120938Y-51529181D01*
X81163395Y-51525000D01*
X82304605Y-51525000D01*
X82347062Y-51529181D01*
X82347062Y-51529181D01*
G37*
G36*
X85322062Y-51529181D02*
G01*
X85356981Y-51539774D01*
X85389163Y-51556976D01*
X85417373Y-51580127D01*
X85440524Y-51608337D01*
X85457726Y-51640519D01*
X85468319Y-51675438D01*
X85472500Y-51717895D01*
X85472500Y-53184105D01*
X85468319Y-53226562D01*
X85457726Y-53261481D01*
X85440524Y-53293663D01*
X85417373Y-53321873D01*
X85389163Y-53345024D01*
X85356981Y-53362226D01*
X85322062Y-53372819D01*
X85279605Y-53377000D01*
X84138395Y-53377000D01*
X84095938Y-53372819D01*
X84061019Y-53362226D01*
X84028837Y-53345024D01*
X84000627Y-53321873D01*
X83977476Y-53293663D01*
X83960274Y-53261481D01*
X83949681Y-53226562D01*
X83945500Y-53184105D01*
X83945500Y-51717895D01*
X83949681Y-51675438D01*
X83960274Y-51640519D01*
X83977476Y-51608337D01*
X84000627Y-51580127D01*
X84028837Y-51556976D01*
X84061019Y-51539774D01*
X84095938Y-51529181D01*
X84138395Y-51525000D01*
X85279605Y-51525000D01*
X85322062Y-51529181D01*
X85322062Y-51529181D01*
G37*
G36*
X79261562Y-49151681D02*
G01*
X79296481Y-49162274D01*
X79328663Y-49179476D01*
X79356873Y-49202627D01*
X79380024Y-49230837D01*
X79397226Y-49263019D01*
X79407819Y-49297938D01*
X79412000Y-49340395D01*
X79412000Y-50481605D01*
X79407819Y-50524062D01*
X79397226Y-50558981D01*
X79380024Y-50591163D01*
X79356873Y-50619373D01*
X79328663Y-50642524D01*
X79296481Y-50659726D01*
X79261562Y-50670319D01*
X79219105Y-50674500D01*
X77752895Y-50674500D01*
X77710438Y-50670319D01*
X77675519Y-50659726D01*
X77643337Y-50642524D01*
X77615127Y-50619373D01*
X77591976Y-50591163D01*
X77574774Y-50558981D01*
X77564181Y-50524062D01*
X77560000Y-50481605D01*
X77560000Y-49340395D01*
X77564181Y-49297938D01*
X77574774Y-49263019D01*
X77591976Y-49230837D01*
X77615127Y-49202627D01*
X77643337Y-49179476D01*
X77675519Y-49162274D01*
X77710438Y-49151681D01*
X77752895Y-49147500D01*
X79219105Y-49147500D01*
X79261562Y-49151681D01*
X79261562Y-49151681D01*
G37*
G36*
X69482562Y-49097681D02*
G01*
X69517481Y-49108274D01*
X69549663Y-49125476D01*
X69577873Y-49148627D01*
X69601024Y-49176837D01*
X69618226Y-49209019D01*
X69628819Y-49243938D01*
X69633000Y-49286395D01*
X69633000Y-50427605D01*
X69628819Y-50470062D01*
X69618226Y-50504981D01*
X69601024Y-50537163D01*
X69577873Y-50565373D01*
X69549663Y-50588524D01*
X69517481Y-50605726D01*
X69482562Y-50616319D01*
X69440105Y-50620500D01*
X67973895Y-50620500D01*
X67931438Y-50616319D01*
X67896519Y-50605726D01*
X67864337Y-50588524D01*
X67836127Y-50565373D01*
X67812976Y-50537163D01*
X67795774Y-50504981D01*
X67785181Y-50470062D01*
X67781000Y-50427605D01*
X67781000Y-49286395D01*
X67785181Y-49243938D01*
X67795774Y-49209019D01*
X67812976Y-49176837D01*
X67836127Y-49148627D01*
X67864337Y-49125476D01*
X67896519Y-49108274D01*
X67931438Y-49097681D01*
X67973895Y-49093500D01*
X69440105Y-49093500D01*
X69482562Y-49097681D01*
X69482562Y-49097681D01*
G37*
G36*
X66688562Y-49024681D02*
G01*
X66723481Y-49035274D01*
X66755663Y-49052476D01*
X66783873Y-49075627D01*
X66807024Y-49103837D01*
X66824226Y-49136019D01*
X66834819Y-49170938D01*
X66839000Y-49213395D01*
X66839000Y-50354605D01*
X66834819Y-50397062D01*
X66824226Y-50431981D01*
X66807024Y-50464163D01*
X66783873Y-50492373D01*
X66755663Y-50515524D01*
X66723481Y-50532726D01*
X66688562Y-50543319D01*
X66646105Y-50547500D01*
X65179895Y-50547500D01*
X65137438Y-50543319D01*
X65102519Y-50532726D01*
X65070337Y-50515524D01*
X65042127Y-50492373D01*
X65018976Y-50464163D01*
X65001774Y-50431981D01*
X64991181Y-50397062D01*
X64987000Y-50354605D01*
X64987000Y-49213395D01*
X64991181Y-49170938D01*
X65001774Y-49136019D01*
X65018976Y-49103837D01*
X65042127Y-49075627D01*
X65070337Y-49052476D01*
X65102519Y-49035274D01*
X65137438Y-49024681D01*
X65179895Y-49020500D01*
X66646105Y-49020500D01*
X66688562Y-49024681D01*
X66688562Y-49024681D01*
G37*
G36*
X63767562Y-48970681D02*
G01*
X63802481Y-48981274D01*
X63834663Y-48998476D01*
X63862873Y-49021627D01*
X63886024Y-49049837D01*
X63903226Y-49082019D01*
X63913819Y-49116938D01*
X63918000Y-49159395D01*
X63918000Y-50300605D01*
X63913819Y-50343062D01*
X63903226Y-50377981D01*
X63886024Y-50410163D01*
X63862873Y-50438373D01*
X63834663Y-50461524D01*
X63802481Y-50478726D01*
X63767562Y-50489319D01*
X63725105Y-50493500D01*
X62258895Y-50493500D01*
X62216438Y-50489319D01*
X62181519Y-50478726D01*
X62149337Y-50461524D01*
X62121127Y-50438373D01*
X62097976Y-50410163D01*
X62080774Y-50377981D01*
X62070181Y-50343062D01*
X62066000Y-50300605D01*
X62066000Y-49159395D01*
X62070181Y-49116938D01*
X62080774Y-49082019D01*
X62097976Y-49049837D01*
X62121127Y-49021627D01*
X62149337Y-48998476D01*
X62181519Y-48981274D01*
X62216438Y-48970681D01*
X62258895Y-48966500D01*
X63725105Y-48966500D01*
X63767562Y-48970681D01*
X63767562Y-48970681D01*
G37*
G36*
X60973562Y-48970681D02*
G01*
X61008481Y-48981274D01*
X61040663Y-48998476D01*
X61068873Y-49021627D01*
X61092024Y-49049837D01*
X61109226Y-49082019D01*
X61119819Y-49116938D01*
X61124000Y-49159395D01*
X61124000Y-50300605D01*
X61119819Y-50343062D01*
X61109226Y-50377981D01*
X61092024Y-50410163D01*
X61068873Y-50438373D01*
X61040663Y-50461524D01*
X61008481Y-50478726D01*
X60973562Y-50489319D01*
X60931105Y-50493500D01*
X59464895Y-50493500D01*
X59422438Y-50489319D01*
X59387519Y-50478726D01*
X59355337Y-50461524D01*
X59327127Y-50438373D01*
X59303976Y-50410163D01*
X59286774Y-50377981D01*
X59276181Y-50343062D01*
X59272000Y-50300605D01*
X59272000Y-49159395D01*
X59276181Y-49116938D01*
X59286774Y-49082019D01*
X59303976Y-49049837D01*
X59327127Y-49021627D01*
X59355337Y-48998476D01*
X59387519Y-48981274D01*
X59422438Y-48970681D01*
X59464895Y-48966500D01*
X60931105Y-48966500D01*
X60973562Y-48970681D01*
X60973562Y-48970681D01*
G37*
G36*
X77016903Y-33341075D02*
G01*
X77244571Y-33435378D01*
X77449466Y-33572285D01*
X77623715Y-33746534D01*
X77760622Y-33951429D01*
X77854925Y-34179097D01*
X77903000Y-34420787D01*
X77903000Y-34667213D01*
X77854925Y-34908903D01*
X77760622Y-35136571D01*
X77623715Y-35341466D01*
X77449466Y-35515715D01*
X77244571Y-35652622D01*
X77244570Y-35652623D01*
X77244569Y-35652623D01*
X77016903Y-35746925D01*
X76775214Y-35795000D01*
X76528786Y-35795000D01*
X76287097Y-35746925D01*
X76059431Y-35652623D01*
X76059430Y-35652623D01*
X76059429Y-35652622D01*
X75854534Y-35515715D01*
X75680285Y-35341466D01*
X75543378Y-35136571D01*
X75449075Y-34908903D01*
X75401000Y-34667213D01*
X75401000Y-34420787D01*
X75449075Y-34179097D01*
X75543378Y-33951429D01*
X75680285Y-33746534D01*
X75854534Y-33572285D01*
X76059429Y-33435378D01*
X76287097Y-33341075D01*
X76528786Y-33293000D01*
X76775214Y-33293000D01*
X77016903Y-33341075D01*
X77016903Y-33341075D01*
G37*
G36*
X73516903Y-33341075D02*
G01*
X73744571Y-33435378D01*
X73949466Y-33572285D01*
X74123715Y-33746534D01*
X74260622Y-33951429D01*
X74354925Y-34179097D01*
X74403000Y-34420787D01*
X74403000Y-34667213D01*
X74354925Y-34908903D01*
X74260622Y-35136571D01*
X74123715Y-35341466D01*
X73949466Y-35515715D01*
X73744571Y-35652622D01*
X73744570Y-35652623D01*
X73744569Y-35652623D01*
X73516903Y-35746925D01*
X73275214Y-35795000D01*
X73028786Y-35795000D01*
X72787097Y-35746925D01*
X72559431Y-35652623D01*
X72559430Y-35652623D01*
X72559429Y-35652622D01*
X72354534Y-35515715D01*
X72180285Y-35341466D01*
X72043378Y-35136571D01*
X71949075Y-34908903D01*
X71901000Y-34667213D01*
X71901000Y-34420787D01*
X71949075Y-34179097D01*
X72043378Y-33951429D01*
X72180285Y-33746534D01*
X72354534Y-33572285D01*
X72559429Y-33435378D01*
X72787097Y-33341075D01*
X73028786Y-33293000D01*
X73275214Y-33293000D01*
X73516903Y-33341075D01*
X73516903Y-33341075D01*
G37*
G36*
X70016903Y-33341075D02*
G01*
X70244571Y-33435378D01*
X70449466Y-33572285D01*
X70623715Y-33746534D01*
X70760622Y-33951429D01*
X70854925Y-34179097D01*
X70903000Y-34420787D01*
X70903000Y-34667213D01*
X70854925Y-34908903D01*
X70760622Y-35136571D01*
X70623715Y-35341466D01*
X70449466Y-35515715D01*
X70244571Y-35652622D01*
X70244570Y-35652623D01*
X70244569Y-35652623D01*
X70016903Y-35746925D01*
X69775214Y-35795000D01*
X69528786Y-35795000D01*
X69287097Y-35746925D01*
X69059431Y-35652623D01*
X69059430Y-35652623D01*
X69059429Y-35652622D01*
X68854534Y-35515715D01*
X68680285Y-35341466D01*
X68543378Y-35136571D01*
X68449075Y-34908903D01*
X68401000Y-34667213D01*
X68401000Y-34420787D01*
X68449075Y-34179097D01*
X68543378Y-33951429D01*
X68680285Y-33746534D01*
X68854534Y-33572285D01*
X69059429Y-33435378D01*
X69287097Y-33341075D01*
X69528786Y-33293000D01*
X69775214Y-33293000D01*
X70016903Y-33341075D01*
X70016903Y-33341075D01*
G37*
G36*
X67403000Y-35795000D02*
G01*
X64901000Y-35795000D01*
X64901000Y-33293000D01*
X67403000Y-33293000D01*
X67403000Y-35795000D01*
X67403000Y-35795000D01*
G37*
M02*
