G04 #@! TF.GenerationSoftware,KiCad,Pcbnew,(5.1.4-0-10_14)*
G04 #@! TF.CreationDate,2020-01-18T12:34:28-08:00*
G04 #@! TF.ProjectId,Board,426f6172-642e-46b6-9963-61645f706362,v1.0*
G04 #@! TF.SameCoordinates,Original*
G04 #@! TF.FileFunction,Copper,L2,Bot*
G04 #@! TF.FilePolarity,Positive*
%FSLAX46Y46*%
G04 Gerber Fmt 4.6, Leading zero omitted, Abs format (unit mm)*
G04 Created by KiCad (PCBNEW (5.1.4-0-10_14)) date 2020-01-18 12:34:28*
%MOMM*%
%LPD*%
G04 APERTURE LIST*
%ADD10R,2.000000X2.000000*%
%ADD11C,2.000000*%
%ADD12R,1.600000X1.600000*%
%ADD13C,1.600000*%
%ADD14R,1.700000X1.700000*%
%ADD15O,1.700000X1.700000*%
%ADD16R,2.400000X2.400000*%
%ADD17C,2.400000*%
%ADD18C,0.457200*%
%ADD19C,0.254000*%
%ADD20C,0.635000*%
G04 APERTURE END LIST*
D10*
X102362000Y-70612000D03*
D11*
X97362000Y-70612000D03*
D12*
X101600000Y-56388000D03*
D13*
X98100000Y-56388000D03*
D14*
X77089000Y-93218000D03*
D15*
X74549000Y-93218000D03*
X72009000Y-93218000D03*
X69469000Y-93218000D03*
X66929000Y-93218000D03*
X64389000Y-93218000D03*
X61849000Y-93218000D03*
X59309000Y-93218000D03*
X56769000Y-93218000D03*
X54229000Y-93218000D03*
X51689000Y-93218000D03*
D16*
X66152000Y-34544000D03*
D17*
X69652000Y-34544000D03*
X73152000Y-34544000D03*
X76652000Y-34544000D03*
D18*
X73660000Y-53340000D03*
X78740000Y-60960000D03*
X57150000Y-95250000D03*
X58420000Y-55880000D03*
X78740000Y-76200000D03*
X71120000Y-81280000D03*
X88900000Y-71120000D03*
X38100000Y-38100000D03*
X38100000Y-50800000D03*
X40386000Y-43434000D03*
X40386000Y-56134000D03*
X40386000Y-68834000D03*
X38100000Y-101600000D03*
X50800000Y-101600000D03*
X63500000Y-101600000D03*
X76200000Y-101600000D03*
X88900000Y-101600000D03*
X39243000Y-55372000D03*
X50800000Y-38100000D03*
X63500000Y-38100000D03*
X88900000Y-38100000D03*
X101600000Y-38100000D03*
X107950000Y-44450000D03*
X107950000Y-57150000D03*
X107950000Y-69850000D03*
X107950000Y-82550000D03*
X107950000Y-95250000D03*
X95250000Y-95250000D03*
X82550000Y-95250000D03*
X44450000Y-95250000D03*
X50800000Y-88900000D03*
X57150000Y-82550000D03*
X76200000Y-88900000D03*
X95250000Y-63500000D03*
X88900000Y-57150000D03*
X82550000Y-57150000D03*
X44450000Y-44450000D03*
X57150000Y-44450000D03*
X82550000Y-44450000D03*
X95250000Y-44450000D03*
X101600000Y-50800000D03*
X88900000Y-50800000D03*
X50800000Y-50800000D03*
X44450000Y-57150000D03*
X44450000Y-69850000D03*
X44450000Y-82550000D03*
X39243000Y-42672000D03*
X95250000Y-82550000D03*
X65936001Y-64666001D03*
X71501000Y-65024000D03*
X70485000Y-76708000D03*
X75946000Y-67691000D03*
X93472000Y-70739000D03*
X94234000Y-56261000D03*
X76327000Y-65592002D03*
X63881000Y-78613000D03*
X69469000Y-89027000D03*
X67056000Y-63246000D03*
D19*
X75946000Y-67691000D02*
X90424000Y-67691000D01*
X90424000Y-67691000D02*
X93472000Y-70739000D01*
X84902998Y-65592002D02*
X94234000Y-56261000D01*
X76327000Y-65592002D02*
X84902998Y-65592002D01*
D20*
X63881000Y-80010000D02*
X77089000Y-93218000D01*
X63881000Y-78613000D02*
X63881000Y-80010000D01*
D19*
X69469000Y-93218000D02*
X69469000Y-90043000D01*
X69469000Y-90043000D02*
X69469000Y-89027000D01*
D20*
X66152000Y-62342000D02*
X67056000Y-63246000D01*
X66152000Y-34544000D02*
X66152000Y-62342000D01*
X69652000Y-60650000D02*
X67056000Y-63246000D01*
X69652000Y-34544000D02*
X69652000Y-60650000D01*
D19*
G36*
X38889439Y-30280425D02*
G01*
X38909627Y-30305042D01*
X38934409Y-30325395D01*
X38934499Y-30325485D01*
X38961182Y-30347383D01*
X39008223Y-30386017D01*
X39008322Y-30386070D01*
X39008416Y-30386147D01*
X39065453Y-30416634D01*
X39120721Y-30446201D01*
X39120833Y-30446235D01*
X39120936Y-30446290D01*
X39182162Y-30464863D01*
X39242799Y-30483281D01*
X39242914Y-30483292D01*
X39243028Y-30483327D01*
X39306418Y-30489570D01*
X39337958Y-30492688D01*
X39338076Y-30492688D01*
X39369999Y-30495832D01*
X39401689Y-30492711D01*
X109823078Y-30518088D01*
X109855000Y-30521232D01*
X109918295Y-30514998D01*
X109981741Y-30508772D01*
X109981850Y-30508739D01*
X109981971Y-30508727D01*
X110044430Y-30489780D01*
X110103846Y-30471780D01*
X110103948Y-30471726D01*
X110104062Y-30471691D01*
X110159784Y-30441907D01*
X110216388Y-30411678D01*
X110216482Y-30411601D01*
X110216583Y-30411547D01*
X110265690Y-30371246D01*
X110315042Y-30330773D01*
X110335401Y-30305984D01*
X114593686Y-26047700D01*
X120002301Y-26047700D01*
X120002300Y-37476114D01*
X115388503Y-42089912D01*
X115363792Y-42110192D01*
X115282852Y-42208818D01*
X115222709Y-42321338D01*
X115185673Y-42443430D01*
X115176300Y-42538592D01*
X115176300Y-42538599D01*
X115173168Y-42570400D01*
X115176300Y-42602201D01*
X115176301Y-97097789D01*
X115173168Y-97129600D01*
X115185673Y-97256571D01*
X115222709Y-97378662D01*
X115282853Y-97491183D01*
X115343515Y-97565100D01*
X115343518Y-97565103D01*
X115363793Y-97589808D01*
X115388498Y-97610083D01*
X120002301Y-102223887D01*
X120002300Y-113652300D01*
X114542886Y-113652300D01*
X110310088Y-109419503D01*
X110289808Y-109394792D01*
X110191183Y-109313852D01*
X110078663Y-109253709D01*
X109956571Y-109216673D01*
X109861409Y-109207300D01*
X109861401Y-109207300D01*
X109829600Y-109204168D01*
X109797799Y-109207300D01*
X39427200Y-109207300D01*
X39395399Y-109204168D01*
X39363598Y-109207300D01*
X39363591Y-109207300D01*
X39283252Y-109215213D01*
X39268428Y-109216673D01*
X39231392Y-109227908D01*
X39146337Y-109253709D01*
X39033817Y-109313852D01*
X38935192Y-109394792D01*
X38914917Y-109419497D01*
X34682115Y-113652300D01*
X26047700Y-113652300D01*
X26047700Y-109638970D01*
X27905613Y-109638970D01*
X27905613Y-110071030D01*
X27989904Y-110494787D01*
X28155246Y-110893958D01*
X28395285Y-111253203D01*
X28700797Y-111558715D01*
X29060042Y-111798754D01*
X29459213Y-111964096D01*
X29882970Y-112048387D01*
X30315030Y-112048387D01*
X30738787Y-111964096D01*
X31137958Y-111798754D01*
X31497203Y-111558715D01*
X31802715Y-111253203D01*
X32042754Y-110893958D01*
X32208096Y-110494787D01*
X32292387Y-110071030D01*
X32292387Y-109638970D01*
X32208096Y-109215213D01*
X32042754Y-108816042D01*
X31802715Y-108456797D01*
X31497203Y-108151285D01*
X31137958Y-107911246D01*
X30738787Y-107745904D01*
X30315030Y-107661613D01*
X29882970Y-107661613D01*
X29459213Y-107745904D01*
X29060042Y-107911246D01*
X28700797Y-108151285D01*
X28395285Y-108456797D01*
X28155246Y-108816042D01*
X27989904Y-109215213D01*
X27905613Y-109638970D01*
X26047700Y-109638970D01*
X26047700Y-107098970D01*
X113630613Y-107098970D01*
X113630613Y-107531030D01*
X113714904Y-107954787D01*
X113880246Y-108353958D01*
X114120285Y-108713203D01*
X114425797Y-109018715D01*
X114785042Y-109258754D01*
X115184213Y-109424096D01*
X115607970Y-109508387D01*
X116040030Y-109508387D01*
X116463787Y-109424096D01*
X116862958Y-109258754D01*
X117222203Y-109018715D01*
X117527715Y-108713203D01*
X117767754Y-108353958D01*
X117933096Y-107954787D01*
X118017387Y-107531030D01*
X118017387Y-107098970D01*
X117933096Y-106675213D01*
X117767754Y-106276042D01*
X117527715Y-105916797D01*
X117222203Y-105611285D01*
X116862958Y-105371246D01*
X116463787Y-105205904D01*
X116040030Y-105121613D01*
X115607970Y-105121613D01*
X115184213Y-105205904D01*
X114785042Y-105371246D01*
X114425797Y-105611285D01*
X114120285Y-105916797D01*
X113880246Y-106276042D01*
X113714904Y-106675213D01*
X113630613Y-107098970D01*
X26047700Y-107098970D01*
X26047700Y-105297285D01*
X30534503Y-100810483D01*
X30559208Y-100790208D01*
X30640148Y-100691583D01*
X30700291Y-100579063D01*
X30737327Y-100456971D01*
X30746700Y-100361809D01*
X30746700Y-100361801D01*
X30749832Y-100330000D01*
X30746700Y-100298199D01*
X30746700Y-93218000D01*
X50196815Y-93218000D01*
X50225487Y-93509111D01*
X50310401Y-93789034D01*
X50448294Y-94047014D01*
X50633866Y-94273134D01*
X50859986Y-94458706D01*
X51117966Y-94596599D01*
X51397889Y-94681513D01*
X51616050Y-94703000D01*
X51761950Y-94703000D01*
X51980111Y-94681513D01*
X52260034Y-94596599D01*
X52518014Y-94458706D01*
X52744134Y-94273134D01*
X52929706Y-94047014D01*
X52959000Y-93992209D01*
X52988294Y-94047014D01*
X53173866Y-94273134D01*
X53399986Y-94458706D01*
X53657966Y-94596599D01*
X53937889Y-94681513D01*
X54156050Y-94703000D01*
X54301950Y-94703000D01*
X54520111Y-94681513D01*
X54800034Y-94596599D01*
X55058014Y-94458706D01*
X55284134Y-94273134D01*
X55469706Y-94047014D01*
X55499000Y-93992209D01*
X55528294Y-94047014D01*
X55713866Y-94273134D01*
X55939986Y-94458706D01*
X56197966Y-94596599D01*
X56477889Y-94681513D01*
X56696050Y-94703000D01*
X56841950Y-94703000D01*
X57060111Y-94681513D01*
X57340034Y-94596599D01*
X57598014Y-94458706D01*
X57824134Y-94273134D01*
X58009706Y-94047014D01*
X58039000Y-93992209D01*
X58068294Y-94047014D01*
X58253866Y-94273134D01*
X58479986Y-94458706D01*
X58737966Y-94596599D01*
X59017889Y-94681513D01*
X59236050Y-94703000D01*
X59381950Y-94703000D01*
X59600111Y-94681513D01*
X59880034Y-94596599D01*
X60138014Y-94458706D01*
X60364134Y-94273134D01*
X60549706Y-94047014D01*
X60579000Y-93992209D01*
X60608294Y-94047014D01*
X60793866Y-94273134D01*
X61019986Y-94458706D01*
X61277966Y-94596599D01*
X61557889Y-94681513D01*
X61776050Y-94703000D01*
X61921950Y-94703000D01*
X62140111Y-94681513D01*
X62420034Y-94596599D01*
X62678014Y-94458706D01*
X62904134Y-94273134D01*
X63089706Y-94047014D01*
X63119000Y-93992209D01*
X63148294Y-94047014D01*
X63333866Y-94273134D01*
X63559986Y-94458706D01*
X63817966Y-94596599D01*
X64097889Y-94681513D01*
X64316050Y-94703000D01*
X64461950Y-94703000D01*
X64680111Y-94681513D01*
X64960034Y-94596599D01*
X65218014Y-94458706D01*
X65444134Y-94273134D01*
X65629706Y-94047014D01*
X65659000Y-93992209D01*
X65688294Y-94047014D01*
X65873866Y-94273134D01*
X66099986Y-94458706D01*
X66357966Y-94596599D01*
X66637889Y-94681513D01*
X66856050Y-94703000D01*
X67001950Y-94703000D01*
X67220111Y-94681513D01*
X67500034Y-94596599D01*
X67758014Y-94458706D01*
X67984134Y-94273134D01*
X68169706Y-94047014D01*
X68199000Y-93992209D01*
X68228294Y-94047014D01*
X68413866Y-94273134D01*
X68639986Y-94458706D01*
X68897966Y-94596599D01*
X69177889Y-94681513D01*
X69396050Y-94703000D01*
X69541950Y-94703000D01*
X69760111Y-94681513D01*
X70040034Y-94596599D01*
X70298014Y-94458706D01*
X70524134Y-94273134D01*
X70709706Y-94047014D01*
X70739000Y-93992209D01*
X70768294Y-94047014D01*
X70953866Y-94273134D01*
X71179986Y-94458706D01*
X71437966Y-94596599D01*
X71717889Y-94681513D01*
X71936050Y-94703000D01*
X72081950Y-94703000D01*
X72300111Y-94681513D01*
X72580034Y-94596599D01*
X72838014Y-94458706D01*
X73064134Y-94273134D01*
X73249706Y-94047014D01*
X73284201Y-93982477D01*
X73353822Y-94099355D01*
X73548731Y-94315588D01*
X73782080Y-94489641D01*
X74044901Y-94614825D01*
X74192110Y-94659476D01*
X74422000Y-94538155D01*
X74422000Y-93345000D01*
X74402000Y-93345000D01*
X74402000Y-93091000D01*
X74422000Y-93091000D01*
X74422000Y-93071000D01*
X74676000Y-93071000D01*
X74676000Y-93091000D01*
X74696000Y-93091000D01*
X74696000Y-93345000D01*
X74676000Y-93345000D01*
X74676000Y-94538155D01*
X74905890Y-94659476D01*
X75053099Y-94614825D01*
X75315920Y-94489641D01*
X75549269Y-94315588D01*
X75625034Y-94231534D01*
X75649498Y-94312180D01*
X75708463Y-94422494D01*
X75787815Y-94519185D01*
X75884506Y-94598537D01*
X75994820Y-94657502D01*
X76114518Y-94693812D01*
X76239000Y-94706072D01*
X77939000Y-94706072D01*
X78063482Y-94693812D01*
X78183180Y-94657502D01*
X78293494Y-94598537D01*
X78390185Y-94519185D01*
X78469537Y-94422494D01*
X78528502Y-94312180D01*
X78564812Y-94192482D01*
X78577072Y-94068000D01*
X78577072Y-92368000D01*
X78564812Y-92243518D01*
X78528502Y-92123820D01*
X78469537Y-92013506D01*
X78390185Y-91916815D01*
X78293494Y-91837463D01*
X78183180Y-91778498D01*
X78063482Y-91742188D01*
X77939000Y-91729928D01*
X76947967Y-91729928D01*
X64833500Y-79615462D01*
X64833500Y-78566215D01*
X64819717Y-78426277D01*
X64765252Y-78246731D01*
X64676806Y-78081259D01*
X64557778Y-77936222D01*
X64412741Y-77817194D01*
X64247268Y-77728748D01*
X64067722Y-77674283D01*
X63881000Y-77655892D01*
X63694277Y-77674283D01*
X63514731Y-77728748D01*
X63349259Y-77817194D01*
X63204222Y-77936222D01*
X63085194Y-78081259D01*
X62996748Y-78246732D01*
X62942283Y-78426278D01*
X62928500Y-78566216D01*
X62928501Y-79963206D01*
X62923892Y-80010000D01*
X62942283Y-80196722D01*
X62996749Y-80376269D01*
X63085195Y-80541741D01*
X63204223Y-80686778D01*
X63240564Y-80716602D01*
X74421590Y-91897628D01*
X74192110Y-91776524D01*
X74044901Y-91821175D01*
X73782080Y-91946359D01*
X73548731Y-92120412D01*
X73353822Y-92336645D01*
X73284201Y-92453523D01*
X73249706Y-92388986D01*
X73064134Y-92162866D01*
X72838014Y-91977294D01*
X72580034Y-91839401D01*
X72300111Y-91754487D01*
X72081950Y-91733000D01*
X71936050Y-91733000D01*
X71717889Y-91754487D01*
X71437966Y-91839401D01*
X71179986Y-91977294D01*
X70953866Y-92162866D01*
X70768294Y-92388986D01*
X70739000Y-92443791D01*
X70709706Y-92388986D01*
X70524134Y-92162866D01*
X70298014Y-91977294D01*
X70231000Y-91941474D01*
X70231000Y-89441026D01*
X70234313Y-89436068D01*
X70299413Y-89278903D01*
X70332600Y-89112057D01*
X70332600Y-88941943D01*
X70299413Y-88775097D01*
X70234313Y-88617932D01*
X70139802Y-88476487D01*
X70019513Y-88356198D01*
X69878068Y-88261687D01*
X69720903Y-88196587D01*
X69554057Y-88163400D01*
X69383943Y-88163400D01*
X69217097Y-88196587D01*
X69059932Y-88261687D01*
X68918487Y-88356198D01*
X68798198Y-88476487D01*
X68703687Y-88617932D01*
X68638587Y-88775097D01*
X68605400Y-88941943D01*
X68605400Y-89112057D01*
X68638587Y-89278903D01*
X68703687Y-89436068D01*
X68707001Y-89441027D01*
X68707000Y-90080425D01*
X68707001Y-90080435D01*
X68707000Y-91941474D01*
X68639986Y-91977294D01*
X68413866Y-92162866D01*
X68228294Y-92388986D01*
X68199000Y-92443791D01*
X68169706Y-92388986D01*
X67984134Y-92162866D01*
X67758014Y-91977294D01*
X67500034Y-91839401D01*
X67220111Y-91754487D01*
X67001950Y-91733000D01*
X66856050Y-91733000D01*
X66637889Y-91754487D01*
X66357966Y-91839401D01*
X66099986Y-91977294D01*
X65873866Y-92162866D01*
X65688294Y-92388986D01*
X65659000Y-92443791D01*
X65629706Y-92388986D01*
X65444134Y-92162866D01*
X65218014Y-91977294D01*
X64960034Y-91839401D01*
X64680111Y-91754487D01*
X64461950Y-91733000D01*
X64316050Y-91733000D01*
X64097889Y-91754487D01*
X63817966Y-91839401D01*
X63559986Y-91977294D01*
X63333866Y-92162866D01*
X63148294Y-92388986D01*
X63119000Y-92443791D01*
X63089706Y-92388986D01*
X62904134Y-92162866D01*
X62678014Y-91977294D01*
X62420034Y-91839401D01*
X62140111Y-91754487D01*
X61921950Y-91733000D01*
X61776050Y-91733000D01*
X61557889Y-91754487D01*
X61277966Y-91839401D01*
X61019986Y-91977294D01*
X60793866Y-92162866D01*
X60608294Y-92388986D01*
X60579000Y-92443791D01*
X60549706Y-92388986D01*
X60364134Y-92162866D01*
X60138014Y-91977294D01*
X59880034Y-91839401D01*
X59600111Y-91754487D01*
X59381950Y-91733000D01*
X59236050Y-91733000D01*
X59017889Y-91754487D01*
X58737966Y-91839401D01*
X58479986Y-91977294D01*
X58253866Y-92162866D01*
X58068294Y-92388986D01*
X58039000Y-92443791D01*
X58009706Y-92388986D01*
X57824134Y-92162866D01*
X57598014Y-91977294D01*
X57340034Y-91839401D01*
X57060111Y-91754487D01*
X56841950Y-91733000D01*
X56696050Y-91733000D01*
X56477889Y-91754487D01*
X56197966Y-91839401D01*
X55939986Y-91977294D01*
X55713866Y-92162866D01*
X55528294Y-92388986D01*
X55499000Y-92443791D01*
X55469706Y-92388986D01*
X55284134Y-92162866D01*
X55058014Y-91977294D01*
X54800034Y-91839401D01*
X54520111Y-91754487D01*
X54301950Y-91733000D01*
X54156050Y-91733000D01*
X53937889Y-91754487D01*
X53657966Y-91839401D01*
X53399986Y-91977294D01*
X53173866Y-92162866D01*
X52988294Y-92388986D01*
X52959000Y-92443791D01*
X52929706Y-92388986D01*
X52744134Y-92162866D01*
X52518014Y-91977294D01*
X52260034Y-91839401D01*
X51980111Y-91754487D01*
X51761950Y-91733000D01*
X51616050Y-91733000D01*
X51397889Y-91754487D01*
X51117966Y-91839401D01*
X50859986Y-91977294D01*
X50633866Y-92162866D01*
X50448294Y-92388986D01*
X50310401Y-92646966D01*
X50225487Y-92926889D01*
X50196815Y-93218000D01*
X30746700Y-93218000D01*
X30746700Y-67605943D01*
X75082400Y-67605943D01*
X75082400Y-67776057D01*
X75115587Y-67942903D01*
X75180687Y-68100068D01*
X75275198Y-68241513D01*
X75395487Y-68361802D01*
X75536932Y-68456313D01*
X75694097Y-68521413D01*
X75860943Y-68554600D01*
X76031057Y-68554600D01*
X76197903Y-68521413D01*
X76355068Y-68456313D01*
X76360026Y-68453000D01*
X90108370Y-68453000D01*
X92640424Y-70985055D01*
X92641587Y-70990903D01*
X92706687Y-71148068D01*
X92801198Y-71289513D01*
X92921487Y-71409802D01*
X93062932Y-71504313D01*
X93220097Y-71569413D01*
X93386943Y-71602600D01*
X93557057Y-71602600D01*
X93723903Y-71569413D01*
X93881068Y-71504313D01*
X94022513Y-71409802D01*
X94142802Y-71289513D01*
X94237313Y-71148068D01*
X94302413Y-70990903D01*
X94335600Y-70824057D01*
X94335600Y-70653943D01*
X94302413Y-70487097D01*
X94287448Y-70450967D01*
X95727000Y-70450967D01*
X95727000Y-70773033D01*
X95789832Y-71088912D01*
X95913082Y-71386463D01*
X96092013Y-71654252D01*
X96319748Y-71881987D01*
X96587537Y-72060918D01*
X96885088Y-72184168D01*
X97200967Y-72247000D01*
X97523033Y-72247000D01*
X97838912Y-72184168D01*
X98136463Y-72060918D01*
X98404252Y-71881987D01*
X98631987Y-71654252D01*
X98810918Y-71386463D01*
X98934168Y-71088912D01*
X98997000Y-70773033D01*
X98997000Y-70450967D01*
X98934168Y-70135088D01*
X98810918Y-69837537D01*
X98660219Y-69612000D01*
X100723928Y-69612000D01*
X100723928Y-71612000D01*
X100736188Y-71736482D01*
X100772498Y-71856180D01*
X100831463Y-71966494D01*
X100910815Y-72063185D01*
X101007506Y-72142537D01*
X101117820Y-72201502D01*
X101237518Y-72237812D01*
X101362000Y-72250072D01*
X103362000Y-72250072D01*
X103486482Y-72237812D01*
X103606180Y-72201502D01*
X103716494Y-72142537D01*
X103813185Y-72063185D01*
X103892537Y-71966494D01*
X103951502Y-71856180D01*
X103987812Y-71736482D01*
X104000072Y-71612000D01*
X104000072Y-69612000D01*
X103987812Y-69487518D01*
X103951502Y-69367820D01*
X103892537Y-69257506D01*
X103813185Y-69160815D01*
X103716494Y-69081463D01*
X103606180Y-69022498D01*
X103486482Y-68986188D01*
X103362000Y-68973928D01*
X101362000Y-68973928D01*
X101237518Y-68986188D01*
X101117820Y-69022498D01*
X101007506Y-69081463D01*
X100910815Y-69160815D01*
X100831463Y-69257506D01*
X100772498Y-69367820D01*
X100736188Y-69487518D01*
X100723928Y-69612000D01*
X98660219Y-69612000D01*
X98631987Y-69569748D01*
X98404252Y-69342013D01*
X98136463Y-69163082D01*
X97838912Y-69039832D01*
X97523033Y-68977000D01*
X97200967Y-68977000D01*
X96885088Y-69039832D01*
X96587537Y-69163082D01*
X96319748Y-69342013D01*
X96092013Y-69569748D01*
X95913082Y-69837537D01*
X95789832Y-70135088D01*
X95727000Y-70450967D01*
X94287448Y-70450967D01*
X94237313Y-70329932D01*
X94142802Y-70188487D01*
X94022513Y-70068198D01*
X93881068Y-69973687D01*
X93723903Y-69908587D01*
X93718055Y-69907424D01*
X90989284Y-67178654D01*
X90965422Y-67149578D01*
X90849392Y-67054355D01*
X90717015Y-66983598D01*
X90573378Y-66940026D01*
X90461426Y-66929000D01*
X90461423Y-66929000D01*
X90424000Y-66925314D01*
X90386577Y-66929000D01*
X76360026Y-66929000D01*
X76355068Y-66925687D01*
X76197903Y-66860587D01*
X76031057Y-66827400D01*
X75860943Y-66827400D01*
X75694097Y-66860587D01*
X75536932Y-66925687D01*
X75395487Y-67020198D01*
X75275198Y-67140487D01*
X75180687Y-67281932D01*
X75115587Y-67439097D01*
X75082400Y-67605943D01*
X30746700Y-67605943D01*
X30746700Y-65506945D01*
X75463400Y-65506945D01*
X75463400Y-65677059D01*
X75496587Y-65843905D01*
X75561687Y-66001070D01*
X75656198Y-66142515D01*
X75776487Y-66262804D01*
X75917932Y-66357315D01*
X76075097Y-66422415D01*
X76241943Y-66455602D01*
X76412057Y-66455602D01*
X76578903Y-66422415D01*
X76736068Y-66357315D01*
X76741026Y-66354002D01*
X84865575Y-66354002D01*
X84902998Y-66357688D01*
X84940421Y-66354002D01*
X84940424Y-66354002D01*
X85052376Y-66342976D01*
X85196013Y-66299404D01*
X85328390Y-66228647D01*
X85444420Y-66133424D01*
X85468282Y-66104348D01*
X94480053Y-57092577D01*
X94485903Y-57091413D01*
X94643068Y-57026313D01*
X94784513Y-56931802D01*
X94904802Y-56811513D01*
X94999313Y-56670068D01*
X95064413Y-56512903D01*
X95097600Y-56346057D01*
X95097600Y-56246665D01*
X96665000Y-56246665D01*
X96665000Y-56529335D01*
X96720147Y-56806574D01*
X96828320Y-57067727D01*
X96985363Y-57302759D01*
X97185241Y-57502637D01*
X97420273Y-57659680D01*
X97681426Y-57767853D01*
X97958665Y-57823000D01*
X98241335Y-57823000D01*
X98518574Y-57767853D01*
X98779727Y-57659680D01*
X99014759Y-57502637D01*
X99214637Y-57302759D01*
X99371680Y-57067727D01*
X99479853Y-56806574D01*
X99535000Y-56529335D01*
X99535000Y-56246665D01*
X99479853Y-55969426D01*
X99371680Y-55708273D01*
X99291317Y-55588000D01*
X100161928Y-55588000D01*
X100161928Y-57188000D01*
X100174188Y-57312482D01*
X100210498Y-57432180D01*
X100269463Y-57542494D01*
X100348815Y-57639185D01*
X100445506Y-57718537D01*
X100555820Y-57777502D01*
X100675518Y-57813812D01*
X100800000Y-57826072D01*
X102400000Y-57826072D01*
X102524482Y-57813812D01*
X102644180Y-57777502D01*
X102754494Y-57718537D01*
X102851185Y-57639185D01*
X102930537Y-57542494D01*
X102989502Y-57432180D01*
X103025812Y-57312482D01*
X103038072Y-57188000D01*
X103038072Y-55588000D01*
X103025812Y-55463518D01*
X102989502Y-55343820D01*
X102930537Y-55233506D01*
X102851185Y-55136815D01*
X102754494Y-55057463D01*
X102644180Y-54998498D01*
X102524482Y-54962188D01*
X102400000Y-54949928D01*
X100800000Y-54949928D01*
X100675518Y-54962188D01*
X100555820Y-54998498D01*
X100445506Y-55057463D01*
X100348815Y-55136815D01*
X100269463Y-55233506D01*
X100210498Y-55343820D01*
X100174188Y-55463518D01*
X100161928Y-55588000D01*
X99291317Y-55588000D01*
X99214637Y-55473241D01*
X99014759Y-55273363D01*
X98779727Y-55116320D01*
X98518574Y-55008147D01*
X98241335Y-54953000D01*
X97958665Y-54953000D01*
X97681426Y-55008147D01*
X97420273Y-55116320D01*
X97185241Y-55273363D01*
X96985363Y-55473241D01*
X96828320Y-55708273D01*
X96720147Y-55969426D01*
X96665000Y-56246665D01*
X95097600Y-56246665D01*
X95097600Y-56175943D01*
X95064413Y-56009097D01*
X94999313Y-55851932D01*
X94904802Y-55710487D01*
X94784513Y-55590198D01*
X94643068Y-55495687D01*
X94485903Y-55430587D01*
X94319057Y-55397400D01*
X94148943Y-55397400D01*
X93982097Y-55430587D01*
X93824932Y-55495687D01*
X93683487Y-55590198D01*
X93563198Y-55710487D01*
X93468687Y-55851932D01*
X93403587Y-56009097D01*
X93402423Y-56014947D01*
X84587368Y-64830002D01*
X76741026Y-64830002D01*
X76736068Y-64826689D01*
X76578903Y-64761589D01*
X76412057Y-64728402D01*
X76241943Y-64728402D01*
X76075097Y-64761589D01*
X75917932Y-64826689D01*
X75776487Y-64921200D01*
X75656198Y-65041489D01*
X75561687Y-65182934D01*
X75496587Y-65340099D01*
X75463400Y-65506945D01*
X30746700Y-65506945D01*
X30746700Y-39401801D01*
X30749832Y-39370000D01*
X30746700Y-39338199D01*
X30746700Y-39338191D01*
X30737327Y-39243029D01*
X30700291Y-39120937D01*
X30640148Y-39008417D01*
X30559208Y-38909792D01*
X30534504Y-38889518D01*
X26047700Y-34402715D01*
X26047700Y-33344000D01*
X64313928Y-33344000D01*
X64313928Y-35744000D01*
X64326188Y-35868482D01*
X64362498Y-35988180D01*
X64421463Y-36098494D01*
X64500815Y-36195185D01*
X64597506Y-36274537D01*
X64707820Y-36333502D01*
X64827518Y-36369812D01*
X64952000Y-36382072D01*
X65199500Y-36382072D01*
X65199501Y-62295205D01*
X65194892Y-62342000D01*
X65213283Y-62528722D01*
X65227382Y-62575198D01*
X65267749Y-62708269D01*
X65356195Y-62873741D01*
X65475223Y-63018778D01*
X65511564Y-63048602D01*
X66349406Y-63886445D01*
X66379223Y-63922777D01*
X66415555Y-63952594D01*
X66415562Y-63952601D01*
X66524259Y-64041806D01*
X66689730Y-64130251D01*
X66869277Y-64184717D01*
X67055999Y-64203108D01*
X67056000Y-64203108D01*
X67242722Y-64184717D01*
X67422269Y-64130251D01*
X67587740Y-64041806D01*
X67696437Y-63952601D01*
X67696440Y-63952598D01*
X67732777Y-63922777D01*
X67762598Y-63886440D01*
X70292431Y-61356607D01*
X70328778Y-61326778D01*
X70447806Y-61181741D01*
X70536252Y-61016269D01*
X70590717Y-60836723D01*
X70604500Y-60696785D01*
X70609108Y-60650001D01*
X70604500Y-60603216D01*
X70604500Y-36114496D01*
X70821744Y-35969338D01*
X71077338Y-35713744D01*
X71278156Y-35413199D01*
X71402000Y-35114213D01*
X71525844Y-35413199D01*
X71726662Y-35713744D01*
X71982256Y-35969338D01*
X72282801Y-36170156D01*
X72616750Y-36308482D01*
X72971268Y-36379000D01*
X73332732Y-36379000D01*
X73687250Y-36308482D01*
X74021199Y-36170156D01*
X74321744Y-35969338D01*
X74577338Y-35713744D01*
X74778156Y-35413199D01*
X74902000Y-35114213D01*
X75025844Y-35413199D01*
X75226662Y-35713744D01*
X75482256Y-35969338D01*
X75782801Y-36170156D01*
X76116750Y-36308482D01*
X76471268Y-36379000D01*
X76832732Y-36379000D01*
X77187250Y-36308482D01*
X77521199Y-36170156D01*
X77821744Y-35969338D01*
X78077338Y-35713744D01*
X78278156Y-35413199D01*
X78416482Y-35079250D01*
X78487000Y-34724732D01*
X78487000Y-34363268D01*
X78416482Y-34008750D01*
X78278156Y-33674801D01*
X78120579Y-33438970D01*
X113630613Y-33438970D01*
X113630613Y-33871030D01*
X113714904Y-34294787D01*
X113880246Y-34693958D01*
X114120285Y-35053203D01*
X114425797Y-35358715D01*
X114785042Y-35598754D01*
X115184213Y-35764096D01*
X115607970Y-35848387D01*
X116040030Y-35848387D01*
X116463787Y-35764096D01*
X116862958Y-35598754D01*
X117222203Y-35358715D01*
X117527715Y-35053203D01*
X117767754Y-34693958D01*
X117933096Y-34294787D01*
X118017387Y-33871030D01*
X118017387Y-33438970D01*
X117933096Y-33015213D01*
X117767754Y-32616042D01*
X117527715Y-32256797D01*
X117222203Y-31951285D01*
X116862958Y-31711246D01*
X116463787Y-31545904D01*
X116040030Y-31461613D01*
X115607970Y-31461613D01*
X115184213Y-31545904D01*
X114785042Y-31711246D01*
X114425797Y-31951285D01*
X114120285Y-32256797D01*
X113880246Y-32616042D01*
X113714904Y-33015213D01*
X113630613Y-33438970D01*
X78120579Y-33438970D01*
X78077338Y-33374256D01*
X77821744Y-33118662D01*
X77521199Y-32917844D01*
X77187250Y-32779518D01*
X76832732Y-32709000D01*
X76471268Y-32709000D01*
X76116750Y-32779518D01*
X75782801Y-32917844D01*
X75482256Y-33118662D01*
X75226662Y-33374256D01*
X75025844Y-33674801D01*
X74902000Y-33973787D01*
X74778156Y-33674801D01*
X74577338Y-33374256D01*
X74321744Y-33118662D01*
X74021199Y-32917844D01*
X73687250Y-32779518D01*
X73332732Y-32709000D01*
X72971268Y-32709000D01*
X72616750Y-32779518D01*
X72282801Y-32917844D01*
X71982256Y-33118662D01*
X71726662Y-33374256D01*
X71525844Y-33674801D01*
X71402000Y-33973787D01*
X71278156Y-33674801D01*
X71077338Y-33374256D01*
X70821744Y-33118662D01*
X70521199Y-32917844D01*
X70187250Y-32779518D01*
X69832732Y-32709000D01*
X69471268Y-32709000D01*
X69116750Y-32779518D01*
X68782801Y-32917844D01*
X68482256Y-33118662D01*
X68226662Y-33374256D01*
X68025844Y-33674801D01*
X67990072Y-33761162D01*
X67990072Y-33344000D01*
X67977812Y-33219518D01*
X67941502Y-33099820D01*
X67882537Y-32989506D01*
X67803185Y-32892815D01*
X67706494Y-32813463D01*
X67596180Y-32754498D01*
X67476482Y-32718188D01*
X67352000Y-32705928D01*
X64952000Y-32705928D01*
X64827518Y-32718188D01*
X64707820Y-32754498D01*
X64597506Y-32813463D01*
X64500815Y-32892815D01*
X64421463Y-32989506D01*
X64362498Y-33099820D01*
X64326188Y-33219518D01*
X64313928Y-33344000D01*
X26047700Y-33344000D01*
X26047700Y-29628970D01*
X27905613Y-29628970D01*
X27905613Y-30061030D01*
X27989904Y-30484787D01*
X28155246Y-30883958D01*
X28395285Y-31243203D01*
X28700797Y-31548715D01*
X29060042Y-31788754D01*
X29459213Y-31954096D01*
X29882970Y-32038387D01*
X30315030Y-32038387D01*
X30738787Y-31954096D01*
X31137958Y-31788754D01*
X31497203Y-31548715D01*
X31802715Y-31243203D01*
X32042754Y-30883958D01*
X32208096Y-30484787D01*
X32292387Y-30061030D01*
X32292387Y-29628970D01*
X32208096Y-29205213D01*
X32042754Y-28806042D01*
X31802715Y-28446797D01*
X31497203Y-28141285D01*
X31137958Y-27901246D01*
X30738787Y-27735904D01*
X30315030Y-27651613D01*
X29882970Y-27651613D01*
X29459213Y-27735904D01*
X29060042Y-27901246D01*
X28700797Y-28141285D01*
X28395285Y-28446797D01*
X28155246Y-28806042D01*
X27989904Y-29205213D01*
X27905613Y-29628970D01*
X26047700Y-29628970D01*
X26047700Y-26047700D01*
X34656715Y-26047700D01*
X38889439Y-30280425D01*
X38889439Y-30280425D01*
G37*
X38889439Y-30280425D02*
X38909627Y-30305042D01*
X38934409Y-30325395D01*
X38934499Y-30325485D01*
X38961182Y-30347383D01*
X39008223Y-30386017D01*
X39008322Y-30386070D01*
X39008416Y-30386147D01*
X39065453Y-30416634D01*
X39120721Y-30446201D01*
X39120833Y-30446235D01*
X39120936Y-30446290D01*
X39182162Y-30464863D01*
X39242799Y-30483281D01*
X39242914Y-30483292D01*
X39243028Y-30483327D01*
X39306418Y-30489570D01*
X39337958Y-30492688D01*
X39338076Y-30492688D01*
X39369999Y-30495832D01*
X39401689Y-30492711D01*
X109823078Y-30518088D01*
X109855000Y-30521232D01*
X109918295Y-30514998D01*
X109981741Y-30508772D01*
X109981850Y-30508739D01*
X109981971Y-30508727D01*
X110044430Y-30489780D01*
X110103846Y-30471780D01*
X110103948Y-30471726D01*
X110104062Y-30471691D01*
X110159784Y-30441907D01*
X110216388Y-30411678D01*
X110216482Y-30411601D01*
X110216583Y-30411547D01*
X110265690Y-30371246D01*
X110315042Y-30330773D01*
X110335401Y-30305984D01*
X114593686Y-26047700D01*
X120002301Y-26047700D01*
X120002300Y-37476114D01*
X115388503Y-42089912D01*
X115363792Y-42110192D01*
X115282852Y-42208818D01*
X115222709Y-42321338D01*
X115185673Y-42443430D01*
X115176300Y-42538592D01*
X115176300Y-42538599D01*
X115173168Y-42570400D01*
X115176300Y-42602201D01*
X115176301Y-97097789D01*
X115173168Y-97129600D01*
X115185673Y-97256571D01*
X115222709Y-97378662D01*
X115282853Y-97491183D01*
X115343515Y-97565100D01*
X115343518Y-97565103D01*
X115363793Y-97589808D01*
X115388498Y-97610083D01*
X120002301Y-102223887D01*
X120002300Y-113652300D01*
X114542886Y-113652300D01*
X110310088Y-109419503D01*
X110289808Y-109394792D01*
X110191183Y-109313852D01*
X110078663Y-109253709D01*
X109956571Y-109216673D01*
X109861409Y-109207300D01*
X109861401Y-109207300D01*
X109829600Y-109204168D01*
X109797799Y-109207300D01*
X39427200Y-109207300D01*
X39395399Y-109204168D01*
X39363598Y-109207300D01*
X39363591Y-109207300D01*
X39283252Y-109215213D01*
X39268428Y-109216673D01*
X39231392Y-109227908D01*
X39146337Y-109253709D01*
X39033817Y-109313852D01*
X38935192Y-109394792D01*
X38914917Y-109419497D01*
X34682115Y-113652300D01*
X26047700Y-113652300D01*
X26047700Y-109638970D01*
X27905613Y-109638970D01*
X27905613Y-110071030D01*
X27989904Y-110494787D01*
X28155246Y-110893958D01*
X28395285Y-111253203D01*
X28700797Y-111558715D01*
X29060042Y-111798754D01*
X29459213Y-111964096D01*
X29882970Y-112048387D01*
X30315030Y-112048387D01*
X30738787Y-111964096D01*
X31137958Y-111798754D01*
X31497203Y-111558715D01*
X31802715Y-111253203D01*
X32042754Y-110893958D01*
X32208096Y-110494787D01*
X32292387Y-110071030D01*
X32292387Y-109638970D01*
X32208096Y-109215213D01*
X32042754Y-108816042D01*
X31802715Y-108456797D01*
X31497203Y-108151285D01*
X31137958Y-107911246D01*
X30738787Y-107745904D01*
X30315030Y-107661613D01*
X29882970Y-107661613D01*
X29459213Y-107745904D01*
X29060042Y-107911246D01*
X28700797Y-108151285D01*
X28395285Y-108456797D01*
X28155246Y-108816042D01*
X27989904Y-109215213D01*
X27905613Y-109638970D01*
X26047700Y-109638970D01*
X26047700Y-107098970D01*
X113630613Y-107098970D01*
X113630613Y-107531030D01*
X113714904Y-107954787D01*
X113880246Y-108353958D01*
X114120285Y-108713203D01*
X114425797Y-109018715D01*
X114785042Y-109258754D01*
X115184213Y-109424096D01*
X115607970Y-109508387D01*
X116040030Y-109508387D01*
X116463787Y-109424096D01*
X116862958Y-109258754D01*
X117222203Y-109018715D01*
X117527715Y-108713203D01*
X117767754Y-108353958D01*
X117933096Y-107954787D01*
X118017387Y-107531030D01*
X118017387Y-107098970D01*
X117933096Y-106675213D01*
X117767754Y-106276042D01*
X117527715Y-105916797D01*
X117222203Y-105611285D01*
X116862958Y-105371246D01*
X116463787Y-105205904D01*
X116040030Y-105121613D01*
X115607970Y-105121613D01*
X115184213Y-105205904D01*
X114785042Y-105371246D01*
X114425797Y-105611285D01*
X114120285Y-105916797D01*
X113880246Y-106276042D01*
X113714904Y-106675213D01*
X113630613Y-107098970D01*
X26047700Y-107098970D01*
X26047700Y-105297285D01*
X30534503Y-100810483D01*
X30559208Y-100790208D01*
X30640148Y-100691583D01*
X30700291Y-100579063D01*
X30737327Y-100456971D01*
X30746700Y-100361809D01*
X30746700Y-100361801D01*
X30749832Y-100330000D01*
X30746700Y-100298199D01*
X30746700Y-93218000D01*
X50196815Y-93218000D01*
X50225487Y-93509111D01*
X50310401Y-93789034D01*
X50448294Y-94047014D01*
X50633866Y-94273134D01*
X50859986Y-94458706D01*
X51117966Y-94596599D01*
X51397889Y-94681513D01*
X51616050Y-94703000D01*
X51761950Y-94703000D01*
X51980111Y-94681513D01*
X52260034Y-94596599D01*
X52518014Y-94458706D01*
X52744134Y-94273134D01*
X52929706Y-94047014D01*
X52959000Y-93992209D01*
X52988294Y-94047014D01*
X53173866Y-94273134D01*
X53399986Y-94458706D01*
X53657966Y-94596599D01*
X53937889Y-94681513D01*
X54156050Y-94703000D01*
X54301950Y-94703000D01*
X54520111Y-94681513D01*
X54800034Y-94596599D01*
X55058014Y-94458706D01*
X55284134Y-94273134D01*
X55469706Y-94047014D01*
X55499000Y-93992209D01*
X55528294Y-94047014D01*
X55713866Y-94273134D01*
X55939986Y-94458706D01*
X56197966Y-94596599D01*
X56477889Y-94681513D01*
X56696050Y-94703000D01*
X56841950Y-94703000D01*
X57060111Y-94681513D01*
X57340034Y-94596599D01*
X57598014Y-94458706D01*
X57824134Y-94273134D01*
X58009706Y-94047014D01*
X58039000Y-93992209D01*
X58068294Y-94047014D01*
X58253866Y-94273134D01*
X58479986Y-94458706D01*
X58737966Y-94596599D01*
X59017889Y-94681513D01*
X59236050Y-94703000D01*
X59381950Y-94703000D01*
X59600111Y-94681513D01*
X59880034Y-94596599D01*
X60138014Y-94458706D01*
X60364134Y-94273134D01*
X60549706Y-94047014D01*
X60579000Y-93992209D01*
X60608294Y-94047014D01*
X60793866Y-94273134D01*
X61019986Y-94458706D01*
X61277966Y-94596599D01*
X61557889Y-94681513D01*
X61776050Y-94703000D01*
X61921950Y-94703000D01*
X62140111Y-94681513D01*
X62420034Y-94596599D01*
X62678014Y-94458706D01*
X62904134Y-94273134D01*
X63089706Y-94047014D01*
X63119000Y-93992209D01*
X63148294Y-94047014D01*
X63333866Y-94273134D01*
X63559986Y-94458706D01*
X63817966Y-94596599D01*
X64097889Y-94681513D01*
X64316050Y-94703000D01*
X64461950Y-94703000D01*
X64680111Y-94681513D01*
X64960034Y-94596599D01*
X65218014Y-94458706D01*
X65444134Y-94273134D01*
X65629706Y-94047014D01*
X65659000Y-93992209D01*
X65688294Y-94047014D01*
X65873866Y-94273134D01*
X66099986Y-94458706D01*
X66357966Y-94596599D01*
X66637889Y-94681513D01*
X66856050Y-94703000D01*
X67001950Y-94703000D01*
X67220111Y-94681513D01*
X67500034Y-94596599D01*
X67758014Y-94458706D01*
X67984134Y-94273134D01*
X68169706Y-94047014D01*
X68199000Y-93992209D01*
X68228294Y-94047014D01*
X68413866Y-94273134D01*
X68639986Y-94458706D01*
X68897966Y-94596599D01*
X69177889Y-94681513D01*
X69396050Y-94703000D01*
X69541950Y-94703000D01*
X69760111Y-94681513D01*
X70040034Y-94596599D01*
X70298014Y-94458706D01*
X70524134Y-94273134D01*
X70709706Y-94047014D01*
X70739000Y-93992209D01*
X70768294Y-94047014D01*
X70953866Y-94273134D01*
X71179986Y-94458706D01*
X71437966Y-94596599D01*
X71717889Y-94681513D01*
X71936050Y-94703000D01*
X72081950Y-94703000D01*
X72300111Y-94681513D01*
X72580034Y-94596599D01*
X72838014Y-94458706D01*
X73064134Y-94273134D01*
X73249706Y-94047014D01*
X73284201Y-93982477D01*
X73353822Y-94099355D01*
X73548731Y-94315588D01*
X73782080Y-94489641D01*
X74044901Y-94614825D01*
X74192110Y-94659476D01*
X74422000Y-94538155D01*
X74422000Y-93345000D01*
X74402000Y-93345000D01*
X74402000Y-93091000D01*
X74422000Y-93091000D01*
X74422000Y-93071000D01*
X74676000Y-93071000D01*
X74676000Y-93091000D01*
X74696000Y-93091000D01*
X74696000Y-93345000D01*
X74676000Y-93345000D01*
X74676000Y-94538155D01*
X74905890Y-94659476D01*
X75053099Y-94614825D01*
X75315920Y-94489641D01*
X75549269Y-94315588D01*
X75625034Y-94231534D01*
X75649498Y-94312180D01*
X75708463Y-94422494D01*
X75787815Y-94519185D01*
X75884506Y-94598537D01*
X75994820Y-94657502D01*
X76114518Y-94693812D01*
X76239000Y-94706072D01*
X77939000Y-94706072D01*
X78063482Y-94693812D01*
X78183180Y-94657502D01*
X78293494Y-94598537D01*
X78390185Y-94519185D01*
X78469537Y-94422494D01*
X78528502Y-94312180D01*
X78564812Y-94192482D01*
X78577072Y-94068000D01*
X78577072Y-92368000D01*
X78564812Y-92243518D01*
X78528502Y-92123820D01*
X78469537Y-92013506D01*
X78390185Y-91916815D01*
X78293494Y-91837463D01*
X78183180Y-91778498D01*
X78063482Y-91742188D01*
X77939000Y-91729928D01*
X76947967Y-91729928D01*
X64833500Y-79615462D01*
X64833500Y-78566215D01*
X64819717Y-78426277D01*
X64765252Y-78246731D01*
X64676806Y-78081259D01*
X64557778Y-77936222D01*
X64412741Y-77817194D01*
X64247268Y-77728748D01*
X64067722Y-77674283D01*
X63881000Y-77655892D01*
X63694277Y-77674283D01*
X63514731Y-77728748D01*
X63349259Y-77817194D01*
X63204222Y-77936222D01*
X63085194Y-78081259D01*
X62996748Y-78246732D01*
X62942283Y-78426278D01*
X62928500Y-78566216D01*
X62928501Y-79963206D01*
X62923892Y-80010000D01*
X62942283Y-80196722D01*
X62996749Y-80376269D01*
X63085195Y-80541741D01*
X63204223Y-80686778D01*
X63240564Y-80716602D01*
X74421590Y-91897628D01*
X74192110Y-91776524D01*
X74044901Y-91821175D01*
X73782080Y-91946359D01*
X73548731Y-92120412D01*
X73353822Y-92336645D01*
X73284201Y-92453523D01*
X73249706Y-92388986D01*
X73064134Y-92162866D01*
X72838014Y-91977294D01*
X72580034Y-91839401D01*
X72300111Y-91754487D01*
X72081950Y-91733000D01*
X71936050Y-91733000D01*
X71717889Y-91754487D01*
X71437966Y-91839401D01*
X71179986Y-91977294D01*
X70953866Y-92162866D01*
X70768294Y-92388986D01*
X70739000Y-92443791D01*
X70709706Y-92388986D01*
X70524134Y-92162866D01*
X70298014Y-91977294D01*
X70231000Y-91941474D01*
X70231000Y-89441026D01*
X70234313Y-89436068D01*
X70299413Y-89278903D01*
X70332600Y-89112057D01*
X70332600Y-88941943D01*
X70299413Y-88775097D01*
X70234313Y-88617932D01*
X70139802Y-88476487D01*
X70019513Y-88356198D01*
X69878068Y-88261687D01*
X69720903Y-88196587D01*
X69554057Y-88163400D01*
X69383943Y-88163400D01*
X69217097Y-88196587D01*
X69059932Y-88261687D01*
X68918487Y-88356198D01*
X68798198Y-88476487D01*
X68703687Y-88617932D01*
X68638587Y-88775097D01*
X68605400Y-88941943D01*
X68605400Y-89112057D01*
X68638587Y-89278903D01*
X68703687Y-89436068D01*
X68707001Y-89441027D01*
X68707000Y-90080425D01*
X68707001Y-90080435D01*
X68707000Y-91941474D01*
X68639986Y-91977294D01*
X68413866Y-92162866D01*
X68228294Y-92388986D01*
X68199000Y-92443791D01*
X68169706Y-92388986D01*
X67984134Y-92162866D01*
X67758014Y-91977294D01*
X67500034Y-91839401D01*
X67220111Y-91754487D01*
X67001950Y-91733000D01*
X66856050Y-91733000D01*
X66637889Y-91754487D01*
X66357966Y-91839401D01*
X66099986Y-91977294D01*
X65873866Y-92162866D01*
X65688294Y-92388986D01*
X65659000Y-92443791D01*
X65629706Y-92388986D01*
X65444134Y-92162866D01*
X65218014Y-91977294D01*
X64960034Y-91839401D01*
X64680111Y-91754487D01*
X64461950Y-91733000D01*
X64316050Y-91733000D01*
X64097889Y-91754487D01*
X63817966Y-91839401D01*
X63559986Y-91977294D01*
X63333866Y-92162866D01*
X63148294Y-92388986D01*
X63119000Y-92443791D01*
X63089706Y-92388986D01*
X62904134Y-92162866D01*
X62678014Y-91977294D01*
X62420034Y-91839401D01*
X62140111Y-91754487D01*
X61921950Y-91733000D01*
X61776050Y-91733000D01*
X61557889Y-91754487D01*
X61277966Y-91839401D01*
X61019986Y-91977294D01*
X60793866Y-92162866D01*
X60608294Y-92388986D01*
X60579000Y-92443791D01*
X60549706Y-92388986D01*
X60364134Y-92162866D01*
X60138014Y-91977294D01*
X59880034Y-91839401D01*
X59600111Y-91754487D01*
X59381950Y-91733000D01*
X59236050Y-91733000D01*
X59017889Y-91754487D01*
X58737966Y-91839401D01*
X58479986Y-91977294D01*
X58253866Y-92162866D01*
X58068294Y-92388986D01*
X58039000Y-92443791D01*
X58009706Y-92388986D01*
X57824134Y-92162866D01*
X57598014Y-91977294D01*
X57340034Y-91839401D01*
X57060111Y-91754487D01*
X56841950Y-91733000D01*
X56696050Y-91733000D01*
X56477889Y-91754487D01*
X56197966Y-91839401D01*
X55939986Y-91977294D01*
X55713866Y-92162866D01*
X55528294Y-92388986D01*
X55499000Y-92443791D01*
X55469706Y-92388986D01*
X55284134Y-92162866D01*
X55058014Y-91977294D01*
X54800034Y-91839401D01*
X54520111Y-91754487D01*
X54301950Y-91733000D01*
X54156050Y-91733000D01*
X53937889Y-91754487D01*
X53657966Y-91839401D01*
X53399986Y-91977294D01*
X53173866Y-92162866D01*
X52988294Y-92388986D01*
X52959000Y-92443791D01*
X52929706Y-92388986D01*
X52744134Y-92162866D01*
X52518014Y-91977294D01*
X52260034Y-91839401D01*
X51980111Y-91754487D01*
X51761950Y-91733000D01*
X51616050Y-91733000D01*
X51397889Y-91754487D01*
X51117966Y-91839401D01*
X50859986Y-91977294D01*
X50633866Y-92162866D01*
X50448294Y-92388986D01*
X50310401Y-92646966D01*
X50225487Y-92926889D01*
X50196815Y-93218000D01*
X30746700Y-93218000D01*
X30746700Y-67605943D01*
X75082400Y-67605943D01*
X75082400Y-67776057D01*
X75115587Y-67942903D01*
X75180687Y-68100068D01*
X75275198Y-68241513D01*
X75395487Y-68361802D01*
X75536932Y-68456313D01*
X75694097Y-68521413D01*
X75860943Y-68554600D01*
X76031057Y-68554600D01*
X76197903Y-68521413D01*
X76355068Y-68456313D01*
X76360026Y-68453000D01*
X90108370Y-68453000D01*
X92640424Y-70985055D01*
X92641587Y-70990903D01*
X92706687Y-71148068D01*
X92801198Y-71289513D01*
X92921487Y-71409802D01*
X93062932Y-71504313D01*
X93220097Y-71569413D01*
X93386943Y-71602600D01*
X93557057Y-71602600D01*
X93723903Y-71569413D01*
X93881068Y-71504313D01*
X94022513Y-71409802D01*
X94142802Y-71289513D01*
X94237313Y-71148068D01*
X94302413Y-70990903D01*
X94335600Y-70824057D01*
X94335600Y-70653943D01*
X94302413Y-70487097D01*
X94287448Y-70450967D01*
X95727000Y-70450967D01*
X95727000Y-70773033D01*
X95789832Y-71088912D01*
X95913082Y-71386463D01*
X96092013Y-71654252D01*
X96319748Y-71881987D01*
X96587537Y-72060918D01*
X96885088Y-72184168D01*
X97200967Y-72247000D01*
X97523033Y-72247000D01*
X97838912Y-72184168D01*
X98136463Y-72060918D01*
X98404252Y-71881987D01*
X98631987Y-71654252D01*
X98810918Y-71386463D01*
X98934168Y-71088912D01*
X98997000Y-70773033D01*
X98997000Y-70450967D01*
X98934168Y-70135088D01*
X98810918Y-69837537D01*
X98660219Y-69612000D01*
X100723928Y-69612000D01*
X100723928Y-71612000D01*
X100736188Y-71736482D01*
X100772498Y-71856180D01*
X100831463Y-71966494D01*
X100910815Y-72063185D01*
X101007506Y-72142537D01*
X101117820Y-72201502D01*
X101237518Y-72237812D01*
X101362000Y-72250072D01*
X103362000Y-72250072D01*
X103486482Y-72237812D01*
X103606180Y-72201502D01*
X103716494Y-72142537D01*
X103813185Y-72063185D01*
X103892537Y-71966494D01*
X103951502Y-71856180D01*
X103987812Y-71736482D01*
X104000072Y-71612000D01*
X104000072Y-69612000D01*
X103987812Y-69487518D01*
X103951502Y-69367820D01*
X103892537Y-69257506D01*
X103813185Y-69160815D01*
X103716494Y-69081463D01*
X103606180Y-69022498D01*
X103486482Y-68986188D01*
X103362000Y-68973928D01*
X101362000Y-68973928D01*
X101237518Y-68986188D01*
X101117820Y-69022498D01*
X101007506Y-69081463D01*
X100910815Y-69160815D01*
X100831463Y-69257506D01*
X100772498Y-69367820D01*
X100736188Y-69487518D01*
X100723928Y-69612000D01*
X98660219Y-69612000D01*
X98631987Y-69569748D01*
X98404252Y-69342013D01*
X98136463Y-69163082D01*
X97838912Y-69039832D01*
X97523033Y-68977000D01*
X97200967Y-68977000D01*
X96885088Y-69039832D01*
X96587537Y-69163082D01*
X96319748Y-69342013D01*
X96092013Y-69569748D01*
X95913082Y-69837537D01*
X95789832Y-70135088D01*
X95727000Y-70450967D01*
X94287448Y-70450967D01*
X94237313Y-70329932D01*
X94142802Y-70188487D01*
X94022513Y-70068198D01*
X93881068Y-69973687D01*
X93723903Y-69908587D01*
X93718055Y-69907424D01*
X90989284Y-67178654D01*
X90965422Y-67149578D01*
X90849392Y-67054355D01*
X90717015Y-66983598D01*
X90573378Y-66940026D01*
X90461426Y-66929000D01*
X90461423Y-66929000D01*
X90424000Y-66925314D01*
X90386577Y-66929000D01*
X76360026Y-66929000D01*
X76355068Y-66925687D01*
X76197903Y-66860587D01*
X76031057Y-66827400D01*
X75860943Y-66827400D01*
X75694097Y-66860587D01*
X75536932Y-66925687D01*
X75395487Y-67020198D01*
X75275198Y-67140487D01*
X75180687Y-67281932D01*
X75115587Y-67439097D01*
X75082400Y-67605943D01*
X30746700Y-67605943D01*
X30746700Y-65506945D01*
X75463400Y-65506945D01*
X75463400Y-65677059D01*
X75496587Y-65843905D01*
X75561687Y-66001070D01*
X75656198Y-66142515D01*
X75776487Y-66262804D01*
X75917932Y-66357315D01*
X76075097Y-66422415D01*
X76241943Y-66455602D01*
X76412057Y-66455602D01*
X76578903Y-66422415D01*
X76736068Y-66357315D01*
X76741026Y-66354002D01*
X84865575Y-66354002D01*
X84902998Y-66357688D01*
X84940421Y-66354002D01*
X84940424Y-66354002D01*
X85052376Y-66342976D01*
X85196013Y-66299404D01*
X85328390Y-66228647D01*
X85444420Y-66133424D01*
X85468282Y-66104348D01*
X94480053Y-57092577D01*
X94485903Y-57091413D01*
X94643068Y-57026313D01*
X94784513Y-56931802D01*
X94904802Y-56811513D01*
X94999313Y-56670068D01*
X95064413Y-56512903D01*
X95097600Y-56346057D01*
X95097600Y-56246665D01*
X96665000Y-56246665D01*
X96665000Y-56529335D01*
X96720147Y-56806574D01*
X96828320Y-57067727D01*
X96985363Y-57302759D01*
X97185241Y-57502637D01*
X97420273Y-57659680D01*
X97681426Y-57767853D01*
X97958665Y-57823000D01*
X98241335Y-57823000D01*
X98518574Y-57767853D01*
X98779727Y-57659680D01*
X99014759Y-57502637D01*
X99214637Y-57302759D01*
X99371680Y-57067727D01*
X99479853Y-56806574D01*
X99535000Y-56529335D01*
X99535000Y-56246665D01*
X99479853Y-55969426D01*
X99371680Y-55708273D01*
X99291317Y-55588000D01*
X100161928Y-55588000D01*
X100161928Y-57188000D01*
X100174188Y-57312482D01*
X100210498Y-57432180D01*
X100269463Y-57542494D01*
X100348815Y-57639185D01*
X100445506Y-57718537D01*
X100555820Y-57777502D01*
X100675518Y-57813812D01*
X100800000Y-57826072D01*
X102400000Y-57826072D01*
X102524482Y-57813812D01*
X102644180Y-57777502D01*
X102754494Y-57718537D01*
X102851185Y-57639185D01*
X102930537Y-57542494D01*
X102989502Y-57432180D01*
X103025812Y-57312482D01*
X103038072Y-57188000D01*
X103038072Y-55588000D01*
X103025812Y-55463518D01*
X102989502Y-55343820D01*
X102930537Y-55233506D01*
X102851185Y-55136815D01*
X102754494Y-55057463D01*
X102644180Y-54998498D01*
X102524482Y-54962188D01*
X102400000Y-54949928D01*
X100800000Y-54949928D01*
X100675518Y-54962188D01*
X100555820Y-54998498D01*
X100445506Y-55057463D01*
X100348815Y-55136815D01*
X100269463Y-55233506D01*
X100210498Y-55343820D01*
X100174188Y-55463518D01*
X100161928Y-55588000D01*
X99291317Y-55588000D01*
X99214637Y-55473241D01*
X99014759Y-55273363D01*
X98779727Y-55116320D01*
X98518574Y-55008147D01*
X98241335Y-54953000D01*
X97958665Y-54953000D01*
X97681426Y-55008147D01*
X97420273Y-55116320D01*
X97185241Y-55273363D01*
X96985363Y-55473241D01*
X96828320Y-55708273D01*
X96720147Y-55969426D01*
X96665000Y-56246665D01*
X95097600Y-56246665D01*
X95097600Y-56175943D01*
X95064413Y-56009097D01*
X94999313Y-55851932D01*
X94904802Y-55710487D01*
X94784513Y-55590198D01*
X94643068Y-55495687D01*
X94485903Y-55430587D01*
X94319057Y-55397400D01*
X94148943Y-55397400D01*
X93982097Y-55430587D01*
X93824932Y-55495687D01*
X93683487Y-55590198D01*
X93563198Y-55710487D01*
X93468687Y-55851932D01*
X93403587Y-56009097D01*
X93402423Y-56014947D01*
X84587368Y-64830002D01*
X76741026Y-64830002D01*
X76736068Y-64826689D01*
X76578903Y-64761589D01*
X76412057Y-64728402D01*
X76241943Y-64728402D01*
X76075097Y-64761589D01*
X75917932Y-64826689D01*
X75776487Y-64921200D01*
X75656198Y-65041489D01*
X75561687Y-65182934D01*
X75496587Y-65340099D01*
X75463400Y-65506945D01*
X30746700Y-65506945D01*
X30746700Y-39401801D01*
X30749832Y-39370000D01*
X30746700Y-39338199D01*
X30746700Y-39338191D01*
X30737327Y-39243029D01*
X30700291Y-39120937D01*
X30640148Y-39008417D01*
X30559208Y-38909792D01*
X30534504Y-38889518D01*
X26047700Y-34402715D01*
X26047700Y-33344000D01*
X64313928Y-33344000D01*
X64313928Y-35744000D01*
X64326188Y-35868482D01*
X64362498Y-35988180D01*
X64421463Y-36098494D01*
X64500815Y-36195185D01*
X64597506Y-36274537D01*
X64707820Y-36333502D01*
X64827518Y-36369812D01*
X64952000Y-36382072D01*
X65199500Y-36382072D01*
X65199501Y-62295205D01*
X65194892Y-62342000D01*
X65213283Y-62528722D01*
X65227382Y-62575198D01*
X65267749Y-62708269D01*
X65356195Y-62873741D01*
X65475223Y-63018778D01*
X65511564Y-63048602D01*
X66349406Y-63886445D01*
X66379223Y-63922777D01*
X66415555Y-63952594D01*
X66415562Y-63952601D01*
X66524259Y-64041806D01*
X66689730Y-64130251D01*
X66869277Y-64184717D01*
X67055999Y-64203108D01*
X67056000Y-64203108D01*
X67242722Y-64184717D01*
X67422269Y-64130251D01*
X67587740Y-64041806D01*
X67696437Y-63952601D01*
X67696440Y-63952598D01*
X67732777Y-63922777D01*
X67762598Y-63886440D01*
X70292431Y-61356607D01*
X70328778Y-61326778D01*
X70447806Y-61181741D01*
X70536252Y-61016269D01*
X70590717Y-60836723D01*
X70604500Y-60696785D01*
X70609108Y-60650001D01*
X70604500Y-60603216D01*
X70604500Y-36114496D01*
X70821744Y-35969338D01*
X71077338Y-35713744D01*
X71278156Y-35413199D01*
X71402000Y-35114213D01*
X71525844Y-35413199D01*
X71726662Y-35713744D01*
X71982256Y-35969338D01*
X72282801Y-36170156D01*
X72616750Y-36308482D01*
X72971268Y-36379000D01*
X73332732Y-36379000D01*
X73687250Y-36308482D01*
X74021199Y-36170156D01*
X74321744Y-35969338D01*
X74577338Y-35713744D01*
X74778156Y-35413199D01*
X74902000Y-35114213D01*
X75025844Y-35413199D01*
X75226662Y-35713744D01*
X75482256Y-35969338D01*
X75782801Y-36170156D01*
X76116750Y-36308482D01*
X76471268Y-36379000D01*
X76832732Y-36379000D01*
X77187250Y-36308482D01*
X77521199Y-36170156D01*
X77821744Y-35969338D01*
X78077338Y-35713744D01*
X78278156Y-35413199D01*
X78416482Y-35079250D01*
X78487000Y-34724732D01*
X78487000Y-34363268D01*
X78416482Y-34008750D01*
X78278156Y-33674801D01*
X78120579Y-33438970D01*
X113630613Y-33438970D01*
X113630613Y-33871030D01*
X113714904Y-34294787D01*
X113880246Y-34693958D01*
X114120285Y-35053203D01*
X114425797Y-35358715D01*
X114785042Y-35598754D01*
X115184213Y-35764096D01*
X115607970Y-35848387D01*
X116040030Y-35848387D01*
X116463787Y-35764096D01*
X116862958Y-35598754D01*
X117222203Y-35358715D01*
X117527715Y-35053203D01*
X117767754Y-34693958D01*
X117933096Y-34294787D01*
X118017387Y-33871030D01*
X118017387Y-33438970D01*
X117933096Y-33015213D01*
X117767754Y-32616042D01*
X117527715Y-32256797D01*
X117222203Y-31951285D01*
X116862958Y-31711246D01*
X116463787Y-31545904D01*
X116040030Y-31461613D01*
X115607970Y-31461613D01*
X115184213Y-31545904D01*
X114785042Y-31711246D01*
X114425797Y-31951285D01*
X114120285Y-32256797D01*
X113880246Y-32616042D01*
X113714904Y-33015213D01*
X113630613Y-33438970D01*
X78120579Y-33438970D01*
X78077338Y-33374256D01*
X77821744Y-33118662D01*
X77521199Y-32917844D01*
X77187250Y-32779518D01*
X76832732Y-32709000D01*
X76471268Y-32709000D01*
X76116750Y-32779518D01*
X75782801Y-32917844D01*
X75482256Y-33118662D01*
X75226662Y-33374256D01*
X75025844Y-33674801D01*
X74902000Y-33973787D01*
X74778156Y-33674801D01*
X74577338Y-33374256D01*
X74321744Y-33118662D01*
X74021199Y-32917844D01*
X73687250Y-32779518D01*
X73332732Y-32709000D01*
X72971268Y-32709000D01*
X72616750Y-32779518D01*
X72282801Y-32917844D01*
X71982256Y-33118662D01*
X71726662Y-33374256D01*
X71525844Y-33674801D01*
X71402000Y-33973787D01*
X71278156Y-33674801D01*
X71077338Y-33374256D01*
X70821744Y-33118662D01*
X70521199Y-32917844D01*
X70187250Y-32779518D01*
X69832732Y-32709000D01*
X69471268Y-32709000D01*
X69116750Y-32779518D01*
X68782801Y-32917844D01*
X68482256Y-33118662D01*
X68226662Y-33374256D01*
X68025844Y-33674801D01*
X67990072Y-33761162D01*
X67990072Y-33344000D01*
X67977812Y-33219518D01*
X67941502Y-33099820D01*
X67882537Y-32989506D01*
X67803185Y-32892815D01*
X67706494Y-32813463D01*
X67596180Y-32754498D01*
X67476482Y-32718188D01*
X67352000Y-32705928D01*
X64952000Y-32705928D01*
X64827518Y-32718188D01*
X64707820Y-32754498D01*
X64597506Y-32813463D01*
X64500815Y-32892815D01*
X64421463Y-32989506D01*
X64362498Y-33099820D01*
X64326188Y-33219518D01*
X64313928Y-33344000D01*
X26047700Y-33344000D01*
X26047700Y-29628970D01*
X27905613Y-29628970D01*
X27905613Y-30061030D01*
X27989904Y-30484787D01*
X28155246Y-30883958D01*
X28395285Y-31243203D01*
X28700797Y-31548715D01*
X29060042Y-31788754D01*
X29459213Y-31954096D01*
X29882970Y-32038387D01*
X30315030Y-32038387D01*
X30738787Y-31954096D01*
X31137958Y-31788754D01*
X31497203Y-31548715D01*
X31802715Y-31243203D01*
X32042754Y-30883958D01*
X32208096Y-30484787D01*
X32292387Y-30061030D01*
X32292387Y-29628970D01*
X32208096Y-29205213D01*
X32042754Y-28806042D01*
X31802715Y-28446797D01*
X31497203Y-28141285D01*
X31137958Y-27901246D01*
X30738787Y-27735904D01*
X30315030Y-27651613D01*
X29882970Y-27651613D01*
X29459213Y-27735904D01*
X29060042Y-27901246D01*
X28700797Y-28141285D01*
X28395285Y-28446797D01*
X28155246Y-28806042D01*
X27989904Y-29205213D01*
X27905613Y-29628970D01*
X26047700Y-29628970D01*
X26047700Y-26047700D01*
X34656715Y-26047700D01*
X38889439Y-30280425D01*
M02*
